<?xml version="1.0" encoding="UTF-8" standalone="no"?>
<!DOCTYPE svg PUBLIC "-//W3C//DTD SVG 1.1//EN"
 "http://www.w3.org/Graphics/SVG/1.1/DTD/svg11.dtd">
<!-- Generated by graphviz version 12.2.1 (0)
 -->
<!-- Title: kokin Pages: 1 -->
<svg width="2075pt" height="1172pt"
 viewBox="0.00 0.00 2075.00 1172.00" xmlns="http://www.w3.org/2000/svg" xmlns:xlink="http://www.w3.org/1999/xlink">
<g id="graph0" class="graph" transform="scale(1 1) rotate(0) translate(4 1168)">
<title>kokin</title>
<polygon fill="#faf9f7" stroke="none" points="-4,4 -4,-1168 2071,-1168 2071,4 -4,4"/>
<g id="clust1" class="cluster">
<title>cluster_body</title>
<path fill="#eef4fb" stroke="#7aaad0" d="M20,-738C20,-738 1828,-738 1828,-738 1834,-738 1840,-744 1840,-750 1840,-750 1840,-1144 1840,-1144 1840,-1150 1834,-1156 1828,-1156 1828,-1156 20,-1156 20,-1156 14,-1156 8,-1150 8,-1144 8,-1144 8,-750 8,-750 8,-744 14,-738 20,-738"/>
<text text-anchor="middle" x="924" y="-1140.6" font-family="Helvetica,sans-Serif" font-size="12.00">&lt;body&gt;</text>
</g>
<g id="clust2" class="cluster">
<title>cluster_back</title>
<path fill="#f5f5f0" stroke="#888877" d="M810.62,-45C810.62,-45 2047,-45 2047,-45 2053,-45 2059,-51 2059,-57 2059,-57 2059,-718 2059,-718 2059,-724 2053,-730 2047,-730 2047,-730 810.62,-730 810.62,-730 804.62,-730 798.62,-724 798.62,-718 798.62,-718 798.62,-57 798.62,-57 798.62,-51 804.62,-45 810.62,-45"/>
<text text-anchor="middle" x="1428.81" y="-714.6" font-family="Helvetica,sans-Serif" font-size="12.00">&lt;back&gt;</text>
</g>
<g id="clust3" class="cluster">
<title>cluster_ri</title>
<path fill="#f0f7ee" stroke="#88bb77" d="M818.62,-76C818.62,-76 1072,-76 1072,-76 1078,-76 1084,-82 1084,-88 1084,-88 1084,-247 1084,-247 1084,-253 1078,-259 1072,-259 1072,-259 818.62,-259 818.62,-259 812.62,-259 806.62,-253 806.62,-247 806.62,-247 806.62,-88 806.62,-88 806.62,-82 812.62,-76 818.62,-76"/>
<text text-anchor="middle" x="945.31" y="-245.5" font-family="Helvetica,sans-Serif" font-size="10.00">reading&#45;index</text>
</g>
<g id="clust4" class="cluster">
<title>cluster_dict</title>
<path fill="#fef9ec" stroke="#ccaa44" d="M1000,-267C1000,-267 1318.25,-267 1318.25,-267 1324.25,-267 1330.25,-273 1330.25,-279 1330.25,-279 1330.25,-689 1330.25,-689 1330.25,-695 1324.25,-701 1318.25,-701 1318.25,-701 1000,-701 1000,-701 994,-701 988,-695 988,-689 988,-689 988,-279 988,-279 988,-273 994,-267 1000,-267"/>
<text text-anchor="middle" x="1159.12" y="-687.5" font-family="Helvetica,sans-Serif" font-size="10.00">dictionary</text>
</g>
<g id="clust5" class="cluster">
<title>cluster_cls</title>
<path fill="#fdf0f0" stroke="#cc8888" d="M1427.25,-482C1427.25,-482 1619.25,-482 1619.25,-482 1625.25,-482 1631.25,-488 1631.25,-494 1631.25,-494 1631.25,-689 1631.25,-689 1631.25,-695 1625.25,-701 1619.25,-701 1619.25,-701 1427.25,-701 1427.25,-701 1421.25,-701 1415.25,-695 1415.25,-689 1415.25,-689 1415.25,-494 1415.25,-494 1415.25,-488 1421.25,-482 1427.25,-482"/>
<text text-anchor="middle" x="1523.25" y="-687.5" font-family="Helvetica,sans-Serif" font-size="10.00">classification</text>
</g>
<g id="clust6" class="cluster">
<title>cluster_person</title>
<path fill="#f5f0fb" stroke="#9977cc" d="M1728.25,-442C1728.25,-442 1876.75,-442 1876.75,-442 1882.75,-442 1888.75,-448 1888.75,-454 1888.75,-454 1888.75,-623 1888.75,-623 1888.75,-629 1882.75,-635 1876.75,-635 1876.75,-635 1728.25,-635 1728.25,-635 1722.25,-635 1716.25,-629 1716.25,-623 1716.25,-623 1716.25,-454 1716.25,-454 1716.25,-448 1722.25,-442 1728.25,-442"/>
<text text-anchor="middle" x="1802.5" y="-621.5" font-family="Helvetica,sans-Serif" font-size="10.00">listPerson</text>
</g>
<g id="clust7" class="cluster">
<title>cluster_facs</title>
<path fill="#f7f0ea" stroke="#bb9966" d="M1985.75,-502C1985.75,-502 2039,-502 2039,-502 2045,-502 2051,-508 2051,-514 2051,-514 2051,-564 2051,-564 2051,-570 2045,-576 2039,-576 2039,-576 1985.75,-576 1985.75,-576 1979.75,-576 1973.75,-570 1973.75,-564 1973.75,-564 1973.75,-514 1973.75,-514 1973.75,-508 1979.75,-502 1985.75,-502"/>
<text text-anchor="middle" x="2012.38" y="-562.5" font-family="Helvetica,sans-Serif" font-size="10.00">facsimile</text>
</g>
<!-- b_div -->
<g id="node1" class="node">
<title>b_div</title>
<polygon fill="#7aaad0" stroke="none" points="16,-999.38 16,-1018.62 80.25,-1018.62 80.25,-999.38 16,-999.38"/>
<polygon fill="none" stroke="black" points="16,-999.38 16,-1018.62 80.25,-1018.62 80.25,-999.38 16,-999.38"/>
<text text-anchor="start" x="35" y="-1006.12" font-family="Helvetica,sans-Serif" font-weight="bold" font-size="10.00">&lt;div&gt;</text>
<polygon fill="none" stroke="black" points="16,-979.38 16,-999.38 80.25,-999.38 80.25,-979.38 16,-979.38"/>
<text text-anchor="start" x="20" y="-985.88" font-family="Helvetica,sans-Serif" font-size="10.00">type: 部立</text>
<polygon fill="none" stroke="black" points="16,-959.38 16,-979.38 80.25,-979.38 80.25,-959.38 16,-959.38"/>
<text text-anchor="start" x="20" y="-965.88" font-family="Helvetica,sans-Serif" font-size="10.00">head: 春哥上</text>
</g>
<!-- b_note_d -->
<g id="node2" class="node">
<title>b_note_d</title>
<polygon fill="#7aaad0" stroke="none" points="181.25,-889.69 181.25,-908.94 349.75,-908.94 349.75,-889.69 181.25,-889.69"/>
<polygon fill="none" stroke="black" points="181.25,-889.69 181.25,-908.94 349.75,-908.94 349.75,-889.69 181.25,-889.69"/>
<text text-anchor="start" x="249.38" y="-896.44" font-family="Helvetica,sans-Serif" font-weight="bold" font-size="10.00">&lt;note&gt;</text>
<polygon fill="none" stroke="black" points="181.25,-869.69 181.25,-889.69 349.75,-889.69 349.75,-869.69 181.25,-869.69"/>
<text text-anchor="start" x="185.25" y="-876.19" font-family="Helvetica,sans-Serif" font-size="10.00">type: 詞書</text>
<polygon fill="none" stroke="black" points="181.25,-850.44 181.25,-869.69 349.75,-869.69 349.75,-850.44 181.25,-850.44"/>
<text text-anchor="start" x="185.25" y="-856.19" font-family="Helvetica,sans-Serif" font-size="10.00">target: #n1</text>
<polygon fill="none" stroke="black" points="181.25,-831.06 181.25,-850.44 349.75,-850.44 349.75,-831.06 181.25,-831.06"/>
<text text-anchor="start" x="185.25" y="-836.94" font-family="Helvetica,sans-Serif" font-size="10.00">ふるとしに[app]たちける[app]よめる</text>
</g>
<!-- b_div&#45;&gt;b_note_d -->
<g id="edge1" class="edge">
<title>b_div&#45;&gt;b_note_d</title>
<path fill="none" stroke="#888888" stroke-width="0.9" stroke-dasharray="5,2" d="M79.98,-971.95C107.21,-956.91 148.11,-934.31 184.49,-914.21"/>
<polygon fill="#888888" stroke="#888888" stroke-width="0.9" points="185.87,-917.45 192.93,-909.55 182.48,-911.32 185.87,-917.45"/>
</g>
<!-- b_note_a -->
<g id="node6" class="node">
<title>b_note_a</title>
<polygon fill="#7aaad0" stroke="none" points="234.5,-989.38 234.5,-1008.62 296.5,-1008.62 296.5,-989.38 234.5,-989.38"/>
<polygon fill="none" stroke="black" points="234.5,-989.38 234.5,-1008.62 296.5,-1008.62 296.5,-989.38 234.5,-989.38"/>
<text text-anchor="start" x="249.38" y="-996.12" font-family="Helvetica,sans-Serif" font-weight="bold" font-size="10.00">&lt;note&gt;</text>
<polygon fill="none" stroke="black" points="234.5,-969.38 234.5,-989.38 296.5,-989.38 296.5,-969.38 234.5,-969.38"/>
<text text-anchor="start" x="238.5" y="-975.88" font-family="Helvetica,sans-Serif" font-size="10.00">type: 作者名</text>
</g>
<!-- b_div&#45;&gt;b_note_a -->
<g id="edge2" class="edge">
<title>b_div&#45;&gt;b_note_a</title>
<path fill="none" stroke="#888888" stroke-width="0.9" stroke-dasharray="5,2" d="M79.98,-989C117.73,-989 181.74,-989 223.57,-989"/>
<polygon fill="#888888" stroke="#888888" stroke-width="0.9" points="223.38,-992.5 233.38,-989 223.38,-985.5 223.38,-992.5"/>
</g>
<!-- b_l -->
<g id="node8" class="node">
<title>b_l</title>
<polygon fill="#7aaad0" stroke="none" points="450.75,-958.62 450.75,-977.88 527.75,-977.88 527.75,-958.62 450.75,-958.62"/>
<polygon fill="none" stroke="black" points="450.75,-958.62 450.75,-977.88 527.75,-977.88 527.75,-958.62 450.75,-958.62"/>
<text text-anchor="start" x="481.75" y="-965.38" font-family="Helvetica,sans-Serif" font-weight="bold" font-size="10.00">&lt;l&gt;</text>
<polygon fill="none" stroke="black" points="450.75,-939.38 450.75,-958.62 527.75,-958.62 527.75,-939.38 450.75,-939.38"/>
<text text-anchor="start" x="454.75" y="-945.12" font-family="Helvetica,sans-Serif" font-size="10.00">n: 1</text>
<polygon fill="none" stroke="black" points="450.75,-920.12 450.75,-939.38 527.75,-939.38 527.75,-920.12 450.75,-920.12"/>
<text text-anchor="start" x="454.75" y="-925.88" font-family="Helvetica,sans-Serif" font-size="10.00">xml:id: n1</text>
<polygon fill="none" stroke="black" points="450.75,-900.12 450.75,-920.12 527.75,-920.12 527.75,-900.12 450.75,-900.12"/>
<text text-anchor="start" x="454.75" y="-906.62" font-family="Helvetica,sans-Serif" font-size="10.00">resp: #在原元方</text>
</g>
<!-- b_div&#45;&gt;b_l -->
<g id="edge3" class="edge">
<title>b_div&#45;&gt;b_l</title>
<path fill="none" stroke="#888888" stroke-width="0.9" stroke-dasharray="5,2" d="M80.1,-981.03C119.15,-970.98 181.25,-955 181.25,-955 181.25,-955 353.3,-946.03 439.8,-941.52"/>
<polygon fill="#888888" stroke="#888888" stroke-width="0.9" points="439.75,-945.03 449.55,-941.02 439.38,-938.04 439.75,-945.03"/>
<text text-anchor="middle" x="243.75" y="-943.38" font-family="Helvetica,sans-Serif" font-size="8.00">contains</text>
</g>
<!-- b_phr -->
<g id="node15" class="node">
<title>b_phr</title>
<polygon fill="#7aaad0" stroke="none" points="198.12,-1076.69 198.12,-1095.94 332.88,-1095.94 332.88,-1076.69 198.12,-1076.69"/>
<polygon fill="none" stroke="black" points="198.12,-1076.69 198.12,-1095.94 332.88,-1095.94 332.88,-1076.69 198.12,-1076.69"/>
<text text-anchor="start" x="251.62" y="-1083.44" font-family="Helvetica,sans-Serif" font-weight="bold" font-size="10.00">&lt;phr&gt;</text>
<polygon fill="none" stroke="black" points="198.12,-1057.44 198.12,-1076.69 332.88,-1076.69 332.88,-1057.44 198.12,-1057.44"/>
<text text-anchor="start" x="202.12" y="-1063.19" font-family="Helvetica,sans-Serif" font-size="10.00">xml:id: kana1&#45;1</text>
<polygon fill="none" stroke="black" points="198.12,-1038.06 198.12,-1057.44 332.88,-1057.44 332.88,-1038.06 198.12,-1038.06"/>
<text text-anchor="start" x="202.12" y="-1043.94" font-family="Helvetica,sans-Serif" font-size="10.00">やまとうたは人のこゝろを…</text>
</g>
<!-- b_div&#45;&gt;b_phr -->
<g id="edge4" class="edge">
<title>b_div&#45;&gt;b_phr</title>
<path fill="none" stroke="#888888" stroke-width="0.9" stroke-dasharray="5,2" d="M79.98,-1000.18C108.05,-1010.34 150.65,-1025.77 187.85,-1039.24"/>
<polygon fill="#888888" stroke="#888888" stroke-width="0.9" points="186.3,-1042.4 196.9,-1042.52 188.69,-1035.82 186.3,-1042.4"/>
</g>
<!-- b_pb -->
<g id="node16" class="node">
<title>b_pb</title>
<polygon fill="#7aaad0" stroke="none" points="1773,-945.62 1773,-964.88 1832,-964.88 1832,-945.62 1773,-945.62"/>
<polygon fill="none" stroke="black" points="1773,-945.62 1773,-964.88 1832,-964.88 1832,-945.62 1773,-945.62"/>
<text text-anchor="start" x="1790.5" y="-952.38" font-family="Helvetica,sans-Serif" font-weight="bold" font-size="10.00">&lt;pb&gt;</text>
<polygon fill="none" stroke="black" points="1773,-926.38 1773,-945.62 1832,-945.62 1832,-926.38 1773,-926.38"/>
<text text-anchor="start" x="1777" y="-932.12" font-family="Helvetica,sans-Serif" font-size="10.00">n: 1&#45;1r</text>
<polygon fill="none" stroke="black" points="1773,-907.12 1773,-926.38 1832,-926.38 1832,-907.12 1773,-907.12"/>
<text text-anchor="start" x="1777" y="-912.88" font-family="Helvetica,sans-Serif" font-size="10.00">facs: #p001</text>
</g>
<!-- b_div&#45;&gt;b_pb -->
<g id="edge5" class="edge">
<title>b_div&#45;&gt;b_pb</title>
<path fill="none" stroke="#888888" stroke-width="0.9" stroke-dasharray="5,2" d="M80.1,-1017.37C119.15,-1053.13 181.25,-1110 181.25,-1110 181.25,-1110 488.25,-1126 488.25,-1126 488.25,-1126 488.25,-1126 1250.62,-1126 1250.62,-1126 1636.59,-992.88 1762.38,-949.49"/>
<polygon fill="#888888" stroke="#888888" stroke-width="0.9" points="1763.44,-952.83 1771.75,-946.26 1761.16,-946.21 1763.44,-952.83"/>
</g>
<!-- b_app -->
<g id="node3" class="node">
<title>b_app</title>
<polygon fill="#7aaad0" stroke="none" points="470.62,-851.38 470.62,-870.62 507.88,-870.62 507.88,-851.38 470.62,-851.38"/>
<polygon fill="none" stroke="black" points="470.62,-851.38 470.62,-870.62 507.88,-870.62 507.88,-851.38 470.62,-851.38"/>
<text text-anchor="start" x="474.62" y="-858.12" font-family="Helvetica,sans-Serif" font-weight="bold" font-size="10.00">&lt;app&gt;</text>
</g>
<!-- b_note_d&#45;&gt;b_app -->
<g id="edge6" class="edge">
<title>b_note_d&#45;&gt;b_app</title>
<path fill="none" stroke="#888888" stroke-width="0.9" stroke-dasharray="5,2" d="M349.7,-866.62C388.46,-865.05 432.03,-863.28 459.78,-862.16"/>
<polygon fill="#888888" stroke="#888888" stroke-width="0.9" points="459.79,-865.66 469.64,-861.76 459.5,-858.66 459.79,-865.66"/>
</g>
<!-- b_note_d&#45;&gt;b_l -->
<g id="edge7" class="edge">
<title>b_note_d&#45;&gt;b_l</title>
<path fill="none" stroke="#448899" stroke-width="0.9" d="M349.7,-895.89C380.13,-905.36 413.54,-915.75 439.92,-923.96"/>
<polygon fill="#448899" stroke="#448899" stroke-width="0.9" points="438.88,-927.3 449.47,-926.93 440.96,-920.62 438.88,-927.3"/>
<text text-anchor="middle" x="384.31" y="-902.33" font-family="Helvetica,sans-Serif" font-size="8.00">target</text>
</g>
<!-- b_lem -->
<g id="node4" class="node">
<title>b_lem</title>
<polygon fill="#7aaad0" stroke="none" points="641.12,-784.62 641.12,-803.88 682.88,-803.88 682.88,-784.62 641.12,-784.62"/>
<polygon fill="none" stroke="black" points="641.12,-784.62 641.12,-803.88 682.88,-803.88 682.88,-784.62 641.12,-784.62"/>
<text text-anchor="start" x="647.38" y="-791.38" font-family="Helvetica,sans-Serif" font-weight="bold" font-size="10.00">&lt;lem&gt;</text>
<polygon fill="none" stroke="black" points="641.12,-764.62 641.12,-784.62 682.88,-784.62 682.88,-764.62 641.12,-764.62"/>
<text text-anchor="start" x="645.12" y="-771.12" font-family="Helvetica,sans-Serif" font-size="10.00">wit: #国</text>
<polygon fill="none" stroke="black" points="641.12,-746.12 641.12,-764.62 682.88,-764.62 682.88,-746.12 641.12,-746.12"/>
<text text-anchor="start" x="645.12" y="-751.12" font-family="Helvetica,sans-Serif" font-size="10.00">春</text>
</g>
<!-- b_app&#45;&gt;b_lem -->
<g id="edge9" class="edge">
<title>b_app&#45;&gt;b_lem</title>
<path fill="none" stroke="#888888" stroke-width="0.9" stroke-dasharray="5,2" d="M507.56,-852.28C536.65,-837.63 595.67,-807.91 631.43,-789.89"/>
<polygon fill="#888888" stroke="#888888" stroke-width="0.9" points="632.72,-793.16 640.07,-785.54 629.57,-786.91 632.72,-793.16"/>
</g>
<!-- b_rdg -->
<g id="node5" class="node">
<title>b_rdg</title>
<polygon fill="#7aaad0" stroke="none" points="641.12,-871.62 641.12,-890.88 682.88,-890.88 682.88,-871.62 641.12,-871.62"/>
<polygon fill="none" stroke="black" points="641.12,-871.62 641.12,-890.88 682.88,-890.88 682.88,-871.62 641.12,-871.62"/>
<text text-anchor="start" x="648.12" y="-878.38" font-family="Helvetica,sans-Serif" font-weight="bold" font-size="10.00">&lt;rdg&gt;</text>
<polygon fill="none" stroke="black" points="641.12,-851.62 641.12,-871.62 682.88,-871.62 682.88,-851.62 641.12,-851.62"/>
<text text-anchor="start" x="645.12" y="-858.12" font-family="Helvetica,sans-Serif" font-size="10.00">wit: #前</text>
<polygon fill="none" stroke="black" points="641.12,-833.12 641.12,-851.62 682.88,-851.62 682.88,-833.12 641.12,-833.12"/>
<text text-anchor="start" x="645.12" y="-838.12" font-family="Helvetica,sans-Serif" font-size="10.00">春の</text>
</g>
<!-- b_app&#45;&gt;b_rdg -->
<g id="edge10" class="edge">
<title>b_app&#45;&gt;b_rdg</title>
<path fill="none" stroke="#888888" stroke-width="0.9" stroke-dasharray="5,2" d="M507.56,-861.1C536.28,-861.27 594.15,-861.61 630.04,-861.82"/>
<polygon fill="#888888" stroke="#888888" stroke-width="0.9" points="629.91,-865.32 639.93,-861.88 629.95,-858.32 629.91,-865.32"/>
</g>
<!-- b_persname -->
<g id="node7" class="node">
<title>b_persname</title>
<polygon fill="#7aaad0" stroke="none" points="1478,-940.62 1478,-959.88 1568.5,-959.88 1568.5,-940.62 1478,-940.62"/>
<polygon fill="none" stroke="black" points="1478,-940.62 1478,-959.88 1568.5,-959.88 1568.5,-940.62 1478,-940.62"/>
<text text-anchor="start" x="1493.62" y="-947.38" font-family="Helvetica,sans-Serif" font-weight="bold" font-size="10.00">&lt;persName&gt;</text>
<polygon fill="none" stroke="black" points="1478,-920.62 1478,-940.62 1568.5,-940.62 1568.5,-920.62 1478,-920.62"/>
<text text-anchor="start" x="1482" y="-927.12" font-family="Helvetica,sans-Serif" font-size="10.00">type: 作者</text>
<polygon fill="none" stroke="black" points="1478,-900.62 1478,-920.62 1568.5,-920.62 1568.5,-900.62 1478,-900.62"/>
<text text-anchor="start" x="1482" y="-907.12" font-family="Helvetica,sans-Serif" font-size="10.00">corresp: #在原元方</text>
<polygon fill="none" stroke="black" points="1478,-882.12 1478,-900.62 1568.5,-900.62 1568.5,-882.12 1478,-882.12"/>
<text text-anchor="start" x="1482" y="-887.12" font-family="Helvetica,sans-Serif" font-size="10.00">在原元方</text>
</g>
<!-- b_note_a&#45;&gt;b_persname -->
<g id="edge8" class="edge">
<title>b_note_a&#45;&gt;b_persname</title>
<path fill="none" stroke="#888888" stroke-width="0.9" stroke-dasharray="5,2" d="M296.48,-997.05C388.54,-1021.79 661,-1095 661,-1095 661,-1095 661,-1095 1035.88,-1095 1035.88,-1095 1340.49,-986.02 1467.58,-940.56"/>
<polygon fill="#888888" stroke="#888888" stroke-width="0.9" points="1468.71,-943.87 1476.95,-937.21 1466.35,-937.28 1468.71,-943.87"/>
</g>
<!-- person -->
<g id="node27" class="node">
<title>person</title>
<polygon fill="#9977cc" stroke="none" points="1724.25,-588.62 1724.25,-607.88 1880.75,-607.88 1880.75,-588.62 1724.25,-588.62"/>
<polygon fill="none" stroke="black" points="1724.25,-588.62 1724.25,-607.88 1880.75,-607.88 1880.75,-588.62 1724.25,-588.62"/>
<text text-anchor="start" x="1780.38" y="-595.38" font-family="Helvetica,sans-Serif" font-weight="bold" font-size="10.00">&lt;person&gt;</text>
<polygon fill="none" stroke="black" points="1724.25,-568.62 1724.25,-588.62 1880.75,-588.62 1880.75,-568.62 1724.25,-568.62"/>
<text text-anchor="start" x="1728.25" y="-575.12" font-family="Helvetica,sans-Serif" font-size="10.00">xml:id: 在原元方</text>
<polygon fill="none" stroke="black" points="1724.25,-549.38 1724.25,-568.62 1880.75,-568.62 1880.75,-549.38 1724.25,-549.38"/>
<text text-anchor="start" x="1728.25" y="-555.12" font-family="Helvetica,sans-Serif" font-size="10.00">sex: 1</text>
<polygon fill="none" stroke="black" points="1724.25,-529.38 1724.25,-549.38 1880.75,-549.38 1880.75,-529.38 1724.25,-529.38"/>
<text text-anchor="start" x="1728.25" y="-535.88" font-family="Helvetica,sans-Serif" font-size="10.00">persName: ありわらの／もとかた</text>
<polygon fill="none" stroke="black" points="1724.25,-509.38 1724.25,-529.38 1880.75,-529.38 1880.75,-509.38 1724.25,-509.38"/>
<text text-anchor="start" x="1728.25" y="-515.88" font-family="Helvetica,sans-Serif" font-size="10.00">birth: 不明</text>
<polygon fill="none" stroke="black" points="1724.25,-489.38 1724.25,-509.38 1880.75,-509.38 1880.75,-489.38 1724.25,-489.38"/>
<text text-anchor="start" x="1728.25" y="-495.88" font-family="Helvetica,sans-Serif" font-size="10.00">death: 不明</text>
<polygon fill="none" stroke="black" points="1724.25,-470.12 1724.25,-489.38 1880.75,-489.38 1880.75,-470.12 1724.25,-470.12"/>
<text text-anchor="start" x="1728.25" y="-475.88" font-family="Helvetica,sans-Serif" font-size="10.00">idno[VIAF]: viaf/114305486</text>
<polygon fill="none" stroke="black" points="1724.25,-450.12 1724.25,-470.12 1880.75,-470.12 1880.75,-450.12 1724.25,-450.12"/>
<text text-anchor="start" x="1728.25" y="-456.62" font-family="Helvetica,sans-Serif" font-size="10.00">idno[国書DB]: 588363</text>
</g>
<!-- b_persname&#45;&gt;person -->
<g id="edge31" class="edge">
<title>b_persname&#45;&gt;person</title>
<path fill="none" stroke="#7755aa" stroke-width="0.9" d="M1551.59,-882.34C1594.91,-821.09 1680.44,-700.17 1739.27,-616.99"/>
<polygon fill="#7755aa" stroke="#7755aa" stroke-width="0.9" points="1742.07,-619.09 1744.98,-608.91 1736.35,-615.05 1742.07,-619.09"/>
<text text-anchor="middle" x="1631.93" y="-742.06" font-family="Helvetica,sans-Serif" font-size="8.00">corresp</text>
</g>
<!-- b_seg1 -->
<g id="node9" class="node">
<title>b_seg1</title>
<polygon fill="#7aaad0" stroke="none" points="638.5,-938.62 638.5,-957.88 685.5,-957.88 685.5,-938.62 638.5,-938.62"/>
<polygon fill="none" stroke="black" points="638.5,-938.62 638.5,-957.88 685.5,-957.88 685.5,-938.62 638.5,-938.62"/>
<text text-anchor="start" x="647.75" y="-945.38" font-family="Helvetica,sans-Serif" font-weight="bold" font-size="10.00">&lt;seg&gt;</text>
<polygon fill="none" stroke="black" points="638.5,-920.12 638.5,-938.62 685.5,-938.62 685.5,-920.12 638.5,-920.12"/>
<text text-anchor="start" x="642.5" y="-925.12" font-family="Helvetica,sans-Serif" font-size="10.00">年の内に</text>
</g>
<!-- b_l&#45;&gt;b_seg1 -->
<g id="edge11" class="edge">
<title>b_l&#45;&gt;b_seg1</title>
<path fill="none" stroke="#888888" stroke-width="0.9" stroke-dasharray="5,2" d="M527.72,-939C557.58,-939 598.98,-939 627.69,-939"/>
<polygon fill="#888888" stroke="#888888" stroke-width="0.9" points="627.4,-942.5 637.4,-939 627.4,-935.5 627.4,-942.5"/>
</g>
<!-- b_seg2 -->
<g id="node12" class="node">
<title>b_seg2</title>
<polygon fill="#7aaad0" stroke="none" points="628.75,-1005.62 628.75,-1024.88 695.25,-1024.88 695.25,-1005.62 628.75,-1005.62"/>
<polygon fill="none" stroke="black" points="628.75,-1005.62 628.75,-1024.88 695.25,-1024.88 695.25,-1005.62 628.75,-1005.62"/>
<text text-anchor="start" x="647.75" y="-1012.38" font-family="Helvetica,sans-Serif" font-weight="bold" font-size="10.00">&lt;seg&gt;</text>
<polygon fill="none" stroke="black" points="628.75,-987.12 628.75,-1005.62 695.25,-1005.62 695.25,-987.12 628.75,-987.12"/>
<text text-anchor="start" x="632.75" y="-992.12" font-family="Helvetica,sans-Serif" font-size="10.00">春はきにけり</text>
</g>
<!-- b_l&#45;&gt;b_seg2 -->
<g id="edge12" class="edge">
<title>b_l&#45;&gt;b_seg2</title>
<path fill="none" stroke="#888888" stroke-width="0.9" stroke-dasharray="5,2" d="M527.72,-953.7C554.53,-964.22 590.66,-978.4 618.54,-989.34"/>
<polygon fill="#888888" stroke="#888888" stroke-width="0.9" points="616.93,-992.47 627.52,-992.86 619.49,-985.95 616.93,-992.47"/>
</g>
<!-- b_l&#45;&gt;person -->
<g id="edge32" class="edge">
<title>b_l&#45;&gt;person</title>
<path fill="none" stroke="#7755aa" stroke-width="0.9" d="M517.1,-900.33C523.12,-891.67 527.75,-885 527.75,-885 527.75,-885 796.25,-69 796.25,-69 796.25,-69 843.5,-9 843.5,-9 843.5,-9 843.5,-9 1250.62,-9 1250.62,-9 1561.49,-302.44 1716.17,-448.46"/>
<polygon fill="#7755aa" stroke="#7755aa" stroke-width="0.9" points="1713.66,-450.89 1723.33,-455.21 1718.46,-445.8 1713.66,-450.89"/>
<text text-anchor="middle" x="882.25" y="-1.4" font-family="Helvetica,sans-Serif" font-size="8.00">resp</text>
</g>
<!-- b_w_toshi -->
<g id="node10" class="node">
<title>b_w_toshi</title>
<polygon fill="#7aaad0" stroke="none" points="796.25,-784.62 796.25,-803.88 892.75,-803.88 892.75,-784.62 796.25,-784.62"/>
<polygon fill="none" stroke="black" points="796.25,-784.62 796.25,-803.88 892.75,-803.88 892.75,-784.62 796.25,-784.62"/>
<text text-anchor="start" x="834.75" y="-791.38" font-family="Helvetica,sans-Serif" font-weight="bold" font-size="10.00">&lt;w&gt;</text>
<polygon fill="none" stroke="black" points="796.25,-766.12 796.25,-784.62 892.75,-784.62 892.75,-766.12 796.25,-766.12"/>
<text text-anchor="start" x="800.25" y="-771.12" font-family="Helvetica,sans-Serif" font-size="10.00">年</text>
<polygon fill="none" stroke="black" points="796.25,-746.12 796.25,-766.12 892.75,-766.12 892.75,-746.12 796.25,-746.12"/>
<text text-anchor="start" x="800.25" y="-752.62" font-family="Helvetica,sans-Serif" font-size="10.00">lemmaRef: #とし.年</text>
</g>
<!-- b_seg1&#45;&gt;b_w_toshi -->
<g id="edge13" class="edge">
<title>b_seg1&#45;&gt;b_w_toshi</title>
<path fill="none" stroke="#888888" stroke-width="0.9" stroke-dasharray="5,2" d="M683.71,-920.19C712.89,-893.67 766.69,-844.79 803.75,-811.12"/>
<polygon fill="#888888" stroke="#888888" stroke-width="0.9" points="805.79,-813.99 810.84,-804.67 801.09,-808.81 805.79,-813.99"/>
</g>
<!-- b_w_no -->
<g id="node11" class="node">
<title>b_w_no</title>
<polygon fill="#7aaad0" stroke="none" points="801.12,-871.62 801.12,-890.88 887.88,-890.88 887.88,-871.62 801.12,-871.62"/>
<polygon fill="none" stroke="black" points="801.12,-871.62 801.12,-890.88 887.88,-890.88 887.88,-871.62 801.12,-871.62"/>
<text text-anchor="start" x="834.75" y="-878.38" font-family="Helvetica,sans-Serif" font-weight="bold" font-size="10.00">&lt;w&gt;</text>
<polygon fill="none" stroke="black" points="801.12,-853.12 801.12,-871.62 887.88,-871.62 887.88,-853.12 801.12,-853.12"/>
<text text-anchor="start" x="805.12" y="-858.12" font-family="Helvetica,sans-Serif" font-size="10.00">の</text>
<polygon fill="none" stroke="black" points="801.12,-833.12 801.12,-853.12 887.88,-853.12 887.88,-833.12 801.12,-833.12"/>
<text text-anchor="start" x="805.12" y="-839.62" font-family="Helvetica,sans-Serif" font-size="10.00">lemmaRef: #の.の</text>
</g>
<!-- b_seg1&#45;&gt;b_w_no -->
<g id="edge14" class="edge">
<title>b_seg1&#45;&gt;b_w_no</title>
<path fill="none" stroke="#888888" stroke-width="0.9" stroke-dasharray="5,2" d="M685.5,-929.4C711.82,-918.18 756.25,-899.22 791.31,-884.26"/>
<polygon fill="#888888" stroke="#888888" stroke-width="0.9" points="792.31,-887.64 800.14,-880.5 789.57,-881.2 792.31,-887.64"/>
</g>
<!-- b_w_haru -->
<g id="node13" class="node">
<title>b_w_haru</title>
<polygon fill="#7aaad0" stroke="none" points="796.25,-958.62 796.25,-977.88 892.75,-977.88 892.75,-958.62 796.25,-958.62"/>
<polygon fill="none" stroke="black" points="796.25,-958.62 796.25,-977.88 892.75,-977.88 892.75,-958.62 796.25,-958.62"/>
<text text-anchor="start" x="834.75" y="-965.38" font-family="Helvetica,sans-Serif" font-weight="bold" font-size="10.00">&lt;w&gt;</text>
<polygon fill="none" stroke="black" points="796.25,-940.12 796.25,-958.62 892.75,-958.62 892.75,-940.12 796.25,-940.12"/>
<text text-anchor="start" x="800.25" y="-945.12" font-family="Helvetica,sans-Serif" font-size="10.00">春</text>
<polygon fill="none" stroke="black" points="796.25,-920.12 796.25,-940.12 892.75,-940.12 892.75,-920.12 796.25,-920.12"/>
<text text-anchor="start" x="800.25" y="-926.62" font-family="Helvetica,sans-Serif" font-size="10.00">lemmaRef: #はる.春</text>
</g>
<!-- b_seg2&#45;&gt;b_w_haru -->
<g id="edge15" class="edge">
<title>b_seg2&#45;&gt;b_w_haru</title>
<path fill="none" stroke="#888888" stroke-width="0.9" stroke-dasharray="5,2" d="M694.85,-995.94C719.91,-988.03 755.5,-976.79 785.57,-967.29"/>
<polygon fill="#888888" stroke="#888888" stroke-width="0.9" points="786.58,-970.64 795.07,-964.29 784.48,-963.97 786.58,-970.64"/>
</g>
<!-- b_w_ha -->
<g id="node14" class="node">
<title>b_w_ha</title>
<polygon fill="#7aaad0" stroke="none" points="801.12,-1045.62 801.12,-1064.88 887.88,-1064.88 887.88,-1045.62 801.12,-1045.62"/>
<polygon fill="none" stroke="black" points="801.12,-1045.62 801.12,-1064.88 887.88,-1064.88 887.88,-1045.62 801.12,-1045.62"/>
<text text-anchor="start" x="834.75" y="-1052.38" font-family="Helvetica,sans-Serif" font-weight="bold" font-size="10.00">&lt;w&gt;</text>
<polygon fill="none" stroke="black" points="801.12,-1027.12 801.12,-1045.62 887.88,-1045.62 887.88,-1027.12 801.12,-1027.12"/>
<text text-anchor="start" x="805.12" y="-1032.12" font-family="Helvetica,sans-Serif" font-size="10.00">は</text>
<polygon fill="none" stroke="black" points="801.12,-1007.12 801.12,-1027.12 887.88,-1027.12 887.88,-1007.12 801.12,-1007.12"/>
<text text-anchor="start" x="805.12" y="-1013.62" font-family="Helvetica,sans-Serif" font-size="10.00">lemmaRef: #は.は</text>
</g>
<!-- b_seg2&#45;&gt;b_w_ha -->
<g id="edge16" class="edge">
<title>b_seg2&#45;&gt;b_w_ha</title>
<path fill="none" stroke="#888888" stroke-width="0.9" stroke-dasharray="5,2" d="M694.85,-1011.29C721.26,-1015.68 759.37,-1022.02 790.38,-1027.17"/>
<polygon fill="#888888" stroke="#888888" stroke-width="0.9" points="789.67,-1030.6 800.11,-1028.79 790.82,-1023.7 789.67,-1030.6"/>
</g>
<!-- hom_haru -->
<g id="node18" class="node">
<title>hom_haru</title>
<polygon fill="#88bb77" stroke="none" points="998.62,-212.38 998.62,-231.62 1071.12,-231.62 1071.12,-212.38 998.62,-212.38"/>
<polygon fill="none" stroke="black" points="998.62,-212.38 998.62,-231.62 1071.12,-231.62 1071.12,-212.38 998.62,-212.38"/>
<text text-anchor="start" x="1018.38" y="-219.12" font-family="Helvetica,sans-Serif" font-weight="bold" font-size="10.00">&lt;hom&gt;</text>
<polygon fill="none" stroke="black" points="998.62,-192.38 998.62,-212.38 1071.12,-212.38 1071.12,-192.38 998.62,-192.38"/>
<text text-anchor="start" x="1002.62" y="-198.88" font-family="Helvetica,sans-Serif" font-size="10.00">xml:id: はる.春</text>
<polygon fill="none" stroke="black" points="998.62,-172.38 998.62,-192.38 1071.12,-192.38 1071.12,-172.38 998.62,-172.38"/>
<text text-anchor="start" x="1002.62" y="-178.88" font-family="Helvetica,sans-Serif" font-size="10.00">ref: #春</text>
</g>
<!-- b_w_haru&#45;&gt;hom_haru -->
<g id="edge24" class="edge">
<title>b_w_haru&#45;&gt;hom_haru</title>
<path fill="none" stroke="#4477bb" stroke-width="0.9" d="M876.49,-920.14C885.4,-911.85 892.75,-905 892.75,-905 892.75,-905 988,-260 988,-260 988,-260 995.17,-250.94 1003.84,-239.97"/>
<polygon fill="#4477bb" stroke="#4477bb" stroke-width="0.9" points="1006.37,-242.42 1009.82,-232.41 1000.87,-238.08 1006.37,-242.42"/>
<text text-anchor="middle" x="922.24" y="-573.26" font-family="Helvetica,sans-Serif" font-size="8.00">lemmaRef</text>
</g>
<!-- surface -->
<g id="node28" class="node">
<title>surface</title>
<polygon fill="#bb9966" stroke="none" points="1981.75,-529 1981.75,-548.25 2043,-548.25 2043,-529 1981.75,-529"/>
<polygon fill="none" stroke="black" points="1981.75,-529 1981.75,-548.25 2043,-548.25 2043,-529 1981.75,-529"/>
<text text-anchor="start" x="1989.5" y="-535.75" font-family="Helvetica,sans-Serif" font-weight="bold" font-size="10.00">&lt;surface&gt;</text>
<polygon fill="none" stroke="black" points="1981.75,-509.75 1981.75,-529 2043,-529 2043,-509.75 1981.75,-509.75"/>
<text text-anchor="start" x="1985.75" y="-515.5" font-family="Helvetica,sans-Serif" font-size="10.00">xml:id: p001</text>
</g>
<!-- b_pb&#45;&gt;surface -->
<g id="edge33" class="edge">
<title>b_pb&#45;&gt;surface</title>
<path fill="none" stroke="#996644" stroke-width="0.9" d="M1818.12,-907.38C1856.25,-832.73 1958.42,-632.68 1996.66,-557.81"/>
<polygon fill="#996644" stroke="#996644" stroke-width="0.9" points="1999.57,-559.81 2001,-549.31 1993.33,-556.63 1999.57,-559.81"/>
<text text-anchor="middle" x="1900.26" y="-724.99" font-family="Helvetica,sans-Serif" font-size="8.00">facs</text>
</g>
<!-- ri_entry -->
<g id="node17" class="node">
<title>ri_entry</title>
<polygon fill="#88bb77" stroke="none" points="814.62,-104.38 814.62,-123.62 874.38,-123.62 874.38,-104.38 814.62,-104.38"/>
<polygon fill="none" stroke="black" points="814.62,-104.38 814.62,-123.62 874.38,-123.62 874.38,-104.38 814.62,-104.38"/>
<text text-anchor="start" x="826.88" y="-111.12" font-family="Helvetica,sans-Serif" font-weight="bold" font-size="10.00">&lt;entry&gt;</text>
<polygon fill="none" stroke="black" points="814.62,-84.38 814.62,-104.38 874.38,-104.38 874.38,-84.38 814.62,-84.38"/>
<text text-anchor="start" x="818.62" y="-90.88" font-family="Helvetica,sans-Serif" font-size="10.00">xml:id: はる</text>
</g>
<!-- ri_entry&#45;&gt;hom_haru -->
<g id="edge17" class="edge">
<title>ri_entry&#45;&gt;hom_haru</title>
<path fill="none" stroke="#888888" stroke-width="0.9" stroke-dasharray="5,2" d="M874.11,-118.88C904.69,-134.79 953.57,-160.22 989.22,-178.77"/>
<polygon fill="#888888" stroke="#888888" stroke-width="0.9" points="987.2,-181.66 997.68,-183.17 990.43,-175.45 987.2,-181.66"/>
</g>
<!-- hom_haru2 -->
<g id="node19" class="node">
<title>hom_haru2</title>
<polygon fill="#88bb77" stroke="none" points="993.75,-124.38 993.75,-143.62 1076,-143.62 1076,-124.38 993.75,-124.38"/>
<polygon fill="none" stroke="black" points="993.75,-124.38 993.75,-143.62 1076,-143.62 1076,-124.38 993.75,-124.38"/>
<text text-anchor="start" x="1018.38" y="-131.12" font-family="Helvetica,sans-Serif" font-weight="bold" font-size="10.00">&lt;hom&gt;</text>
<polygon fill="none" stroke="black" points="993.75,-104.38 993.75,-124.38 1076,-124.38 1076,-104.38 993.75,-104.38"/>
<text text-anchor="start" x="997.75" y="-110.88" font-family="Helvetica,sans-Serif" font-size="10.00">xml:id: はる.張る</text>
<polygon fill="none" stroke="black" points="993.75,-84.38 993.75,-104.38 1076,-104.38 1076,-84.38 993.75,-84.38"/>
<text text-anchor="start" x="997.75" y="-90.88" font-family="Helvetica,sans-Serif" font-size="10.00">ref: #張る</text>
</g>
<!-- ri_entry&#45;&gt;hom_haru2 -->
<g id="edge18" class="edge">
<title>ri_entry&#45;&gt;hom_haru2</title>
<path fill="none" stroke="#888888" stroke-width="0.9" stroke-dasharray="5,2" d="M874.11,-105.52C902.9,-107.05 947.92,-109.44 982.84,-111.29"/>
<polygon fill="#888888" stroke="#888888" stroke-width="0.9" points="982.26,-114.76 992.43,-111.8 982.63,-107.77 982.26,-114.76"/>
</g>
<!-- e_haru -->
<g id="node20" class="node">
<title>e_haru</title>
<polygon fill="#ccaa44" stroke="none" points="1177,-654.62 1177,-673.88 1322.25,-673.88 1322.25,-654.62 1177,-654.62"/>
<polygon fill="none" stroke="black" points="1177,-654.62 1177,-673.88 1322.25,-673.88 1322.25,-654.62 1177,-654.62"/>
<text text-anchor="start" x="1232" y="-661.38" font-family="Helvetica,sans-Serif" font-weight="bold" font-size="10.00">&lt;entry&gt;</text>
<polygon fill="none" stroke="black" points="1177,-634.62 1177,-654.62 1322.25,-654.62 1322.25,-634.62 1177,-634.62"/>
<text text-anchor="start" x="1181" y="-641.12" font-family="Helvetica,sans-Serif" font-size="10.00">xml:id: 春</text>
<polygon fill="none" stroke="black" points="1177,-615.38 1177,-634.62 1322.25,-634.62 1322.25,-615.38 1177,-615.38"/>
<text text-anchor="start" x="1181" y="-621.12" font-family="Helvetica,sans-Serif" font-size="10.00">pos: N.g</text>
<polygon fill="#e8cc88" stroke="none" points="1177,-596.12 1177,-615.38 1322.25,-615.38 1322.25,-596.12 1177,-596.12"/>
<polygon fill="none" stroke="black" points="1177,-596.12 1177,-615.38 1322.25,-615.38 1322.25,-596.12 1177,-596.12"/>
<text text-anchor="start" x="1181" y="-602.88" font-family="Helvetica,sans-Serif" font-weight="bold" font-size="10.00">&lt;sense&gt;</text>
<text text-anchor="start" x="1220" y="-602.88" font-family="Helvetica,sans-Serif" font-size="10.00"> ana: #WLSPH.1.1624</text>
</g>
<!-- ri_entry&#45;&gt;e_haru -->
<!-- hom_haru&#45;&gt;e_haru -->
<g id="edge25" class="edge">
<title>hom_haru&#45;&gt;e_haru</title>
<path fill="none" stroke="#448844" stroke-width="0.9" d="M1060.22,-231.34C1072.16,-245.73 1084,-260 1084,-260 1084,-260 1177,-581 1177,-581 1177,-581 1181.57,-584.45 1188.41,-589.6"/>
<polygon fill="#448844" stroke="#448844" stroke-width="0.9" points="1186.15,-592.28 1196.25,-595.51 1190.37,-586.69 1186.15,-592.28"/>
<text text-anchor="middle" x="1122.43" y="-401.88" font-family="Helvetica,sans-Serif" font-size="8.00">ref</text>
</g>
<!-- wlsph -->
<g id="node25" class="node">
<title>wlsph</title>
<polygon fill="#cc8888" stroke="none" points="1423.25,-548.25 1423.25,-567.5 1623.25,-567.5 1623.25,-548.25 1423.25,-548.25"/>
<polygon fill="none" stroke="black" points="1423.25,-548.25 1423.25,-567.5 1623.25,-567.5 1623.25,-548.25 1423.25,-548.25"/>
<text text-anchor="start" x="1507.12" y="-555" font-family="Helvetica,sans-Serif" font-weight="bold" font-size="10.00">&lt;item&gt;</text>
<polygon fill="none" stroke="black" points="1423.25,-529 1423.25,-548.25 1623.25,-548.25 1623.25,-529 1423.25,-529"/>
<text text-anchor="start" x="1427.25" y="-534.75" font-family="Helvetica,sans-Serif" font-size="10.00">xml:id: WLSPH.1.1624</text>
<polygon fill="none" stroke="black" points="1423.25,-509 1423.25,-529 1623.25,-529 1623.25,-509 1423.25,-509"/>
<text text-anchor="start" x="1427.25" y="-515.5" font-family="Helvetica,sans-Serif" font-size="10.00">desc: 体&#45;抽象的関係&#45;位置・地点・場合&#45;季節</text>
<polygon fill="none" stroke="black" points="1423.25,-490.5 1423.25,-509 1623.25,-509 1623.25,-490.5 1423.25,-490.5"/>
<text text-anchor="start" x="1427.25" y="-496.5" font-family="Helvetica,sans-Serif" font-style="italic" font-size="10.00">八代集版</text>
</g>
<!-- e_haru&#45;&gt;wlsph -->
<!-- e_haru&#45;&gt;wlsph -->
<g id="edge26" class="edge">
<title>e_haru&#45;&gt;wlsph</title>
<path fill="none" stroke="#bb6633" stroke-width="0.9" d="M1321.99,-616.85C1357.77,-604.3 1401.31,-587.45 1438.64,-571.75"/>
<polygon fill="#bb6633" stroke="#bb6633" stroke-width="0.9" points="1439.9,-575.02 1447.74,-567.9 1437.17,-568.58 1439.9,-575.02"/>
<text text-anchor="middle" x="1361.94" y="-586.7" font-family="Helvetica,sans-Serif" font-size="8.00">sense/ana</text>
</g>
<!-- wlsp -->
<g id="node26" class="node">
<title>wlsp</title>
<polygon fill="#e8b0b0" stroke="none" points="1467.12,-654.25 1467.12,-673.5 1579.38,-673.5 1579.38,-654.25 1467.12,-654.25"/>
<polygon fill="none" stroke="black" points="1467.12,-654.25 1467.12,-673.5 1579.38,-673.5 1579.38,-654.25 1467.12,-654.25"/>
<text text-anchor="start" x="1507.12" y="-661" font-family="Helvetica,sans-Serif" font-weight="bold" font-size="10.00">&lt;item&gt;</text>
<polygon fill="none" stroke="black" points="1467.12,-635 1467.12,-654.25 1579.38,-654.25 1579.38,-635 1467.12,-635"/>
<text text-anchor="start" x="1471.12" y="-640.75" font-family="Helvetica,sans-Serif" font-size="10.00">xml:id: WLSP.1.1624</text>
<polygon fill="none" stroke="black" points="1467.12,-615 1467.12,-635 1579.38,-635 1579.38,-615 1467.12,-615"/>
<text text-anchor="start" x="1471.12" y="-621.5" font-family="Helvetica,sans-Serif" font-size="10.00">desc: 体&#45;関係&#45;時間&#45;季節</text>
<polygon fill="none" stroke="black" points="1467.12,-596.5 1467.12,-615 1579.38,-615 1579.38,-596.5 1467.12,-596.5"/>
<text text-anchor="start" x="1471.12" y="-602.5" font-family="Helvetica,sans-Serif" font-style="italic" font-size="10.00">現代語版</text>
</g>
<!-- e_haru&#45;&gt;wlsp -->
<g id="edge30" class="edge">
<title>e_haru&#45;&gt;wlsp</title>
<path fill="none" stroke="#cc9999" stroke-width="0.9" stroke-dasharray="5,2" d="M1321.99,-635C1363.51,-635 1415.5,-635 1456.1,-635"/>
<polygon fill="#cc9999" stroke="#cc9999" stroke-width="0.9" points="1455.86,-638.5 1465.86,-635 1455.86,-631.5 1455.86,-638.5"/>
</g>
<!-- e_aki -->
<g id="node21" class="node">
<title>e_aki</title>
<polygon fill="#ccaa44" stroke="none" points="1177,-440.62 1177,-459.88 1322.25,-459.88 1322.25,-440.62 1177,-440.62"/>
<polygon fill="none" stroke="black" points="1177,-440.62 1177,-459.88 1322.25,-459.88 1322.25,-440.62 1177,-440.62"/>
<text text-anchor="start" x="1232" y="-447.38" font-family="Helvetica,sans-Serif" font-weight="bold" font-size="10.00">&lt;entry&gt;</text>
<polygon fill="none" stroke="black" points="1177,-420.62 1177,-440.62 1322.25,-440.62 1322.25,-420.62 1177,-420.62"/>
<text text-anchor="start" x="1181" y="-427.12" font-family="Helvetica,sans-Serif" font-size="10.00">xml:id: 秋</text>
<polygon fill="none" stroke="black" points="1177,-401.38 1177,-420.62 1322.25,-420.62 1322.25,-401.38 1177,-401.38"/>
<text text-anchor="start" x="1181" y="-407.12" font-family="Helvetica,sans-Serif" font-size="10.00">pos: N.g</text>
<polygon fill="#e8cc88" stroke="none" points="1177,-382.12 1177,-401.38 1322.25,-401.38 1322.25,-382.12 1177,-382.12"/>
<polygon fill="none" stroke="black" points="1177,-382.12 1177,-401.38 1322.25,-401.38 1322.25,-382.12 1177,-382.12"/>
<text text-anchor="start" x="1181" y="-388.88" font-family="Helvetica,sans-Serif" font-weight="bold" font-size="10.00">&lt;sense&gt;</text>
<text text-anchor="start" x="1220" y="-388.88" font-family="Helvetica,sans-Serif" font-size="10.00"> ana: #WLSPH.1.1624</text>
</g>
<!-- e_aki&#45;&gt;wlsph -->
<g id="edge27" class="edge">
<title>e_aki&#45;&gt;wlsph</title>
<path fill="none" stroke="#bb6633" stroke-width="0.9" d="M1321.99,-449.38C1350.45,-460.69 1383.82,-473.96 1415.07,-486.38"/>
<polygon fill="#bb6633" stroke="#bb6633" stroke-width="0.9" points="1413.72,-489.62 1424.31,-490.06 1416.31,-483.11 1413.72,-489.62"/>
</g>
<!-- e_natsu -->
<g id="node22" class="node">
<title>e_natsu</title>
<polygon fill="#ccaa44" stroke="none" points="1177,-547.62 1177,-566.88 1322.25,-566.88 1322.25,-547.62 1177,-547.62"/>
<polygon fill="none" stroke="black" points="1177,-547.62 1177,-566.88 1322.25,-566.88 1322.25,-547.62 1177,-547.62"/>
<text text-anchor="start" x="1232" y="-554.38" font-family="Helvetica,sans-Serif" font-weight="bold" font-size="10.00">&lt;entry&gt;</text>
<polygon fill="none" stroke="black" points="1177,-527.62 1177,-547.62 1322.25,-547.62 1322.25,-527.62 1177,-527.62"/>
<text text-anchor="start" x="1181" y="-534.12" font-family="Helvetica,sans-Serif" font-size="10.00">xml:id: 夏</text>
<polygon fill="none" stroke="black" points="1177,-508.38 1177,-527.62 1322.25,-527.62 1322.25,-508.38 1177,-508.38"/>
<text text-anchor="start" x="1181" y="-514.12" font-family="Helvetica,sans-Serif" font-size="10.00">pos: N.g</text>
<polygon fill="#e8cc88" stroke="none" points="1177,-489.12 1177,-508.38 1322.25,-508.38 1322.25,-489.12 1177,-489.12"/>
<polygon fill="none" stroke="black" points="1177,-489.12 1177,-508.38 1322.25,-508.38 1322.25,-489.12 1177,-489.12"/>
<text text-anchor="start" x="1181" y="-495.88" font-family="Helvetica,sans-Serif" font-weight="bold" font-size="10.00">&lt;sense&gt;</text>
<text text-anchor="start" x="1220" y="-495.88" font-family="Helvetica,sans-Serif" font-size="10.00"> ana: #WLSPH.1.1624</text>
</g>
<!-- e_natsu&#45;&gt;wlsph -->
<g id="edge28" class="edge">
<title>e_natsu&#45;&gt;wlsph</title>
<path fill="none" stroke="#bb6633" stroke-width="0.9" d="M1321.99,-528.26C1349.57,-528.36 1381.76,-528.48 1412.17,-528.59"/>
<polygon fill="#bb6633" stroke="#bb6633" stroke-width="0.9" points="1411.91,-532.09 1421.92,-528.63 1411.93,-525.09 1411.91,-532.09"/>
</g>
<!-- e_fuyu -->
<g id="node23" class="node">
<title>e_fuyu</title>
<polygon fill="#ccaa44" stroke="none" points="1177,-333.62 1177,-352.88 1322.25,-352.88 1322.25,-333.62 1177,-333.62"/>
<polygon fill="none" stroke="black" points="1177,-333.62 1177,-352.88 1322.25,-352.88 1322.25,-333.62 1177,-333.62"/>
<text text-anchor="start" x="1232" y="-340.38" font-family="Helvetica,sans-Serif" font-weight="bold" font-size="10.00">&lt;entry&gt;</text>
<polygon fill="none" stroke="black" points="1177,-313.62 1177,-333.62 1322.25,-333.62 1322.25,-313.62 1177,-313.62"/>
<text text-anchor="start" x="1181" y="-320.12" font-family="Helvetica,sans-Serif" font-size="10.00">xml:id: 冬</text>
<polygon fill="none" stroke="black" points="1177,-294.38 1177,-313.62 1322.25,-313.62 1322.25,-294.38 1177,-294.38"/>
<text text-anchor="start" x="1181" y="-300.12" font-family="Helvetica,sans-Serif" font-size="10.00">pos: N.g</text>
<polygon fill="#e8cc88" stroke="none" points="1177,-275.12 1177,-294.38 1322.25,-294.38 1322.25,-275.12 1177,-275.12"/>
<polygon fill="none" stroke="black" points="1177,-275.12 1177,-294.38 1322.25,-294.38 1322.25,-275.12 1177,-275.12"/>
<text text-anchor="start" x="1181" y="-281.88" font-family="Helvetica,sans-Serif" font-weight="bold" font-size="10.00">&lt;sense&gt;</text>
<text text-anchor="start" x="1220" y="-281.88" font-family="Helvetica,sans-Serif" font-size="10.00"> ana: #WLSPH.1.1624</text>
</g>
<!-- e_fuyu&#45;&gt;wlsph -->
<g id="edge29" class="edge">
<title>e_fuyu&#45;&gt;wlsph</title>
<path fill="none" stroke="#bb6633" stroke-width="0.9" d="M1307.65,-352.67C1320.41,-361.33 1330.25,-368 1330.25,-368 1330.25,-368 1411.42,-436.07 1468.21,-483.69"/>
<polygon fill="#bb6633" stroke="#bb6633" stroke-width="0.9" points="1465.79,-486.23 1475.7,-489.97 1470.29,-480.86 1465.79,-486.23"/>
</g>
<!-- e_comp -->
<g id="node24" class="node">
<title>e_comp</title>
<polygon fill="#ccaa44" stroke="none" points="996,-645 996,-664.25 1073.75,-664.25 1073.75,-645 996,-645"/>
<polygon fill="none" stroke="black" points="996,-645 996,-664.25 1073.75,-664.25 1073.75,-645 996,-645"/>
<text text-anchor="start" x="1017.25" y="-651.75" font-family="Helvetica,sans-Serif" font-weight="bold" font-size="10.00">&lt;entry&gt;</text>
<polygon fill="none" stroke="black" points="996,-625 996,-645 1073.75,-645 1073.75,-625 996,-625"/>
<text text-anchor="start" x="1000" y="-631.5" font-family="Helvetica,sans-Serif" font-size="10.00">xml:id: 春霞</text>
<polygon fill="none" stroke="black" points="996,-605.75 996,-625 1073.75,-625 1073.75,-605.75 996,-605.75"/>
<text text-anchor="start" x="1000" y="-611.5" font-family="Helvetica,sans-Serif" font-size="10.00">type: compound</text>
</g>
<!-- e_comp&#45;&gt;e_haru -->
<g id="edge19" class="edge">
<title>e_comp&#45;&gt;e_haru</title>
<path fill="none" stroke="#997722" stroke-width="0.9" stroke-dasharray="5,2" d="M1073.42,-635C1099.03,-635 1133.97,-635 1165.91,-635"/>
<polygon fill="#997722" stroke="#997722" stroke-width="0.9" points="1165.7,-638.5 1175.7,-635 1165.7,-631.5 1165.7,-638.5"/>
<text text-anchor="middle" x="1099.79" y="-627.4" font-family="Helvetica,sans-Serif" font-size="8.00">component</text>
</g>
<!-- wlsph&#45;&gt;person -->
<!-- person&#45;&gt;surface -->
</g>
</svg>
