<?xml version="1.0" encoding="UTF-8" standalone="no"?>
<!DOCTYPE svg PUBLIC "-//W3C//DTD SVG 1.1//EN"
 "http://www.w3.org/Graphics/SVG/1.1/DTD/svg11.dtd">
<!-- Generated by graphviz version 12.2.1 (0)
 -->
<!-- Title: kokin Pages: 1 -->
<svg width="1868pt" height="1546pt"
 viewBox="0.00 0.00 1867.75 1546.00" xmlns="http://www.w3.org/2000/svg" xmlns:xlink="http://www.w3.org/1999/xlink">
<g id="graph0" class="graph" transform="scale(1 1) rotate(0) translate(4 1542)">
<title>kokin</title>
<polygon fill="#faf9f7" stroke="none" points="-4,4 -4,-1542 1863.75,-1542 1863.75,4 -4,4"/>
<g id="clust1" class="cluster">
<title>cluster_body</title>
<path fill="#eef4fb" stroke="#7aaad0" d="M20,-1141C20,-1141 992.25,-1141 992.25,-1141 998.25,-1141 1004.25,-1147 1004.25,-1153 1004.25,-1153 1004.25,-1518 1004.25,-1518 1004.25,-1524 998.25,-1530 992.25,-1530 992.25,-1530 20,-1530 20,-1530 14,-1530 8,-1524 8,-1518 8,-1518 8,-1153 8,-1153 8,-1147 14,-1141 20,-1141"/>
<text text-anchor="middle" x="506.12" y="-1514.6" font-family="Helvetica,sans-Serif" font-size="12.00">&lt;body&gt;</text>
</g>
<g id="clust2" class="cluster">
<title>cluster_back</title>
<path fill="#f5f5f0" stroke="#888877" d="M44.12,-8C44.12,-8 1839.75,-8 1839.75,-8 1845.75,-8 1851.75,-14 1851.75,-20 1851.75,-20 1851.75,-1121 1851.75,-1121 1851.75,-1127 1845.75,-1133 1839.75,-1133 1839.75,-1133 44.13,-1133 44.13,-1133 38.13,-1133 32.12,-1127 32.12,-1121 32.12,-1121 32.12,-20 32.12,-20 32.12,-14 38.12,-8 44.12,-8"/>
<text text-anchor="middle" x="941.94" y="-1117.6" font-family="Helvetica,sans-Serif" font-size="12.00">&lt;back&gt;</text>
</g>
<g id="clust3" class="cluster">
<title>cluster_ri</title>
<path fill="#f0f7ee" stroke="#88bb77" d="M52.12,-609C52.12,-609 1175.5,-609 1175.5,-609 1181.5,-609 1187.5,-615 1187.5,-621 1187.5,-621 1187.5,-780 1187.5,-780 1187.5,-786 1181.5,-792 1175.5,-792 1175.5,-792 52.12,-792 52.12,-792 46.12,-792 40.12,-786 40.12,-780 40.12,-780 40.12,-621 40.12,-621 40.12,-615 46.12,-609 52.12,-609"/>
<text text-anchor="middle" x="613.81" y="-778.5" font-family="Helvetica,sans-Serif" font-size="10.00">reading&#45;index</text>
</g>
<g id="clust4" class="cluster">
<title>cluster_dict</title>
<path fill="#fef9ec" stroke="#ccaa44" d="M269.5,-243C269.5,-243 1530.75,-243 1530.75,-243 1536.75,-243 1542.75,-249 1542.75,-255 1542.75,-255 1542.75,-589 1542.75,-589 1542.75,-595 1536.75,-601 1530.75,-601 1530.75,-601 269.5,-601 269.5,-601 263.5,-601 257.5,-595 257.5,-589 257.5,-589 257.5,-255 257.5,-255 257.5,-249 263.5,-243 269.5,-243"/>
<text text-anchor="middle" x="900.12" y="-587.5" font-family="Helvetica,sans-Serif" font-size="10.00">dictionary</text>
</g>
<g id="clust5" class="cluster">
<title>cluster_cls</title>
<path fill="#fdf0f0" stroke="#cc8888" d="M500,-16C500,-16 1831.75,-16 1831.75,-16 1837.75,-16 1843.75,-22 1843.75,-28 1843.75,-28 1843.75,-223 1843.75,-223 1843.75,-229 1837.75,-235 1831.75,-235 1831.75,-235 500,-235 500,-235 494,-235 488,-229 488,-223 488,-223 488,-28 488,-28 488,-22 494,-16 500,-16"/>
<text text-anchor="middle" x="1165.88" y="-221.5" font-family="Helvetica,sans-Serif" font-size="10.00">classification</text>
</g>
<g id="clust6" class="cluster">
<title>cluster_person</title>
<path fill="#f5f0fb" stroke="#9977cc" d="M646.25,-882C646.25,-882 794.75,-882 794.75,-882 800.75,-882 806.75,-888 806.75,-894 806.75,-894 806.75,-1092 806.75,-1092 806.75,-1098 800.75,-1104 794.75,-1104 794.75,-1104 646.25,-1104 646.25,-1104 640.25,-1104 634.25,-1098 634.25,-1092 634.25,-1092 634.25,-894 634.25,-894 634.25,-888 640.25,-882 646.25,-882"/>
<text text-anchor="middle" x="720.5" y="-1090.5" font-family="Helvetica,sans-Serif" font-size="10.00">listPerson</text>
</g>
<g id="clust7" class="cluster">
<title>cluster_facs</title>
<path fill="#f7f0ea" stroke="#bb9966" d="M469.38,-800C469.38,-800 944,-800 944,-800 950,-800 956,-806 956,-812 956,-812 956,-862 956,-862 956,-868 950,-874 944,-874 944,-874 469.38,-874 469.38,-874 463.38,-874 457.38,-868 457.38,-862 457.38,-862 457.38,-812 457.38,-812 457.38,-806 463.38,-800 469.38,-800"/>
<text text-anchor="middle" x="706.69" y="-860.5" font-family="Helvetica,sans-Serif" font-size="10.00">facsimile</text>
</g>
<!-- b_div -->
<g id="node1" class="node">
<title>b_div</title>
<polygon fill="#7aaad0" stroke="none" points="16,-1316.38 16,-1335.62 80.25,-1335.62 80.25,-1316.38 16,-1316.38"/>
<polygon fill="none" stroke="black" points="16,-1316.38 16,-1335.62 80.25,-1335.62 80.25,-1316.38 16,-1316.38"/>
<text text-anchor="start" x="35" y="-1323.12" font-family="Helvetica,sans-Serif" font-weight="bold" font-size="10.00">&lt;div&gt;</text>
<polygon fill="none" stroke="black" points="16,-1296.38 16,-1316.38 80.25,-1316.38 80.25,-1296.38 16,-1296.38"/>
<text text-anchor="start" x="20" y="-1302.88" font-family="Helvetica,sans-Serif" font-size="10.00">type: 部立</text>
<polygon fill="none" stroke="black" points="16,-1276.38 16,-1296.38 80.25,-1296.38 80.25,-1276.38 16,-1276.38"/>
<text text-anchor="start" x="20" y="-1282.88" font-family="Helvetica,sans-Serif" font-size="10.00">head: 春哥上</text>
</g>
<!-- b_note_d -->
<g id="node2" class="node">
<title>b_note_d</title>
<polygon fill="#7aaad0" stroke="none" points="181.25,-1394.69 181.25,-1413.94 349.75,-1413.94 349.75,-1394.69 181.25,-1394.69"/>
<polygon fill="none" stroke="black" points="181.25,-1394.69 181.25,-1413.94 349.75,-1413.94 349.75,-1394.69 181.25,-1394.69"/>
<text text-anchor="start" x="249.38" y="-1401.44" font-family="Helvetica,sans-Serif" font-weight="bold" font-size="10.00">&lt;note&gt;</text>
<polygon fill="none" stroke="black" points="181.25,-1374.69 181.25,-1394.69 349.75,-1394.69 349.75,-1374.69 181.25,-1374.69"/>
<text text-anchor="start" x="185.25" y="-1381.19" font-family="Helvetica,sans-Serif" font-size="10.00">type: 詞書</text>
<polygon fill="none" stroke="black" points="181.25,-1355.44 181.25,-1374.69 349.75,-1374.69 349.75,-1355.44 181.25,-1355.44"/>
<text text-anchor="start" x="185.25" y="-1361.19" font-family="Helvetica,sans-Serif" font-size="10.00">target: #n1</text>
<polygon fill="none" stroke="black" points="181.25,-1336.06 181.25,-1355.44 349.75,-1355.44 349.75,-1336.06 181.25,-1336.06"/>
<text text-anchor="start" x="185.25" y="-1341.94" font-family="Helvetica,sans-Serif" font-size="10.00">ふるとしに[app]たちける[app]よめる</text>
</g>
<!-- b_div&#45;&gt;b_note_d -->
<g id="edge1" class="edge">
<title>b_div&#45;&gt;b_note_d</title>
<path fill="none" stroke="#888888" stroke-width="0.9" stroke-dasharray="5,2" d="M79.98,-1315.89C103.91,-1323.55 138.4,-1334.6 171.11,-1345.08"/>
<polygon fill="#888888" stroke="#888888" stroke-width="0.9" points="169.76,-1348.32 180.35,-1348.04 171.89,-1341.66 169.76,-1348.32"/>
</g>
<!-- b_note_a -->
<g id="node6" class="node">
<title>b_note_a</title>
<polygon fill="#7aaad0" stroke="none" points="234.5,-1256.38 234.5,-1275.62 296.5,-1275.62 296.5,-1256.38 234.5,-1256.38"/>
<polygon fill="none" stroke="black" points="234.5,-1256.38 234.5,-1275.62 296.5,-1275.62 296.5,-1256.38 234.5,-1256.38"/>
<text text-anchor="start" x="249.38" y="-1263.12" font-family="Helvetica,sans-Serif" font-weight="bold" font-size="10.00">&lt;note&gt;</text>
<polygon fill="none" stroke="black" points="234.5,-1236.38 234.5,-1256.38 296.5,-1256.38 296.5,-1236.38 234.5,-1236.38"/>
<text text-anchor="start" x="238.5" y="-1242.88" font-family="Helvetica,sans-Serif" font-size="10.00">type: 作者名</text>
</g>
<!-- b_div&#45;&gt;b_note_a -->
<g id="edge2" class="edge">
<title>b_div&#45;&gt;b_note_a</title>
<path fill="none" stroke="#888888" stroke-width="0.9" stroke-dasharray="5,2" d="M79.98,-1298.84C117.81,-1290.06 182.02,-1275.15 223.84,-1265.44"/>
<polygon fill="#888888" stroke="#888888" stroke-width="0.9" points="224.46,-1268.89 233.41,-1263.22 222.88,-1262.07 224.46,-1268.89"/>
</g>
<!-- b_l -->
<g id="node8" class="node">
<title>b_l</title>
<polygon fill="#7aaad0" stroke="none" points="457.5,-1325.62 457.5,-1344.88 534.5,-1344.88 534.5,-1325.62 457.5,-1325.62"/>
<polygon fill="none" stroke="black" points="457.5,-1325.62 457.5,-1344.88 534.5,-1344.88 534.5,-1325.62 457.5,-1325.62"/>
<text text-anchor="start" x="488.5" y="-1332.38" font-family="Helvetica,sans-Serif" font-weight="bold" font-size="10.00">&lt;l&gt;</text>
<polygon fill="none" stroke="black" points="457.5,-1306.38 457.5,-1325.62 534.5,-1325.62 534.5,-1306.38 457.5,-1306.38"/>
<text text-anchor="start" x="461.5" y="-1312.12" font-family="Helvetica,sans-Serif" font-size="10.00">n: 1</text>
<polygon fill="none" stroke="black" points="457.5,-1287.12 457.5,-1306.38 534.5,-1306.38 534.5,-1287.12 457.5,-1287.12"/>
<text text-anchor="start" x="461.5" y="-1292.88" font-family="Helvetica,sans-Serif" font-size="10.00">xml:id: n1</text>
<polygon fill="none" stroke="black" points="457.5,-1267.12 457.5,-1287.12 534.5,-1287.12 534.5,-1267.12 457.5,-1267.12"/>
<text text-anchor="start" x="461.5" y="-1273.62" font-family="Helvetica,sans-Serif" font-size="10.00">resp: #在原元方</text>
</g>
<!-- b_div&#45;&gt;b_l -->
<g id="edge3" class="edge">
<title>b_div&#45;&gt;b_l</title>
<path fill="none" stroke="#888888" stroke-width="0.9" stroke-dasharray="5,2" d="M80.12,-1306C156.54,-1306 354.42,-1306 446.52,-1306"/>
<polygon fill="#888888" stroke="#888888" stroke-width="0.9" points="446.38,-1309.5 456.38,-1306 446.38,-1302.5 446.38,-1309.5"/>
<text text-anchor="middle" x="248.7" y="-1298.4" font-family="Helvetica,sans-Serif" font-size="8.00">contains</text>
</g>
<!-- b_phr -->
<g id="node15" class="node">
<title>b_phr</title>
<polygon fill="#7aaad0" stroke="none" points="198.12,-1481.69 198.12,-1500.94 332.88,-1500.94 332.88,-1481.69 198.12,-1481.69"/>
<polygon fill="none" stroke="black" points="198.12,-1481.69 198.12,-1500.94 332.88,-1500.94 332.88,-1481.69 198.12,-1481.69"/>
<text text-anchor="start" x="251.62" y="-1488.44" font-family="Helvetica,sans-Serif" font-weight="bold" font-size="10.00">&lt;phr&gt;</text>
<polygon fill="none" stroke="black" points="198.12,-1462.44 198.12,-1481.69 332.88,-1481.69 332.88,-1462.44 198.12,-1462.44"/>
<text text-anchor="start" x="202.12" y="-1468.19" font-family="Helvetica,sans-Serif" font-size="10.00">xml:id: kana1&#45;1</text>
<polygon fill="none" stroke="black" points="198.12,-1443.06 198.12,-1462.44 332.88,-1462.44 332.88,-1443.06 198.12,-1443.06"/>
<text text-anchor="start" x="202.12" y="-1448.94" font-family="Helvetica,sans-Serif" font-size="10.00">やまとうたは人のこゝろを…</text>
</g>
<!-- b_div&#45;&gt;b_phr -->
<g id="edge4" class="edge">
<title>b_div&#45;&gt;b_phr</title>
<path fill="none" stroke="#888888" stroke-width="0.9" stroke-dasharray="5,2" d="M78.45,-1335.52C117.37,-1374.7 181.25,-1439 181.25,-1439 181.25,-1439 183.9,-1440.05 188.26,-1441.78"/>
<polygon fill="#888888" stroke="#888888" stroke-width="0.9" points="186.65,-1444.9 197.23,-1445.34 189.23,-1438.4 186.65,-1444.9"/>
</g>
<!-- b_pb -->
<g id="node16" class="node">
<title>b_pb</title>
<polygon fill="#7aaad0" stroke="none" points="236,-1187.62 236,-1206.88 295,-1206.88 295,-1187.62 236,-1187.62"/>
<polygon fill="none" stroke="black" points="236,-1187.62 236,-1206.88 295,-1206.88 295,-1187.62 236,-1187.62"/>
<text text-anchor="start" x="253.5" y="-1194.38" font-family="Helvetica,sans-Serif" font-weight="bold" font-size="10.00">&lt;pb&gt;</text>
<polygon fill="none" stroke="black" points="236,-1168.38 236,-1187.62 295,-1187.62 295,-1168.38 236,-1168.38"/>
<text text-anchor="start" x="240" y="-1174.12" font-family="Helvetica,sans-Serif" font-size="10.00">n: 1&#45;1r</text>
<polygon fill="none" stroke="black" points="236,-1149.12 236,-1168.38 295,-1168.38 295,-1149.12 236,-1149.12"/>
<text text-anchor="start" x="240" y="-1154.88" font-family="Helvetica,sans-Serif" font-size="10.00">facs: #p001</text>
</g>
<!-- b_div&#45;&gt;b_pb -->
<g id="edge5" class="edge">
<title>b_div&#45;&gt;b_pb</title>
<path fill="none" stroke="#888888" stroke-width="0.9" stroke-dasharray="5,2" d="M79.98,-1287.66C118.64,-1264.69 184.86,-1225.33 226.57,-1200.54"/>
<polygon fill="#888888" stroke="#888888" stroke-width="0.9" points="228.12,-1203.69 234.93,-1195.57 224.55,-1197.67 228.12,-1203.69"/>
</g>
<!-- b_app -->
<g id="node3" class="node">
<title>b_app</title>
<polygon fill="#7aaad0" stroke="none" points="477.38,-1375.38 477.38,-1394.62 514.62,-1394.62 514.62,-1375.38 477.38,-1375.38"/>
<polygon fill="none" stroke="black" points="477.38,-1375.38 477.38,-1394.62 514.62,-1394.62 514.62,-1375.38 477.38,-1375.38"/>
<text text-anchor="start" x="481.38" y="-1382.12" font-family="Helvetica,sans-Serif" font-weight="bold" font-size="10.00">&lt;app&gt;</text>
</g>
<!-- b_note_d&#45;&gt;b_app -->
<g id="edge6" class="edge">
<title>b_note_d&#45;&gt;b_app</title>
<path fill="none" stroke="#888888" stroke-width="0.9" stroke-dasharray="5,2" d="M349.64,-1378.64C390.69,-1380.43 437.54,-1382.49 466.69,-1383.76"/>
<polygon fill="#888888" stroke="#888888" stroke-width="0.9" points="466.17,-1387.24 476.31,-1384.18 466.48,-1380.25 466.17,-1387.24"/>
</g>
<!-- b_note_d&#45;&gt;b_l -->
<g id="edge7" class="edge">
<title>b_note_d&#45;&gt;b_l</title>
<path fill="none" stroke="#448899" stroke-width="0.9" d="M349.64,-1349.89C382.31,-1340.03 418.65,-1329.05 446.83,-1320.55"/>
<polygon fill="#448899" stroke="#448899" stroke-width="0.9" points="447.72,-1323.93 456.28,-1317.69 445.7,-1317.23 447.72,-1323.93"/>
<text text-anchor="middle" x="387.73" y="-1327.62" font-family="Helvetica,sans-Serif" font-size="8.00">target</text>
</g>
<!-- b_lem -->
<g id="node4" class="node">
<title>b_lem</title>
<polygon fill="#7aaad0" stroke="none" points="699.62,-1394.62 699.62,-1413.88 741.38,-1413.88 741.38,-1394.62 699.62,-1394.62"/>
<polygon fill="none" stroke="black" points="699.62,-1394.62 699.62,-1413.88 741.38,-1413.88 741.38,-1394.62 699.62,-1394.62"/>
<text text-anchor="start" x="705.88" y="-1401.38" font-family="Helvetica,sans-Serif" font-weight="bold" font-size="10.00">&lt;lem&gt;</text>
<polygon fill="none" stroke="black" points="699.62,-1374.62 699.62,-1394.62 741.38,-1394.62 741.38,-1374.62 699.62,-1374.62"/>
<text text-anchor="start" x="703.62" y="-1381.12" font-family="Helvetica,sans-Serif" font-size="10.00">wit: #国</text>
<polygon fill="none" stroke="black" points="699.62,-1356.12 699.62,-1374.62 741.38,-1374.62 741.38,-1356.12 699.62,-1356.12"/>
<text text-anchor="start" x="703.62" y="-1361.12" font-family="Helvetica,sans-Serif" font-size="10.00">春</text>
</g>
<!-- b_app&#45;&gt;b_lem -->
<g id="edge9" class="edge">
<title>b_app&#45;&gt;b_lem</title>
<path fill="none" stroke="#888888" stroke-width="0.9" stroke-dasharray="5,2" d="M514.46,-1385C552.14,-1385 641.51,-1385 688.85,-1385"/>
<polygon fill="#888888" stroke="#888888" stroke-width="0.9" points="688.56,-1388.5 698.56,-1385 688.56,-1381.5 688.56,-1388.5"/>
</g>
<!-- b_rdg -->
<g id="node5" class="node">
<title>b_rdg</title>
<polygon fill="#7aaad0" stroke="none" points="699.62,-1481.62 699.62,-1500.88 741.38,-1500.88 741.38,-1481.62 699.62,-1481.62"/>
<polygon fill="none" stroke="black" points="699.62,-1481.62 699.62,-1500.88 741.38,-1500.88 741.38,-1481.62 699.62,-1481.62"/>
<text text-anchor="start" x="706.62" y="-1488.38" font-family="Helvetica,sans-Serif" font-weight="bold" font-size="10.00">&lt;rdg&gt;</text>
<polygon fill="none" stroke="black" points="699.62,-1461.62 699.62,-1481.62 741.38,-1481.62 741.38,-1461.62 699.62,-1461.62"/>
<text text-anchor="start" x="703.62" y="-1468.12" font-family="Helvetica,sans-Serif" font-size="10.00">wit: #前</text>
<polygon fill="none" stroke="black" points="699.62,-1443.12 699.62,-1461.62 741.38,-1461.62 741.38,-1443.12 699.62,-1443.12"/>
<text text-anchor="start" x="703.62" y="-1448.12" font-family="Helvetica,sans-Serif" font-size="10.00">春の</text>
</g>
<!-- b_app&#45;&gt;b_rdg -->
<g id="edge10" class="edge">
<title>b_app&#45;&gt;b_rdg</title>
<path fill="none" stroke="#888888" stroke-width="0.9" stroke-dasharray="5,2" d="M514.46,-1391.83C552.3,-1406.62 642.26,-1441.8 689.45,-1460.25"/>
<polygon fill="#888888" stroke="#888888" stroke-width="0.9" points="688.06,-1463.47 698.65,-1463.85 690.61,-1456.95 688.06,-1463.47"/>
</g>
<!-- b_persname -->
<g id="node7" class="node">
<title>b_persname</title>
<polygon fill="#7aaad0" stroke="none" points="450.75,-1213.62 450.75,-1232.88 541.25,-1232.88 541.25,-1213.62 450.75,-1213.62"/>
<polygon fill="none" stroke="black" points="450.75,-1213.62 450.75,-1232.88 541.25,-1232.88 541.25,-1213.62 450.75,-1213.62"/>
<text text-anchor="start" x="466.38" y="-1220.38" font-family="Helvetica,sans-Serif" font-weight="bold" font-size="10.00">&lt;persName&gt;</text>
<polygon fill="none" stroke="black" points="450.75,-1193.62 450.75,-1213.62 541.25,-1213.62 541.25,-1193.62 450.75,-1193.62"/>
<text text-anchor="start" x="454.75" y="-1200.12" font-family="Helvetica,sans-Serif" font-size="10.00">type: 作者</text>
<polygon fill="none" stroke="black" points="450.75,-1173.62 450.75,-1193.62 541.25,-1193.62 541.25,-1173.62 450.75,-1173.62"/>
<text text-anchor="start" x="454.75" y="-1180.12" font-family="Helvetica,sans-Serif" font-size="10.00">corresp: #在原元方</text>
<polygon fill="none" stroke="black" points="450.75,-1155.12 450.75,-1173.62 541.25,-1173.62 541.25,-1155.12 450.75,-1155.12"/>
<text text-anchor="start" x="454.75" y="-1160.12" font-family="Helvetica,sans-Serif" font-size="10.00">在原元方</text>
</g>
<!-- b_note_a&#45;&gt;b_persname -->
<g id="edge8" class="edge">
<title>b_note_a&#45;&gt;b_persname</title>
<path fill="none" stroke="#888888" stroke-width="0.9" stroke-dasharray="5,2" d="M296.37,-1247.89C332.81,-1238.01 395.1,-1221.11 440.23,-1208.86"/>
<polygon fill="#888888" stroke="#888888" stroke-width="0.9" points="440.97,-1212.29 449.7,-1206.29 439.14,-1205.53 440.97,-1212.29"/>
</g>
<!-- person -->
<g id="node35" class="node">
<title>person</title>
<polygon fill="#9977cc" stroke="none" points="642.25,-1057.62 642.25,-1076.88 798.75,-1076.88 798.75,-1057.62 642.25,-1057.62"/>
<polygon fill="none" stroke="black" points="642.25,-1057.62 642.25,-1076.88 798.75,-1076.88 798.75,-1057.62 642.25,-1057.62"/>
<text text-anchor="start" x="698.38" y="-1064.38" font-family="Helvetica,sans-Serif" font-weight="bold" font-size="10.00">&lt;person&gt;</text>
<polygon fill="none" stroke="black" points="642.25,-1037.62 642.25,-1057.62 798.75,-1057.62 798.75,-1037.62 642.25,-1037.62"/>
<text text-anchor="start" x="646.25" y="-1044.12" font-family="Helvetica,sans-Serif" font-size="10.00">xml:id: 在原元方</text>
<polygon fill="none" stroke="black" points="642.25,-1018.38 642.25,-1037.62 798.75,-1037.62 798.75,-1018.38 642.25,-1018.38"/>
<text text-anchor="start" x="646.25" y="-1024.12" font-family="Helvetica,sans-Serif" font-size="10.00">sex: 1</text>
<polygon fill="none" stroke="black" points="642.25,-998.38 642.25,-1018.38 798.75,-1018.38 798.75,-998.38 642.25,-998.38"/>
<text text-anchor="start" x="646.25" y="-1004.88" font-family="Helvetica,sans-Serif" font-size="10.00">persName: ありわらの／もとかた</text>
<polygon fill="none" stroke="black" points="642.25,-978.38 642.25,-998.38 798.75,-998.38 798.75,-978.38 642.25,-978.38"/>
<text text-anchor="start" x="646.25" y="-984.88" font-family="Helvetica,sans-Serif" font-size="10.00">birth: 不明</text>
<polygon fill="none" stroke="black" points="642.25,-958.38 642.25,-978.38 798.75,-978.38 798.75,-958.38 642.25,-958.38"/>
<text text-anchor="start" x="646.25" y="-964.88" font-family="Helvetica,sans-Serif" font-size="10.00">death: 不明</text>
<polygon fill="none" stroke="black" points="642.25,-939.12 642.25,-958.38 798.75,-958.38 798.75,-939.12 642.25,-939.12"/>
<text text-anchor="start" x="646.25" y="-944.88" font-family="Helvetica,sans-Serif" font-size="10.00">idno[VIAF]: viaf/114305486</text>
<polygon fill="none" stroke="black" points="642.25,-919.12 642.25,-939.12 798.75,-939.12 798.75,-919.12 642.25,-919.12"/>
<text text-anchor="start" x="646.25" y="-925.62" font-family="Helvetica,sans-Serif" font-size="10.00">idno[国書DB]: 588363</text>
</g>
<!-- b_persname&#45;&gt;person -->
<g id="edge35" class="edge">
<title>b_persname&#45;&gt;person</title>
<path fill="none" stroke="#7755aa" stroke-width="0.9" d="M540.96,-1155.28C567.47,-1131.93 602.14,-1101.39 633.87,-1073.43"/>
<polygon fill="#7755aa" stroke="#7755aa" stroke-width="0.9" points="636.08,-1076.15 641.27,-1066.91 631.46,-1070.89 636.08,-1076.15"/>
<text text-anchor="middle" x="573.91" y="-1106.76" font-family="Helvetica,sans-Serif" font-size="8.00">corresp</text>
</g>
<!-- b_seg1 -->
<g id="node9" class="node">
<title>b_seg1</title>
<polygon fill="#7aaad0" stroke="none" points="697,-1240.62 697,-1259.88 744,-1259.88 744,-1240.62 697,-1240.62"/>
<polygon fill="none" stroke="black" points="697,-1240.62 697,-1259.88 744,-1259.88 744,-1240.62 697,-1240.62"/>
<text text-anchor="start" x="706.25" y="-1247.38" font-family="Helvetica,sans-Serif" font-weight="bold" font-size="10.00">&lt;seg&gt;</text>
<polygon fill="none" stroke="black" points="697,-1222.12 697,-1240.62 744,-1240.62 744,-1222.12 697,-1222.12"/>
<text text-anchor="start" x="701" y="-1227.12" font-family="Helvetica,sans-Serif" font-size="10.00">年の内に</text>
</g>
<!-- b_l&#45;&gt;b_seg1 -->
<g id="edge11" class="edge">
<title>b_l&#45;&gt;b_seg1</title>
<path fill="none" stroke="#888888" stroke-width="0.9" stroke-dasharray="5,2" d="M534.49,-1295.05C577.06,-1282.61 645.84,-1262.52 686.47,-1250.65"/>
<polygon fill="#888888" stroke="#888888" stroke-width="0.9" points="687.21,-1254.08 695.82,-1247.92 685.24,-1247.36 687.21,-1254.08"/>
</g>
<!-- b_seg2 -->
<g id="node12" class="node">
<title>b_seg2</title>
<polygon fill="#7aaad0" stroke="none" points="687.25,-1307.62 687.25,-1326.88 753.75,-1326.88 753.75,-1307.62 687.25,-1307.62"/>
<polygon fill="none" stroke="black" points="687.25,-1307.62 687.25,-1326.88 753.75,-1326.88 753.75,-1307.62 687.25,-1307.62"/>
<text text-anchor="start" x="706.25" y="-1314.38" font-family="Helvetica,sans-Serif" font-weight="bold" font-size="10.00">&lt;seg&gt;</text>
<polygon fill="none" stroke="black" points="687.25,-1289.12 687.25,-1307.62 753.75,-1307.62 753.75,-1289.12 687.25,-1289.12"/>
<text text-anchor="start" x="691.25" y="-1294.12" font-family="Helvetica,sans-Serif" font-size="10.00">春はきにけり</text>
</g>
<!-- b_l&#45;&gt;b_seg2 -->
<g id="edge12" class="edge">
<title>b_l&#45;&gt;b_seg2</title>
<path fill="none" stroke="#888888" stroke-width="0.9" stroke-dasharray="5,2" d="M534.49,-1306.34C573.58,-1306.69 634.77,-1307.24 675.97,-1307.61"/>
<polygon fill="#888888" stroke="#888888" stroke-width="0.9" points="675.89,-1311.11 685.92,-1307.7 675.95,-1304.11 675.89,-1311.11"/>
</g>
<!-- b_l&#45;&gt;person -->
<g id="edge36" class="edge">
<title>b_l&#45;&gt;person</title>
<path fill="none" stroke="#7755aa" stroke-width="0.9" d="M534.34,-1269.72C538.48,-1265.69 541.25,-1263 541.25,-1263 541.25,-1263 608.39,-1163.19 660.26,-1086.07"/>
<polygon fill="#7755aa" stroke="#7755aa" stroke-width="0.9" points="663.06,-1088.17 665.74,-1077.92 657.26,-1084.27 663.06,-1088.17"/>
<text text-anchor="middle" x="590.19" y="-1170.94" font-family="Helvetica,sans-Serif" font-size="8.00">resp</text>
</g>
<!-- b_w_toshi -->
<g id="node10" class="node">
<title>b_w_toshi</title>
<polygon fill="#7aaad0" stroke="none" points="899.75,-1187.62 899.75,-1206.88 996.25,-1206.88 996.25,-1187.62 899.75,-1187.62"/>
<polygon fill="none" stroke="black" points="899.75,-1187.62 899.75,-1206.88 996.25,-1206.88 996.25,-1187.62 899.75,-1187.62"/>
<text text-anchor="start" x="938.25" y="-1194.38" font-family="Helvetica,sans-Serif" font-weight="bold" font-size="10.00">&lt;w&gt;</text>
<polygon fill="none" stroke="black" points="899.75,-1169.12 899.75,-1187.62 996.25,-1187.62 996.25,-1169.12 899.75,-1169.12"/>
<text text-anchor="start" x="903.75" y="-1174.12" font-family="Helvetica,sans-Serif" font-size="10.00">年</text>
<polygon fill="none" stroke="black" points="899.75,-1149.12 899.75,-1169.12 996.25,-1169.12 996.25,-1149.12 899.75,-1149.12"/>
<text text-anchor="start" x="903.75" y="-1155.62" font-family="Helvetica,sans-Serif" font-size="10.00">lemmaRef: #とし.年</text>
</g>
<!-- b_seg1&#45;&gt;b_w_toshi -->
<g id="edge13" class="edge">
<title>b_seg1&#45;&gt;b_w_toshi</title>
<path fill="none" stroke="#888888" stroke-width="0.9" stroke-dasharray="5,2" d="M743.9,-1234.96C769.16,-1228.14 806.75,-1218 806.75,-1218 806.75,-1218 850.54,-1205.51 889.19,-1194.49"/>
<polygon fill="#888888" stroke="#888888" stroke-width="0.9" points="889.94,-1197.91 898.6,-1191.8 888.02,-1191.18 889.94,-1197.91"/>
</g>
<!-- b_w_no -->
<g id="node11" class="node">
<title>b_w_no</title>
<polygon fill="#7aaad0" stroke="none" points="904.62,-1274.62 904.62,-1293.88 991.38,-1293.88 991.38,-1274.62 904.62,-1274.62"/>
<polygon fill="none" stroke="black" points="904.62,-1274.62 904.62,-1293.88 991.38,-1293.88 991.38,-1274.62 904.62,-1274.62"/>
<text text-anchor="start" x="938.25" y="-1281.38" font-family="Helvetica,sans-Serif" font-weight="bold" font-size="10.00">&lt;w&gt;</text>
<polygon fill="none" stroke="black" points="904.62,-1256.12 904.62,-1274.62 991.38,-1274.62 991.38,-1256.12 904.62,-1256.12"/>
<text text-anchor="start" x="908.62" y="-1261.12" font-family="Helvetica,sans-Serif" font-size="10.00">の</text>
<polygon fill="none" stroke="black" points="904.62,-1236.12 904.62,-1256.12 991.38,-1256.12 991.38,-1236.12 904.62,-1236.12"/>
<text text-anchor="start" x="908.62" y="-1242.62" font-family="Helvetica,sans-Serif" font-size="10.00">lemmaRef: #の.の</text>
</g>
<!-- b_seg1&#45;&gt;b_w_no -->
<g id="edge14" class="edge">
<title>b_seg1&#45;&gt;b_w_no</title>
<path fill="none" stroke="#888888" stroke-width="0.9" stroke-dasharray="5,2" d="M743.95,-1243.39C778.6,-1247.08 846.09,-1254.26 893.74,-1259.33"/>
<polygon fill="#888888" stroke="#888888" stroke-width="0.9" points="893.11,-1262.78 903.43,-1260.36 893.86,-1255.82 893.11,-1262.78"/>
</g>
<!-- b_w_haru -->
<g id="node13" class="node">
<title>b_w_haru</title>
<polygon fill="#7aaad0" stroke="none" points="899.75,-1361.62 899.75,-1380.88 996.25,-1380.88 996.25,-1361.62 899.75,-1361.62"/>
<polygon fill="none" stroke="black" points="899.75,-1361.62 899.75,-1380.88 996.25,-1380.88 996.25,-1361.62 899.75,-1361.62"/>
<text text-anchor="start" x="938.25" y="-1368.38" font-family="Helvetica,sans-Serif" font-weight="bold" font-size="10.00">&lt;w&gt;</text>
<polygon fill="none" stroke="black" points="899.75,-1343.12 899.75,-1361.62 996.25,-1361.62 996.25,-1343.12 899.75,-1343.12"/>
<text text-anchor="start" x="903.75" y="-1348.12" font-family="Helvetica,sans-Serif" font-size="10.00">春</text>
<polygon fill="none" stroke="black" points="899.75,-1323.12 899.75,-1343.12 996.25,-1343.12 996.25,-1323.12 899.75,-1323.12"/>
<text text-anchor="start" x="903.75" y="-1329.62" font-family="Helvetica,sans-Serif" font-size="10.00">lemmaRef: #はる.春</text>
</g>
<!-- b_seg2&#45;&gt;b_w_haru -->
<g id="edge15" class="edge">
<title>b_seg2&#45;&gt;b_w_haru</title>
<path fill="none" stroke="#888888" stroke-width="0.9" stroke-dasharray="5,2" d="M753.33,-1314.21C788.51,-1321.08 845.91,-1332.27 889.1,-1340.7"/>
<polygon fill="#888888" stroke="#888888" stroke-width="0.9" points="888.21,-1344.09 898.7,-1342.57 889.55,-1337.22 888.21,-1344.09"/>
</g>
<!-- b_w_ha -->
<g id="node14" class="node">
<title>b_w_ha</title>
<polygon fill="#7aaad0" stroke="none" points="904.62,-1448.62 904.62,-1467.88 991.38,-1467.88 991.38,-1448.62 904.62,-1448.62"/>
<polygon fill="none" stroke="black" points="904.62,-1448.62 904.62,-1467.88 991.38,-1467.88 991.38,-1448.62 904.62,-1448.62"/>
<text text-anchor="start" x="938.25" y="-1455.38" font-family="Helvetica,sans-Serif" font-weight="bold" font-size="10.00">&lt;w&gt;</text>
<polygon fill="none" stroke="black" points="904.62,-1430.12 904.62,-1448.62 991.38,-1448.62 991.38,-1430.12 904.62,-1430.12"/>
<text text-anchor="start" x="908.62" y="-1435.12" font-family="Helvetica,sans-Serif" font-size="10.00">は</text>
<polygon fill="none" stroke="black" points="904.62,-1410.12 904.62,-1430.12 991.38,-1430.12 991.38,-1410.12 904.62,-1410.12"/>
<text text-anchor="start" x="908.62" y="-1416.62" font-family="Helvetica,sans-Serif" font-size="10.00">lemmaRef: #は.は</text>
</g>
<!-- b_seg2&#45;&gt;b_w_ha -->
<g id="edge16" class="edge">
<title>b_seg2&#45;&gt;b_w_ha</title>
<path fill="none" stroke="#888888" stroke-width="0.9" stroke-dasharray="5,2" d="M753.33,-1326.49C790.24,-1347.93 851.6,-1383.58 895.36,-1409"/>
<polygon fill="#888888" stroke="#888888" stroke-width="0.9" points="893.38,-1411.9 903.79,-1413.9 896.9,-1405.85 893.38,-1411.9"/>
</g>
<!-- hom_haru -->
<g id="node19" class="node">
<title>hom_haru</title>
<polygon fill="#88bb77" stroke="none" points="1102.12,-745.38 1102.12,-764.62 1174.62,-764.62 1174.62,-745.38 1102.12,-745.38"/>
<polygon fill="none" stroke="black" points="1102.12,-745.38 1102.12,-764.62 1174.62,-764.62 1174.62,-745.38 1102.12,-745.38"/>
<text text-anchor="start" x="1121.88" y="-752.12" font-family="Helvetica,sans-Serif" font-weight="bold" font-size="10.00">&lt;hom&gt;</text>
<polygon fill="none" stroke="black" points="1102.12,-725.38 1102.12,-745.38 1174.62,-745.38 1174.62,-725.38 1102.12,-725.38"/>
<text text-anchor="start" x="1106.12" y="-731.88" font-family="Helvetica,sans-Serif" font-size="10.00">xml:id: はる.春</text>
<polygon fill="none" stroke="black" points="1102.12,-705.38 1102.12,-725.38 1174.62,-725.38 1174.62,-705.38 1102.12,-705.38"/>
<text text-anchor="start" x="1106.12" y="-711.88" font-family="Helvetica,sans-Serif" font-size="10.00">ref: #春</text>
</g>
<!-- b_w_haru&#45;&gt;hom_haru -->
<g id="edge28" class="edge">
<title>b_w_haru&#45;&gt;hom_haru</title>
<path fill="none" stroke="#4477bb" stroke-width="0.9" d="M996.1,-1323.87C1001.01,-1320.94 1004.25,-1319 1004.25,-1319 1004.25,-1319 1098.13,-907.14 1128.22,-775.17"/>
<polygon fill="#4477bb" stroke="#4477bb" stroke-width="0.9" points="1131.57,-776.22 1130.38,-765.69 1124.74,-774.66 1131.57,-776.22"/>
<text text-anchor="middle" x="1046.8" y="-1044.11" font-family="Helvetica,sans-Serif" font-size="8.00">lemmaRef</text>
</g>
<!-- surface -->
<g id="node37" class="node">
<title>surface</title>
<polygon fill="#bb9966" stroke="none" points="465.38,-827 465.38,-846.25 526.62,-846.25 526.62,-827 465.38,-827"/>
<polygon fill="none" stroke="black" points="465.38,-827 465.38,-846.25 526.62,-846.25 526.62,-827 465.38,-827"/>
<text text-anchor="start" x="473.12" y="-833.75" font-family="Helvetica,sans-Serif" font-weight="bold" font-size="10.00">&lt;surface&gt;</text>
<polygon fill="none" stroke="black" points="465.38,-807.75 465.38,-827 526.62,-827 526.62,-807.75 465.38,-807.75"/>
<text text-anchor="start" x="469.38" y="-813.5" font-family="Helvetica,sans-Serif" font-size="10.00">xml:id: p001</text>
</g>
<!-- b_pb&#45;&gt;surface -->
<g id="edge37" class="edge">
<title>b_pb&#45;&gt;surface</title>
<path fill="none" stroke="#996644" stroke-width="0.9" d="M294.68,-1166.83C318.84,-1157.25 349.75,-1145 349.75,-1145 349.75,-1145 445.83,-934.65 481.7,-856.11"/>
<polygon fill="#996644" stroke="#996644" stroke-width="0.9" points="484.81,-857.73 485.78,-847.18 478.44,-854.82 484.81,-857.73"/>
<text text-anchor="middle" x="396.3" y="-1019.9" font-family="Helvetica,sans-Serif" font-size="8.00">facs</text>
</g>
<!-- ri_anc -->
<!-- dict_anc -->
<!-- ri_anc&#45;&gt;dict_anc -->
<!-- ri_entry -->
<g id="node18" class="node">
<title>ri_entry</title>
<polygon fill="#88bb77" stroke="none" points="918.12,-691.38 918.12,-710.62 977.88,-710.62 977.88,-691.38 918.12,-691.38"/>
<polygon fill="none" stroke="black" points="918.12,-691.38 918.12,-710.62 977.88,-710.62 977.88,-691.38 918.12,-691.38"/>
<text text-anchor="start" x="930.38" y="-698.12" font-family="Helvetica,sans-Serif" font-weight="bold" font-size="10.00">&lt;entry&gt;</text>
<polygon fill="none" stroke="black" points="918.12,-671.38 918.12,-691.38 977.88,-691.38 977.88,-671.38 918.12,-671.38"/>
<text text-anchor="start" x="922.12" y="-677.88" font-family="Helvetica,sans-Serif" font-size="10.00">xml:id: はる</text>
</g>
<!-- ri_entry&#45;&gt;hom_haru -->
<g id="edge17" class="edge">
<title>ri_entry&#45;&gt;hom_haru</title>
<path fill="none" stroke="#888888" stroke-width="0.9" stroke-dasharray="5,2" d="M977.61,-697.68C1007.79,-704.73 1055.82,-715.95 1091.34,-724.25"/>
<polygon fill="#888888" stroke="#888888" stroke-width="0.9" points="1090.53,-727.65 1101.07,-726.52 1092.12,-720.84 1090.53,-727.65"/>
</g>
<!-- hom_haru2 -->
<g id="node20" class="node">
<title>hom_haru2</title>
<polygon fill="#88bb77" stroke="none" points="1097.25,-657.38 1097.25,-676.62 1179.5,-676.62 1179.5,-657.38 1097.25,-657.38"/>
<polygon fill="none" stroke="black" points="1097.25,-657.38 1097.25,-676.62 1179.5,-676.62 1179.5,-657.38 1097.25,-657.38"/>
<text text-anchor="start" x="1121.88" y="-664.12" font-family="Helvetica,sans-Serif" font-weight="bold" font-size="10.00">&lt;hom&gt;</text>
<polygon fill="none" stroke="black" points="1097.25,-637.38 1097.25,-657.38 1179.5,-657.38 1179.5,-637.38 1097.25,-637.38"/>
<text text-anchor="start" x="1101.25" y="-643.88" font-family="Helvetica,sans-Serif" font-size="10.00">xml:id: はる.張る</text>
<polygon fill="none" stroke="black" points="1097.25,-617.38 1097.25,-637.38 1179.5,-637.38 1179.5,-617.38 1097.25,-617.38"/>
<text text-anchor="start" x="1101.25" y="-623.88" font-family="Helvetica,sans-Serif" font-size="10.00">ref: #張る</text>
</g>
<!-- ri_entry&#45;&gt;hom_haru2 -->
<g id="edge18" class="edge">
<title>ri_entry&#45;&gt;hom_haru2</title>
<path fill="none" stroke="#888888" stroke-width="0.9" stroke-dasharray="5,2" d="M977.61,-684.32C1006.4,-677.59 1051.42,-667.08 1086.34,-658.92"/>
<polygon fill="#888888" stroke="#888888" stroke-width="0.9" points="1087.02,-662.36 1095.97,-656.67 1085.43,-655.54 1087.02,-662.36"/>
</g>
<!-- e_haru -->
<g id="node22" class="node">
<title>e_haru</title>
<polygon fill="#ccaa44" stroke="none" points="1280.5,-554 1280.5,-573.25 1330.5,-573.25 1330.5,-554 1280.5,-554"/>
<polygon fill="none" stroke="black" points="1280.5,-554 1280.5,-573.25 1330.5,-573.25 1330.5,-554 1280.5,-554"/>
<text text-anchor="start" x="1287.88" y="-560.75" font-family="Helvetica,sans-Serif" font-weight="bold" font-size="10.00">&lt;entry&gt;</text>
<polygon fill="none" stroke="black" points="1280.5,-534 1280.5,-554 1330.5,-554 1330.5,-534 1280.5,-534"/>
<text text-anchor="start" x="1284.5" y="-540.5" font-family="Helvetica,sans-Serif" font-size="10.00">xml:id: 春</text>
<polygon fill="none" stroke="black" points="1280.5,-514.75 1280.5,-534 1330.5,-534 1330.5,-514.75 1280.5,-514.75"/>
<text text-anchor="start" x="1284.5" y="-520.5" font-family="Helvetica,sans-Serif" font-size="10.00">pos: N.g</text>
</g>
<!-- hom_haru&#45;&gt;e_haru -->
<g id="edge29" class="edge">
<title>hom_haru&#45;&gt;e_haru</title>
<path fill="none" stroke="#448844" stroke-width="0.9" d="M1174.6,-710.11C1181.94,-704.93 1187.5,-701 1187.5,-701 1187.5,-701 1241.49,-628.55 1276.12,-582.08"/>
<polygon fill="#448844" stroke="#448844" stroke-width="0.9" points="1278.78,-584.36 1281.95,-574.25 1273.17,-580.18 1278.78,-584.36"/>
<text text-anchor="middle" x="1222.22" y="-640.27" font-family="Helvetica,sans-Serif" font-size="8.00">ref</text>
</g>
<!-- cls_anc -->
<!-- dict_anc&#45;&gt;cls_anc -->
<!-- s_haru -->
<g id="node23" class="node">
<title>s_haru</title>
<polygon fill="#e8cc88" stroke="none" points="1431.5,-474 1431.5,-493.25 1534.75,-493.25 1534.75,-474 1431.5,-474"/>
<polygon fill="none" stroke="black" points="1431.5,-474 1431.5,-493.25 1534.75,-493.25 1534.75,-474 1431.5,-474"/>
<text text-anchor="start" x="1463.62" y="-480.75" font-family="Helvetica,sans-Serif" font-weight="bold" font-size="10.00">&lt;sense&gt;</text>
<polygon fill="none" stroke="black" points="1431.5,-454.75 1431.5,-474 1534.75,-474 1534.75,-454.75 1431.5,-454.75"/>
<text text-anchor="start" x="1435.5" y="-460.5" font-family="Helvetica,sans-Serif" font-size="10.00">ana: #WLSPH.1.1624</text>
</g>
<!-- e_haru&#45;&gt;s_haru -->
<g id="edge19" class="edge">
<title>e_haru&#45;&gt;s_haru</title>
<path fill="none" stroke="#888888" stroke-width="0.9" stroke-dasharray="5,2" d="M1330.19,-534.56C1353.99,-525.07 1391.62,-510.07 1423.48,-497.38"/>
<polygon fill="#888888" stroke="#888888" stroke-width="0.9" points="1424.77,-500.63 1432.77,-493.67 1422.18,-494.12 1424.77,-500.63"/>
</g>
<!-- wlsph -->
<g id="node32" class="node">
<title>wlsph</title>
<polygon fill="#cc8888" stroke="none" points="1635.75,-82.25 1635.75,-101.5 1835.75,-101.5 1835.75,-82.25 1635.75,-82.25"/>
<polygon fill="none" stroke="black" points="1635.75,-82.25 1635.75,-101.5 1835.75,-101.5 1835.75,-82.25 1635.75,-82.25"/>
<text text-anchor="start" x="1719.62" y="-89" font-family="Helvetica,sans-Serif" font-weight="bold" font-size="10.00">&lt;item&gt;</text>
<polygon fill="none" stroke="black" points="1635.75,-63 1635.75,-82.25 1835.75,-82.25 1835.75,-63 1635.75,-63"/>
<text text-anchor="start" x="1639.75" y="-68.75" font-family="Helvetica,sans-Serif" font-size="10.00">xml:id: WLSPH.1.1624</text>
<polygon fill="none" stroke="black" points="1635.75,-43 1635.75,-63 1835.75,-63 1835.75,-43 1635.75,-43"/>
<text text-anchor="start" x="1639.75" y="-49.5" font-family="Helvetica,sans-Serif" font-size="10.00">desc: 体&#45;抽象的関係&#45;位置・地点・場合&#45;季節</text>
<polygon fill="none" stroke="black" points="1635.75,-24.5 1635.75,-43 1835.75,-43 1835.75,-24.5 1635.75,-24.5"/>
<text text-anchor="start" x="1639.75" y="-30.5" font-family="Helvetica,sans-Serif" font-style="italic" font-size="10.00">八代集版</text>
</g>
<!-- s_haru&#45;&gt;wlsph -->
<g id="edge30" class="edge">
<title>s_haru&#45;&gt;wlsph</title>
<path fill="none" stroke="#bb6633" stroke-width="0.9" d="M1533.07,-454.8C1538.85,-452.53 1542.75,-451 1542.75,-451 1542.75,-451 1635.75,-116 1635.75,-116 1635.75,-116 1642.83,-112.21 1653.2,-106.66"/>
<polygon fill="#bb6633" stroke="#bb6633" stroke-width="0.9" points="1654.7,-109.83 1661.86,-102.02 1651.4,-103.65 1654.7,-109.83"/>
<text text-anchor="middle" x="1583.76" y="-271.38" font-family="Helvetica,sans-Serif" font-size="8.00">ana</text>
</g>
<!-- wlsp -->
<g id="node33" class="node">
<title>wlsp</title>
<polygon fill="#e8b0b0" stroke="none" points="1679.62,-188.25 1679.62,-207.5 1791.88,-207.5 1791.88,-188.25 1679.62,-188.25"/>
<polygon fill="none" stroke="black" points="1679.62,-188.25 1679.62,-207.5 1791.88,-207.5 1791.88,-188.25 1679.62,-188.25"/>
<text text-anchor="start" x="1719.62" y="-195" font-family="Helvetica,sans-Serif" font-weight="bold" font-size="10.00">&lt;item&gt;</text>
<polygon fill="none" stroke="black" points="1679.62,-169 1679.62,-188.25 1791.88,-188.25 1791.88,-169 1679.62,-169"/>
<text text-anchor="start" x="1683.62" y="-174.75" font-family="Helvetica,sans-Serif" font-size="10.00">xml:id: WLSP.1.1624</text>
<polygon fill="none" stroke="black" points="1679.62,-149 1679.62,-169 1791.88,-169 1791.88,-149 1679.62,-149"/>
<text text-anchor="start" x="1683.62" y="-155.5" font-family="Helvetica,sans-Serif" font-size="10.00">desc: 体&#45;関係&#45;時間&#45;季節</text>
<polygon fill="none" stroke="black" points="1679.62,-130.5 1679.62,-149 1791.88,-149 1791.88,-130.5 1679.62,-130.5"/>
<text text-anchor="start" x="1683.62" y="-136.5" font-family="Helvetica,sans-Serif" font-style="italic" font-size="10.00">現代語版</text>
</g>
<!-- s_haru&#45;&gt;wlsp -->
<g id="edge34" class="edge">
<title>s_haru&#45;&gt;wlsp</title>
<path fill="none" stroke="#cc9999" stroke-width="0.9" stroke-dasharray="5,2" d="M1533.07,-454.8C1538.85,-452.53 1542.75,-451 1542.75,-451 1542.75,-451 1647.9,-296.56 1702.57,-216.27"/>
<polygon fill="#cc9999" stroke="#cc9999" stroke-width="0.9" points="1705.15,-218.69 1707.89,-208.45 1699.37,-214.75 1705.15,-218.69"/>
</g>
<!-- e_aki -->
<g id="node24" class="node">
<title>e_aki</title>
<polygon fill="#ccaa44" stroke="none" points="1280.5,-378 1280.5,-397.25 1330.5,-397.25 1330.5,-378 1280.5,-378"/>
<polygon fill="none" stroke="black" points="1280.5,-378 1280.5,-397.25 1330.5,-397.25 1330.5,-378 1280.5,-378"/>
<text text-anchor="start" x="1287.88" y="-384.75" font-family="Helvetica,sans-Serif" font-weight="bold" font-size="10.00">&lt;entry&gt;</text>
<polygon fill="none" stroke="black" points="1280.5,-358 1280.5,-378 1330.5,-378 1330.5,-358 1280.5,-358"/>
<text text-anchor="start" x="1284.5" y="-364.5" font-family="Helvetica,sans-Serif" font-size="10.00">xml:id: 秋</text>
<polygon fill="none" stroke="black" points="1280.5,-338.75 1280.5,-358 1330.5,-358 1330.5,-338.75 1280.5,-338.75"/>
<text text-anchor="start" x="1284.5" y="-344.5" font-family="Helvetica,sans-Serif" font-size="10.00">pos: N.g</text>
</g>
<!-- s_aki -->
<g id="node25" class="node">
<title>s_aki</title>
<polygon fill="#e8cc88" stroke="none" points="1431.5,-338 1431.5,-357.25 1534.75,-357.25 1534.75,-338 1431.5,-338"/>
<polygon fill="none" stroke="black" points="1431.5,-338 1431.5,-357.25 1534.75,-357.25 1534.75,-338 1431.5,-338"/>
<text text-anchor="start" x="1463.62" y="-344.75" font-family="Helvetica,sans-Serif" font-weight="bold" font-size="10.00">&lt;sense&gt;</text>
<polygon fill="none" stroke="black" points="1431.5,-318.75 1431.5,-338 1534.75,-338 1534.75,-318.75 1431.5,-318.75"/>
<text text-anchor="start" x="1435.5" y="-324.5" font-family="Helvetica,sans-Serif" font-size="10.00">ana: #WLSPH.1.1624</text>
</g>
<!-- e_aki&#45;&gt;s_aki -->
<g id="edge20" class="edge">
<title>e_aki&#45;&gt;s_aki</title>
<path fill="none" stroke="#888888" stroke-width="0.9" stroke-dasharray="5,2" d="M1330.19,-363.95C1353.3,-360.01 1389.45,-353.83 1420.69,-348.49"/>
<polygon fill="#888888" stroke="#888888" stroke-width="0.9" points="1420.9,-352.01 1430.17,-346.88 1419.72,-345.11 1420.9,-352.01"/>
</g>
<!-- s_aki&#45;&gt;wlsph -->
<g id="edge31" class="edge">
<title>s_aki&#45;&gt;wlsph</title>
<path fill="none" stroke="#bb6633" stroke-width="0.9" d="M1533.07,-318.8C1538.85,-316.53 1542.75,-315 1542.75,-315 1542.75,-315 1635.75,-116 1635.75,-116 1635.75,-116 1642.83,-112.21 1653.2,-106.66"/>
<polygon fill="#bb6633" stroke="#bb6633" stroke-width="0.9" points="1654.7,-109.83 1661.86,-102.02 1651.4,-103.65 1654.7,-109.83"/>
</g>
<!-- e_natsu -->
<g id="node26" class="node">
<title>e_natsu</title>
<polygon fill="#ccaa44" stroke="none" points="1280.5,-466 1280.5,-485.25 1330.5,-485.25 1330.5,-466 1280.5,-466"/>
<polygon fill="none" stroke="black" points="1280.5,-466 1280.5,-485.25 1330.5,-485.25 1330.5,-466 1280.5,-466"/>
<text text-anchor="start" x="1287.88" y="-472.75" font-family="Helvetica,sans-Serif" font-weight="bold" font-size="10.00">&lt;entry&gt;</text>
<polygon fill="none" stroke="black" points="1280.5,-446 1280.5,-466 1330.5,-466 1330.5,-446 1280.5,-446"/>
<text text-anchor="start" x="1284.5" y="-452.5" font-family="Helvetica,sans-Serif" font-size="10.00">xml:id: 夏</text>
<polygon fill="none" stroke="black" points="1280.5,-426.75 1280.5,-446 1330.5,-446 1330.5,-426.75 1280.5,-426.75"/>
<text text-anchor="start" x="1284.5" y="-432.5" font-family="Helvetica,sans-Serif" font-size="10.00">pos: N.g</text>
</g>
<!-- s_natsu -->
<g id="node27" class="node">
<title>s_natsu</title>
<polygon fill="#e8cc88" stroke="none" points="1431.5,-406 1431.5,-425.25 1534.75,-425.25 1534.75,-406 1431.5,-406"/>
<polygon fill="none" stroke="black" points="1431.5,-406 1431.5,-425.25 1534.75,-425.25 1534.75,-406 1431.5,-406"/>
<text text-anchor="start" x="1463.62" y="-412.75" font-family="Helvetica,sans-Serif" font-weight="bold" font-size="10.00">&lt;sense&gt;</text>
<polygon fill="none" stroke="black" points="1431.5,-386.75 1431.5,-406 1534.75,-406 1534.75,-386.75 1431.5,-386.75"/>
<text text-anchor="start" x="1435.5" y="-392.5" font-family="Helvetica,sans-Serif" font-size="10.00">ana: #WLSPH.1.1624</text>
</g>
<!-- e_natsu&#45;&gt;s_natsu -->
<g id="edge21" class="edge">
<title>e_natsu&#45;&gt;s_natsu</title>
<path fill="none" stroke="#888888" stroke-width="0.9" stroke-dasharray="5,2" d="M1330.19,-449.26C1353.3,-442.68 1389.45,-432.38 1420.69,-423.49"/>
<polygon fill="#888888" stroke="#888888" stroke-width="0.9" points="1421.54,-426.89 1430.2,-420.78 1419.62,-420.15 1421.54,-426.89"/>
</g>
<!-- s_natsu&#45;&gt;wlsph -->
<g id="edge32" class="edge">
<title>s_natsu&#45;&gt;wlsph</title>
<path fill="none" stroke="#bb6633" stroke-width="0.9" d="M1533.07,-386.8C1538.85,-384.53 1542.75,-383 1542.75,-383 1542.75,-383 1635.75,-116 1635.75,-116 1635.75,-116 1642.83,-112.21 1653.2,-106.66"/>
<polygon fill="#bb6633" stroke="#bb6633" stroke-width="0.9" points="1654.7,-109.83 1661.86,-102.02 1651.4,-103.65 1654.7,-109.83"/>
</g>
<!-- e_fuyu -->
<g id="node28" class="node">
<title>e_fuyu</title>
<polygon fill="#ccaa44" stroke="none" points="1280.5,-290 1280.5,-309.25 1330.5,-309.25 1330.5,-290 1280.5,-290"/>
<polygon fill="none" stroke="black" points="1280.5,-290 1280.5,-309.25 1330.5,-309.25 1330.5,-290 1280.5,-290"/>
<text text-anchor="start" x="1287.88" y="-296.75" font-family="Helvetica,sans-Serif" font-weight="bold" font-size="10.00">&lt;entry&gt;</text>
<polygon fill="none" stroke="black" points="1280.5,-270 1280.5,-290 1330.5,-290 1330.5,-270 1280.5,-270"/>
<text text-anchor="start" x="1284.5" y="-276.5" font-family="Helvetica,sans-Serif" font-size="10.00">xml:id: 冬</text>
<polygon fill="none" stroke="black" points="1280.5,-250.75 1280.5,-270 1330.5,-270 1330.5,-250.75 1280.5,-250.75"/>
<text text-anchor="start" x="1284.5" y="-256.5" font-family="Helvetica,sans-Serif" font-size="10.00">pos: N.g</text>
</g>
<!-- s_fuyu -->
<g id="node29" class="node">
<title>s_fuyu</title>
<polygon fill="#e8cc88" stroke="none" points="1431.5,-270 1431.5,-289.25 1534.75,-289.25 1534.75,-270 1431.5,-270"/>
<polygon fill="none" stroke="black" points="1431.5,-270 1431.5,-289.25 1534.75,-289.25 1534.75,-270 1431.5,-270"/>
<text text-anchor="start" x="1463.62" y="-276.75" font-family="Helvetica,sans-Serif" font-weight="bold" font-size="10.00">&lt;sense&gt;</text>
<polygon fill="none" stroke="black" points="1431.5,-250.75 1431.5,-270 1534.75,-270 1534.75,-250.75 1431.5,-250.75"/>
<text text-anchor="start" x="1435.5" y="-256.5" font-family="Helvetica,sans-Serif" font-size="10.00">ana: #WLSPH.1.1624</text>
</g>
<!-- e_fuyu&#45;&gt;s_fuyu -->
<g id="edge22" class="edge">
<title>e_fuyu&#45;&gt;s_fuyu</title>
<path fill="none" stroke="#888888" stroke-width="0.9" stroke-dasharray="5,2" d="M1330.19,-278.65C1353.2,-277.34 1389.14,-275.29 1420.29,-273.52"/>
<polygon fill="#888888" stroke="#888888" stroke-width="0.9" points="1420.37,-277.02 1430.15,-272.96 1419.97,-270.03 1420.37,-277.02"/>
</g>
<!-- s_fuyu&#45;&gt;wlsph -->
<g id="edge33" class="edge">
<title>s_fuyu&#45;&gt;wlsph</title>
<path fill="none" stroke="#bb6633" stroke-width="0.9" d="M1533.07,-250.8C1538.85,-248.53 1542.75,-247 1542.75,-247 1542.75,-247 1635.75,-116 1635.75,-116 1635.75,-116 1642.83,-112.21 1653.2,-106.66"/>
<polygon fill="#bb6633" stroke="#bb6633" stroke-width="0.9" points="1654.7,-109.83 1661.86,-102.02 1651.4,-103.65 1654.7,-109.83"/>
</g>
<!-- e_comp -->
<g id="node30" class="node">
<title>e_comp</title>
<polygon fill="#ccaa44" stroke="none" points="1099.5,-554 1099.5,-573.25 1177.25,-573.25 1177.25,-554 1099.5,-554"/>
<polygon fill="none" stroke="black" points="1099.5,-554 1099.5,-573.25 1177.25,-573.25 1177.25,-554 1099.5,-554"/>
<text text-anchor="start" x="1120.75" y="-560.75" font-family="Helvetica,sans-Serif" font-weight="bold" font-size="10.00">&lt;entry&gt;</text>
<polygon fill="none" stroke="black" points="1099.5,-534 1099.5,-554 1177.25,-554 1177.25,-534 1099.5,-534"/>
<text text-anchor="start" x="1103.5" y="-540.5" font-family="Helvetica,sans-Serif" font-size="10.00">xml:id: 春霞</text>
<polygon fill="none" stroke="black" points="1099.5,-514.75 1099.5,-534 1177.25,-534 1177.25,-514.75 1099.5,-514.75"/>
<text text-anchor="start" x="1103.5" y="-520.5" font-family="Helvetica,sans-Serif" font-size="10.00">type: compound</text>
</g>
<!-- e_comp&#45;&gt;e_haru -->
<g id="edge23" class="edge">
<title>e_comp&#45;&gt;e_haru</title>
<path fill="none" stroke="#997722" stroke-width="0.9" stroke-dasharray="5,2" d="M1176.84,-544C1204.69,-544 1242.42,-544 1269.63,-544"/>
<polygon fill="#997722" stroke="#997722" stroke-width="0.9" points="1269.59,-547.5 1279.59,-544 1269.59,-540.5 1269.59,-547.5"/>
<text text-anchor="middle" x="1203.36" y="-536.4" font-family="Helvetica,sans-Serif" font-size="8.00">component</text>
</g>
<!-- pers_anc -->
<!-- cls_anc&#45;&gt;pers_anc -->
<!-- facs_anc -->
<!-- pers_anc&#45;&gt;facs_anc -->
</g>
</svg>
