<?xml version="1.0" encoding="UTF-8" standalone="no"?>
<!DOCTYPE svg PUBLIC "-//W3C//DTD SVG 1.1//EN"
 "http://www.w3.org/Graphics/SVG/1.1/DTD/svg11.dtd">
<!-- Generated by graphviz version 12.2.1 (0)
 -->
<!-- Title: kokin Pages: 1 -->
<svg width="2050pt" height="1172pt"
 viewBox="0.00 0.00 2050.25 1172.00" xmlns="http://www.w3.org/2000/svg" xmlns:xlink="http://www.w3.org/1999/xlink">
<g id="graph0" class="graph" transform="scale(1 1) rotate(0) translate(4 1168)">
<title>kokin</title>
<polygon fill="#faf9f7" stroke="none" points="-4,4 -4,-1168 2046.25,-1168 2046.25,4 -4,4"/>
<g id="clust1" class="cluster">
<title>cluster_body</title>
<path fill="#eef4fb" stroke="#7aaad0" d="M20,-738C20,-738 1803.25,-738 1803.25,-738 1809.25,-738 1815.25,-744 1815.25,-750 1815.25,-750 1815.25,-1144 1815.25,-1144 1815.25,-1150 1809.25,-1156 1803.25,-1156 1803.25,-1156 20,-1156 20,-1156 14,-1156 8,-1150 8,-1144 8,-1144 8,-750 8,-750 8,-744 14,-738 20,-738"/>
<text text-anchor="middle" x="911.62" y="-1140.6" font-family="Helvetica,sans-Serif" font-size="12.00">&lt;body&gt;</text>
</g>
<g id="clust2" class="cluster">
<title>cluster_back</title>
<path fill="#f5f5f0" stroke="#888877" d="M785.88,-45C785.88,-45 2022.25,-45 2022.25,-45 2028.25,-45 2034.25,-51 2034.25,-57 2034.25,-57 2034.25,-718 2034.25,-718 2034.25,-724 2028.25,-730 2022.25,-730 2022.25,-730 785.88,-730 785.88,-730 779.87,-730 773.88,-724 773.88,-718 773.88,-718 773.88,-57 773.88,-57 773.88,-51 779.88,-45 785.88,-45"/>
<text text-anchor="middle" x="1404.06" y="-714.6" font-family="Helvetica,sans-Serif" font-size="12.00">&lt;back&gt;</text>
</g>
<g id="clust3" class="cluster">
<title>cluster_ri</title>
<path fill="#f0f7ee" stroke="#88bb77" d="M793.88,-76C793.88,-76 1047.25,-76 1047.25,-76 1053.25,-76 1059.25,-82 1059.25,-88 1059.25,-88 1059.25,-247 1059.25,-247 1059.25,-253 1053.25,-259 1047.25,-259 1047.25,-259 793.88,-259 793.88,-259 787.88,-259 781.88,-253 781.88,-247 781.88,-247 781.88,-88 781.88,-88 781.88,-82 787.88,-76 793.88,-76"/>
<text text-anchor="middle" x="920.56" y="-245.5" font-family="Helvetica,sans-Serif" font-size="10.00">reading&#45;index</text>
</g>
<g id="clust4" class="cluster">
<title>cluster_dict</title>
<path fill="#fef9ec" stroke="#ccaa44" d="M975.25,-267C975.25,-267 1293.5,-267 1293.5,-267 1299.5,-267 1305.5,-273 1305.5,-279 1305.5,-279 1305.5,-689 1305.5,-689 1305.5,-695 1299.5,-701 1293.5,-701 1293.5,-701 975.25,-701 975.25,-701 969.25,-701 963.25,-695 963.25,-689 963.25,-689 963.25,-279 963.25,-279 963.25,-273 969.25,-267 975.25,-267"/>
<text text-anchor="middle" x="1134.38" y="-687.5" font-family="Helvetica,sans-Serif" font-size="10.00">dictionary</text>
</g>
<g id="clust5" class="cluster">
<title>cluster_cls</title>
<path fill="#fdf0f0" stroke="#cc8888" d="M1402.5,-482C1402.5,-482 1594.5,-482 1594.5,-482 1600.5,-482 1606.5,-488 1606.5,-494 1606.5,-494 1606.5,-689 1606.5,-689 1606.5,-695 1600.5,-701 1594.5,-701 1594.5,-701 1402.5,-701 1402.5,-701 1396.5,-701 1390.5,-695 1390.5,-689 1390.5,-689 1390.5,-494 1390.5,-494 1390.5,-488 1396.5,-482 1402.5,-482"/>
<text text-anchor="middle" x="1498.5" y="-687.5" font-family="Helvetica,sans-Serif" font-size="10.00">classification</text>
</g>
<g id="clust6" class="cluster">
<title>cluster_person</title>
<path fill="#f5f0fb" stroke="#9977cc" d="M1703.5,-442C1703.5,-442 1852,-442 1852,-442 1858,-442 1864,-448 1864,-454 1864,-454 1864,-623 1864,-623 1864,-629 1858,-635 1852,-635 1852,-635 1703.5,-635 1703.5,-635 1697.5,-635 1691.5,-629 1691.5,-623 1691.5,-623 1691.5,-454 1691.5,-454 1691.5,-448 1697.5,-442 1703.5,-442"/>
<text text-anchor="middle" x="1777.75" y="-621.5" font-family="Helvetica,sans-Serif" font-size="10.00">listPerson</text>
</g>
<g id="clust7" class="cluster">
<title>cluster_facs</title>
<path fill="#f7f0ea" stroke="#bb9966" d="M1961,-502C1961,-502 2014.25,-502 2014.25,-502 2020.25,-502 2026.25,-508 2026.25,-514 2026.25,-514 2026.25,-564 2026.25,-564 2026.25,-570 2020.25,-576 2014.25,-576 2014.25,-576 1961,-576 1961,-576 1955,-576 1949,-570 1949,-564 1949,-564 1949,-514 1949,-514 1949,-508 1955,-502 1961,-502"/>
<text text-anchor="middle" x="1987.62" y="-562.5" font-family="Helvetica,sans-Serif" font-size="10.00">facsimile</text>
</g>
<!-- b_div -->
<g id="node1" class="node">
<title>b_div</title>
<polygon fill="#7aaad0" stroke="none" points="16,-999.38 16,-1018.62 80.25,-1018.62 80.25,-999.38 16,-999.38"/>
<polygon fill="none" stroke="black" points="16,-999.38 16,-1018.62 80.25,-1018.62 80.25,-999.38 16,-999.38"/>
<text text-anchor="start" x="35" y="-1006.12" font-family="Helvetica,sans-Serif" font-weight="bold" font-size="10.00">&lt;div&gt;</text>
<polygon fill="none" stroke="black" points="16,-979.38 16,-999.38 80.25,-999.38 80.25,-979.38 16,-979.38"/>
<text text-anchor="start" x="20" y="-985.88" font-family="Helvetica,sans-Serif" font-size="10.00">type: 部立</text>
<polygon fill="none" stroke="black" points="16,-959.38 16,-979.38 80.25,-979.38 80.25,-959.38 16,-959.38"/>
<text text-anchor="start" x="20" y="-965.88" font-family="Helvetica,sans-Serif" font-size="10.00">head: 春哥上</text>
</g>
<!-- b_note_d -->
<g id="node2" class="node">
<title>b_note_d</title>
<polygon fill="#7aaad0" stroke="none" points="181.25,-889.69 181.25,-908.94 325,-908.94 325,-889.69 181.25,-889.69"/>
<polygon fill="none" stroke="black" points="181.25,-889.69 181.25,-908.94 325,-908.94 325,-889.69 181.25,-889.69"/>
<text text-anchor="start" x="237" y="-896.44" font-family="Helvetica,sans-Serif" font-weight="bold" font-size="10.00">&lt;note&gt;</text>
<polygon fill="none" stroke="black" points="181.25,-869.69 181.25,-889.69 325,-889.69 325,-869.69 181.25,-869.69"/>
<text text-anchor="start" x="185.25" y="-876.19" font-family="Helvetica,sans-Serif" font-size="10.00">type: 詞書</text>
<polygon fill="none" stroke="black" points="181.25,-850.44 181.25,-869.69 325,-869.69 325,-850.44 181.25,-850.44"/>
<text text-anchor="start" x="185.25" y="-856.19" font-family="Helvetica,sans-Serif" font-size="10.00">target: #n1</text>
<polygon fill="none" stroke="black" points="181.25,-831.06 181.25,-850.44 325,-850.44 325,-831.06 181.25,-831.06"/>
<text text-anchor="start" x="185.25" y="-836.94" font-family="Helvetica,sans-Serif" font-size="10.00">ふるとしに[春/春の]たちける…</text>
</g>
<!-- b_div&#45;&gt;b_note_d -->
<g id="edge1" class="edge">
<title>b_div&#45;&gt;b_note_d</title>
<path fill="none" stroke="#888888" stroke-width="0.9" stroke-dasharray="5,2" d="M79.96,-970.93C105.5,-955.95 142.89,-934.04 176.31,-914.45"/>
<polygon fill="#888888" stroke="#888888" stroke-width="0.9" points="178.04,-917.49 184.89,-909.41 174.5,-911.45 178.04,-917.49"/>
</g>
<!-- b_note_a -->
<g id="node6" class="node">
<title>b_note_a</title>
<polygon fill="#7aaad0" stroke="none" points="222.12,-989.38 222.12,-1008.62 284.12,-1008.62 284.12,-989.38 222.12,-989.38"/>
<polygon fill="none" stroke="black" points="222.12,-989.38 222.12,-1008.62 284.12,-1008.62 284.12,-989.38 222.12,-989.38"/>
<text text-anchor="start" x="237" y="-996.12" font-family="Helvetica,sans-Serif" font-weight="bold" font-size="10.00">&lt;note&gt;</text>
<polygon fill="none" stroke="black" points="222.12,-969.38 222.12,-989.38 284.12,-989.38 284.12,-969.38 222.12,-969.38"/>
<text text-anchor="start" x="226.12" y="-975.88" font-family="Helvetica,sans-Serif" font-size="10.00">type: 作者名</text>
</g>
<!-- b_div&#45;&gt;b_note_a -->
<g id="edge2" class="edge">
<title>b_div&#45;&gt;b_note_a</title>
<path fill="none" stroke="#888888" stroke-width="0.9" stroke-dasharray="5,2" d="M79.96,-989C115.09,-989 172.64,-989 211.43,-989"/>
<polygon fill="#888888" stroke="#888888" stroke-width="0.9" points="210.97,-992.5 220.97,-989 210.97,-985.5 210.97,-992.5"/>
</g>
<!-- b_l -->
<g id="node8" class="node">
<title>b_l</title>
<polygon fill="#7aaad0" stroke="none" points="426,-958.62 426,-977.88 503,-977.88 503,-958.62 426,-958.62"/>
<polygon fill="none" stroke="black" points="426,-958.62 426,-977.88 503,-977.88 503,-958.62 426,-958.62"/>
<text text-anchor="start" x="457" y="-965.38" font-family="Helvetica,sans-Serif" font-weight="bold" font-size="10.00">&lt;l&gt;</text>
<polygon fill="none" stroke="black" points="426,-939.38 426,-958.62 503,-958.62 503,-939.38 426,-939.38"/>
<text text-anchor="start" x="430" y="-945.12" font-family="Helvetica,sans-Serif" font-size="10.00">n: 1</text>
<polygon fill="none" stroke="black" points="426,-920.12 426,-939.38 503,-939.38 503,-920.12 426,-920.12"/>
<text text-anchor="start" x="430" y="-925.88" font-family="Helvetica,sans-Serif" font-size="10.00">xml:id: n1</text>
<polygon fill="none" stroke="black" points="426,-900.12 426,-920.12 503,-920.12 503,-900.12 426,-900.12"/>
<text text-anchor="start" x="430" y="-906.62" font-family="Helvetica,sans-Serif" font-size="10.00">resp: #在原元方</text>
</g>
<!-- b_div&#45;&gt;b_l -->
<g id="edge3" class="edge">
<title>b_div&#45;&gt;b_l</title>
<path fill="none" stroke="#888888" stroke-width="0.9" stroke-dasharray="5,2" d="M80.1,-981.03C119.15,-970.98 181.25,-955 181.25,-955 181.25,-955 334.49,-946.31 415.14,-941.74"/>
<polygon fill="#888888" stroke="#888888" stroke-width="0.9" points="414.87,-945.26 424.66,-941.2 414.48,-938.27 414.87,-945.26"/>
<text text-anchor="middle" x="231.43" y="-943.73" font-family="Helvetica,sans-Serif" font-size="8.00">contains</text>
</g>
<!-- b_phr -->
<g id="node15" class="node">
<title>b_phr</title>
<polygon fill="#7aaad0" stroke="none" points="185.75,-1076.69 185.75,-1095.94 320.5,-1095.94 320.5,-1076.69 185.75,-1076.69"/>
<polygon fill="none" stroke="black" points="185.75,-1076.69 185.75,-1095.94 320.5,-1095.94 320.5,-1076.69 185.75,-1076.69"/>
<text text-anchor="start" x="239.25" y="-1083.44" font-family="Helvetica,sans-Serif" font-weight="bold" font-size="10.00">&lt;phr&gt;</text>
<polygon fill="none" stroke="black" points="185.75,-1057.44 185.75,-1076.69 320.5,-1076.69 320.5,-1057.44 185.75,-1057.44"/>
<text text-anchor="start" x="189.75" y="-1063.19" font-family="Helvetica,sans-Serif" font-size="10.00">xml:id: kana1&#45;1</text>
<polygon fill="none" stroke="black" points="185.75,-1038.06 185.75,-1057.44 320.5,-1057.44 320.5,-1038.06 185.75,-1038.06"/>
<text text-anchor="start" x="189.75" y="-1043.94" font-family="Helvetica,sans-Serif" font-size="10.00">やまとうたは人のこゝろを…</text>
</g>
<!-- b_div&#45;&gt;b_phr -->
<g id="edge4" class="edge">
<title>b_div&#45;&gt;b_phr</title>
<path fill="none" stroke="#888888" stroke-width="0.9" stroke-dasharray="5,2" d="M79.96,-1000.85C105.39,-1010.62 142.57,-1024.9 175.87,-1037.7"/>
<polygon fill="#888888" stroke="#888888" stroke-width="0.9" points="174.21,-1040.81 184.8,-1041.13 176.72,-1034.28 174.21,-1040.81"/>
</g>
<!-- b_pb -->
<g id="node16" class="node">
<title>b_pb</title>
<polygon fill="#7aaad0" stroke="none" points="1748.25,-945.62 1748.25,-964.88 1807.25,-964.88 1807.25,-945.62 1748.25,-945.62"/>
<polygon fill="none" stroke="black" points="1748.25,-945.62 1748.25,-964.88 1807.25,-964.88 1807.25,-945.62 1748.25,-945.62"/>
<text text-anchor="start" x="1765.75" y="-952.38" font-family="Helvetica,sans-Serif" font-weight="bold" font-size="10.00">&lt;pb&gt;</text>
<polygon fill="none" stroke="black" points="1748.25,-926.38 1748.25,-945.62 1807.25,-945.62 1807.25,-926.38 1748.25,-926.38"/>
<text text-anchor="start" x="1752.25" y="-932.12" font-family="Helvetica,sans-Serif" font-size="10.00">n: 1&#45;1r</text>
<polygon fill="none" stroke="black" points="1748.25,-907.12 1748.25,-926.38 1807.25,-926.38 1807.25,-907.12 1748.25,-907.12"/>
<text text-anchor="start" x="1752.25" y="-912.88" font-family="Helvetica,sans-Serif" font-size="10.00">facs: #p001</text>
</g>
<!-- b_div&#45;&gt;b_pb -->
<g id="edge5" class="edge">
<title>b_div&#45;&gt;b_pb</title>
<path fill="none" stroke="#888888" stroke-width="0.9" stroke-dasharray="5,2" d="M80.1,-1017.37C119.15,-1053.13 181.25,-1110 181.25,-1110 181.25,-1110 463.5,-1126 463.5,-1126 463.5,-1126 463.5,-1126 1225.88,-1126 1225.88,-1126 1611.84,-992.88 1737.63,-949.49"/>
<polygon fill="#888888" stroke="#888888" stroke-width="0.9" points="1738.69,-952.83 1747,-946.26 1736.41,-946.21 1738.69,-952.83"/>
</g>
<!-- b_app -->
<g id="node3" class="node">
<title>b_app</title>
<polygon fill="#7aaad0" stroke="none" points="445.88,-851.38 445.88,-870.62 483.12,-870.62 483.12,-851.38 445.88,-851.38"/>
<polygon fill="none" stroke="black" points="445.88,-851.38 445.88,-870.62 483.12,-870.62 483.12,-851.38 445.88,-851.38"/>
<text text-anchor="start" x="449.88" y="-858.12" font-family="Helvetica,sans-Serif" font-weight="bold" font-size="10.00">&lt;app&gt;</text>
</g>
<!-- b_note_d&#45;&gt;b_app -->
<g id="edge6" class="edge">
<title>b_note_d&#45;&gt;b_app</title>
<path fill="none" stroke="#888888" stroke-width="0.9" stroke-dasharray="5,2" d="M324.72,-866.97C362.53,-865.34 407,-863.43 435.22,-862.22"/>
<polygon fill="#888888" stroke="#888888" stroke-width="0.9" points="435.05,-865.73 444.89,-861.8 434.75,-858.73 435.05,-865.73"/>
</g>
<!-- b_note_d&#45;&gt;b_l -->
<g id="edge7" class="edge">
<title>b_note_d&#45;&gt;b_l</title>
<path fill="none" stroke="#448899" stroke-width="0.9" d="M324.72,-893.26C354.56,-903.1 388.55,-914.3 415.42,-923.16"/>
<polygon fill="#448899" stroke="#448899" stroke-width="0.9" points="414.21,-926.44 424.8,-926.25 416.4,-919.79 414.21,-926.44"/>
<text text-anchor="middle" x="359.57" y="-900.61" font-family="Helvetica,sans-Serif" font-size="8.00">target</text>
</g>
<!-- b_lem -->
<g id="node4" class="node">
<title>b_lem</title>
<polygon fill="#7aaad0" stroke="none" points="616.38,-784.62 616.38,-803.88 658.12,-803.88 658.12,-784.62 616.38,-784.62"/>
<polygon fill="none" stroke="black" points="616.38,-784.62 616.38,-803.88 658.12,-803.88 658.12,-784.62 616.38,-784.62"/>
<text text-anchor="start" x="622.62" y="-791.38" font-family="Helvetica,sans-Serif" font-weight="bold" font-size="10.00">&lt;lem&gt;</text>
<polygon fill="none" stroke="black" points="616.38,-764.62 616.38,-784.62 658.12,-784.62 658.12,-764.62 616.38,-764.62"/>
<text text-anchor="start" x="620.38" y="-771.12" font-family="Helvetica,sans-Serif" font-size="10.00">wit: #国</text>
<polygon fill="none" stroke="black" points="616.38,-746.12 616.38,-764.62 658.12,-764.62 658.12,-746.12 616.38,-746.12"/>
<text text-anchor="start" x="620.38" y="-751.12" font-family="Helvetica,sans-Serif" font-size="10.00">春</text>
</g>
<!-- b_app&#45;&gt;b_lem -->
<g id="edge9" class="edge">
<title>b_app&#45;&gt;b_lem</title>
<path fill="none" stroke="#888888" stroke-width="0.9" stroke-dasharray="5,2" d="M482.81,-852.28C511.9,-837.63 570.92,-807.91 606.68,-789.89"/>
<polygon fill="#888888" stroke="#888888" stroke-width="0.9" points="607.97,-793.16 615.32,-785.54 604.82,-786.91 607.97,-793.16"/>
</g>
<!-- b_rdg -->
<g id="node5" class="node">
<title>b_rdg</title>
<polygon fill="#7aaad0" stroke="none" points="616.38,-871.62 616.38,-890.88 658.12,-890.88 658.12,-871.62 616.38,-871.62"/>
<polygon fill="none" stroke="black" points="616.38,-871.62 616.38,-890.88 658.12,-890.88 658.12,-871.62 616.38,-871.62"/>
<text text-anchor="start" x="623.38" y="-878.38" font-family="Helvetica,sans-Serif" font-weight="bold" font-size="10.00">&lt;rdg&gt;</text>
<polygon fill="none" stroke="black" points="616.38,-851.62 616.38,-871.62 658.12,-871.62 658.12,-851.62 616.38,-851.62"/>
<text text-anchor="start" x="620.38" y="-858.12" font-family="Helvetica,sans-Serif" font-size="10.00">wit: #前</text>
<polygon fill="none" stroke="black" points="616.38,-833.12 616.38,-851.62 658.12,-851.62 658.12,-833.12 616.38,-833.12"/>
<text text-anchor="start" x="620.38" y="-838.12" font-family="Helvetica,sans-Serif" font-size="10.00">春の</text>
</g>
<!-- b_app&#45;&gt;b_rdg -->
<g id="edge10" class="edge">
<title>b_app&#45;&gt;b_rdg</title>
<path fill="none" stroke="#888888" stroke-width="0.9" stroke-dasharray="5,2" d="M482.81,-861.1C511.53,-861.27 569.4,-861.61 605.29,-861.82"/>
<polygon fill="#888888" stroke="#888888" stroke-width="0.9" points="605.16,-865.32 615.18,-861.88 605.2,-858.32 605.16,-865.32"/>
</g>
<!-- b_persname -->
<g id="node7" class="node">
<title>b_persname</title>
<polygon fill="#7aaad0" stroke="none" points="1453.25,-940.62 1453.25,-959.88 1543.75,-959.88 1543.75,-940.62 1453.25,-940.62"/>
<polygon fill="none" stroke="black" points="1453.25,-940.62 1453.25,-959.88 1543.75,-959.88 1543.75,-940.62 1453.25,-940.62"/>
<text text-anchor="start" x="1468.88" y="-947.38" font-family="Helvetica,sans-Serif" font-weight="bold" font-size="10.00">&lt;persName&gt;</text>
<polygon fill="none" stroke="black" points="1453.25,-920.62 1453.25,-940.62 1543.75,-940.62 1543.75,-920.62 1453.25,-920.62"/>
<text text-anchor="start" x="1457.25" y="-927.12" font-family="Helvetica,sans-Serif" font-size="10.00">type: 作者</text>
<polygon fill="none" stroke="black" points="1453.25,-900.62 1453.25,-920.62 1543.75,-920.62 1543.75,-900.62 1453.25,-900.62"/>
<text text-anchor="start" x="1457.25" y="-907.12" font-family="Helvetica,sans-Serif" font-size="10.00">corresp: #在原元方</text>
<polygon fill="none" stroke="black" points="1453.25,-882.12 1453.25,-900.62 1543.75,-900.62 1543.75,-882.12 1453.25,-882.12"/>
<text text-anchor="start" x="1457.25" y="-887.12" font-family="Helvetica,sans-Serif" font-size="10.00">在原元方</text>
</g>
<!-- b_note_a&#45;&gt;b_persname -->
<g id="edge8" class="edge">
<title>b_note_a&#45;&gt;b_persname</title>
<path fill="none" stroke="#888888" stroke-width="0.9" stroke-dasharray="5,2" d="M284.11,-997.32C374.19,-1022.31 636.25,-1095 636.25,-1095 636.25,-1095 636.25,-1095 1011.12,-1095 1011.12,-1095 1315.74,-986.02 1442.83,-940.56"/>
<polygon fill="#888888" stroke="#888888" stroke-width="0.9" points="1443.96,-943.87 1452.2,-937.21 1441.6,-937.28 1443.96,-943.87"/>
</g>
<!-- person -->
<g id="node27" class="node">
<title>person</title>
<polygon fill="#9977cc" stroke="none" points="1699.5,-588.62 1699.5,-607.88 1856,-607.88 1856,-588.62 1699.5,-588.62"/>
<polygon fill="none" stroke="black" points="1699.5,-588.62 1699.5,-607.88 1856,-607.88 1856,-588.62 1699.5,-588.62"/>
<text text-anchor="start" x="1755.62" y="-595.38" font-family="Helvetica,sans-Serif" font-weight="bold" font-size="10.00">&lt;person&gt;</text>
<polygon fill="none" stroke="black" points="1699.5,-568.62 1699.5,-588.62 1856,-588.62 1856,-568.62 1699.5,-568.62"/>
<text text-anchor="start" x="1703.5" y="-575.12" font-family="Helvetica,sans-Serif" font-size="10.00">xml:id: 在原元方</text>
<polygon fill="none" stroke="black" points="1699.5,-549.38 1699.5,-568.62 1856,-568.62 1856,-549.38 1699.5,-549.38"/>
<text text-anchor="start" x="1703.5" y="-555.12" font-family="Helvetica,sans-Serif" font-size="10.00">sex: 1</text>
<polygon fill="none" stroke="black" points="1699.5,-529.38 1699.5,-549.38 1856,-549.38 1856,-529.38 1699.5,-529.38"/>
<text text-anchor="start" x="1703.5" y="-535.88" font-family="Helvetica,sans-Serif" font-size="10.00">persName: ありわらの／もとかた</text>
<polygon fill="none" stroke="black" points="1699.5,-509.38 1699.5,-529.38 1856,-529.38 1856,-509.38 1699.5,-509.38"/>
<text text-anchor="start" x="1703.5" y="-515.88" font-family="Helvetica,sans-Serif" font-size="10.00">birth: 不明</text>
<polygon fill="none" stroke="black" points="1699.5,-489.38 1699.5,-509.38 1856,-509.38 1856,-489.38 1699.5,-489.38"/>
<text text-anchor="start" x="1703.5" y="-495.88" font-family="Helvetica,sans-Serif" font-size="10.00">death: 不明</text>
<polygon fill="none" stroke="black" points="1699.5,-470.12 1699.5,-489.38 1856,-489.38 1856,-470.12 1699.5,-470.12"/>
<text text-anchor="start" x="1703.5" y="-475.88" font-family="Helvetica,sans-Serif" font-size="10.00">idno[VIAF]: viaf/114305486</text>
<polygon fill="none" stroke="black" points="1699.5,-450.12 1699.5,-470.12 1856,-470.12 1856,-450.12 1699.5,-450.12"/>
<text text-anchor="start" x="1703.5" y="-456.62" font-family="Helvetica,sans-Serif" font-size="10.00">idno[国書DB]: 588363</text>
</g>
<!-- b_persname&#45;&gt;person -->
<g id="edge31" class="edge">
<title>b_persname&#45;&gt;person</title>
<path fill="none" stroke="#7755aa" stroke-width="0.9" d="M1526.84,-882.34C1570.16,-821.09 1655.69,-700.17 1714.52,-616.99"/>
<polygon fill="#7755aa" stroke="#7755aa" stroke-width="0.9" points="1717.32,-619.09 1720.23,-608.91 1711.6,-615.05 1717.32,-619.09"/>
<text text-anchor="middle" x="1607.18" y="-742.06" font-family="Helvetica,sans-Serif" font-size="8.00">corresp</text>
</g>
<!-- b_seg1 -->
<g id="node9" class="node">
<title>b_seg1</title>
<polygon fill="#7aaad0" stroke="none" points="613.75,-938.62 613.75,-957.88 660.75,-957.88 660.75,-938.62 613.75,-938.62"/>
<polygon fill="none" stroke="black" points="613.75,-938.62 613.75,-957.88 660.75,-957.88 660.75,-938.62 613.75,-938.62"/>
<text text-anchor="start" x="623" y="-945.38" font-family="Helvetica,sans-Serif" font-weight="bold" font-size="10.00">&lt;seg&gt;</text>
<polygon fill="none" stroke="black" points="613.75,-920.12 613.75,-938.62 660.75,-938.62 660.75,-920.12 613.75,-920.12"/>
<text text-anchor="start" x="617.75" y="-925.12" font-family="Helvetica,sans-Serif" font-size="10.00">年の内に</text>
</g>
<!-- b_l&#45;&gt;b_seg1 -->
<g id="edge11" class="edge">
<title>b_l&#45;&gt;b_seg1</title>
<path fill="none" stroke="#888888" stroke-width="0.9" stroke-dasharray="5,2" d="M502.97,-939C532.83,-939 574.23,-939 602.94,-939"/>
<polygon fill="#888888" stroke="#888888" stroke-width="0.9" points="602.65,-942.5 612.65,-939 602.65,-935.5 602.65,-942.5"/>
</g>
<!-- b_seg2 -->
<g id="node12" class="node">
<title>b_seg2</title>
<polygon fill="#7aaad0" stroke="none" points="604,-1005.62 604,-1024.88 670.5,-1024.88 670.5,-1005.62 604,-1005.62"/>
<polygon fill="none" stroke="black" points="604,-1005.62 604,-1024.88 670.5,-1024.88 670.5,-1005.62 604,-1005.62"/>
<text text-anchor="start" x="623" y="-1012.38" font-family="Helvetica,sans-Serif" font-weight="bold" font-size="10.00">&lt;seg&gt;</text>
<polygon fill="none" stroke="black" points="604,-987.12 604,-1005.62 670.5,-1005.62 670.5,-987.12 604,-987.12"/>
<text text-anchor="start" x="608" y="-992.12" font-family="Helvetica,sans-Serif" font-size="10.00">春はきにけり</text>
</g>
<!-- b_l&#45;&gt;b_seg2 -->
<g id="edge12" class="edge">
<title>b_l&#45;&gt;b_seg2</title>
<path fill="none" stroke="#888888" stroke-width="0.9" stroke-dasharray="5,2" d="M502.97,-953.7C529.78,-964.22 565.91,-978.4 593.79,-989.34"/>
<polygon fill="#888888" stroke="#888888" stroke-width="0.9" points="592.18,-992.47 602.77,-992.86 594.74,-985.95 592.18,-992.47"/>
</g>
<!-- b_l&#45;&gt;person -->
<g id="edge32" class="edge">
<title>b_l&#45;&gt;person</title>
<path fill="none" stroke="#7755aa" stroke-width="0.9" d="M492.35,-900.33C498.37,-891.67 503,-885 503,-885 503,-885 771.5,-69 771.5,-69 771.5,-69 818.75,-9 818.75,-9 818.75,-9 818.75,-9 1225.88,-9 1225.88,-9 1536.74,-302.44 1691.42,-448.46"/>
<polygon fill="#7755aa" stroke="#7755aa" stroke-width="0.9" points="1688.91,-450.89 1698.58,-455.21 1693.71,-445.8 1688.91,-450.89"/>
<text text-anchor="middle" x="857.5" y="-1.4" font-family="Helvetica,sans-Serif" font-size="8.00">resp</text>
</g>
<!-- b_w_toshi -->
<g id="node10" class="node">
<title>b_w_toshi</title>
<polygon fill="#7aaad0" stroke="none" points="771.5,-784.62 771.5,-803.88 868,-803.88 868,-784.62 771.5,-784.62"/>
<polygon fill="none" stroke="black" points="771.5,-784.62 771.5,-803.88 868,-803.88 868,-784.62 771.5,-784.62"/>
<text text-anchor="start" x="810" y="-791.38" font-family="Helvetica,sans-Serif" font-weight="bold" font-size="10.00">&lt;w&gt;</text>
<polygon fill="none" stroke="black" points="771.5,-766.12 771.5,-784.62 868,-784.62 868,-766.12 771.5,-766.12"/>
<text text-anchor="start" x="775.5" y="-771.12" font-family="Helvetica,sans-Serif" font-size="10.00">年</text>
<polygon fill="none" stroke="black" points="771.5,-746.12 771.5,-766.12 868,-766.12 868,-746.12 771.5,-746.12"/>
<text text-anchor="start" x="775.5" y="-752.62" font-family="Helvetica,sans-Serif" font-size="10.00">lemmaRef: #とし.年</text>
</g>
<!-- b_seg1&#45;&gt;b_w_toshi -->
<g id="edge13" class="edge">
<title>b_seg1&#45;&gt;b_w_toshi</title>
<path fill="none" stroke="#888888" stroke-width="0.9" stroke-dasharray="5,2" d="M658.96,-920.19C688.14,-893.67 741.94,-844.79 779,-811.12"/>
<polygon fill="#888888" stroke="#888888" stroke-width="0.9" points="781.04,-813.99 786.09,-804.67 776.34,-808.81 781.04,-813.99"/>
</g>
<!-- b_w_no -->
<g id="node11" class="node">
<title>b_w_no</title>
<polygon fill="#7aaad0" stroke="none" points="776.38,-871.62 776.38,-890.88 863.12,-890.88 863.12,-871.62 776.38,-871.62"/>
<polygon fill="none" stroke="black" points="776.38,-871.62 776.38,-890.88 863.12,-890.88 863.12,-871.62 776.38,-871.62"/>
<text text-anchor="start" x="810" y="-878.38" font-family="Helvetica,sans-Serif" font-weight="bold" font-size="10.00">&lt;w&gt;</text>
<polygon fill="none" stroke="black" points="776.38,-853.12 776.38,-871.62 863.12,-871.62 863.12,-853.12 776.38,-853.12"/>
<text text-anchor="start" x="780.38" y="-858.12" font-family="Helvetica,sans-Serif" font-size="10.00">の</text>
<polygon fill="none" stroke="black" points="776.38,-833.12 776.38,-853.12 863.12,-853.12 863.12,-833.12 776.38,-833.12"/>
<text text-anchor="start" x="780.38" y="-839.62" font-family="Helvetica,sans-Serif" font-size="10.00">lemmaRef: #の.の</text>
</g>
<!-- b_seg1&#45;&gt;b_w_no -->
<g id="edge14" class="edge">
<title>b_seg1&#45;&gt;b_w_no</title>
<path fill="none" stroke="#888888" stroke-width="0.9" stroke-dasharray="5,2" d="M660.75,-929.4C687.07,-918.18 731.5,-899.22 766.56,-884.26"/>
<polygon fill="#888888" stroke="#888888" stroke-width="0.9" points="767.56,-887.64 775.39,-880.5 764.82,-881.2 767.56,-887.64"/>
</g>
<!-- b_w_haru -->
<g id="node13" class="node">
<title>b_w_haru</title>
<polygon fill="#7aaad0" stroke="none" points="771.5,-958.62 771.5,-977.88 868,-977.88 868,-958.62 771.5,-958.62"/>
<polygon fill="none" stroke="black" points="771.5,-958.62 771.5,-977.88 868,-977.88 868,-958.62 771.5,-958.62"/>
<text text-anchor="start" x="810" y="-965.38" font-family="Helvetica,sans-Serif" font-weight="bold" font-size="10.00">&lt;w&gt;</text>
<polygon fill="none" stroke="black" points="771.5,-940.12 771.5,-958.62 868,-958.62 868,-940.12 771.5,-940.12"/>
<text text-anchor="start" x="775.5" y="-945.12" font-family="Helvetica,sans-Serif" font-size="10.00">春</text>
<polygon fill="none" stroke="black" points="771.5,-920.12 771.5,-940.12 868,-940.12 868,-920.12 771.5,-920.12"/>
<text text-anchor="start" x="775.5" y="-926.62" font-family="Helvetica,sans-Serif" font-size="10.00">lemmaRef: #はる.春</text>
</g>
<!-- b_seg2&#45;&gt;b_w_haru -->
<g id="edge15" class="edge">
<title>b_seg2&#45;&gt;b_w_haru</title>
<path fill="none" stroke="#888888" stroke-width="0.9" stroke-dasharray="5,2" d="M670.1,-995.94C695.16,-988.03 730.75,-976.79 760.82,-967.29"/>
<polygon fill="#888888" stroke="#888888" stroke-width="0.9" points="761.83,-970.64 770.32,-964.29 759.73,-963.97 761.83,-970.64"/>
</g>
<!-- b_w_ha -->
<g id="node14" class="node">
<title>b_w_ha</title>
<polygon fill="#7aaad0" stroke="none" points="776.38,-1045.62 776.38,-1064.88 863.12,-1064.88 863.12,-1045.62 776.38,-1045.62"/>
<polygon fill="none" stroke="black" points="776.38,-1045.62 776.38,-1064.88 863.12,-1064.88 863.12,-1045.62 776.38,-1045.62"/>
<text text-anchor="start" x="810" y="-1052.38" font-family="Helvetica,sans-Serif" font-weight="bold" font-size="10.00">&lt;w&gt;</text>
<polygon fill="none" stroke="black" points="776.38,-1027.12 776.38,-1045.62 863.12,-1045.62 863.12,-1027.12 776.38,-1027.12"/>
<text text-anchor="start" x="780.38" y="-1032.12" font-family="Helvetica,sans-Serif" font-size="10.00">は</text>
<polygon fill="none" stroke="black" points="776.38,-1007.12 776.38,-1027.12 863.12,-1027.12 863.12,-1007.12 776.38,-1007.12"/>
<text text-anchor="start" x="780.38" y="-1013.62" font-family="Helvetica,sans-Serif" font-size="10.00">lemmaRef: #は.は</text>
</g>
<!-- b_seg2&#45;&gt;b_w_ha -->
<g id="edge16" class="edge">
<title>b_seg2&#45;&gt;b_w_ha</title>
<path fill="none" stroke="#888888" stroke-width="0.9" stroke-dasharray="5,2" d="M670.1,-1011.29C696.51,-1015.68 734.62,-1022.02 765.63,-1027.17"/>
<polygon fill="#888888" stroke="#888888" stroke-width="0.9" points="764.92,-1030.6 775.36,-1028.79 766.07,-1023.7 764.92,-1030.6"/>
</g>
<!-- hom_haru -->
<g id="node18" class="node">
<title>hom_haru</title>
<polygon fill="#88bb77" stroke="none" points="973.88,-212.38 973.88,-231.62 1046.38,-231.62 1046.38,-212.38 973.88,-212.38"/>
<polygon fill="none" stroke="black" points="973.88,-212.38 973.88,-231.62 1046.38,-231.62 1046.38,-212.38 973.88,-212.38"/>
<text text-anchor="start" x="993.62" y="-219.12" font-family="Helvetica,sans-Serif" font-weight="bold" font-size="10.00">&lt;hom&gt;</text>
<polygon fill="none" stroke="black" points="973.88,-192.38 973.88,-212.38 1046.38,-212.38 1046.38,-192.38 973.88,-192.38"/>
<text text-anchor="start" x="977.88" y="-198.88" font-family="Helvetica,sans-Serif" font-size="10.00">xml:id: はる.春</text>
<polygon fill="none" stroke="black" points="973.88,-172.38 973.88,-192.38 1046.38,-192.38 1046.38,-172.38 973.88,-172.38"/>
<text text-anchor="start" x="977.88" y="-178.88" font-family="Helvetica,sans-Serif" font-size="10.00">ref: #春</text>
</g>
<!-- b_w_haru&#45;&gt;hom_haru -->
<g id="edge24" class="edge">
<title>b_w_haru&#45;&gt;hom_haru</title>
<path fill="none" stroke="#4477bb" stroke-width="0.9" d="M851.74,-920.14C860.65,-911.85 868,-905 868,-905 868,-905 963.25,-260 963.25,-260 963.25,-260 970.42,-250.94 979.09,-239.97"/>
<polygon fill="#4477bb" stroke="#4477bb" stroke-width="0.9" points="981.62,-242.42 985.07,-232.41 976.12,-238.08 981.62,-242.42"/>
<text text-anchor="middle" x="897.49" y="-573.26" font-family="Helvetica,sans-Serif" font-size="8.00">lemmaRef</text>
</g>
<!-- surface -->
<g id="node28" class="node">
<title>surface</title>
<polygon fill="#bb9966" stroke="none" points="1957,-529 1957,-548.25 2018.25,-548.25 2018.25,-529 1957,-529"/>
<polygon fill="none" stroke="black" points="1957,-529 1957,-548.25 2018.25,-548.25 2018.25,-529 1957,-529"/>
<text text-anchor="start" x="1964.75" y="-535.75" font-family="Helvetica,sans-Serif" font-weight="bold" font-size="10.00">&lt;surface&gt;</text>
<polygon fill="none" stroke="black" points="1957,-509.75 1957,-529 2018.25,-529 2018.25,-509.75 1957,-509.75"/>
<text text-anchor="start" x="1961" y="-515.5" font-family="Helvetica,sans-Serif" font-size="10.00">xml:id: p001</text>
</g>
<!-- b_pb&#45;&gt;surface -->
<g id="edge33" class="edge">
<title>b_pb&#45;&gt;surface</title>
<path fill="none" stroke="#996644" stroke-width="0.9" d="M1793.37,-907.38C1831.5,-832.73 1933.67,-632.68 1971.91,-557.81"/>
<polygon fill="#996644" stroke="#996644" stroke-width="0.9" points="1974.82,-559.81 1976.25,-549.31 1968.58,-556.63 1974.82,-559.81"/>
<text text-anchor="middle" x="1875.51" y="-724.99" font-family="Helvetica,sans-Serif" font-size="8.00">facs</text>
</g>
<!-- ri_entry -->
<g id="node17" class="node">
<title>ri_entry</title>
<polygon fill="#88bb77" stroke="none" points="789.88,-104.38 789.88,-123.62 849.62,-123.62 849.62,-104.38 789.88,-104.38"/>
<polygon fill="none" stroke="black" points="789.88,-104.38 789.88,-123.62 849.62,-123.62 849.62,-104.38 789.88,-104.38"/>
<text text-anchor="start" x="802.12" y="-111.12" font-family="Helvetica,sans-Serif" font-weight="bold" font-size="10.00">&lt;entry&gt;</text>
<polygon fill="none" stroke="black" points="789.88,-84.38 789.88,-104.38 849.62,-104.38 849.62,-84.38 789.88,-84.38"/>
<text text-anchor="start" x="793.88" y="-90.88" font-family="Helvetica,sans-Serif" font-size="10.00">xml:id: はる</text>
</g>
<!-- ri_entry&#45;&gt;hom_haru -->
<g id="edge17" class="edge">
<title>ri_entry&#45;&gt;hom_haru</title>
<path fill="none" stroke="#888888" stroke-width="0.9" stroke-dasharray="5,2" d="M849.36,-118.88C879.94,-134.79 928.82,-160.22 964.47,-178.77"/>
<polygon fill="#888888" stroke="#888888" stroke-width="0.9" points="962.45,-181.66 972.93,-183.17 965.68,-175.45 962.45,-181.66"/>
</g>
<!-- hom_haru2 -->
<g id="node19" class="node">
<title>hom_haru2</title>
<polygon fill="#88bb77" stroke="none" points="969,-124.38 969,-143.62 1051.25,-143.62 1051.25,-124.38 969,-124.38"/>
<polygon fill="none" stroke="black" points="969,-124.38 969,-143.62 1051.25,-143.62 1051.25,-124.38 969,-124.38"/>
<text text-anchor="start" x="993.62" y="-131.12" font-family="Helvetica,sans-Serif" font-weight="bold" font-size="10.00">&lt;hom&gt;</text>
<polygon fill="none" stroke="black" points="969,-104.38 969,-124.38 1051.25,-124.38 1051.25,-104.38 969,-104.38"/>
<text text-anchor="start" x="973" y="-110.88" font-family="Helvetica,sans-Serif" font-size="10.00">xml:id: はる.張る</text>
<polygon fill="none" stroke="black" points="969,-84.38 969,-104.38 1051.25,-104.38 1051.25,-84.38 969,-84.38"/>
<text text-anchor="start" x="973" y="-90.88" font-family="Helvetica,sans-Serif" font-size="10.00">ref: #張る</text>
</g>
<!-- ri_entry&#45;&gt;hom_haru2 -->
<g id="edge18" class="edge">
<title>ri_entry&#45;&gt;hom_haru2</title>
<path fill="none" stroke="#888888" stroke-width="0.9" stroke-dasharray="5,2" d="M849.36,-105.52C878.15,-107.05 923.17,-109.44 958.09,-111.29"/>
<polygon fill="#888888" stroke="#888888" stroke-width="0.9" points="957.51,-114.76 967.68,-111.8 957.88,-107.77 957.51,-114.76"/>
</g>
<!-- e_haru -->
<g id="node20" class="node">
<title>e_haru</title>
<polygon fill="#ccaa44" stroke="none" points="1152.25,-654.62 1152.25,-673.88 1297.5,-673.88 1297.5,-654.62 1152.25,-654.62"/>
<polygon fill="none" stroke="black" points="1152.25,-654.62 1152.25,-673.88 1297.5,-673.88 1297.5,-654.62 1152.25,-654.62"/>
<text text-anchor="start" x="1207.25" y="-661.38" font-family="Helvetica,sans-Serif" font-weight="bold" font-size="10.00">&lt;entry&gt;</text>
<polygon fill="none" stroke="black" points="1152.25,-634.62 1152.25,-654.62 1297.5,-654.62 1297.5,-634.62 1152.25,-634.62"/>
<text text-anchor="start" x="1156.25" y="-641.12" font-family="Helvetica,sans-Serif" font-size="10.00">xml:id: 春</text>
<polygon fill="none" stroke="black" points="1152.25,-615.38 1152.25,-634.62 1297.5,-634.62 1297.5,-615.38 1152.25,-615.38"/>
<text text-anchor="start" x="1156.25" y="-621.12" font-family="Helvetica,sans-Serif" font-size="10.00">pos: N.g</text>
<polygon fill="#e8cc88" stroke="none" points="1152.25,-596.12 1152.25,-615.38 1297.5,-615.38 1297.5,-596.12 1152.25,-596.12"/>
<polygon fill="none" stroke="black" points="1152.25,-596.12 1152.25,-615.38 1297.5,-615.38 1297.5,-596.12 1152.25,-596.12"/>
<text text-anchor="start" x="1156.25" y="-602.88" font-family="Helvetica,sans-Serif" font-weight="bold" font-size="10.00">&lt;sense&gt;</text>
<text text-anchor="start" x="1195.25" y="-602.88" font-family="Helvetica,sans-Serif" font-size="10.00"> ana: #WLSPH.1.1624</text>
</g>
<!-- ri_entry&#45;&gt;e_haru -->
<!-- hom_haru&#45;&gt;e_haru -->
<g id="edge25" class="edge">
<title>hom_haru&#45;&gt;e_haru</title>
<path fill="none" stroke="#448844" stroke-width="0.9" d="M1035.47,-231.34C1047.41,-245.73 1059.25,-260 1059.25,-260 1059.25,-260 1152.25,-581 1152.25,-581 1152.25,-581 1156.82,-584.45 1163.66,-589.6"/>
<polygon fill="#448844" stroke="#448844" stroke-width="0.9" points="1161.4,-592.28 1171.5,-595.51 1165.62,-586.69 1161.4,-592.28"/>
<text text-anchor="middle" x="1097.68" y="-401.88" font-family="Helvetica,sans-Serif" font-size="8.00">ref</text>
</g>
<!-- wlsph -->
<g id="node25" class="node">
<title>wlsph</title>
<polygon fill="#cc8888" stroke="none" points="1398.5,-548.25 1398.5,-567.5 1598.5,-567.5 1598.5,-548.25 1398.5,-548.25"/>
<polygon fill="none" stroke="black" points="1398.5,-548.25 1398.5,-567.5 1598.5,-567.5 1598.5,-548.25 1398.5,-548.25"/>
<text text-anchor="start" x="1482.38" y="-555" font-family="Helvetica,sans-Serif" font-weight="bold" font-size="10.00">&lt;item&gt;</text>
<polygon fill="none" stroke="black" points="1398.5,-529 1398.5,-548.25 1598.5,-548.25 1598.5,-529 1398.5,-529"/>
<text text-anchor="start" x="1402.5" y="-534.75" font-family="Helvetica,sans-Serif" font-size="10.00">xml:id: WLSPH.1.1624</text>
<polygon fill="none" stroke="black" points="1398.5,-509 1398.5,-529 1598.5,-529 1598.5,-509 1398.5,-509"/>
<text text-anchor="start" x="1402.5" y="-515.5" font-family="Helvetica,sans-Serif" font-size="10.00">desc: 体&#45;抽象的関係&#45;位置・地点・場合&#45;季節</text>
<polygon fill="none" stroke="black" points="1398.5,-490.5 1398.5,-509 1598.5,-509 1598.5,-490.5 1398.5,-490.5"/>
<text text-anchor="start" x="1402.5" y="-496.5" font-family="Helvetica,sans-Serif" font-style="italic" font-size="10.00">八代集版</text>
</g>
<!-- e_haru&#45;&gt;wlsph -->
<!-- e_haru&#45;&gt;wlsph -->
<g id="edge26" class="edge">
<title>e_haru&#45;&gt;wlsph</title>
<path fill="none" stroke="#bb6633" stroke-width="0.9" d="M1297.24,-616.85C1333.02,-604.3 1376.56,-587.45 1413.89,-571.75"/>
<polygon fill="#bb6633" stroke="#bb6633" stroke-width="0.9" points="1415.15,-575.02 1422.99,-567.9 1412.42,-568.58 1415.15,-575.02"/>
<text text-anchor="middle" x="1337.19" y="-586.7" font-family="Helvetica,sans-Serif" font-size="8.00">sense/ana</text>
</g>
<!-- wlsp -->
<g id="node26" class="node">
<title>wlsp</title>
<polygon fill="#e8b0b0" stroke="none" points="1442.38,-654.25 1442.38,-673.5 1554.62,-673.5 1554.62,-654.25 1442.38,-654.25"/>
<polygon fill="none" stroke="black" points="1442.38,-654.25 1442.38,-673.5 1554.62,-673.5 1554.62,-654.25 1442.38,-654.25"/>
<text text-anchor="start" x="1482.38" y="-661" font-family="Helvetica,sans-Serif" font-weight="bold" font-size="10.00">&lt;item&gt;</text>
<polygon fill="none" stroke="black" points="1442.38,-635 1442.38,-654.25 1554.62,-654.25 1554.62,-635 1442.38,-635"/>
<text text-anchor="start" x="1446.38" y="-640.75" font-family="Helvetica,sans-Serif" font-size="10.00">xml:id: WLSP.1.1624</text>
<polygon fill="none" stroke="black" points="1442.38,-615 1442.38,-635 1554.62,-635 1554.62,-615 1442.38,-615"/>
<text text-anchor="start" x="1446.38" y="-621.5" font-family="Helvetica,sans-Serif" font-size="10.00">desc: 体&#45;関係&#45;時間&#45;季節</text>
<polygon fill="none" stroke="black" points="1442.38,-596.5 1442.38,-615 1554.62,-615 1554.62,-596.5 1442.38,-596.5"/>
<text text-anchor="start" x="1446.38" y="-602.5" font-family="Helvetica,sans-Serif" font-style="italic" font-size="10.00">現代語版</text>
</g>
<!-- e_haru&#45;&gt;wlsp -->
<g id="edge30" class="edge">
<title>e_haru&#45;&gt;wlsp</title>
<path fill="none" stroke="#cc9999" stroke-width="0.9" stroke-dasharray="5,2" d="M1297.24,-635C1338.76,-635 1390.75,-635 1431.35,-635"/>
<polygon fill="#cc9999" stroke="#cc9999" stroke-width="0.9" points="1431.11,-638.5 1441.11,-635 1431.11,-631.5 1431.11,-638.5"/>
</g>
<!-- e_aki -->
<g id="node21" class="node">
<title>e_aki</title>
<polygon fill="#ccaa44" stroke="none" points="1152.25,-440.62 1152.25,-459.88 1297.5,-459.88 1297.5,-440.62 1152.25,-440.62"/>
<polygon fill="none" stroke="black" points="1152.25,-440.62 1152.25,-459.88 1297.5,-459.88 1297.5,-440.62 1152.25,-440.62"/>
<text text-anchor="start" x="1207.25" y="-447.38" font-family="Helvetica,sans-Serif" font-weight="bold" font-size="10.00">&lt;entry&gt;</text>
<polygon fill="none" stroke="black" points="1152.25,-420.62 1152.25,-440.62 1297.5,-440.62 1297.5,-420.62 1152.25,-420.62"/>
<text text-anchor="start" x="1156.25" y="-427.12" font-family="Helvetica,sans-Serif" font-size="10.00">xml:id: 秋</text>
<polygon fill="none" stroke="black" points="1152.25,-401.38 1152.25,-420.62 1297.5,-420.62 1297.5,-401.38 1152.25,-401.38"/>
<text text-anchor="start" x="1156.25" y="-407.12" font-family="Helvetica,sans-Serif" font-size="10.00">pos: N.g</text>
<polygon fill="#e8cc88" stroke="none" points="1152.25,-382.12 1152.25,-401.38 1297.5,-401.38 1297.5,-382.12 1152.25,-382.12"/>
<polygon fill="none" stroke="black" points="1152.25,-382.12 1152.25,-401.38 1297.5,-401.38 1297.5,-382.12 1152.25,-382.12"/>
<text text-anchor="start" x="1156.25" y="-388.88" font-family="Helvetica,sans-Serif" font-weight="bold" font-size="10.00">&lt;sense&gt;</text>
<text text-anchor="start" x="1195.25" y="-388.88" font-family="Helvetica,sans-Serif" font-size="10.00"> ana: #WLSPH.1.1624</text>
</g>
<!-- e_aki&#45;&gt;wlsph -->
<g id="edge27" class="edge">
<title>e_aki&#45;&gt;wlsph</title>
<path fill="none" stroke="#bb6633" stroke-width="0.9" d="M1297.24,-449.38C1325.7,-460.69 1359.07,-473.96 1390.32,-486.38"/>
<polygon fill="#bb6633" stroke="#bb6633" stroke-width="0.9" points="1388.97,-489.62 1399.56,-490.06 1391.56,-483.11 1388.97,-489.62"/>
</g>
<!-- e_natsu -->
<g id="node22" class="node">
<title>e_natsu</title>
<polygon fill="#ccaa44" stroke="none" points="1152.25,-547.62 1152.25,-566.88 1297.5,-566.88 1297.5,-547.62 1152.25,-547.62"/>
<polygon fill="none" stroke="black" points="1152.25,-547.62 1152.25,-566.88 1297.5,-566.88 1297.5,-547.62 1152.25,-547.62"/>
<text text-anchor="start" x="1207.25" y="-554.38" font-family="Helvetica,sans-Serif" font-weight="bold" font-size="10.00">&lt;entry&gt;</text>
<polygon fill="none" stroke="black" points="1152.25,-527.62 1152.25,-547.62 1297.5,-547.62 1297.5,-527.62 1152.25,-527.62"/>
<text text-anchor="start" x="1156.25" y="-534.12" font-family="Helvetica,sans-Serif" font-size="10.00">xml:id: 夏</text>
<polygon fill="none" stroke="black" points="1152.25,-508.38 1152.25,-527.62 1297.5,-527.62 1297.5,-508.38 1152.25,-508.38"/>
<text text-anchor="start" x="1156.25" y="-514.12" font-family="Helvetica,sans-Serif" font-size="10.00">pos: N.g</text>
<polygon fill="#e8cc88" stroke="none" points="1152.25,-489.12 1152.25,-508.38 1297.5,-508.38 1297.5,-489.12 1152.25,-489.12"/>
<polygon fill="none" stroke="black" points="1152.25,-489.12 1152.25,-508.38 1297.5,-508.38 1297.5,-489.12 1152.25,-489.12"/>
<text text-anchor="start" x="1156.25" y="-495.88" font-family="Helvetica,sans-Serif" font-weight="bold" font-size="10.00">&lt;sense&gt;</text>
<text text-anchor="start" x="1195.25" y="-495.88" font-family="Helvetica,sans-Serif" font-size="10.00"> ana: #WLSPH.1.1624</text>
</g>
<!-- e_natsu&#45;&gt;wlsph -->
<g id="edge28" class="edge">
<title>e_natsu&#45;&gt;wlsph</title>
<path fill="none" stroke="#bb6633" stroke-width="0.9" d="M1297.24,-528.26C1324.82,-528.36 1357.01,-528.48 1387.42,-528.59"/>
<polygon fill="#bb6633" stroke="#bb6633" stroke-width="0.9" points="1387.16,-532.09 1397.17,-528.63 1387.18,-525.09 1387.16,-532.09"/>
</g>
<!-- e_fuyu -->
<g id="node23" class="node">
<title>e_fuyu</title>
<polygon fill="#ccaa44" stroke="none" points="1152.25,-333.62 1152.25,-352.88 1297.5,-352.88 1297.5,-333.62 1152.25,-333.62"/>
<polygon fill="none" stroke="black" points="1152.25,-333.62 1152.25,-352.88 1297.5,-352.88 1297.5,-333.62 1152.25,-333.62"/>
<text text-anchor="start" x="1207.25" y="-340.38" font-family="Helvetica,sans-Serif" font-weight="bold" font-size="10.00">&lt;entry&gt;</text>
<polygon fill="none" stroke="black" points="1152.25,-313.62 1152.25,-333.62 1297.5,-333.62 1297.5,-313.62 1152.25,-313.62"/>
<text text-anchor="start" x="1156.25" y="-320.12" font-family="Helvetica,sans-Serif" font-size="10.00">xml:id: 冬</text>
<polygon fill="none" stroke="black" points="1152.25,-294.38 1152.25,-313.62 1297.5,-313.62 1297.5,-294.38 1152.25,-294.38"/>
<text text-anchor="start" x="1156.25" y="-300.12" font-family="Helvetica,sans-Serif" font-size="10.00">pos: N.g</text>
<polygon fill="#e8cc88" stroke="none" points="1152.25,-275.12 1152.25,-294.38 1297.5,-294.38 1297.5,-275.12 1152.25,-275.12"/>
<polygon fill="none" stroke="black" points="1152.25,-275.12 1152.25,-294.38 1297.5,-294.38 1297.5,-275.12 1152.25,-275.12"/>
<text text-anchor="start" x="1156.25" y="-281.88" font-family="Helvetica,sans-Serif" font-weight="bold" font-size="10.00">&lt;sense&gt;</text>
<text text-anchor="start" x="1195.25" y="-281.88" font-family="Helvetica,sans-Serif" font-size="10.00"> ana: #WLSPH.1.1624</text>
</g>
<!-- e_fuyu&#45;&gt;wlsph -->
<g id="edge29" class="edge">
<title>e_fuyu&#45;&gt;wlsph</title>
<path fill="none" stroke="#bb6633" stroke-width="0.9" d="M1282.9,-352.67C1295.66,-361.33 1305.5,-368 1305.5,-368 1305.5,-368 1386.67,-436.07 1443.46,-483.69"/>
<polygon fill="#bb6633" stroke="#bb6633" stroke-width="0.9" points="1441.04,-486.23 1450.95,-489.97 1445.54,-480.86 1441.04,-486.23"/>
</g>
<!-- e_comp -->
<g id="node24" class="node">
<title>e_comp</title>
<polygon fill="#ccaa44" stroke="none" points="971.25,-645 971.25,-664.25 1049,-664.25 1049,-645 971.25,-645"/>
<polygon fill="none" stroke="black" points="971.25,-645 971.25,-664.25 1049,-664.25 1049,-645 971.25,-645"/>
<text text-anchor="start" x="992.5" y="-651.75" font-family="Helvetica,sans-Serif" font-weight="bold" font-size="10.00">&lt;entry&gt;</text>
<polygon fill="none" stroke="black" points="971.25,-625 971.25,-645 1049,-645 1049,-625 971.25,-625"/>
<text text-anchor="start" x="975.25" y="-631.5" font-family="Helvetica,sans-Serif" font-size="10.00">xml:id: 春霞</text>
<polygon fill="none" stroke="black" points="971.25,-605.75 971.25,-625 1049,-625 1049,-605.75 971.25,-605.75"/>
<text text-anchor="start" x="975.25" y="-611.5" font-family="Helvetica,sans-Serif" font-size="10.00">type: compound</text>
</g>
<!-- e_comp&#45;&gt;e_haru -->
<g id="edge19" class="edge">
<title>e_comp&#45;&gt;e_haru</title>
<path fill="none" stroke="#997722" stroke-width="0.9" stroke-dasharray="5,2" d="M1048.67,-635C1074.28,-635 1109.22,-635 1141.16,-635"/>
<polygon fill="#997722" stroke="#997722" stroke-width="0.9" points="1140.95,-638.5 1150.95,-635 1140.95,-631.5 1140.95,-638.5"/>
<text text-anchor="middle" x="1075.04" y="-627.4" font-family="Helvetica,sans-Serif" font-size="8.00">component</text>
</g>
<!-- wlsph&#45;&gt;person -->
<!-- person&#45;&gt;surface -->
</g>
</svg>
