<?xml version="1.0" encoding="UTF-8" standalone="no"?>
<!DOCTYPE svg PUBLIC "-//W3C//DTD SVG 1.1//EN"
 "http://www.w3.org/Graphics/SVG/1.1/DTD/svg11.dtd">
<!-- Generated by graphviz version 12.2.1 (0)
 -->
<!-- Title: kokin Pages: 1 -->
<svg width="1759pt" height="1622pt"
 viewBox="0.00 0.00 1758.75 1622.00" xmlns="http://www.w3.org/2000/svg" xmlns:xlink="http://www.w3.org/1999/xlink">
<g id="graph0" class="graph" transform="scale(1 1) rotate(0) translate(4 1618)">
<title>kokin</title>
<polygon fill="#faf9f7" stroke="none" points="-4,4 -4,-1618 1754.75,-1618 1754.75,4 -4,4"/>
<g id="clust1" class="cluster">
<title>cluster_body</title>
<path fill="#eef4fb" stroke="#7aaad0" d="M20,-1217C20,-1217 992.25,-1217 992.25,-1217 998.25,-1217 1004.25,-1223 1004.25,-1229 1004.25,-1229 1004.25,-1594 1004.25,-1594 1004.25,-1600 998.25,-1606 992.25,-1606 992.25,-1606 20,-1606 20,-1606 14,-1606 8,-1600 8,-1594 8,-1594 8,-1229 8,-1229 8,-1223 14,-1217 20,-1217"/>
<text text-anchor="middle" x="506.12" y="-1590.6" font-family="Helvetica,sans-Serif" font-size="12.00">&lt;body&gt;</text>
</g>
<g id="clust2" class="cluster">
<title>cluster_back</title>
<path fill="#f5f5f0" stroke="#888877" d="M44.12,-8C44.12,-8 1730.75,-8 1730.75,-8 1736.75,-8 1742.75,-14 1742.75,-20 1742.75,-20 1742.75,-1197 1742.75,-1197 1742.75,-1203 1736.75,-1209 1730.75,-1209 1730.75,-1209 44.12,-1209 44.12,-1209 38.12,-1209 32.12,-1203 32.12,-1197 32.12,-1197 32.12,-20 32.12,-20 32.12,-14 38.12,-8 44.12,-8"/>
<text text-anchor="middle" x="887.44" y="-1193.6" font-family="Helvetica,sans-Serif" font-size="12.00">&lt;back&gt;</text>
</g>
<g id="clust3" class="cluster">
<title>cluster_ri</title>
<path fill="#f0f7ee" stroke="#88bb77" d="M52.12,-685C52.12,-685 1175.5,-685 1175.5,-685 1181.5,-685 1187.5,-691 1187.5,-697 1187.5,-697 1187.5,-856 1187.5,-856 1187.5,-862 1181.5,-868 1175.5,-868 1175.5,-868 52.12,-868 52.12,-868 46.12,-868 40.12,-862 40.12,-856 40.12,-856 40.12,-697 40.12,-697 40.12,-691 46.12,-685 52.12,-685"/>
<text text-anchor="middle" x="613.81" y="-854.5" font-family="Helvetica,sans-Serif" font-size="10.00">reading&#45;index</text>
</g>
<g id="clust4" class="cluster">
<title>cluster_dict</title>
<path fill="#fef9ec" stroke="#ccaa44" d="M269.5,-16C269.5,-16 1421.75,-16 1421.75,-16 1427.75,-16 1433.75,-22 1433.75,-28 1433.75,-28 1433.75,-438 1433.75,-438 1433.75,-444 1427.75,-450 1421.75,-450 1421.75,-450 269.5,-450 269.5,-450 263.5,-450 257.5,-444 257.5,-438 257.5,-438 257.5,-28 257.5,-28 257.5,-22 263.5,-16 269.5,-16"/>
<text text-anchor="middle" x="845.62" y="-436.5" font-family="Helvetica,sans-Serif" font-size="10.00">dictionary</text>
</g>
<g id="clust5" class="cluster">
<title>cluster_cls</title>
<path fill="#fdf0f0" stroke="#cc8888" d="M500,-458C500,-458 1722.75,-458 1722.75,-458 1728.75,-458 1734.75,-464 1734.75,-470 1734.75,-470 1734.75,-665 1734.75,-665 1734.75,-671 1728.75,-677 1722.75,-677 1722.75,-677 500,-677 500,-677 494,-677 488,-671 488,-665 488,-665 488,-470 488,-470 488,-464 494,-458 500,-458"/>
<text text-anchor="middle" x="1111.38" y="-663.5" font-family="Helvetica,sans-Serif" font-size="10.00">classification</text>
</g>
<g id="clust6" class="cluster">
<title>cluster_person</title>
<path fill="#f5f0fb" stroke="#9977cc" d="M646.25,-958C646.25,-958 794.75,-958 794.75,-958 800.75,-958 806.75,-964 806.75,-970 806.75,-970 806.75,-1168 806.75,-1168 806.75,-1174 800.75,-1180 794.75,-1180 794.75,-1180 646.25,-1180 646.25,-1180 640.25,-1180 634.25,-1174 634.25,-1168 634.25,-1168 634.25,-970 634.25,-970 634.25,-964 640.25,-958 646.25,-958"/>
<text text-anchor="middle" x="720.5" y="-1166.5" font-family="Helvetica,sans-Serif" font-size="10.00">listPerson</text>
</g>
<g id="clust7" class="cluster">
<title>cluster_facs</title>
<path fill="#f7f0ea" stroke="#bb9966" d="M469.38,-876C469.38,-876 944,-876 944,-876 950,-876 956,-882 956,-888 956,-888 956,-938 956,-938 956,-944 950,-950 944,-950 944,-950 469.38,-950 469.38,-950 463.38,-950 457.38,-944 457.38,-938 457.38,-938 457.38,-888 457.38,-888 457.38,-882 463.38,-876 469.38,-876"/>
<text text-anchor="middle" x="706.69" y="-936.5" font-family="Helvetica,sans-Serif" font-size="10.00">facsimile</text>
</g>
<!-- b_div -->
<g id="node1" class="node">
<title>b_div</title>
<polygon fill="#7aaad0" stroke="none" points="16,-1392.38 16,-1411.62 80.25,-1411.62 80.25,-1392.38 16,-1392.38"/>
<polygon fill="none" stroke="black" points="16,-1392.38 16,-1411.62 80.25,-1411.62 80.25,-1392.38 16,-1392.38"/>
<text text-anchor="start" x="35" y="-1399.12" font-family="Helvetica,sans-Serif" font-weight="bold" font-size="10.00">&lt;div&gt;</text>
<polygon fill="none" stroke="black" points="16,-1372.38 16,-1392.38 80.25,-1392.38 80.25,-1372.38 16,-1372.38"/>
<text text-anchor="start" x="20" y="-1378.88" font-family="Helvetica,sans-Serif" font-size="10.00">type: 部立</text>
<polygon fill="none" stroke="black" points="16,-1352.38 16,-1372.38 80.25,-1372.38 80.25,-1352.38 16,-1352.38"/>
<text text-anchor="start" x="20" y="-1358.88" font-family="Helvetica,sans-Serif" font-size="10.00">head: 春哥上</text>
</g>
<!-- b_note_d -->
<g id="node2" class="node">
<title>b_note_d</title>
<polygon fill="#7aaad0" stroke="none" points="181.25,-1470.69 181.25,-1489.94 349.75,-1489.94 349.75,-1470.69 181.25,-1470.69"/>
<polygon fill="none" stroke="black" points="181.25,-1470.69 181.25,-1489.94 349.75,-1489.94 349.75,-1470.69 181.25,-1470.69"/>
<text text-anchor="start" x="249.38" y="-1477.44" font-family="Helvetica,sans-Serif" font-weight="bold" font-size="10.00">&lt;note&gt;</text>
<polygon fill="none" stroke="black" points="181.25,-1450.69 181.25,-1470.69 349.75,-1470.69 349.75,-1450.69 181.25,-1450.69"/>
<text text-anchor="start" x="185.25" y="-1457.19" font-family="Helvetica,sans-Serif" font-size="10.00">type: 詞書</text>
<polygon fill="none" stroke="black" points="181.25,-1431.44 181.25,-1450.69 349.75,-1450.69 349.75,-1431.44 181.25,-1431.44"/>
<text text-anchor="start" x="185.25" y="-1437.19" font-family="Helvetica,sans-Serif" font-size="10.00">target: #n1</text>
<polygon fill="none" stroke="black" points="181.25,-1412.06 181.25,-1431.44 349.75,-1431.44 349.75,-1412.06 181.25,-1412.06"/>
<text text-anchor="start" x="185.25" y="-1417.94" font-family="Helvetica,sans-Serif" font-size="10.00">ふるとしに[app]たちける[app]よめる</text>
</g>
<!-- b_div&#45;&gt;b_note_d -->
<g id="edge1" class="edge">
<title>b_div&#45;&gt;b_note_d</title>
<path fill="none" stroke="#888888" stroke-width="0.9" stroke-dasharray="5,2" d="M79.98,-1391.89C103.91,-1399.55 138.4,-1410.6 171.11,-1421.08"/>
<polygon fill="#888888" stroke="#888888" stroke-width="0.9" points="169.76,-1424.32 180.35,-1424.04 171.89,-1417.66 169.76,-1424.32"/>
</g>
<!-- b_note_a -->
<g id="node6" class="node">
<title>b_note_a</title>
<polygon fill="#7aaad0" stroke="none" points="234.5,-1332.38 234.5,-1351.62 296.5,-1351.62 296.5,-1332.38 234.5,-1332.38"/>
<polygon fill="none" stroke="black" points="234.5,-1332.38 234.5,-1351.62 296.5,-1351.62 296.5,-1332.38 234.5,-1332.38"/>
<text text-anchor="start" x="249.38" y="-1339.12" font-family="Helvetica,sans-Serif" font-weight="bold" font-size="10.00">&lt;note&gt;</text>
<polygon fill="none" stroke="black" points="234.5,-1312.38 234.5,-1332.38 296.5,-1332.38 296.5,-1312.38 234.5,-1312.38"/>
<text text-anchor="start" x="238.5" y="-1318.88" font-family="Helvetica,sans-Serif" font-size="10.00">type: 作者名</text>
</g>
<!-- b_div&#45;&gt;b_note_a -->
<g id="edge2" class="edge">
<title>b_div&#45;&gt;b_note_a</title>
<path fill="none" stroke="#888888" stroke-width="0.9" stroke-dasharray="5,2" d="M79.98,-1374.84C117.81,-1366.06 182.02,-1351.15 223.84,-1341.44"/>
<polygon fill="#888888" stroke="#888888" stroke-width="0.9" points="224.46,-1344.89 233.41,-1339.22 222.88,-1338.07 224.46,-1344.89"/>
</g>
<!-- b_l -->
<g id="node8" class="node">
<title>b_l</title>
<polygon fill="#7aaad0" stroke="none" points="457.5,-1401.62 457.5,-1420.88 534.5,-1420.88 534.5,-1401.62 457.5,-1401.62"/>
<polygon fill="none" stroke="black" points="457.5,-1401.62 457.5,-1420.88 534.5,-1420.88 534.5,-1401.62 457.5,-1401.62"/>
<text text-anchor="start" x="488.5" y="-1408.38" font-family="Helvetica,sans-Serif" font-weight="bold" font-size="10.00">&lt;l&gt;</text>
<polygon fill="none" stroke="black" points="457.5,-1382.38 457.5,-1401.62 534.5,-1401.62 534.5,-1382.38 457.5,-1382.38"/>
<text text-anchor="start" x="461.5" y="-1388.12" font-family="Helvetica,sans-Serif" font-size="10.00">n: 1</text>
<polygon fill="none" stroke="black" points="457.5,-1363.12 457.5,-1382.38 534.5,-1382.38 534.5,-1363.12 457.5,-1363.12"/>
<text text-anchor="start" x="461.5" y="-1368.88" font-family="Helvetica,sans-Serif" font-size="10.00">xml:id: n1</text>
<polygon fill="none" stroke="black" points="457.5,-1343.12 457.5,-1363.12 534.5,-1363.12 534.5,-1343.12 457.5,-1343.12"/>
<text text-anchor="start" x="461.5" y="-1349.62" font-family="Helvetica,sans-Serif" font-size="10.00">resp: #在原元方</text>
</g>
<!-- b_div&#45;&gt;b_l -->
<g id="edge3" class="edge">
<title>b_div&#45;&gt;b_l</title>
<path fill="none" stroke="#888888" stroke-width="0.9" stroke-dasharray="5,2" d="M80.12,-1382C156.54,-1382 354.42,-1382 446.52,-1382"/>
<polygon fill="#888888" stroke="#888888" stroke-width="0.9" points="446.38,-1385.5 456.38,-1382 446.38,-1378.5 446.38,-1385.5"/>
<text text-anchor="middle" x="248.7" y="-1374.4" font-family="Helvetica,sans-Serif" font-size="8.00">contains</text>
</g>
<!-- b_phr -->
<g id="node15" class="node">
<title>b_phr</title>
<polygon fill="#7aaad0" stroke="none" points="198.12,-1557.69 198.12,-1576.94 332.88,-1576.94 332.88,-1557.69 198.12,-1557.69"/>
<polygon fill="none" stroke="black" points="198.12,-1557.69 198.12,-1576.94 332.88,-1576.94 332.88,-1557.69 198.12,-1557.69"/>
<text text-anchor="start" x="251.62" y="-1564.44" font-family="Helvetica,sans-Serif" font-weight="bold" font-size="10.00">&lt;phr&gt;</text>
<polygon fill="none" stroke="black" points="198.12,-1538.44 198.12,-1557.69 332.88,-1557.69 332.88,-1538.44 198.12,-1538.44"/>
<text text-anchor="start" x="202.12" y="-1544.19" font-family="Helvetica,sans-Serif" font-size="10.00">xml:id: kana1&#45;1</text>
<polygon fill="none" stroke="black" points="198.12,-1519.06 198.12,-1538.44 332.88,-1538.44 332.88,-1519.06 198.12,-1519.06"/>
<text text-anchor="start" x="202.12" y="-1524.94" font-family="Helvetica,sans-Serif" font-size="10.00">やまとうたは人のこゝろを…</text>
</g>
<!-- b_div&#45;&gt;b_phr -->
<g id="edge4" class="edge">
<title>b_div&#45;&gt;b_phr</title>
<path fill="none" stroke="#888888" stroke-width="0.9" stroke-dasharray="5,2" d="M78.45,-1411.52C117.37,-1450.7 181.25,-1515 181.25,-1515 181.25,-1515 183.9,-1516.05 188.26,-1517.78"/>
<polygon fill="#888888" stroke="#888888" stroke-width="0.9" points="186.65,-1520.9 197.23,-1521.34 189.23,-1514.4 186.65,-1520.9"/>
</g>
<!-- b_pb -->
<g id="node16" class="node">
<title>b_pb</title>
<polygon fill="#7aaad0" stroke="none" points="236,-1263.62 236,-1282.88 295,-1282.88 295,-1263.62 236,-1263.62"/>
<polygon fill="none" stroke="black" points="236,-1263.62 236,-1282.88 295,-1282.88 295,-1263.62 236,-1263.62"/>
<text text-anchor="start" x="253.5" y="-1270.38" font-family="Helvetica,sans-Serif" font-weight="bold" font-size="10.00">&lt;pb&gt;</text>
<polygon fill="none" stroke="black" points="236,-1244.38 236,-1263.62 295,-1263.62 295,-1244.38 236,-1244.38"/>
<text text-anchor="start" x="240" y="-1250.12" font-family="Helvetica,sans-Serif" font-size="10.00">n: 1&#45;1r</text>
<polygon fill="none" stroke="black" points="236,-1225.12 236,-1244.38 295,-1244.38 295,-1225.12 236,-1225.12"/>
<text text-anchor="start" x="240" y="-1230.88" font-family="Helvetica,sans-Serif" font-size="10.00">facs: #p001</text>
</g>
<!-- b_div&#45;&gt;b_pb -->
<g id="edge5" class="edge">
<title>b_div&#45;&gt;b_pb</title>
<path fill="none" stroke="#888888" stroke-width="0.9" stroke-dasharray="5,2" d="M79.98,-1363.66C118.64,-1340.69 184.86,-1301.33 226.57,-1276.54"/>
<polygon fill="#888888" stroke="#888888" stroke-width="0.9" points="228.12,-1279.69 234.93,-1271.57 224.55,-1273.67 228.12,-1279.69"/>
</g>
<!-- b_app -->
<g id="node3" class="node">
<title>b_app</title>
<polygon fill="#7aaad0" stroke="none" points="477.38,-1451.38 477.38,-1470.62 514.62,-1470.62 514.62,-1451.38 477.38,-1451.38"/>
<polygon fill="none" stroke="black" points="477.38,-1451.38 477.38,-1470.62 514.62,-1470.62 514.62,-1451.38 477.38,-1451.38"/>
<text text-anchor="start" x="481.38" y="-1458.12" font-family="Helvetica,sans-Serif" font-weight="bold" font-size="10.00">&lt;app&gt;</text>
</g>
<!-- b_note_d&#45;&gt;b_app -->
<g id="edge6" class="edge">
<title>b_note_d&#45;&gt;b_app</title>
<path fill="none" stroke="#888888" stroke-width="0.9" stroke-dasharray="5,2" d="M349.64,-1454.64C390.69,-1456.43 437.54,-1458.49 466.69,-1459.76"/>
<polygon fill="#888888" stroke="#888888" stroke-width="0.9" points="466.17,-1463.24 476.31,-1460.18 466.48,-1456.25 466.17,-1463.24"/>
</g>
<!-- b_note_d&#45;&gt;b_l -->
<g id="edge7" class="edge">
<title>b_note_d&#45;&gt;b_l</title>
<path fill="none" stroke="#448899" stroke-width="0.9" d="M349.64,-1425.89C382.31,-1416.03 418.65,-1405.05 446.83,-1396.55"/>
<polygon fill="#448899" stroke="#448899" stroke-width="0.9" points="447.72,-1399.93 456.28,-1393.69 445.7,-1393.23 447.72,-1399.93"/>
<text text-anchor="middle" x="387.73" y="-1403.62" font-family="Helvetica,sans-Serif" font-size="8.00">target</text>
</g>
<!-- b_lem -->
<g id="node4" class="node">
<title>b_lem</title>
<polygon fill="#7aaad0" stroke="none" points="699.62,-1470.62 699.62,-1489.88 741.38,-1489.88 741.38,-1470.62 699.62,-1470.62"/>
<polygon fill="none" stroke="black" points="699.62,-1470.62 699.62,-1489.88 741.38,-1489.88 741.38,-1470.62 699.62,-1470.62"/>
<text text-anchor="start" x="705.88" y="-1477.38" font-family="Helvetica,sans-Serif" font-weight="bold" font-size="10.00">&lt;lem&gt;</text>
<polygon fill="none" stroke="black" points="699.62,-1450.62 699.62,-1470.62 741.38,-1470.62 741.38,-1450.62 699.62,-1450.62"/>
<text text-anchor="start" x="703.62" y="-1457.12" font-family="Helvetica,sans-Serif" font-size="10.00">wit: #国</text>
<polygon fill="none" stroke="black" points="699.62,-1432.12 699.62,-1450.62 741.38,-1450.62 741.38,-1432.12 699.62,-1432.12"/>
<text text-anchor="start" x="703.62" y="-1437.12" font-family="Helvetica,sans-Serif" font-size="10.00">春</text>
</g>
<!-- b_app&#45;&gt;b_lem -->
<g id="edge9" class="edge">
<title>b_app&#45;&gt;b_lem</title>
<path fill="none" stroke="#888888" stroke-width="0.9" stroke-dasharray="5,2" d="M514.46,-1461C552.14,-1461 641.51,-1461 688.85,-1461"/>
<polygon fill="#888888" stroke="#888888" stroke-width="0.9" points="688.56,-1464.5 698.56,-1461 688.56,-1457.5 688.56,-1464.5"/>
</g>
<!-- b_rdg -->
<g id="node5" class="node">
<title>b_rdg</title>
<polygon fill="#7aaad0" stroke="none" points="699.62,-1557.62 699.62,-1576.88 741.38,-1576.88 741.38,-1557.62 699.62,-1557.62"/>
<polygon fill="none" stroke="black" points="699.62,-1557.62 699.62,-1576.88 741.38,-1576.88 741.38,-1557.62 699.62,-1557.62"/>
<text text-anchor="start" x="706.62" y="-1564.38" font-family="Helvetica,sans-Serif" font-weight="bold" font-size="10.00">&lt;rdg&gt;</text>
<polygon fill="none" stroke="black" points="699.62,-1537.62 699.62,-1557.62 741.38,-1557.62 741.38,-1537.62 699.62,-1537.62"/>
<text text-anchor="start" x="703.62" y="-1544.12" font-family="Helvetica,sans-Serif" font-size="10.00">wit: #前</text>
<polygon fill="none" stroke="black" points="699.62,-1519.12 699.62,-1537.62 741.38,-1537.62 741.38,-1519.12 699.62,-1519.12"/>
<text text-anchor="start" x="703.62" y="-1524.12" font-family="Helvetica,sans-Serif" font-size="10.00">春の</text>
</g>
<!-- b_app&#45;&gt;b_rdg -->
<g id="edge10" class="edge">
<title>b_app&#45;&gt;b_rdg</title>
<path fill="none" stroke="#888888" stroke-width="0.9" stroke-dasharray="5,2" d="M514.46,-1467.83C552.3,-1482.62 642.26,-1517.8 689.45,-1536.25"/>
<polygon fill="#888888" stroke="#888888" stroke-width="0.9" points="688.06,-1539.47 698.65,-1539.85 690.61,-1532.95 688.06,-1539.47"/>
</g>
<!-- b_persname -->
<g id="node7" class="node">
<title>b_persname</title>
<polygon fill="#7aaad0" stroke="none" points="450.75,-1289.62 450.75,-1308.88 541.25,-1308.88 541.25,-1289.62 450.75,-1289.62"/>
<polygon fill="none" stroke="black" points="450.75,-1289.62 450.75,-1308.88 541.25,-1308.88 541.25,-1289.62 450.75,-1289.62"/>
<text text-anchor="start" x="466.38" y="-1296.38" font-family="Helvetica,sans-Serif" font-weight="bold" font-size="10.00">&lt;persName&gt;</text>
<polygon fill="none" stroke="black" points="450.75,-1269.62 450.75,-1289.62 541.25,-1289.62 541.25,-1269.62 450.75,-1269.62"/>
<text text-anchor="start" x="454.75" y="-1276.12" font-family="Helvetica,sans-Serif" font-size="10.00">type: 作者</text>
<polygon fill="none" stroke="black" points="450.75,-1249.62 450.75,-1269.62 541.25,-1269.62 541.25,-1249.62 450.75,-1249.62"/>
<text text-anchor="start" x="454.75" y="-1256.12" font-family="Helvetica,sans-Serif" font-size="10.00">corresp: #在原元方</text>
<polygon fill="none" stroke="black" points="450.75,-1231.12 450.75,-1249.62 541.25,-1249.62 541.25,-1231.12 450.75,-1231.12"/>
<text text-anchor="start" x="454.75" y="-1236.12" font-family="Helvetica,sans-Serif" font-size="10.00">在原元方</text>
</g>
<!-- b_note_a&#45;&gt;b_persname -->
<g id="edge8" class="edge">
<title>b_note_a&#45;&gt;b_persname</title>
<path fill="none" stroke="#888888" stroke-width="0.9" stroke-dasharray="5,2" d="M296.37,-1323.89C332.81,-1314.01 395.1,-1297.11 440.23,-1284.86"/>
<polygon fill="#888888" stroke="#888888" stroke-width="0.9" points="440.97,-1288.29 449.7,-1282.29 439.14,-1281.53 440.97,-1288.29"/>
</g>
<!-- person -->
<g id="node31" class="node">
<title>person</title>
<polygon fill="#9977cc" stroke="none" points="642.25,-1133.62 642.25,-1152.88 798.75,-1152.88 798.75,-1133.62 642.25,-1133.62"/>
<polygon fill="none" stroke="black" points="642.25,-1133.62 642.25,-1152.88 798.75,-1152.88 798.75,-1133.62 642.25,-1133.62"/>
<text text-anchor="start" x="698.38" y="-1140.38" font-family="Helvetica,sans-Serif" font-weight="bold" font-size="10.00">&lt;person&gt;</text>
<polygon fill="none" stroke="black" points="642.25,-1113.62 642.25,-1133.62 798.75,-1133.62 798.75,-1113.62 642.25,-1113.62"/>
<text text-anchor="start" x="646.25" y="-1120.12" font-family="Helvetica,sans-Serif" font-size="10.00">xml:id: 在原元方</text>
<polygon fill="none" stroke="black" points="642.25,-1094.38 642.25,-1113.62 798.75,-1113.62 798.75,-1094.38 642.25,-1094.38"/>
<text text-anchor="start" x="646.25" y="-1100.12" font-family="Helvetica,sans-Serif" font-size="10.00">sex: 1</text>
<polygon fill="none" stroke="black" points="642.25,-1074.38 642.25,-1094.38 798.75,-1094.38 798.75,-1074.38 642.25,-1074.38"/>
<text text-anchor="start" x="646.25" y="-1080.88" font-family="Helvetica,sans-Serif" font-size="10.00">persName: ありわらの／もとかた</text>
<polygon fill="none" stroke="black" points="642.25,-1054.38 642.25,-1074.38 798.75,-1074.38 798.75,-1054.38 642.25,-1054.38"/>
<text text-anchor="start" x="646.25" y="-1060.88" font-family="Helvetica,sans-Serif" font-size="10.00">birth: 不明</text>
<polygon fill="none" stroke="black" points="642.25,-1034.38 642.25,-1054.38 798.75,-1054.38 798.75,-1034.38 642.25,-1034.38"/>
<text text-anchor="start" x="646.25" y="-1040.88" font-family="Helvetica,sans-Serif" font-size="10.00">death: 不明</text>
<polygon fill="none" stroke="black" points="642.25,-1015.12 642.25,-1034.38 798.75,-1034.38 798.75,-1015.12 642.25,-1015.12"/>
<text text-anchor="start" x="646.25" y="-1020.88" font-family="Helvetica,sans-Serif" font-size="10.00">idno[VIAF]: viaf/114305486</text>
<polygon fill="none" stroke="black" points="642.25,-995.12 642.25,-1015.12 798.75,-1015.12 798.75,-995.12 642.25,-995.12"/>
<text text-anchor="start" x="646.25" y="-1001.62" font-family="Helvetica,sans-Serif" font-size="10.00">idno[国書DB]: 588363</text>
</g>
<!-- b_persname&#45;&gt;person -->
<g id="edge31" class="edge">
<title>b_persname&#45;&gt;person</title>
<path fill="none" stroke="#7755aa" stroke-width="0.9" d="M540.96,-1231.28C567.47,-1207.93 602.14,-1177.39 633.87,-1149.43"/>
<polygon fill="#7755aa" stroke="#7755aa" stroke-width="0.9" points="636.08,-1152.15 641.27,-1142.91 631.46,-1146.89 636.08,-1152.15"/>
<text text-anchor="middle" x="573.91" y="-1182.76" font-family="Helvetica,sans-Serif" font-size="8.00">corresp</text>
</g>
<!-- b_seg1 -->
<g id="node9" class="node">
<title>b_seg1</title>
<polygon fill="#7aaad0" stroke="none" points="697,-1316.62 697,-1335.88 744,-1335.88 744,-1316.62 697,-1316.62"/>
<polygon fill="none" stroke="black" points="697,-1316.62 697,-1335.88 744,-1335.88 744,-1316.62 697,-1316.62"/>
<text text-anchor="start" x="706.25" y="-1323.38" font-family="Helvetica,sans-Serif" font-weight="bold" font-size="10.00">&lt;seg&gt;</text>
<polygon fill="none" stroke="black" points="697,-1298.12 697,-1316.62 744,-1316.62 744,-1298.12 697,-1298.12"/>
<text text-anchor="start" x="701" y="-1303.12" font-family="Helvetica,sans-Serif" font-size="10.00">年の内に</text>
</g>
<!-- b_l&#45;&gt;b_seg1 -->
<g id="edge11" class="edge">
<title>b_l&#45;&gt;b_seg1</title>
<path fill="none" stroke="#888888" stroke-width="0.9" stroke-dasharray="5,2" d="M534.49,-1371.05C577.06,-1358.61 645.84,-1338.52 686.47,-1326.65"/>
<polygon fill="#888888" stroke="#888888" stroke-width="0.9" points="687.21,-1330.08 695.82,-1323.92 685.24,-1323.36 687.21,-1330.08"/>
</g>
<!-- b_seg2 -->
<g id="node12" class="node">
<title>b_seg2</title>
<polygon fill="#7aaad0" stroke="none" points="687.25,-1383.62 687.25,-1402.88 753.75,-1402.88 753.75,-1383.62 687.25,-1383.62"/>
<polygon fill="none" stroke="black" points="687.25,-1383.62 687.25,-1402.88 753.75,-1402.88 753.75,-1383.62 687.25,-1383.62"/>
<text text-anchor="start" x="706.25" y="-1390.38" font-family="Helvetica,sans-Serif" font-weight="bold" font-size="10.00">&lt;seg&gt;</text>
<polygon fill="none" stroke="black" points="687.25,-1365.12 687.25,-1383.62 753.75,-1383.62 753.75,-1365.12 687.25,-1365.12"/>
<text text-anchor="start" x="691.25" y="-1370.12" font-family="Helvetica,sans-Serif" font-size="10.00">春はきにけり</text>
</g>
<!-- b_l&#45;&gt;b_seg2 -->
<g id="edge12" class="edge">
<title>b_l&#45;&gt;b_seg2</title>
<path fill="none" stroke="#888888" stroke-width="0.9" stroke-dasharray="5,2" d="M534.49,-1382.34C573.58,-1382.69 634.77,-1383.24 675.97,-1383.61"/>
<polygon fill="#888888" stroke="#888888" stroke-width="0.9" points="675.89,-1387.11 685.92,-1383.7 675.95,-1380.11 675.89,-1387.11"/>
</g>
<!-- b_l&#45;&gt;person -->
<g id="edge32" class="edge">
<title>b_l&#45;&gt;person</title>
<path fill="none" stroke="#7755aa" stroke-width="0.9" d="M534.34,-1345.72C538.48,-1341.69 541.25,-1339 541.25,-1339 541.25,-1339 608.39,-1239.19 660.26,-1162.07"/>
<polygon fill="#7755aa" stroke="#7755aa" stroke-width="0.9" points="663.06,-1164.17 665.74,-1153.92 657.26,-1160.27 663.06,-1164.17"/>
<text text-anchor="middle" x="590.19" y="-1246.94" font-family="Helvetica,sans-Serif" font-size="8.00">resp</text>
</g>
<!-- b_w_toshi -->
<g id="node10" class="node">
<title>b_w_toshi</title>
<polygon fill="#7aaad0" stroke="none" points="899.75,-1263.62 899.75,-1282.88 996.25,-1282.88 996.25,-1263.62 899.75,-1263.62"/>
<polygon fill="none" stroke="black" points="899.75,-1263.62 899.75,-1282.88 996.25,-1282.88 996.25,-1263.62 899.75,-1263.62"/>
<text text-anchor="start" x="938.25" y="-1270.38" font-family="Helvetica,sans-Serif" font-weight="bold" font-size="10.00">&lt;w&gt;</text>
<polygon fill="none" stroke="black" points="899.75,-1245.12 899.75,-1263.62 996.25,-1263.62 996.25,-1245.12 899.75,-1245.12"/>
<text text-anchor="start" x="903.75" y="-1250.12" font-family="Helvetica,sans-Serif" font-size="10.00">年</text>
<polygon fill="none" stroke="black" points="899.75,-1225.12 899.75,-1245.12 996.25,-1245.12 996.25,-1225.12 899.75,-1225.12"/>
<text text-anchor="start" x="903.75" y="-1231.62" font-family="Helvetica,sans-Serif" font-size="10.00">lemmaRef: #とし.年</text>
</g>
<!-- b_seg1&#45;&gt;b_w_toshi -->
<g id="edge13" class="edge">
<title>b_seg1&#45;&gt;b_w_toshi</title>
<path fill="none" stroke="#888888" stroke-width="0.9" stroke-dasharray="5,2" d="M743.9,-1310.96C769.16,-1304.14 806.75,-1294 806.75,-1294 806.75,-1294 850.54,-1281.51 889.19,-1270.49"/>
<polygon fill="#888888" stroke="#888888" stroke-width="0.9" points="889.94,-1273.91 898.6,-1267.8 888.02,-1267.18 889.94,-1273.91"/>
</g>
<!-- b_w_no -->
<g id="node11" class="node">
<title>b_w_no</title>
<polygon fill="#7aaad0" stroke="none" points="904.62,-1350.62 904.62,-1369.88 991.38,-1369.88 991.38,-1350.62 904.62,-1350.62"/>
<polygon fill="none" stroke="black" points="904.62,-1350.62 904.62,-1369.88 991.38,-1369.88 991.38,-1350.62 904.62,-1350.62"/>
<text text-anchor="start" x="938.25" y="-1357.38" font-family="Helvetica,sans-Serif" font-weight="bold" font-size="10.00">&lt;w&gt;</text>
<polygon fill="none" stroke="black" points="904.62,-1332.12 904.62,-1350.62 991.38,-1350.62 991.38,-1332.12 904.62,-1332.12"/>
<text text-anchor="start" x="908.62" y="-1337.12" font-family="Helvetica,sans-Serif" font-size="10.00">の</text>
<polygon fill="none" stroke="black" points="904.62,-1312.12 904.62,-1332.12 991.38,-1332.12 991.38,-1312.12 904.62,-1312.12"/>
<text text-anchor="start" x="908.62" y="-1318.62" font-family="Helvetica,sans-Serif" font-size="10.00">lemmaRef: #の.の</text>
</g>
<!-- b_seg1&#45;&gt;b_w_no -->
<g id="edge14" class="edge">
<title>b_seg1&#45;&gt;b_w_no</title>
<path fill="none" stroke="#888888" stroke-width="0.9" stroke-dasharray="5,2" d="M743.95,-1319.39C778.6,-1323.08 846.09,-1330.26 893.74,-1335.33"/>
<polygon fill="#888888" stroke="#888888" stroke-width="0.9" points="893.11,-1338.78 903.43,-1336.36 893.86,-1331.82 893.11,-1338.78"/>
</g>
<!-- b_w_haru -->
<g id="node13" class="node">
<title>b_w_haru</title>
<polygon fill="#7aaad0" stroke="none" points="899.75,-1437.62 899.75,-1456.88 996.25,-1456.88 996.25,-1437.62 899.75,-1437.62"/>
<polygon fill="none" stroke="black" points="899.75,-1437.62 899.75,-1456.88 996.25,-1456.88 996.25,-1437.62 899.75,-1437.62"/>
<text text-anchor="start" x="938.25" y="-1444.38" font-family="Helvetica,sans-Serif" font-weight="bold" font-size="10.00">&lt;w&gt;</text>
<polygon fill="none" stroke="black" points="899.75,-1419.12 899.75,-1437.62 996.25,-1437.62 996.25,-1419.12 899.75,-1419.12"/>
<text text-anchor="start" x="903.75" y="-1424.12" font-family="Helvetica,sans-Serif" font-size="10.00">春</text>
<polygon fill="none" stroke="black" points="899.75,-1399.12 899.75,-1419.12 996.25,-1419.12 996.25,-1399.12 899.75,-1399.12"/>
<text text-anchor="start" x="903.75" y="-1405.62" font-family="Helvetica,sans-Serif" font-size="10.00">lemmaRef: #はる.春</text>
</g>
<!-- b_seg2&#45;&gt;b_w_haru -->
<g id="edge15" class="edge">
<title>b_seg2&#45;&gt;b_w_haru</title>
<path fill="none" stroke="#888888" stroke-width="0.9" stroke-dasharray="5,2" d="M753.33,-1390.21C788.51,-1397.08 845.91,-1408.27 889.1,-1416.7"/>
<polygon fill="#888888" stroke="#888888" stroke-width="0.9" points="888.21,-1420.09 898.7,-1418.57 889.55,-1413.22 888.21,-1420.09"/>
</g>
<!-- b_w_ha -->
<g id="node14" class="node">
<title>b_w_ha</title>
<polygon fill="#7aaad0" stroke="none" points="904.62,-1524.62 904.62,-1543.88 991.38,-1543.88 991.38,-1524.62 904.62,-1524.62"/>
<polygon fill="none" stroke="black" points="904.62,-1524.62 904.62,-1543.88 991.38,-1543.88 991.38,-1524.62 904.62,-1524.62"/>
<text text-anchor="start" x="938.25" y="-1531.38" font-family="Helvetica,sans-Serif" font-weight="bold" font-size="10.00">&lt;w&gt;</text>
<polygon fill="none" stroke="black" points="904.62,-1506.12 904.62,-1524.62 991.38,-1524.62 991.38,-1506.12 904.62,-1506.12"/>
<text text-anchor="start" x="908.62" y="-1511.12" font-family="Helvetica,sans-Serif" font-size="10.00">は</text>
<polygon fill="none" stroke="black" points="904.62,-1486.12 904.62,-1506.12 991.38,-1506.12 991.38,-1486.12 904.62,-1486.12"/>
<text text-anchor="start" x="908.62" y="-1492.62" font-family="Helvetica,sans-Serif" font-size="10.00">lemmaRef: #は.は</text>
</g>
<!-- b_seg2&#45;&gt;b_w_ha -->
<g id="edge16" class="edge">
<title>b_seg2&#45;&gt;b_w_ha</title>
<path fill="none" stroke="#888888" stroke-width="0.9" stroke-dasharray="5,2" d="M753.33,-1402.49C790.24,-1423.93 851.6,-1459.58 895.36,-1485"/>
<polygon fill="#888888" stroke="#888888" stroke-width="0.9" points="893.38,-1487.9 903.79,-1489.9 896.9,-1481.85 893.38,-1487.9"/>
</g>
<!-- hom_haru -->
<g id="node19" class="node">
<title>hom_haru</title>
<polygon fill="#88bb77" stroke="none" points="1102.12,-821.38 1102.12,-840.62 1174.62,-840.62 1174.62,-821.38 1102.12,-821.38"/>
<polygon fill="none" stroke="black" points="1102.12,-821.38 1102.12,-840.62 1174.62,-840.62 1174.62,-821.38 1102.12,-821.38"/>
<text text-anchor="start" x="1121.88" y="-828.12" font-family="Helvetica,sans-Serif" font-weight="bold" font-size="10.00">&lt;hom&gt;</text>
<polygon fill="none" stroke="black" points="1102.12,-801.38 1102.12,-821.38 1174.62,-821.38 1174.62,-801.38 1102.12,-801.38"/>
<text text-anchor="start" x="1106.12" y="-807.88" font-family="Helvetica,sans-Serif" font-size="10.00">xml:id: はる.春</text>
<polygon fill="none" stroke="black" points="1102.12,-781.38 1102.12,-801.38 1174.62,-801.38 1174.62,-781.38 1102.12,-781.38"/>
<text text-anchor="start" x="1106.12" y="-787.88" font-family="Helvetica,sans-Serif" font-size="10.00">ref: #春</text>
</g>
<!-- b_w_haru&#45;&gt;hom_haru -->
<g id="edge24" class="edge">
<title>b_w_haru&#45;&gt;hom_haru</title>
<path fill="none" stroke="#4477bb" stroke-width="0.9" d="M996.1,-1399.87C1001.01,-1396.94 1004.25,-1395 1004.25,-1395 1004.25,-1395 1098.13,-983.14 1128.22,-851.17"/>
<polygon fill="#4477bb" stroke="#4477bb" stroke-width="0.9" points="1131.57,-852.22 1130.38,-841.69 1124.74,-850.66 1131.57,-852.22"/>
<text text-anchor="middle" x="1046.8" y="-1120.11" font-family="Helvetica,sans-Serif" font-size="8.00">lemmaRef</text>
</g>
<!-- surface -->
<g id="node33" class="node">
<title>surface</title>
<polygon fill="#bb9966" stroke="none" points="465.38,-903 465.38,-922.25 526.62,-922.25 526.62,-903 465.38,-903"/>
<polygon fill="none" stroke="black" points="465.38,-903 465.38,-922.25 526.62,-922.25 526.62,-903 465.38,-903"/>
<text text-anchor="start" x="473.12" y="-909.75" font-family="Helvetica,sans-Serif" font-weight="bold" font-size="10.00">&lt;surface&gt;</text>
<polygon fill="none" stroke="black" points="465.38,-883.75 465.38,-903 526.62,-903 526.62,-883.75 465.38,-883.75"/>
<text text-anchor="start" x="469.38" y="-889.5" font-family="Helvetica,sans-Serif" font-size="10.00">xml:id: p001</text>
</g>
<!-- b_pb&#45;&gt;surface -->
<g id="edge33" class="edge">
<title>b_pb&#45;&gt;surface</title>
<path fill="none" stroke="#996644" stroke-width="0.9" d="M294.68,-1242.83C318.84,-1233.25 349.75,-1221 349.75,-1221 349.75,-1221 445.83,-1010.65 481.7,-932.11"/>
<polygon fill="#996644" stroke="#996644" stroke-width="0.9" points="484.81,-933.73 485.78,-923.18 478.44,-930.82 484.81,-933.73"/>
<text text-anchor="middle" x="396.3" y="-1095.9" font-family="Helvetica,sans-Serif" font-size="8.00">facs</text>
</g>
<!-- ri_anc -->
<!-- dict_anc -->
<!-- ri_anc&#45;&gt;dict_anc -->
<!-- ri_entry -->
<g id="node18" class="node">
<title>ri_entry</title>
<polygon fill="#88bb77" stroke="none" points="918.12,-767.38 918.12,-786.62 977.88,-786.62 977.88,-767.38 918.12,-767.38"/>
<polygon fill="none" stroke="black" points="918.12,-767.38 918.12,-786.62 977.88,-786.62 977.88,-767.38 918.12,-767.38"/>
<text text-anchor="start" x="930.38" y="-774.12" font-family="Helvetica,sans-Serif" font-weight="bold" font-size="10.00">&lt;entry&gt;</text>
<polygon fill="none" stroke="black" points="918.12,-747.38 918.12,-767.38 977.88,-767.38 977.88,-747.38 918.12,-747.38"/>
<text text-anchor="start" x="922.12" y="-753.88" font-family="Helvetica,sans-Serif" font-size="10.00">xml:id: はる</text>
</g>
<!-- ri_entry&#45;&gt;hom_haru -->
<g id="edge17" class="edge">
<title>ri_entry&#45;&gt;hom_haru</title>
<path fill="none" stroke="#888888" stroke-width="0.9" stroke-dasharray="5,2" d="M977.61,-773.68C1007.79,-780.73 1055.82,-791.95 1091.34,-800.25"/>
<polygon fill="#888888" stroke="#888888" stroke-width="0.9" points="1090.53,-803.65 1101.07,-802.52 1092.12,-796.84 1090.53,-803.65"/>
</g>
<!-- hom_haru2 -->
<g id="node20" class="node">
<title>hom_haru2</title>
<polygon fill="#88bb77" stroke="none" points="1097.25,-733.38 1097.25,-752.62 1179.5,-752.62 1179.5,-733.38 1097.25,-733.38"/>
<polygon fill="none" stroke="black" points="1097.25,-733.38 1097.25,-752.62 1179.5,-752.62 1179.5,-733.38 1097.25,-733.38"/>
<text text-anchor="start" x="1121.88" y="-740.12" font-family="Helvetica,sans-Serif" font-weight="bold" font-size="10.00">&lt;hom&gt;</text>
<polygon fill="none" stroke="black" points="1097.25,-713.38 1097.25,-733.38 1179.5,-733.38 1179.5,-713.38 1097.25,-713.38"/>
<text text-anchor="start" x="1101.25" y="-719.88" font-family="Helvetica,sans-Serif" font-size="10.00">xml:id: はる.張る</text>
<polygon fill="none" stroke="black" points="1097.25,-693.38 1097.25,-713.38 1179.5,-713.38 1179.5,-693.38 1097.25,-693.38"/>
<text text-anchor="start" x="1101.25" y="-699.88" font-family="Helvetica,sans-Serif" font-size="10.00">ref: #張る</text>
</g>
<!-- ri_entry&#45;&gt;hom_haru2 -->
<g id="edge18" class="edge">
<title>ri_entry&#45;&gt;hom_haru2</title>
<path fill="none" stroke="#888888" stroke-width="0.9" stroke-dasharray="5,2" d="M977.61,-760.32C1006.4,-753.59 1051.42,-743.08 1086.34,-734.92"/>
<polygon fill="#888888" stroke="#888888" stroke-width="0.9" points="1087.02,-738.36 1095.97,-732.67 1085.43,-731.54 1087.02,-738.36"/>
</g>
<!-- e_haru -->
<g id="node22" class="node">
<title>e_haru</title>
<polygon fill="#ccaa44" stroke="none" points="1280.5,-403.62 1280.5,-422.88 1425.75,-422.88 1425.75,-403.62 1280.5,-403.62"/>
<polygon fill="none" stroke="black" points="1280.5,-403.62 1280.5,-422.88 1425.75,-422.88 1425.75,-403.62 1280.5,-403.62"/>
<text text-anchor="start" x="1335.5" y="-410.38" font-family="Helvetica,sans-Serif" font-weight="bold" font-size="10.00">&lt;entry&gt;</text>
<polygon fill="none" stroke="black" points="1280.5,-383.62 1280.5,-403.62 1425.75,-403.62 1425.75,-383.62 1280.5,-383.62"/>
<text text-anchor="start" x="1284.5" y="-390.12" font-family="Helvetica,sans-Serif" font-size="10.00">xml:id: 春</text>
<polygon fill="none" stroke="black" points="1280.5,-364.38 1280.5,-383.62 1425.75,-383.62 1425.75,-364.38 1280.5,-364.38"/>
<text text-anchor="start" x="1284.5" y="-370.12" font-family="Helvetica,sans-Serif" font-size="10.00">pos: N.g</text>
<polygon fill="#e8cc88" stroke="none" points="1280.5,-345.12 1280.5,-364.38 1425.75,-364.38 1425.75,-345.12 1280.5,-345.12"/>
<polygon fill="none" stroke="black" points="1280.5,-345.12 1280.5,-364.38 1425.75,-364.38 1425.75,-345.12 1280.5,-345.12"/>
<text text-anchor="start" x="1284.5" y="-351.88" font-family="Helvetica,sans-Serif" font-weight="bold" font-size="10.00">&lt;sense&gt;</text>
<text text-anchor="start" x="1323.5" y="-351.88" font-family="Helvetica,sans-Serif" font-size="10.00"> ana: #WLSPH.1.1624</text>
</g>
<!-- hom_haru&#45;&gt;e_haru -->
<g id="edge25" class="edge">
<title>hom_haru&#45;&gt;e_haru</title>
<path fill="none" stroke="#448844" stroke-width="0.9" d="M1174.6,-786.11C1181.94,-780.93 1187.5,-777 1187.5,-777 1187.5,-777 1287.38,-538.56 1331.54,-433.13"/>
<polygon fill="#448844" stroke="#448844" stroke-width="0.9" points="1334.73,-434.59 1335.36,-424.01 1328.27,-431.89 1334.73,-434.59"/>
<text text-anchor="middle" x="1251.6" y="-604.75" font-family="Helvetica,sans-Serif" font-size="8.00">ref</text>
</g>
<!-- cls_anc -->
<!-- dict_anc&#45;&gt;cls_anc -->
<!-- wlsph -->
<g id="node28" class="node">
<title>wlsph</title>
<polygon fill="#cc8888" stroke="none" points="1526.75,-524.25 1526.75,-543.5 1726.75,-543.5 1726.75,-524.25 1526.75,-524.25"/>
<polygon fill="none" stroke="black" points="1526.75,-524.25 1526.75,-543.5 1726.75,-543.5 1726.75,-524.25 1526.75,-524.25"/>
<text text-anchor="start" x="1610.62" y="-531" font-family="Helvetica,sans-Serif" font-weight="bold" font-size="10.00">&lt;item&gt;</text>
<polygon fill="none" stroke="black" points="1526.75,-505 1526.75,-524.25 1726.75,-524.25 1726.75,-505 1526.75,-505"/>
<text text-anchor="start" x="1530.75" y="-510.75" font-family="Helvetica,sans-Serif" font-size="10.00">xml:id: WLSPH.1.1624</text>
<polygon fill="none" stroke="black" points="1526.75,-485 1526.75,-505 1726.75,-505 1726.75,-485 1526.75,-485"/>
<text text-anchor="start" x="1530.75" y="-491.5" font-family="Helvetica,sans-Serif" font-size="10.00">desc: 体&#45;抽象的関係&#45;位置・地点・場合&#45;季節</text>
<polygon fill="none" stroke="black" points="1526.75,-466.5 1526.75,-485 1726.75,-485 1726.75,-466.5 1526.75,-466.5"/>
<text text-anchor="start" x="1530.75" y="-472.5" font-family="Helvetica,sans-Serif" font-style="italic" font-size="10.00">八代集版</text>
</g>
<!-- e_haru&#45;&gt;wlsph -->
<g id="edge26" class="edge">
<title>e_haru&#45;&gt;wlsph</title>
<path fill="none" stroke="#bb6633" stroke-width="0.9" d="M1425.49,-415.79C1457.25,-429.94 1495.13,-446.81 1529.36,-462.06"/>
<polygon fill="#bb6633" stroke="#bb6633" stroke-width="0.9" points="1527.57,-465.1 1538.13,-465.97 1530.42,-458.7 1527.57,-465.1"/>
<text text-anchor="middle" x="1459.05" y="-431.33" font-family="Helvetica,sans-Serif" font-size="8.00">sense/ana</text>
</g>
<!-- wlsp -->
<g id="node29" class="node">
<title>wlsp</title>
<polygon fill="#e8b0b0" stroke="none" points="1570.62,-630.25 1570.62,-649.5 1682.88,-649.5 1682.88,-630.25 1570.62,-630.25"/>
<polygon fill="none" stroke="black" points="1570.62,-630.25 1570.62,-649.5 1682.88,-649.5 1682.88,-630.25 1570.62,-630.25"/>
<text text-anchor="start" x="1610.62" y="-637" font-family="Helvetica,sans-Serif" font-weight="bold" font-size="10.00">&lt;item&gt;</text>
<polygon fill="none" stroke="black" points="1570.62,-611 1570.62,-630.25 1682.88,-630.25 1682.88,-611 1570.62,-611"/>
<text text-anchor="start" x="1574.62" y="-616.75" font-family="Helvetica,sans-Serif" font-size="10.00">xml:id: WLSP.1.1624</text>
<polygon fill="none" stroke="black" points="1570.62,-591 1570.62,-611 1682.88,-611 1682.88,-591 1570.62,-591"/>
<text text-anchor="start" x="1574.62" y="-597.5" font-family="Helvetica,sans-Serif" font-size="10.00">desc: 体&#45;関係&#45;時間&#45;季節</text>
<polygon fill="none" stroke="black" points="1570.62,-572.5 1570.62,-591 1682.88,-591 1682.88,-572.5 1570.62,-572.5"/>
<text text-anchor="start" x="1574.62" y="-578.5" font-family="Helvetica,sans-Serif" font-style="italic" font-size="10.00">現代語版</text>
</g>
<!-- e_haru&#45;&gt;wlsp -->
<g id="edge30" class="edge">
<title>e_haru&#45;&gt;wlsp</title>
<path fill="none" stroke="#cc9999" stroke-width="0.9" stroke-dasharray="5,2" d="M1392.44,-422.62C1443.29,-473.88 1526.75,-558 1526.75,-558 1526.75,-558 1542.13,-566.24 1560.77,-576.21"/>
<polygon fill="#cc9999" stroke="#cc9999" stroke-width="0.9" points="1559.08,-579.28 1569.55,-580.91 1562.38,-573.11 1559.08,-579.28"/>
</g>
<!-- e_aki -->
<g id="node23" class="node">
<title>e_aki</title>
<polygon fill="#ccaa44" stroke="none" points="1280.5,-189.62 1280.5,-208.88 1425.75,-208.88 1425.75,-189.62 1280.5,-189.62"/>
<polygon fill="none" stroke="black" points="1280.5,-189.62 1280.5,-208.88 1425.75,-208.88 1425.75,-189.62 1280.5,-189.62"/>
<text text-anchor="start" x="1335.5" y="-196.38" font-family="Helvetica,sans-Serif" font-weight="bold" font-size="10.00">&lt;entry&gt;</text>
<polygon fill="none" stroke="black" points="1280.5,-169.62 1280.5,-189.62 1425.75,-189.62 1425.75,-169.62 1280.5,-169.62"/>
<text text-anchor="start" x="1284.5" y="-176.12" font-family="Helvetica,sans-Serif" font-size="10.00">xml:id: 秋</text>
<polygon fill="none" stroke="black" points="1280.5,-150.38 1280.5,-169.62 1425.75,-169.62 1425.75,-150.38 1280.5,-150.38"/>
<text text-anchor="start" x="1284.5" y="-156.12" font-family="Helvetica,sans-Serif" font-size="10.00">pos: N.g</text>
<polygon fill="#e8cc88" stroke="none" points="1280.5,-131.12 1280.5,-150.38 1425.75,-150.38 1425.75,-131.12 1280.5,-131.12"/>
<polygon fill="none" stroke="black" points="1280.5,-131.12 1280.5,-150.38 1425.75,-150.38 1425.75,-131.12 1280.5,-131.12"/>
<text text-anchor="start" x="1284.5" y="-137.88" font-family="Helvetica,sans-Serif" font-weight="bold" font-size="10.00">&lt;sense&gt;</text>
<text text-anchor="start" x="1323.5" y="-137.88" font-family="Helvetica,sans-Serif" font-size="10.00"> ana: #WLSPH.1.1624</text>
</g>
<!-- e_aki&#45;&gt;wlsph -->
<g id="edge27" class="edge">
<title>e_aki&#45;&gt;wlsph</title>
<path fill="none" stroke="#bb6633" stroke-width="0.9" d="M1411.15,-208.67C1423.91,-217.33 1433.75,-224 1433.75,-224 1433.75,-224 1538.63,-377.5 1593.36,-457.6"/>
<polygon fill="#bb6633" stroke="#bb6633" stroke-width="0.9" points="1590.16,-459.11 1598.69,-465.39 1595.94,-455.16 1590.16,-459.11"/>
</g>
<!-- e_natsu -->
<g id="node24" class="node">
<title>e_natsu</title>
<polygon fill="#ccaa44" stroke="none" points="1280.5,-296.62 1280.5,-315.88 1425.75,-315.88 1425.75,-296.62 1280.5,-296.62"/>
<polygon fill="none" stroke="black" points="1280.5,-296.62 1280.5,-315.88 1425.75,-315.88 1425.75,-296.62 1280.5,-296.62"/>
<text text-anchor="start" x="1335.5" y="-303.38" font-family="Helvetica,sans-Serif" font-weight="bold" font-size="10.00">&lt;entry&gt;</text>
<polygon fill="none" stroke="black" points="1280.5,-276.62 1280.5,-296.62 1425.75,-296.62 1425.75,-276.62 1280.5,-276.62"/>
<text text-anchor="start" x="1284.5" y="-283.12" font-family="Helvetica,sans-Serif" font-size="10.00">xml:id: 夏</text>
<polygon fill="none" stroke="black" points="1280.5,-257.38 1280.5,-276.62 1425.75,-276.62 1425.75,-257.38 1280.5,-257.38"/>
<text text-anchor="start" x="1284.5" y="-263.12" font-family="Helvetica,sans-Serif" font-size="10.00">pos: N.g</text>
<polygon fill="#e8cc88" stroke="none" points="1280.5,-238.12 1280.5,-257.38 1425.75,-257.38 1425.75,-238.12 1280.5,-238.12"/>
<polygon fill="none" stroke="black" points="1280.5,-238.12 1280.5,-257.38 1425.75,-257.38 1425.75,-238.12 1280.5,-238.12"/>
<text text-anchor="start" x="1284.5" y="-244.88" font-family="Helvetica,sans-Serif" font-weight="bold" font-size="10.00">&lt;sense&gt;</text>
<text text-anchor="start" x="1323.5" y="-244.88" font-family="Helvetica,sans-Serif" font-size="10.00"> ana: #WLSPH.1.1624</text>
</g>
<!-- e_natsu&#45;&gt;wlsph -->
<g id="edge28" class="edge">
<title>e_natsu&#45;&gt;wlsph</title>
<path fill="none" stroke="#bb6633" stroke-width="0.9" d="M1411.15,-315.67C1423.91,-324.33 1433.75,-331 1433.75,-331 1433.75,-331 1518.55,-407.85 1575.44,-459.4"/>
<polygon fill="#bb6633" stroke="#bb6633" stroke-width="0.9" points="1572.85,-461.78 1582.61,-465.9 1577.55,-456.59 1572.85,-461.78"/>
</g>
<!-- e_fuyu -->
<g id="node25" class="node">
<title>e_fuyu</title>
<polygon fill="#ccaa44" stroke="none" points="1280.5,-82.62 1280.5,-101.88 1425.75,-101.88 1425.75,-82.62 1280.5,-82.62"/>
<polygon fill="none" stroke="black" points="1280.5,-82.62 1280.5,-101.88 1425.75,-101.88 1425.75,-82.62 1280.5,-82.62"/>
<text text-anchor="start" x="1335.5" y="-89.38" font-family="Helvetica,sans-Serif" font-weight="bold" font-size="10.00">&lt;entry&gt;</text>
<polygon fill="none" stroke="black" points="1280.5,-62.62 1280.5,-82.62 1425.75,-82.62 1425.75,-62.62 1280.5,-62.62"/>
<text text-anchor="start" x="1284.5" y="-69.12" font-family="Helvetica,sans-Serif" font-size="10.00">xml:id: 冬</text>
<polygon fill="none" stroke="black" points="1280.5,-43.38 1280.5,-62.62 1425.75,-62.62 1425.75,-43.38 1280.5,-43.38"/>
<text text-anchor="start" x="1284.5" y="-49.12" font-family="Helvetica,sans-Serif" font-size="10.00">pos: N.g</text>
<polygon fill="#e8cc88" stroke="none" points="1280.5,-24.12 1280.5,-43.38 1425.75,-43.38 1425.75,-24.12 1280.5,-24.12"/>
<polygon fill="none" stroke="black" points="1280.5,-24.12 1280.5,-43.38 1425.75,-43.38 1425.75,-24.12 1280.5,-24.12"/>
<text text-anchor="start" x="1284.5" y="-30.88" font-family="Helvetica,sans-Serif" font-weight="bold" font-size="10.00">&lt;sense&gt;</text>
<text text-anchor="start" x="1323.5" y="-30.88" font-family="Helvetica,sans-Serif" font-size="10.00"> ana: #WLSPH.1.1624</text>
</g>
<!-- e_fuyu&#45;&gt;wlsph -->
<g id="edge29" class="edge">
<title>e_fuyu&#45;&gt;wlsph</title>
<path fill="none" stroke="#bb6633" stroke-width="0.9" d="M1411.15,-101.67C1423.91,-110.33 1433.75,-117 1433.75,-117 1433.75,-117 1550.47,-352.88 1601.9,-456.81"/>
<polygon fill="#bb6633" stroke="#bb6633" stroke-width="0.9" points="1598.64,-458.1 1606.21,-465.51 1604.91,-455 1598.64,-458.1"/>
</g>
<!-- e_comp -->
<g id="node26" class="node">
<title>e_comp</title>
<polygon fill="#ccaa44" stroke="none" points="1099.5,-394 1099.5,-413.25 1177.25,-413.25 1177.25,-394 1099.5,-394"/>
<polygon fill="none" stroke="black" points="1099.5,-394 1099.5,-413.25 1177.25,-413.25 1177.25,-394 1099.5,-394"/>
<text text-anchor="start" x="1120.75" y="-400.75" font-family="Helvetica,sans-Serif" font-weight="bold" font-size="10.00">&lt;entry&gt;</text>
<polygon fill="none" stroke="black" points="1099.5,-374 1099.5,-394 1177.25,-394 1177.25,-374 1099.5,-374"/>
<text text-anchor="start" x="1103.5" y="-380.5" font-family="Helvetica,sans-Serif" font-size="10.00">xml:id: 春霞</text>
<polygon fill="none" stroke="black" points="1099.5,-354.75 1099.5,-374 1177.25,-374 1177.25,-354.75 1099.5,-354.75"/>
<text text-anchor="start" x="1103.5" y="-360.5" font-family="Helvetica,sans-Serif" font-size="10.00">type: compound</text>
</g>
<!-- e_comp&#45;&gt;e_haru -->
<g id="edge19" class="edge">
<title>e_comp&#45;&gt;e_haru</title>
<path fill="none" stroke="#997722" stroke-width="0.9" stroke-dasharray="5,2" d="M1176.92,-384C1202.53,-384 1237.47,-384 1269.41,-384"/>
<polygon fill="#997722" stroke="#997722" stroke-width="0.9" points="1269.2,-387.5 1279.2,-384 1269.2,-380.5 1269.2,-387.5"/>
<text text-anchor="middle" x="1203.29" y="-376.4" font-family="Helvetica,sans-Serif" font-size="8.00">component</text>
</g>
<!-- pers_anc -->
<!-- cls_anc&#45;&gt;pers_anc -->
<!-- facs_anc -->
<!-- pers_anc&#45;&gt;facs_anc -->
</g>
</svg>
