<?xml version="1.0" encoding="UTF-8" standalone="no"?>
<!DOCTYPE svg PUBLIC "-//W3C//DTD SVG 1.1//EN"
 "http://www.w3.org/Graphics/SVG/1.1/DTD/svg11.dtd">
<!-- Generated by graphviz version 12.2.1 (0)
 -->
<!-- Title: kokin Pages: 1 -->
<svg width="1634pt" height="1007pt"
 viewBox="0.00 0.00 1633.50 1007.00" xmlns="http://www.w3.org/2000/svg" xmlns:xlink="http://www.w3.org/1999/xlink">
<g id="graph0" class="graph" transform="scale(1 1) rotate(0) translate(4 1003)">
<title>kokin</title>
<polygon fill="#faf9f7" stroke="none" points="-4,4 -4,-1003 1629.5,-1003 1629.5,4 -4,4"/>
<g id="clust1" class="cluster">
<title>cluster_body</title>
<path fill="#eef4fb" stroke="#7aaad0" d="M20,-602C20,-602 932.25,-602 932.25,-602 938.25,-602 944.25,-608 944.25,-614 944.25,-614 944.25,-979 944.25,-979 944.25,-985 938.25,-991 932.25,-991 932.25,-991 20,-991 20,-991 14,-991 8,-985 8,-979 8,-979 8,-614 8,-614 8,-608 14,-602 20,-602"/>
<text text-anchor="middle" x="476.12" y="-975.6" font-family="Helvetica,sans-Serif" font-size="12.00">&lt;body&gt;</text>
</g>
<g id="clust2" class="cluster">
<title>cluster_back</title>
<path fill="#f5f5f0" stroke="#888877" d="M805.75,-8C805.75,-8 1605.5,-8 1605.5,-8 1611.5,-8 1617.5,-14 1617.5,-20 1617.5,-20 1617.5,-582 1617.5,-582 1617.5,-588 1611.5,-594 1605.5,-594 1605.5,-594 805.75,-594 805.75,-594 799.75,-594 793.75,-588 793.75,-582 793.75,-582 793.75,-20 793.75,-20 793.75,-14 799.75,-8 805.75,-8"/>
<text text-anchor="middle" x="1205.62" y="-578.6" font-family="Helvetica,sans-Serif" font-size="12.00">&lt;back&gt;</text>
</g>
<g id="clust3" class="cluster">
<title>cluster_ri</title>
<path fill="#f0f7ee" stroke="#88bb77" d="M862.12,-16C862.12,-16 1145.5,-16 1145.5,-16 1151.5,-16 1157.5,-22 1157.5,-28 1157.5,-28 1157.5,-187 1157.5,-187 1157.5,-193 1151.5,-199 1145.5,-199 1145.5,-199 862.12,-199 862.12,-199 856.12,-199 850.12,-193 850.12,-187 850.12,-187 850.12,-28 850.12,-28 850.12,-22 856.12,-16 862.12,-16"/>
<text text-anchor="middle" x="1003.81" y="-185.5" font-family="Helvetica,sans-Serif" font-size="10.00">reading&#45;index</text>
</g>
<g id="clust4" class="cluster">
<title>cluster_dict</title>
<path fill="#fef9ec" stroke="#ccaa44" d="M1073.5,-207C1073.5,-207 1296.5,-207 1296.5,-207 1302.5,-207 1308.5,-213 1308.5,-219 1308.5,-219 1308.5,-553 1308.5,-553 1308.5,-559 1302.5,-565 1296.5,-565 1296.5,-565 1073.5,-565 1073.5,-565 1067.5,-565 1061.5,-559 1061.5,-553 1061.5,-553 1061.5,-219 1061.5,-219 1061.5,-213 1067.5,-207 1073.5,-207"/>
<text text-anchor="middle" x="1185" y="-551.5" font-family="Helvetica,sans-Serif" font-size="10.00">dictionary</text>
</g>
<g id="clust5" class="cluster">
<title>cluster_cls</title>
<path fill="#fdf0f0" stroke="#cc8888" d="M1405.5,-197C1405.5,-197 1597.5,-197 1597.5,-197 1603.5,-197 1609.5,-203 1609.5,-209 1609.5,-209 1609.5,-404 1609.5,-404 1609.5,-410 1603.5,-416 1597.5,-416 1597.5,-416 1405.5,-416 1405.5,-416 1399.5,-416 1393.5,-410 1393.5,-404 1393.5,-404 1393.5,-209 1393.5,-209 1393.5,-203 1399.5,-197 1405.5,-197"/>
<text text-anchor="middle" x="1501.5" y="-402.5" font-family="Helvetica,sans-Serif" font-size="10.00">classification</text>
</g>
<g id="clust6" class="cluster">
<title>cluster_person</title>
<path fill="#f5f0fb" stroke="#9977cc" d="M813.75,-372C813.75,-372 962.25,-372 962.25,-372 968.25,-372 974.25,-378 974.25,-384 974.25,-384 974.25,-553 974.25,-553 974.25,-559 968.25,-565 962.25,-565 962.25,-565 813.75,-565 813.75,-565 807.75,-565 801.75,-559 801.75,-553 801.75,-553 801.75,-384 801.75,-384 801.75,-378 807.75,-372 813.75,-372"/>
<text text-anchor="middle" x="888" y="-551.5" font-family="Helvetica,sans-Serif" font-size="10.00">listPerson</text>
</g>
<g id="clust7" class="cluster">
<title>cluster_facs</title>
<path fill="#f7f0ea" stroke="#bb9966" d="M861.38,-290C861.38,-290 914.62,-290 914.62,-290 920.62,-290 926.62,-296 926.62,-302 926.62,-302 926.62,-352 926.62,-352 926.62,-358 920.62,-364 914.62,-364 914.62,-364 861.38,-364 861.38,-364 855.38,-364 849.38,-358 849.38,-352 849.38,-352 849.38,-302 849.38,-302 849.38,-296 855.38,-290 861.38,-290"/>
<text text-anchor="middle" x="888" y="-350.5" font-family="Helvetica,sans-Serif" font-size="10.00">facsimile</text>
</g>
<!-- b_div -->
<g id="node1" class="node">
<title>b_div</title>
<polygon fill="#7aaad0" stroke="none" points="16,-815.38 16,-834.62 80.25,-834.62 80.25,-815.38 16,-815.38"/>
<polygon fill="none" stroke="black" points="16,-815.38 16,-834.62 80.25,-834.62 80.25,-815.38 16,-815.38"/>
<text text-anchor="start" x="35" y="-822.12" font-family="Helvetica,sans-Serif" font-weight="bold" font-size="10.00">&lt;div&gt;</text>
<polygon fill="none" stroke="black" points="16,-795.38 16,-815.38 80.25,-815.38 80.25,-795.38 16,-795.38"/>
<text text-anchor="start" x="20" y="-801.88" font-family="Helvetica,sans-Serif" font-size="10.00">type: 部立</text>
<polygon fill="none" stroke="black" points="16,-775.38 16,-795.38 80.25,-795.38 80.25,-775.38 16,-775.38"/>
<text text-anchor="start" x="20" y="-781.88" font-family="Helvetica,sans-Serif" font-size="10.00">head: 春哥上</text>
</g>
<!-- b_note_d -->
<g id="node2" class="node">
<title>b_note_d</title>
<polygon fill="#7aaad0" stroke="none" points="181.25,-824.69 181.25,-843.94 349.75,-843.94 349.75,-824.69 181.25,-824.69"/>
<polygon fill="none" stroke="black" points="181.25,-824.69 181.25,-843.94 349.75,-843.94 349.75,-824.69 181.25,-824.69"/>
<text text-anchor="start" x="249.38" y="-831.44" font-family="Helvetica,sans-Serif" font-weight="bold" font-size="10.00">&lt;note&gt;</text>
<polygon fill="none" stroke="black" points="181.25,-804.69 181.25,-824.69 349.75,-824.69 349.75,-804.69 181.25,-804.69"/>
<text text-anchor="start" x="185.25" y="-811.19" font-family="Helvetica,sans-Serif" font-size="10.00">type: 詞書</text>
<polygon fill="none" stroke="black" points="181.25,-785.44 181.25,-804.69 349.75,-804.69 349.75,-785.44 181.25,-785.44"/>
<text text-anchor="start" x="185.25" y="-791.19" font-family="Helvetica,sans-Serif" font-size="10.00">target: #n1</text>
<polygon fill="none" stroke="black" points="181.25,-766.06 181.25,-785.44 349.75,-785.44 349.75,-766.06 181.25,-766.06"/>
<text text-anchor="start" x="185.25" y="-771.94" font-family="Helvetica,sans-Serif" font-size="10.00">ふるとしに[app]たちける[app]よめる</text>
</g>
<!-- b_div&#45;&gt;b_note_d -->
<g id="edge1" class="edge">
<title>b_div&#45;&gt;b_note_d</title>
<path fill="none" stroke="#888888" stroke-width="0.9" stroke-dasharray="5,2" d="M79.98,-805C103.81,-805 138.11,-805 170.68,-805"/>
<polygon fill="#888888" stroke="#888888" stroke-width="0.9" points="170.28,-808.5 180.28,-805 170.28,-801.5 170.28,-808.5"/>
</g>
<!-- b_note_a -->
<g id="node6" class="node">
<title>b_note_a</title>
<polygon fill="#7aaad0" stroke="none" points="234.5,-717.38 234.5,-736.62 296.5,-736.62 296.5,-717.38 234.5,-717.38"/>
<polygon fill="none" stroke="black" points="234.5,-717.38 234.5,-736.62 296.5,-736.62 296.5,-717.38 234.5,-717.38"/>
<text text-anchor="start" x="249.38" y="-724.12" font-family="Helvetica,sans-Serif" font-weight="bold" font-size="10.00">&lt;note&gt;</text>
<polygon fill="none" stroke="black" points="234.5,-697.38 234.5,-717.38 296.5,-717.38 296.5,-697.38 234.5,-697.38"/>
<text text-anchor="start" x="238.5" y="-703.88" font-family="Helvetica,sans-Serif" font-size="10.00">type: 作者名</text>
</g>
<!-- b_div&#45;&gt;b_note_a -->
<g id="edge2" class="edge">
<title>b_div&#45;&gt;b_note_a</title>
<path fill="none" stroke="#888888" stroke-width="0.9" stroke-dasharray="5,2" d="M79.98,-792.39C117.97,-776.87 182.56,-750.48 224.37,-733.4"/>
<polygon fill="#888888" stroke="#888888" stroke-width="0.9" points="225.54,-736.7 233.48,-729.68 222.9,-730.22 225.54,-736.7"/>
</g>
<!-- b_l -->
<g id="node8" class="node">
<title>b_l</title>
<polygon fill="#7aaad0" stroke="none" points="457.5,-824.62 457.5,-843.88 534.5,-843.88 534.5,-824.62 457.5,-824.62"/>
<polygon fill="none" stroke="black" points="457.5,-824.62 457.5,-843.88 534.5,-843.88 534.5,-824.62 457.5,-824.62"/>
<text text-anchor="start" x="488.5" y="-831.38" font-family="Helvetica,sans-Serif" font-weight="bold" font-size="10.00">&lt;l&gt;</text>
<polygon fill="none" stroke="black" points="457.5,-805.38 457.5,-824.62 534.5,-824.62 534.5,-805.38 457.5,-805.38"/>
<text text-anchor="start" x="461.5" y="-811.12" font-family="Helvetica,sans-Serif" font-size="10.00">n: 1</text>
<polygon fill="none" stroke="black" points="457.5,-786.12 457.5,-805.38 534.5,-805.38 534.5,-786.12 457.5,-786.12"/>
<text text-anchor="start" x="461.5" y="-791.88" font-family="Helvetica,sans-Serif" font-size="10.00">xml:id: n1</text>
<polygon fill="none" stroke="black" points="457.5,-766.12 457.5,-786.12 534.5,-786.12 534.5,-766.12 457.5,-766.12"/>
<text text-anchor="start" x="461.5" y="-772.62" font-family="Helvetica,sans-Serif" font-size="10.00">resp: #在原元方</text>
</g>
<!-- b_div&#45;&gt;b_l -->
<g id="edge3" class="edge">
<title>b_div&#45;&gt;b_l</title>
<path fill="none" stroke="#888888" stroke-width="0.9" stroke-dasharray="5,2" d="M76.82,-834.35C115.57,-875.4 181.25,-945 181.25,-945 181.25,-945 349.75,-945 349.75,-945 349.75,-945 406.95,-889.87 449.56,-848.8"/>
<polygon fill="#888888" stroke="#888888" stroke-width="0.9" points="451.84,-851.46 456.61,-842 446.98,-846.42 451.84,-851.46"/>
<text text-anchor="middle" x="244.11" y="-937.4" font-family="Helvetica,sans-Serif" font-size="8.00">contains</text>
</g>
<!-- b_phr -->
<g id="node15" class="node">
<title>b_phr</title>
<polygon fill="#7aaad0" stroke="none" points="198.12,-911.69 198.12,-930.94 332.88,-930.94 332.88,-911.69 198.12,-911.69"/>
<polygon fill="none" stroke="black" points="198.12,-911.69 198.12,-930.94 332.88,-930.94 332.88,-911.69 198.12,-911.69"/>
<text text-anchor="start" x="251.62" y="-918.44" font-family="Helvetica,sans-Serif" font-weight="bold" font-size="10.00">&lt;phr&gt;</text>
<polygon fill="none" stroke="black" points="198.12,-892.44 198.12,-911.69 332.88,-911.69 332.88,-892.44 198.12,-892.44"/>
<text text-anchor="start" x="202.12" y="-898.19" font-family="Helvetica,sans-Serif" font-size="10.00">xml:id: kana1&#45;1</text>
<polygon fill="none" stroke="black" points="198.12,-873.06 198.12,-892.44 332.88,-892.44 332.88,-873.06 198.12,-873.06"/>
<text text-anchor="start" x="202.12" y="-878.94" font-family="Helvetica,sans-Serif" font-size="10.00">やまとうたは人のこゝろを…</text>
</g>
<!-- b_div&#45;&gt;b_phr -->
<g id="edge4" class="edge">
<title>b_div&#45;&gt;b_phr</title>
<path fill="none" stroke="#888888" stroke-width="0.9" stroke-dasharray="5,2" d="M79.98,-818.9C108.7,-831.83 152.64,-851.62 190.44,-868.64"/>
<polygon fill="#888888" stroke="#888888" stroke-width="0.9" points="188.61,-871.66 199.16,-872.57 191.48,-865.28 188.61,-871.66"/>
</g>
<!-- b_pb -->
<g id="node16" class="node">
<title>b_pb</title>
<polygon fill="#7aaad0" stroke="none" points="236,-648.62 236,-667.88 295,-667.88 295,-648.62 236,-648.62"/>
<polygon fill="none" stroke="black" points="236,-648.62 236,-667.88 295,-667.88 295,-648.62 236,-648.62"/>
<text text-anchor="start" x="253.5" y="-655.38" font-family="Helvetica,sans-Serif" font-weight="bold" font-size="10.00">&lt;pb&gt;</text>
<polygon fill="none" stroke="black" points="236,-629.38 236,-648.62 295,-648.62 295,-629.38 236,-629.38"/>
<text text-anchor="start" x="240" y="-635.12" font-family="Helvetica,sans-Serif" font-size="10.00">n: 1&#45;1r</text>
<polygon fill="none" stroke="black" points="236,-610.12 236,-629.38 295,-629.38 295,-610.12 236,-610.12"/>
<text text-anchor="start" x="240" y="-615.88" font-family="Helvetica,sans-Serif" font-size="10.00">facs: #p001</text>
</g>
<!-- b_div&#45;&gt;b_pb -->
<g id="edge5" class="edge">
<title>b_div&#45;&gt;b_pb</title>
<path fill="none" stroke="#888888" stroke-width="0.9" stroke-dasharray="5,2" d="M80.1,-776.4C119.15,-740.34 181.25,-683 181.25,-683 181.25,-683 204.5,-670.71 226.42,-659.12"/>
<polygon fill="#888888" stroke="#888888" stroke-width="0.9" points="227.91,-662.3 235.11,-654.53 224.63,-656.11 227.91,-662.3"/>
</g>
<!-- b_app -->
<g id="node3" class="node">
<title>b_app</title>
<polygon fill="#7aaad0" stroke="none" points="477.38,-717.38 477.38,-736.62 514.62,-736.62 514.62,-717.38 477.38,-717.38"/>
<polygon fill="none" stroke="black" points="477.38,-717.38 477.38,-736.62 514.62,-736.62 514.62,-717.38 477.38,-717.38"/>
<text text-anchor="start" x="481.38" y="-724.12" font-family="Helvetica,sans-Serif" font-weight="bold" font-size="10.00">&lt;app&gt;</text>
</g>
<!-- b_note_d&#45;&gt;b_app -->
<g id="edge6" class="edge">
<title>b_note_d&#45;&gt;b_app</title>
<path fill="none" stroke="#888888" stroke-width="0.9" stroke-dasharray="5,2" d="M349.64,-776.62C390.87,-762.55 437.95,-746.47 467.08,-736.53"/>
<polygon fill="#888888" stroke="#888888" stroke-width="0.9" points="468.05,-739.9 476.39,-733.35 465.79,-733.27 468.05,-739.9"/>
</g>
<!-- b_note_d&#45;&gt;b_l -->
<g id="edge7" class="edge">
<title>b_note_d&#45;&gt;b_l</title>
<path fill="none" stroke="#448899" stroke-width="0.9" d="M349.64,-805C382.16,-805 418.33,-805 446.45,-805"/>
<polygon fill="#448899" stroke="#448899" stroke-width="0.9" points="446.22,-808.5 456.22,-805 446.22,-801.5 446.22,-808.5"/>
<text text-anchor="middle" x="387.55" y="-797.4" font-family="Helvetica,sans-Serif" font-size="8.00">target</text>
</g>
<!-- b_lem -->
<g id="node4" class="node">
<title>b_lem</title>
<polygon fill="#7aaad0" stroke="none" points="654.62,-735.62 654.62,-754.88 696.38,-754.88 696.38,-735.62 654.62,-735.62"/>
<polygon fill="none" stroke="black" points="654.62,-735.62 654.62,-754.88 696.38,-754.88 696.38,-735.62 654.62,-735.62"/>
<text text-anchor="start" x="660.88" y="-742.38" font-family="Helvetica,sans-Serif" font-weight="bold" font-size="10.00">&lt;lem&gt;</text>
<polygon fill="none" stroke="black" points="654.62,-715.62 654.62,-735.62 696.38,-735.62 696.38,-715.62 654.62,-715.62"/>
<text text-anchor="start" x="658.62" y="-722.12" font-family="Helvetica,sans-Serif" font-size="10.00">wit: #国</text>
<polygon fill="none" stroke="black" points="654.62,-697.12 654.62,-715.62 696.38,-715.62 696.38,-697.12 654.62,-697.12"/>
<text text-anchor="start" x="658.62" y="-702.12" font-family="Helvetica,sans-Serif" font-size="10.00">春</text>
</g>
<!-- b_app&#45;&gt;b_lem -->
<g id="edge9" class="edge">
<title>b_app&#45;&gt;b_lem</title>
<path fill="none" stroke="#888888" stroke-width="0.9" stroke-dasharray="5,2" d="M514.34,-726.9C544.25,-726.73 605.93,-726.39 643.42,-726.18"/>
<polygon fill="#888888" stroke="#888888" stroke-width="0.9" points="643.32,-729.68 653.3,-726.12 643.28,-722.68 643.32,-729.68"/>
</g>
<!-- b_rdg -->
<g id="node5" class="node">
<title>b_rdg</title>
<polygon fill="#7aaad0" stroke="none" points="654.62,-648.62 654.62,-667.88 696.38,-667.88 696.38,-648.62 654.62,-648.62"/>
<polygon fill="none" stroke="black" points="654.62,-648.62 654.62,-667.88 696.38,-667.88 696.38,-648.62 654.62,-648.62"/>
<text text-anchor="start" x="661.62" y="-655.38" font-family="Helvetica,sans-Serif" font-weight="bold" font-size="10.00">&lt;rdg&gt;</text>
<polygon fill="none" stroke="black" points="654.62,-628.62 654.62,-648.62 696.38,-648.62 696.38,-628.62 654.62,-628.62"/>
<text text-anchor="start" x="658.62" y="-635.12" font-family="Helvetica,sans-Serif" font-size="10.00">wit: #前</text>
<polygon fill="none" stroke="black" points="654.62,-610.12 654.62,-628.62 696.38,-628.62 696.38,-610.12 654.62,-610.12"/>
<text text-anchor="start" x="658.62" y="-615.12" font-family="Helvetica,sans-Serif" font-size="10.00">春の</text>
</g>
<!-- b_app&#45;&gt;b_rdg -->
<g id="edge10" class="edge">
<title>b_app&#45;&gt;b_rdg</title>
<path fill="none" stroke="#888888" stroke-width="0.9" stroke-dasharray="5,2" d="M514.34,-718.4C544.64,-703.38 607.54,-672.2 644.86,-653.69"/>
<polygon fill="#888888" stroke="#888888" stroke-width="0.9" points="646.04,-657.02 653.44,-649.44 642.93,-650.75 646.04,-657.02"/>
</g>
<!-- b_persname -->
<g id="node7" class="node">
<title>b_persname</title>
<polygon fill="#7aaad0" stroke="none" points="450.75,-668.62 450.75,-687.88 541.25,-687.88 541.25,-668.62 450.75,-668.62"/>
<polygon fill="none" stroke="black" points="450.75,-668.62 450.75,-687.88 541.25,-687.88 541.25,-668.62 450.75,-668.62"/>
<text text-anchor="start" x="466.38" y="-675.38" font-family="Helvetica,sans-Serif" font-weight="bold" font-size="10.00">&lt;persName&gt;</text>
<polygon fill="none" stroke="black" points="450.75,-648.62 450.75,-668.62 541.25,-668.62 541.25,-648.62 450.75,-648.62"/>
<text text-anchor="start" x="454.75" y="-655.12" font-family="Helvetica,sans-Serif" font-size="10.00">type: 作者</text>
<polygon fill="none" stroke="black" points="450.75,-628.62 450.75,-648.62 541.25,-648.62 541.25,-628.62 450.75,-628.62"/>
<text text-anchor="start" x="454.75" y="-635.12" font-family="Helvetica,sans-Serif" font-size="10.00">corresp: #在原元方</text>
<polygon fill="none" stroke="black" points="450.75,-610.12 450.75,-628.62 541.25,-628.62 541.25,-610.12 450.75,-610.12"/>
<text text-anchor="start" x="454.75" y="-615.12" font-family="Helvetica,sans-Serif" font-size="10.00">在原元方</text>
</g>
<!-- b_note_a&#45;&gt;b_persname -->
<g id="edge8" class="edge">
<title>b_note_a&#45;&gt;b_persname</title>
<path fill="none" stroke="#888888" stroke-width="0.9" stroke-dasharray="5,2" d="M296.37,-708.11C332.81,-697.27 395.1,-678.73 440.23,-665.3"/>
<polygon fill="#888888" stroke="#888888" stroke-width="0.9" points="441.13,-668.68 449.71,-662.48 439.13,-661.97 441.13,-668.68"/>
</g>
<!-- person -->
<g id="node27" class="node">
<title>person</title>
<polygon fill="#9977cc" stroke="none" points="809.75,-518.62 809.75,-537.88 966.25,-537.88 966.25,-518.62 809.75,-518.62"/>
<polygon fill="none" stroke="black" points="809.75,-518.62 809.75,-537.88 966.25,-537.88 966.25,-518.62 809.75,-518.62"/>
<text text-anchor="start" x="865.88" y="-525.38" font-family="Helvetica,sans-Serif" font-weight="bold" font-size="10.00">&lt;person&gt;</text>
<polygon fill="none" stroke="black" points="809.75,-498.62 809.75,-518.62 966.25,-518.62 966.25,-498.62 809.75,-498.62"/>
<text text-anchor="start" x="813.75" y="-505.12" font-family="Helvetica,sans-Serif" font-size="10.00">xml:id: 在原元方</text>
<polygon fill="none" stroke="black" points="809.75,-479.38 809.75,-498.62 966.25,-498.62 966.25,-479.38 809.75,-479.38"/>
<text text-anchor="start" x="813.75" y="-485.12" font-family="Helvetica,sans-Serif" font-size="10.00">sex: 1</text>
<polygon fill="none" stroke="black" points="809.75,-459.38 809.75,-479.38 966.25,-479.38 966.25,-459.38 809.75,-459.38"/>
<text text-anchor="start" x="813.75" y="-465.88" font-family="Helvetica,sans-Serif" font-size="10.00">persName: ありわらの／もとかた</text>
<polygon fill="none" stroke="black" points="809.75,-439.38 809.75,-459.38 966.25,-459.38 966.25,-439.38 809.75,-439.38"/>
<text text-anchor="start" x="813.75" y="-445.88" font-family="Helvetica,sans-Serif" font-size="10.00">birth: 不明</text>
<polygon fill="none" stroke="black" points="809.75,-419.38 809.75,-439.38 966.25,-439.38 966.25,-419.38 809.75,-419.38"/>
<text text-anchor="start" x="813.75" y="-425.88" font-family="Helvetica,sans-Serif" font-size="10.00">death: 不明</text>
<polygon fill="none" stroke="black" points="809.75,-400.12 809.75,-419.38 966.25,-419.38 966.25,-400.12 809.75,-400.12"/>
<text text-anchor="start" x="813.75" y="-405.88" font-family="Helvetica,sans-Serif" font-size="10.00">idno[VIAF]: viaf/114305486</text>
<polygon fill="none" stroke="black" points="809.75,-380.12 809.75,-400.12 966.25,-400.12 966.25,-380.12 809.75,-380.12"/>
<text text-anchor="start" x="813.75" y="-386.62" font-family="Helvetica,sans-Serif" font-size="10.00">idno[国書DB]: 588363</text>
</g>
<!-- b_persname&#45;&gt;person -->
<g id="edge27" class="edge">
<title>b_persname&#45;&gt;person</title>
<path fill="none" stroke="#7755aa" stroke-width="0.9" d="M540.97,-613.58C583.72,-579.14 642.25,-532 642.25,-532 642.25,-532 729.02,-506.12 799.23,-485.18"/>
<polygon fill="#7755aa" stroke="#7755aa" stroke-width="0.9" points="800.01,-488.6 808.59,-482.39 798.01,-481.89 800.01,-488.6"/>
<text text-anchor="middle" x="644.93" y="-519.57" font-family="Helvetica,sans-Serif" font-size="8.00">corresp</text>
</g>
<!-- b_seg1 -->
<g id="node9" class="node">
<title>b_seg1</title>
<polygon fill="#7aaad0" stroke="none" points="652,-869.62 652,-888.88 699,-888.88 699,-869.62 652,-869.62"/>
<polygon fill="none" stroke="black" points="652,-869.62 652,-888.88 699,-888.88 699,-869.62 652,-869.62"/>
<text text-anchor="start" x="661.25" y="-876.38" font-family="Helvetica,sans-Serif" font-weight="bold" font-size="10.00">&lt;seg&gt;</text>
<polygon fill="none" stroke="black" points="652,-851.12 652,-869.62 699,-869.62 699,-851.12 652,-851.12"/>
<text text-anchor="start" x="656" y="-856.12" font-family="Helvetica,sans-Serif" font-size="10.00">年の内に</text>
</g>
<!-- b_l&#45;&gt;b_seg1 -->
<g id="edge11" class="edge">
<title>b_l&#45;&gt;b_seg1</title>
<path fill="none" stroke="#888888" stroke-width="0.9" stroke-dasharray="5,2" d="M534.21,-818.63C565.99,-830.26 611.26,-846.84 641.7,-857.99"/>
<polygon fill="#888888" stroke="#888888" stroke-width="0.9" points="640.32,-861.21 650.91,-861.36 642.73,-854.64 640.32,-861.21"/>
</g>
<!-- b_seg2 -->
<g id="node12" class="node">
<title>b_seg2</title>
<polygon fill="#7aaad0" stroke="none" points="642.25,-802.62 642.25,-821.88 708.75,-821.88 708.75,-802.62 642.25,-802.62"/>
<polygon fill="none" stroke="black" points="642.25,-802.62 642.25,-821.88 708.75,-821.88 708.75,-802.62 642.25,-802.62"/>
<text text-anchor="start" x="661.25" y="-809.38" font-family="Helvetica,sans-Serif" font-weight="bold" font-size="10.00">&lt;seg&gt;</text>
<polygon fill="none" stroke="black" points="642.25,-784.12 642.25,-802.62 708.75,-802.62 708.75,-784.12 642.25,-784.12"/>
<text text-anchor="start" x="646.25" y="-789.12" font-family="Helvetica,sans-Serif" font-size="10.00">春はきにけり</text>
</g>
<!-- b_l&#45;&gt;b_seg2 -->
<g id="edge12" class="edge">
<title>b_l&#45;&gt;b_seg2</title>
<path fill="none" stroke="#888888" stroke-width="0.9" stroke-dasharray="5,2" d="M534.21,-804.58C562.48,-804.26 601.43,-803.82 631.11,-803.49"/>
<polygon fill="#888888" stroke="#888888" stroke-width="0.9" points="631.08,-806.99 641.03,-803.38 631,-799.99 631.08,-806.99"/>
</g>
<!-- b_l&#45;&gt;person -->
<g id="edge28" class="edge">
<title>b_l&#45;&gt;person</title>
<path fill="none" stroke="#7755aa" stroke-width="0.9" d="M528.69,-766.33C535.78,-757.67 541.25,-751 541.25,-751 541.25,-751 642.25,-596 642.25,-596 642.25,-596 729.73,-547.03 800.09,-507.65"/>
<polygon fill="#7755aa" stroke="#7755aa" stroke-width="0.9" points="801.69,-510.76 808.71,-502.82 798.27,-504.66 801.69,-510.76"/>
<text text-anchor="middle" x="627.84" y="-598.43" font-family="Helvetica,sans-Serif" font-size="8.00">resp</text>
</g>
<!-- b_w_toshi -->
<g id="node10" class="node">
<title>b_w_toshi</title>
<polygon fill="#7aaad0" stroke="none" points="839.75,-942.62 839.75,-961.88 936.25,-961.88 936.25,-942.62 839.75,-942.62"/>
<polygon fill="none" stroke="black" points="839.75,-942.62 839.75,-961.88 936.25,-961.88 936.25,-942.62 839.75,-942.62"/>
<text text-anchor="start" x="878.25" y="-949.38" font-family="Helvetica,sans-Serif" font-weight="bold" font-size="10.00">&lt;w&gt;</text>
<polygon fill="none" stroke="black" points="839.75,-924.12 839.75,-942.62 936.25,-942.62 936.25,-924.12 839.75,-924.12"/>
<text text-anchor="start" x="843.75" y="-929.12" font-family="Helvetica,sans-Serif" font-size="10.00">年</text>
<polygon fill="none" stroke="black" points="839.75,-904.12 839.75,-924.12 936.25,-924.12 936.25,-904.12 839.75,-904.12"/>
<text text-anchor="start" x="843.75" y="-910.62" font-family="Helvetica,sans-Serif" font-size="10.00">lemmaRef: #とし.年</text>
</g>
<!-- b_seg1&#45;&gt;b_w_toshi -->
<g id="edge13" class="edge">
<title>b_seg1&#45;&gt;b_w_toshi</title>
<path fill="none" stroke="#888888" stroke-width="0.9" stroke-dasharray="5,2" d="M698.63,-876.62C729.38,-885.83 786.12,-902.81 829.32,-915.74"/>
<polygon fill="#888888" stroke="#888888" stroke-width="0.9" points="828.1,-919.02 838.68,-918.54 830.1,-912.32 828.1,-919.02"/>
</g>
<!-- b_w_no -->
<g id="node11" class="node">
<title>b_w_no</title>
<polygon fill="#7aaad0" stroke="none" points="844.62,-855.62 844.62,-874.88 931.38,-874.88 931.38,-855.62 844.62,-855.62"/>
<polygon fill="none" stroke="black" points="844.62,-855.62 844.62,-874.88 931.38,-874.88 931.38,-855.62 844.62,-855.62"/>
<text text-anchor="start" x="878.25" y="-862.38" font-family="Helvetica,sans-Serif" font-weight="bold" font-size="10.00">&lt;w&gt;</text>
<polygon fill="none" stroke="black" points="844.62,-837.12 844.62,-855.62 931.38,-855.62 931.38,-837.12 844.62,-837.12"/>
<text text-anchor="start" x="848.62" y="-842.12" font-family="Helvetica,sans-Serif" font-size="10.00">の</text>
<polygon fill="none" stroke="black" points="844.62,-817.12 844.62,-837.12 931.38,-837.12 931.38,-817.12 844.62,-817.12"/>
<text text-anchor="start" x="848.62" y="-823.62" font-family="Helvetica,sans-Serif" font-size="10.00">lemmaRef: #の.の</text>
</g>
<!-- b_seg1&#45;&gt;b_w_no -->
<g id="edge14" class="edge">
<title>b_seg1&#45;&gt;b_w_no</title>
<path fill="none" stroke="#888888" stroke-width="0.9" stroke-dasharray="5,2" d="M698.63,-867.48C730.48,-863.85 790.21,-857.04 833.9,-852.05"/>
<polygon fill="#888888" stroke="#888888" stroke-width="0.9" points="834.02,-855.56 843.56,-850.95 833.23,-848.61 834.02,-855.56"/>
</g>
<!-- b_w_haru -->
<g id="node13" class="node">
<title>b_w_haru</title>
<polygon fill="#7aaad0" stroke="none" points="839.75,-768.62 839.75,-787.88 936.25,-787.88 936.25,-768.62 839.75,-768.62"/>
<polygon fill="none" stroke="black" points="839.75,-768.62 839.75,-787.88 936.25,-787.88 936.25,-768.62 839.75,-768.62"/>
<text text-anchor="start" x="878.25" y="-775.38" font-family="Helvetica,sans-Serif" font-weight="bold" font-size="10.00">&lt;w&gt;</text>
<polygon fill="none" stroke="black" points="839.75,-750.12 839.75,-768.62 936.25,-768.62 936.25,-750.12 839.75,-750.12"/>
<text text-anchor="start" x="843.75" y="-755.12" font-family="Helvetica,sans-Serif" font-size="10.00">春</text>
<polygon fill="none" stroke="black" points="839.75,-730.12 839.75,-750.12 936.25,-750.12 936.25,-730.12 839.75,-730.12"/>
<text text-anchor="start" x="843.75" y="-736.62" font-family="Helvetica,sans-Serif" font-size="10.00">lemmaRef: #はる.春</text>
</g>
<!-- b_seg2&#45;&gt;b_w_haru -->
<g id="edge15" class="edge">
<title>b_seg2&#45;&gt;b_w_haru</title>
<path fill="none" stroke="#888888" stroke-width="0.9" stroke-dasharray="5,2" d="M708.47,-796.32C740.43,-789.64 790.28,-779.22 829.2,-771.08"/>
<polygon fill="#888888" stroke="#888888" stroke-width="0.9" points="829.45,-774.6 838.52,-769.13 828.02,-767.75 829.45,-774.6"/>
</g>
<!-- b_w_ha -->
<g id="node14" class="node">
<title>b_w_ha</title>
<polygon fill="#7aaad0" stroke="none" points="844.62,-681.62 844.62,-700.88 931.38,-700.88 931.38,-681.62 844.62,-681.62"/>
<polygon fill="none" stroke="black" points="844.62,-681.62 844.62,-700.88 931.38,-700.88 931.38,-681.62 844.62,-681.62"/>
<text text-anchor="start" x="878.25" y="-688.38" font-family="Helvetica,sans-Serif" font-weight="bold" font-size="10.00">&lt;w&gt;</text>
<polygon fill="none" stroke="black" points="844.62,-663.12 844.62,-681.62 931.38,-681.62 931.38,-663.12 844.62,-663.12"/>
<text text-anchor="start" x="848.62" y="-668.12" font-family="Helvetica,sans-Serif" font-size="10.00">は</text>
<polygon fill="none" stroke="black" points="844.62,-643.12 844.62,-663.12 931.38,-663.12 931.38,-643.12 844.62,-643.12"/>
<text text-anchor="start" x="848.62" y="-649.62" font-family="Helvetica,sans-Serif" font-size="10.00">lemmaRef: #は.は</text>
</g>
<!-- b_seg2&#45;&gt;b_w_ha -->
<g id="edge16" class="edge">
<title>b_seg2&#45;&gt;b_w_ha</title>
<path fill="none" stroke="#888888" stroke-width="0.9" stroke-dasharray="5,2" d="M701.65,-784.34C736.1,-758.77 793.75,-716 793.75,-716 793.75,-716 813.36,-706.75 834.6,-696.72"/>
<polygon fill="#888888" stroke="#888888" stroke-width="0.9" points="835.96,-699.95 843.51,-692.52 832.97,-693.62 835.96,-699.95"/>
</g>
<!-- hom_haru -->
<g id="node18" class="node">
<title>hom_haru</title>
<polygon fill="#88bb77" stroke="none" points="1072.12,-152.38 1072.12,-171.62 1144.62,-171.62 1144.62,-152.38 1072.12,-152.38"/>
<polygon fill="none" stroke="black" points="1072.12,-152.38 1072.12,-171.62 1144.62,-171.62 1144.62,-152.38 1072.12,-152.38"/>
<text text-anchor="start" x="1091.88" y="-159.12" font-family="Helvetica,sans-Serif" font-weight="bold" font-size="10.00">&lt;hom&gt;</text>
<polygon fill="none" stroke="black" points="1072.12,-132.38 1072.12,-152.38 1144.62,-152.38 1144.62,-132.38 1072.12,-132.38"/>
<text text-anchor="start" x="1076.12" y="-138.88" font-family="Helvetica,sans-Serif" font-size="10.00">xml:id: はる.春</text>
<polygon fill="none" stroke="black" points="1072.12,-112.38 1072.12,-132.38 1144.62,-132.38 1144.62,-112.38 1072.12,-112.38"/>
<text text-anchor="start" x="1076.12" y="-118.88" font-family="Helvetica,sans-Serif" font-size="10.00">ref: #春</text>
</g>
<!-- b_w_haru&#45;&gt;hom_haru -->
<g id="edge20" class="edge">
<title>b_w_haru&#45;&gt;hom_haru</title>
<path fill="none" stroke="#4477bb" stroke-width="0.9" d="M936.11,-734.68C955.83,-724.51 974.25,-715 974.25,-715 974.25,-715 1061.5,-200 1061.5,-200 1061.5,-200 1068.67,-190.94 1077.34,-179.97"/>
<polygon fill="#4477bb" stroke="#4477bb" stroke-width="0.9" points="1079.87,-182.42 1083.32,-172.41 1074.37,-178.08 1079.87,-182.42"/>
<text text-anchor="middle" x="998.05" y="-458.47" font-family="Helvetica,sans-Serif" font-size="8.00">lemmaRef</text>
</g>
<!-- surface -->
<g id="node28" class="node">
<title>surface</title>
<polygon fill="#bb9966" stroke="none" points="857.38,-317 857.38,-336.25 918.62,-336.25 918.62,-317 857.38,-317"/>
<polygon fill="none" stroke="black" points="857.38,-317 857.38,-336.25 918.62,-336.25 918.62,-317 857.38,-317"/>
<text text-anchor="start" x="865.12" y="-323.75" font-family="Helvetica,sans-Serif" font-weight="bold" font-size="10.00">&lt;surface&gt;</text>
<polygon fill="none" stroke="black" points="857.38,-297.75 857.38,-317 918.62,-317 918.62,-297.75 857.38,-297.75"/>
<text text-anchor="start" x="861.38" y="-303.5" font-family="Helvetica,sans-Serif" font-size="10.00">xml:id: p001</text>
</g>
<!-- b_pb&#45;&gt;surface -->
<g id="edge29" class="edge">
<title>b_pb&#45;&gt;surface</title>
<path fill="none" stroke="#996644" stroke-width="0.9" d="M294.85,-624.27C404.36,-567.36 793.75,-365 793.75,-365 793.75,-365 822.14,-350.39 847.59,-337.29"/>
<polygon fill="#996644" stroke="#996644" stroke-width="0.9" points="848.99,-340.5 856.28,-332.81 845.79,-334.28 848.99,-340.5"/>
<text text-anchor="middle" x="564.04" y="-473.07" font-family="Helvetica,sans-Serif" font-size="8.00">facs</text>
</g>
<!-- ri_entry -->
<g id="node17" class="node">
<title>ri_entry</title>
<polygon fill="#88bb77" stroke="none" points="858.12,-98.38 858.12,-117.62 917.88,-117.62 917.88,-98.38 858.12,-98.38"/>
<polygon fill="none" stroke="black" points="858.12,-98.38 858.12,-117.62 917.88,-117.62 917.88,-98.38 858.12,-98.38"/>
<text text-anchor="start" x="870.38" y="-105.12" font-family="Helvetica,sans-Serif" font-weight="bold" font-size="10.00">&lt;entry&gt;</text>
<polygon fill="none" stroke="black" points="858.12,-78.38 858.12,-98.38 917.88,-98.38 917.88,-78.38 858.12,-78.38"/>
<text text-anchor="start" x="862.12" y="-84.88" font-family="Helvetica,sans-Serif" font-size="10.00">xml:id: はる</text>
</g>
<!-- ri_entry&#45;&gt;hom_haru -->
<g id="edge17" class="edge">
<title>ri_entry&#45;&gt;hom_haru</title>
<path fill="none" stroke="#888888" stroke-width="0.9" stroke-dasharray="5,2" d="M917.55,-103.75C954.06,-111.11 1017.74,-123.94 1061.19,-132.69"/>
<polygon fill="#888888" stroke="#888888" stroke-width="0.9" points="1060.49,-136.12 1070.98,-134.67 1061.87,-129.26 1060.49,-136.12"/>
</g>
<!-- hom_haru2 -->
<g id="node19" class="node">
<title>hom_haru2</title>
<polygon fill="#88bb77" stroke="none" points="1067.25,-64.38 1067.25,-83.62 1149.5,-83.62 1149.5,-64.38 1067.25,-64.38"/>
<polygon fill="none" stroke="black" points="1067.25,-64.38 1067.25,-83.62 1149.5,-83.62 1149.5,-64.38 1067.25,-64.38"/>
<text text-anchor="start" x="1091.88" y="-71.12" font-family="Helvetica,sans-Serif" font-weight="bold" font-size="10.00">&lt;hom&gt;</text>
<polygon fill="none" stroke="black" points="1067.25,-44.38 1067.25,-64.38 1149.5,-64.38 1149.5,-44.38 1067.25,-44.38"/>
<text text-anchor="start" x="1071.25" y="-50.88" font-family="Helvetica,sans-Serif" font-size="10.00">xml:id: はる.張る</text>
<polygon fill="none" stroke="black" points="1067.25,-24.38 1067.25,-44.38 1149.5,-44.38 1149.5,-24.38 1067.25,-24.38"/>
<text text-anchor="start" x="1071.25" y="-30.88" font-family="Helvetica,sans-Serif" font-size="10.00">ref: #張る</text>
</g>
<!-- ri_entry&#45;&gt;hom_haru2 -->
<g id="edge18" class="edge">
<title>ri_entry&#45;&gt;hom_haru2</title>
<path fill="none" stroke="#888888" stroke-width="0.9" stroke-dasharray="5,2" d="M917.55,-92.25C952.75,-85.15 1013.22,-72.97 1056.46,-64.26"/>
<polygon fill="#888888" stroke="#888888" stroke-width="0.9" points="1056.88,-67.74 1065.99,-62.34 1055.5,-60.88 1056.88,-67.74"/>
</g>
<!-- e_haru -->
<g id="node20" class="node">
<title>e_haru</title>
<polygon fill="#ccaa44" stroke="none" points="1250.5,-254 1250.5,-273.25 1300.5,-273.25 1300.5,-254 1250.5,-254"/>
<polygon fill="none" stroke="black" points="1250.5,-254 1250.5,-273.25 1300.5,-273.25 1300.5,-254 1250.5,-254"/>
<text text-anchor="start" x="1257.88" y="-260.75" font-family="Helvetica,sans-Serif" font-weight="bold" font-size="10.00">&lt;entry&gt;</text>
<polygon fill="none" stroke="black" points="1250.5,-234 1250.5,-254 1300.5,-254 1300.5,-234 1250.5,-234"/>
<text text-anchor="start" x="1254.5" y="-240.5" font-family="Helvetica,sans-Serif" font-size="10.00">xml:id: 春</text>
<polygon fill="none" stroke="black" points="1250.5,-214.75 1250.5,-234 1300.5,-234 1300.5,-214.75 1250.5,-214.75"/>
<text text-anchor="start" x="1254.5" y="-220.5" font-family="Helvetica,sans-Serif" font-size="10.00">pos: N.g</text>
</g>
<!-- hom_haru&#45;&gt;e_haru -->
<g id="edge21" class="edge">
<title>hom_haru&#45;&gt;e_haru</title>
<path fill="none" stroke="#448844" stroke-width="0.9" d="M1144.39,-163.63C1173.02,-181.31 1213.21,-206.14 1241.32,-223.5"/>
<polygon fill="#448844" stroke="#448844" stroke-width="0.9" points="1239.21,-226.32 1249.56,-228.6 1242.89,-220.36 1239.21,-226.32"/>
<text text-anchor="middle" x="1187.98" y="-185.97" font-family="Helvetica,sans-Serif" font-size="8.00">ref</text>
</g>
<!-- wlsph -->
<g id="node25" class="node">
<title>wlsph</title>
<polygon fill="#cc8888" stroke="none" points="1401.5,-369.25 1401.5,-388.5 1601.5,-388.5 1601.5,-369.25 1401.5,-369.25"/>
<polygon fill="none" stroke="black" points="1401.5,-369.25 1401.5,-388.5 1601.5,-388.5 1601.5,-369.25 1401.5,-369.25"/>
<text text-anchor="start" x="1485.38" y="-376" font-family="Helvetica,sans-Serif" font-weight="bold" font-size="10.00">&lt;item&gt;</text>
<polygon fill="none" stroke="black" points="1401.5,-350 1401.5,-369.25 1601.5,-369.25 1601.5,-350 1401.5,-350"/>
<text text-anchor="start" x="1405.5" y="-355.75" font-family="Helvetica,sans-Serif" font-size="10.00">xml:id: WLSPH.1.1624</text>
<polygon fill="none" stroke="black" points="1401.5,-330 1401.5,-350 1601.5,-350 1601.5,-330 1401.5,-330"/>
<text text-anchor="start" x="1405.5" y="-336.5" font-family="Helvetica,sans-Serif" font-size="10.00">desc: 体&#45;抽象的関係&#45;位置・地点・場合&#45;季節</text>
<polygon fill="none" stroke="black" points="1401.5,-311.5 1401.5,-330 1601.5,-330 1601.5,-311.5 1401.5,-311.5"/>
<text text-anchor="start" x="1405.5" y="-317.5" font-family="Helvetica,sans-Serif" font-style="italic" font-size="10.00">八代集版</text>
</g>
<!-- e_haru&#45;&gt;wlsph -->
<g id="edge22" class="edge">
<title>e_haru&#45;&gt;wlsph</title>
<path fill="none" stroke="#bb6633" stroke-width="0.9" d="M1300.47,-255.34C1326.48,-267.65 1369.6,-288.05 1409.15,-306.77"/>
<polygon fill="#bb6633" stroke="#bb6633" stroke-width="0.9" points="1407.62,-309.92 1418.16,-311.03 1410.62,-303.59 1407.62,-309.92"/>
<text text-anchor="middle" x="1336.44" y="-273.46" font-family="Helvetica,sans-Serif" font-size="8.00">sense/ana</text>
</g>
<!-- wlsp -->
<g id="node26" class="node">
<title>wlsp</title>
<polygon fill="#e8b0b0" stroke="none" points="1445.38,-263.25 1445.38,-282.5 1557.62,-282.5 1557.62,-263.25 1445.38,-263.25"/>
<polygon fill="none" stroke="black" points="1445.38,-263.25 1445.38,-282.5 1557.62,-282.5 1557.62,-263.25 1445.38,-263.25"/>
<text text-anchor="start" x="1485.38" y="-270" font-family="Helvetica,sans-Serif" font-weight="bold" font-size="10.00">&lt;item&gt;</text>
<polygon fill="none" stroke="black" points="1445.38,-244 1445.38,-263.25 1557.62,-263.25 1557.62,-244 1445.38,-244"/>
<text text-anchor="start" x="1449.38" y="-249.75" font-family="Helvetica,sans-Serif" font-size="10.00">xml:id: WLSP.1.1624</text>
<polygon fill="none" stroke="black" points="1445.38,-224 1445.38,-244 1557.62,-244 1557.62,-224 1445.38,-224"/>
<text text-anchor="start" x="1449.38" y="-230.5" font-family="Helvetica,sans-Serif" font-size="10.00">desc: 体&#45;関係&#45;時間&#45;季節</text>
<polygon fill="none" stroke="black" points="1445.38,-205.5 1445.38,-224 1557.62,-224 1557.62,-205.5 1445.38,-205.5"/>
<text text-anchor="start" x="1449.38" y="-211.5" font-family="Helvetica,sans-Serif" font-style="italic" font-size="10.00">現代語版</text>
</g>
<!-- e_haru&#45;&gt;wlsp -->
<g id="edge26" class="edge">
<title>e_haru&#45;&gt;wlsp</title>
<path fill="none" stroke="#cc9999" stroke-width="0.9" stroke-dasharray="5,2" d="M1300.47,-244C1332.21,-244 1389.41,-244 1434.54,-244"/>
<polygon fill="#cc9999" stroke="#cc9999" stroke-width="0.9" points="1434.37,-247.5 1444.37,-244 1434.37,-240.5 1434.37,-247.5"/>
</g>
<!-- e_aki -->
<g id="node21" class="node">
<title>e_aki</title>
<polygon fill="#ccaa44" stroke="none" points="1083.38,-430 1083.38,-449.25 1133.38,-449.25 1133.38,-430 1083.38,-430"/>
<polygon fill="none" stroke="black" points="1083.38,-430 1083.38,-449.25 1133.38,-449.25 1133.38,-430 1083.38,-430"/>
<text text-anchor="start" x="1090.75" y="-436.75" font-family="Helvetica,sans-Serif" font-weight="bold" font-size="10.00">&lt;entry&gt;</text>
<polygon fill="none" stroke="black" points="1083.38,-410 1083.38,-430 1133.38,-430 1133.38,-410 1083.38,-410"/>
<text text-anchor="start" x="1087.38" y="-416.5" font-family="Helvetica,sans-Serif" font-size="10.00">xml:id: 秋</text>
<polygon fill="none" stroke="black" points="1083.38,-390.75 1083.38,-410 1133.38,-410 1133.38,-390.75 1083.38,-390.75"/>
<text text-anchor="start" x="1087.38" y="-396.5" font-family="Helvetica,sans-Serif" font-size="10.00">pos: N.g</text>
</g>
<!-- e_aki&#45;&gt;wlsph -->
<g id="edge23" class="edge">
<title>e_aki&#45;&gt;wlsph</title>
<path fill="none" stroke="#bb6633" stroke-width="0.9" d="M1133.25,-415.73C1183.25,-406.78 1301.66,-385.59 1390.61,-369.67"/>
<polygon fill="#bb6633" stroke="#bb6633" stroke-width="0.9" points="1391.01,-373.15 1400.24,-367.94 1389.78,-366.26 1391.01,-373.15"/>
</g>
<!-- e_natsu -->
<g id="node22" class="node">
<title>e_natsu</title>
<polygon fill="#ccaa44" stroke="none" points="1083.38,-518 1083.38,-537.25 1133.38,-537.25 1133.38,-518 1083.38,-518"/>
<polygon fill="none" stroke="black" points="1083.38,-518 1083.38,-537.25 1133.38,-537.25 1133.38,-518 1083.38,-518"/>
<text text-anchor="start" x="1090.75" y="-524.75" font-family="Helvetica,sans-Serif" font-weight="bold" font-size="10.00">&lt;entry&gt;</text>
<polygon fill="none" stroke="black" points="1083.38,-498 1083.38,-518 1133.38,-518 1133.38,-498 1083.38,-498"/>
<text text-anchor="start" x="1087.38" y="-504.5" font-family="Helvetica,sans-Serif" font-size="10.00">xml:id: 夏</text>
<polygon fill="none" stroke="black" points="1083.38,-478.75 1083.38,-498 1133.38,-498 1133.38,-478.75 1083.38,-478.75"/>
<text text-anchor="start" x="1087.38" y="-484.5" font-family="Helvetica,sans-Serif" font-size="10.00">pos: N.g</text>
</g>
<!-- e_natsu&#45;&gt;wlsph -->
<g id="edge24" class="edge">
<title>e_natsu&#45;&gt;wlsph</title>
<path fill="none" stroke="#bb6633" stroke-width="0.9" d="M1133.25,-498.35C1184.07,-477.83 1305.56,-428.75 1394.96,-392.63"/>
<polygon fill="#bb6633" stroke="#bb6633" stroke-width="0.9" points="1396.2,-395.91 1404.16,-388.92 1393.57,-389.42 1396.2,-395.91"/>
</g>
<!-- e_fuyu -->
<g id="node23" class="node">
<title>e_fuyu</title>
<polygon fill="#ccaa44" stroke="none" points="1083.38,-342 1083.38,-361.25 1133.38,-361.25 1133.38,-342 1083.38,-342"/>
<polygon fill="none" stroke="black" points="1083.38,-342 1083.38,-361.25 1133.38,-361.25 1133.38,-342 1083.38,-342"/>
<text text-anchor="start" x="1090.75" y="-348.75" font-family="Helvetica,sans-Serif" font-weight="bold" font-size="10.00">&lt;entry&gt;</text>
<polygon fill="none" stroke="black" points="1083.38,-322 1083.38,-342 1133.38,-342 1133.38,-322 1083.38,-322"/>
<text text-anchor="start" x="1087.38" y="-328.5" font-family="Helvetica,sans-Serif" font-size="10.00">xml:id: 冬</text>
<polygon fill="none" stroke="black" points="1083.38,-302.75 1083.38,-322 1133.38,-322 1133.38,-302.75 1083.38,-302.75"/>
<text text-anchor="start" x="1087.38" y="-308.5" font-family="Helvetica,sans-Serif" font-size="10.00">pos: N.g</text>
</g>
<!-- e_fuyu&#45;&gt;wlsph -->
<g id="edge25" class="edge">
<title>e_fuyu&#45;&gt;wlsph</title>
<path fill="none" stroke="#bb6633" stroke-width="0.9" d="M1133.25,-333.1C1183.2,-335.4 1301.42,-340.84 1390.34,-344.93"/>
<polygon fill="#bb6633" stroke="#bb6633" stroke-width="0.9" points="1390.07,-348.42 1400.22,-345.38 1390.39,-341.43 1390.07,-348.42"/>
</g>
<!-- e_comp -->
<g id="node24" class="node">
<title>e_comp</title>
<polygon fill="#ccaa44" stroke="none" points="1069.5,-254 1069.5,-273.25 1147.25,-273.25 1147.25,-254 1069.5,-254"/>
<polygon fill="none" stroke="black" points="1069.5,-254 1069.5,-273.25 1147.25,-273.25 1147.25,-254 1069.5,-254"/>
<text text-anchor="start" x="1090.75" y="-260.75" font-family="Helvetica,sans-Serif" font-weight="bold" font-size="10.00">&lt;entry&gt;</text>
<polygon fill="none" stroke="black" points="1069.5,-234 1069.5,-254 1147.25,-254 1147.25,-234 1069.5,-234"/>
<text text-anchor="start" x="1073.5" y="-240.5" font-family="Helvetica,sans-Serif" font-size="10.00">xml:id: 春霞</text>
<polygon fill="none" stroke="black" points="1069.5,-214.75 1069.5,-234 1147.25,-234 1147.25,-214.75 1069.5,-214.75"/>
<text text-anchor="start" x="1073.5" y="-220.5" font-family="Helvetica,sans-Serif" font-size="10.00">type: compound</text>
</g>
<!-- e_comp&#45;&gt;e_haru -->
<g id="edge19" class="edge">
<title>e_comp&#45;&gt;e_haru</title>
<path fill="none" stroke="#997722" stroke-width="0.9" stroke-dasharray="5,2" d="M1146.84,-244C1174.69,-244 1212.42,-244 1239.63,-244"/>
<polygon fill="#997722" stroke="#997722" stroke-width="0.9" points="1239.59,-247.5 1249.59,-244 1239.59,-240.5 1239.59,-247.5"/>
<text text-anchor="middle" x="1173.36" y="-236.4" font-family="Helvetica,sans-Serif" font-size="8.00">component</text>
</g>
</g>
</svg>
