<?xml version="1.0" encoding="UTF-8" standalone="no"?>
<!DOCTYPE svg PUBLIC "-//W3C//DTD SVG 1.1//EN"
 "http://www.w3.org/Graphics/SVG/1.1/DTD/svg11.dtd">
<!-- Generated by graphviz version 12.2.1 (0)
 -->
<!-- Title: search_uguisu Pages: 1 -->
<svg width="958pt" height="308pt"
 viewBox="0.00 0.00 957.88 308.00" xmlns="http://www.w3.org/2000/svg" xmlns:xlink="http://www.w3.org/1999/xlink">
<g id="graph0" class="graph" transform="scale(1 1) rotate(0) translate(4 304)">
<title>search_uguisu</title>
<polygon fill="#faf9f7" stroke="none" points="-4,4 -4,-304 953.88,-304 953.88,4 -4,4"/>
<g id="clust1" class="cluster">
<title>cluster_ri</title>
<path fill="#f0f7ee" stroke="#88bb77" d="M163.75,-201C163.75,-201 467.75,-201 467.75,-201 473.75,-201 479.75,-207 479.75,-213 479.75,-213 479.75,-264 479.75,-264 479.75,-270 473.75,-276 467.75,-276 467.75,-276 163.75,-276 163.75,-276 157.75,-276 151.75,-270 151.75,-264 151.75,-264 151.75,-213 151.75,-213 151.75,-207 157.75,-201 163.75,-201"/>
<text text-anchor="middle" x="315.75" y="-262.5" font-family="Helvetica,sans-Serif" font-size="10.00">reading&#45;index</text>
</g>
<g id="clust2" class="cluster">
<title>cluster_dict</title>
<path fill="#fef9ec" stroke="#ccaa44" d="M598.12,-8C598.12,-8 735.38,-8 735.38,-8 741.38,-8 747.38,-14 747.38,-20 747.38,-20 747.38,-280 747.38,-280 747.38,-286 741.38,-292 735.38,-292 735.38,-292 598.12,-292 598.12,-292 592.12,-292 586.12,-286 586.12,-280 586.12,-280 586.12,-20 586.12,-20 586.12,-14 592.12,-8 598.12,-8"/>
<text text-anchor="middle" x="666.75" y="-278.5" font-family="Helvetica,sans-Serif" font-size="10.00">dictionary</text>
</g>
<g id="clust3" class="cluster">
<title>cluster_cls</title>
<path fill="#fdf0f0" stroke="#cc8888" d="M829.38,-103C829.38,-103 929.88,-103 929.88,-103 935.88,-103 941.88,-109 941.88,-115 941.88,-115 941.88,-185 941.88,-185 941.88,-191 935.88,-197 929.88,-197 929.88,-197 829.38,-197 829.38,-197 823.38,-197 817.38,-191 817.38,-185 817.38,-185 817.38,-115 817.38,-115 817.38,-109 823.38,-103 829.38,-103"/>
<text text-anchor="middle" x="879.62" y="-183.5" font-family="Helvetica,sans-Serif" font-size="10.00">classification</text>
</g>
<g id="clust4" class="cluster">
<title>cluster_body</title>
<path fill="#eef4fb" stroke="#7aaad0" d="M20,-14C20,-14 504.12,-14 504.12,-14 510.12,-14 516.12,-20 516.12,-26 516.12,-26 516.12,-169 516.12,-169 516.12,-175 510.12,-181 504.12,-181 504.12,-181 20,-181 20,-181 14,-181 8,-175 8,-169 8,-169 8,-26 8,-26 8,-20 14,-14 20,-14"/>
<text text-anchor="middle" x="262.06" y="-167.5" font-family="Helvetica,sans-Serif" font-size="10.00">&lt;body&gt;</text>
</g>
<!-- query -->
<g id="node1" class="node">
<title>query</title>
<polygon fill="#fff8e8" stroke="none" points="6.38,-209.5 6.38,-248.5 55.38,-248.5 55.38,-209.5 6.38,-209.5"/>
<text text-anchor="start" x="16.25" y="-235" font-family="Helvetica,sans-Serif" font-weight="bold" font-size="10.00">クエリ</text>
<text text-anchor="start" x="11.38" y="-215.5" font-family="Helvetica,sans-Serif" font-size="10.00">うぐひす</text>
<polygon fill="none" stroke="#cc8800" points="6.38,-209.5 6.38,-248.5 55.38,-248.5 55.38,-209.5 6.38,-209.5"/>
</g>
<!-- ri_e -->
<g id="node2" class="node">
<title>ri_e</title>
<polygon fill="#88bb77" stroke="none" points="159.75,-229.38 159.75,-248.62 239,-248.62 239,-229.38 159.75,-229.38"/>
<polygon fill="none" stroke="black" points="159.75,-229.38 159.75,-248.62 239,-248.62 239,-229.38 159.75,-229.38"/>
<text text-anchor="start" x="181.75" y="-236.12" font-family="Helvetica,sans-Serif" font-weight="bold" font-size="10.00">&lt;entry&gt;</text>
<polygon fill="none" stroke="black" points="159.75,-209.38 159.75,-229.38 239,-229.38 239,-209.38 159.75,-209.38"/>
<text text-anchor="start" x="163.75" y="-215.88" font-family="Helvetica,sans-Serif" font-size="10.00">xml:id: うぐひす</text>
</g>
<!-- query&#45;&gt;ri_e -->
<g id="edge4" class="edge">
<title>query&#45;&gt;ri_e</title>
<path fill="none" stroke="#cc6600" stroke-width="2" d="M55.03,-229C78.72,-229 116.31,-229 147.05,-229"/>
<polygon fill="#cc6600" stroke="#cc6600" stroke-width="2" points="146.72,-232.5 156.72,-229 146.72,-225.5 146.72,-232.5"/>
</g>
<!-- hom1 -->
<g id="node3" class="node">
<title>hom1</title>
<polygon fill="#88bb77" stroke="none" points="379.75,-229.38 379.75,-248.62 471.75,-248.62 471.75,-229.38 379.75,-229.38"/>
<polygon fill="none" stroke="black" points="379.75,-229.38 379.75,-248.62 471.75,-248.62 471.75,-229.38 379.75,-229.38"/>
<text text-anchor="start" x="409.25" y="-236.12" font-family="Helvetica,sans-Serif" font-weight="bold" font-size="10.00">&lt;hom&gt;</text>
<polygon fill="none" stroke="black" points="379.75,-209.38 379.75,-229.38 471.75,-229.38 471.75,-209.38 379.75,-209.38"/>
<text text-anchor="start" x="383.75" y="-215.88" font-family="Helvetica,sans-Serif" font-size="10.00">xml:id: うぐひす.鴬</text>
</g>
<!-- ri_e&#45;&gt;hom1 -->
<g id="edge1" class="edge">
<title>ri_e&#45;&gt;hom1</title>
<path fill="none" stroke="#88bb77" stroke-width="0.8" stroke-dasharray="5,2" d="M238.95,-229C274.79,-229 328.6,-229 369.09,-229"/>
<polygon fill="#88bb77" stroke="#88bb77" stroke-width="0.8" points="368.93,-232.5 378.93,-229 368.93,-225.5 368.93,-232.5"/>
</g>
<!-- e1 -->
<g id="node4" class="node">
<title>e1</title>
<polygon fill="#ccaa44" stroke="none" points="594.12,-245 594.12,-264.25 739.38,-264.25 739.38,-245 594.12,-245"/>
<polygon fill="none" stroke="black" points="594.12,-245 594.12,-264.25 739.38,-264.25 739.38,-245 594.12,-245"/>
<text text-anchor="start" x="649.12" y="-251.75" font-family="Helvetica,sans-Serif" font-weight="bold" font-size="10.00">&lt;entry&gt;</text>
<polygon fill="none" stroke="black" points="594.12,-225 594.12,-245 739.38,-245 739.38,-225 594.12,-225"/>
<text text-anchor="start" x="598.12" y="-231.5" font-family="Helvetica,sans-Serif" font-size="10.00">xml:id: 鴬</text>
<polygon fill="#e8cc88" stroke="none" points="594.12,-205.75 594.12,-225 739.38,-225 739.38,-205.75 594.12,-205.75"/>
<polygon fill="none" stroke="black" points="594.12,-205.75 594.12,-225 739.38,-225 739.38,-205.75 594.12,-205.75"/>
<text text-anchor="start" x="598.12" y="-212.5" font-family="Helvetica,sans-Serif" font-weight="bold" font-size="10.00">&lt;sense&gt;</text>
<text text-anchor="start" x="637.12" y="-212.5" font-family="Helvetica,sans-Serif" font-size="10.00"> ana: #WLSPH.1.5620</text>
</g>
<!-- hom1&#45;&gt;e1 -->
<g id="edge5" class="edge">
<title>hom1&#45;&gt;e1</title>
<path fill="none" stroke="#cc6600" stroke-width="2" d="M471.7,-230.13C502.55,-230.9 544.42,-231.95 581.38,-232.88"/>
<polygon fill="#cc6600" stroke="#cc6600" stroke-width="2" points="581.11,-236.38 591.2,-233.13 581.29,-229.38 581.11,-236.38"/>
<text text-anchor="middle" x="521.67" y="-223.91" font-family="Helvetica,sans-Serif" font-size="8.00">ref</text>
</g>
<!-- wlsph -->
<g id="node7" class="node">
<title>wlsph</title>
<polygon fill="#cc8888" stroke="none" points="825.38,-150 825.38,-169.25 933.88,-169.25 933.88,-150 825.38,-150"/>
<polygon fill="none" stroke="black" points="825.38,-150 825.38,-169.25 933.88,-169.25 933.88,-150 825.38,-150"/>
<text text-anchor="start" x="863.5" y="-156.75" font-family="Helvetica,sans-Serif" font-weight="bold" font-size="10.00">&lt;item&gt;</text>
<polygon fill="none" stroke="black" points="825.38,-130.75 825.38,-150 933.88,-150 933.88,-130.75 825.38,-130.75"/>
<text text-anchor="start" x="829.38" y="-136.5" font-family="Helvetica,sans-Serif" font-size="10.00">xml:id: WLSPH.1.5620</text>
<polygon fill="none" stroke="black" points="825.38,-110.75 825.38,-130.75 933.88,-130.75 933.88,-110.75 825.38,-110.75"/>
<text text-anchor="start" x="829.38" y="-117.25" font-family="Helvetica,sans-Serif" font-size="10.00">desc: 体&#45;…&#45;動物&#45;鳥</text>
</g>
<!-- e1&#45;&gt;wlsph -->
<g id="edge6" class="edge">
<title>e1&#45;&gt;wlsph</title>
<path fill="none" stroke="#cc6600" stroke-width="2" d="M732.45,-205.85C758.28,-194.22 787.96,-180.84 813.8,-169.2"/>
<polygon fill="#cc6600" stroke="#cc6600" stroke-width="2" points="814.94,-172.53 822.62,-165.23 812.06,-166.15 814.94,-172.53"/>
<text text-anchor="middle" x="754.75" y="-179.93" font-family="Helvetica,sans-Serif" font-size="8.00">sense/ana</text>
</g>
<!-- e2 -->
<g id="node5" class="node">
<title>e2</title>
<polygon fill="#ccaa44" stroke="none" points="594.12,-150 594.12,-169.25 739.38,-169.25 739.38,-150 594.12,-150"/>
<polygon fill="none" stroke="black" points="594.12,-150 594.12,-169.25 739.38,-169.25 739.38,-150 594.12,-150"/>
<text text-anchor="start" x="649.12" y="-156.75" font-family="Helvetica,sans-Serif" font-weight="bold" font-size="10.00">&lt;entry&gt;</text>
<polygon fill="none" stroke="black" points="594.12,-130 594.12,-150 739.38,-150 739.38,-130 594.12,-130"/>
<text text-anchor="start" x="598.12" y="-136.5" font-family="Helvetica,sans-Serif" font-size="10.00">xml:id: 鶯</text>
<polygon fill="#e8cc88" stroke="none" points="594.12,-110.75 594.12,-130 739.38,-130 739.38,-110.75 594.12,-110.75"/>
<polygon fill="none" stroke="black" points="594.12,-110.75 594.12,-130 739.38,-130 739.38,-110.75 594.12,-110.75"/>
<text text-anchor="start" x="598.12" y="-117.5" font-family="Helvetica,sans-Serif" font-weight="bold" font-size="10.00">&lt;sense&gt;</text>
<text text-anchor="start" x="637.12" y="-117.5" font-family="Helvetica,sans-Serif" font-size="10.00"> ana: #WLSPH.1.5620</text>
</g>
<!-- e2&#45;&gt;wlsph -->
<g id="edge7" class="edge">
<title>e2&#45;&gt;wlsph</title>
<path fill="none" stroke="#cc6600" stroke-width="1.5" d="M739.14,-140C763.26,-140 790.03,-140 813.63,-140"/>
<polygon fill="#cc6600" stroke="#cc6600" stroke-width="1.5" points="813.37,-143.5 823.37,-140 813.37,-136.5 813.37,-143.5"/>
</g>
<!-- e3 -->
<g id="node6" class="node">
<title>e3</title>
<polygon fill="#ccaa44" stroke="none" points="594.12,-55 594.12,-74.25 739.38,-74.25 739.38,-55 594.12,-55"/>
<polygon fill="none" stroke="black" points="594.12,-55 594.12,-74.25 739.38,-74.25 739.38,-55 594.12,-55"/>
<text text-anchor="start" x="649.12" y="-61.75" font-family="Helvetica,sans-Serif" font-weight="bold" font-size="10.00">&lt;entry&gt;</text>
<polygon fill="none" stroke="black" points="594.12,-35 594.12,-55 739.38,-55 739.38,-35 594.12,-35"/>
<text text-anchor="start" x="598.12" y="-41.5" font-family="Helvetica,sans-Serif" font-size="10.00">xml:id: ほととぎす</text>
<polygon fill="#e8cc88" stroke="none" points="594.12,-15.75 594.12,-35 739.38,-35 739.38,-15.75 594.12,-15.75"/>
<polygon fill="none" stroke="black" points="594.12,-15.75 594.12,-35 739.38,-35 739.38,-15.75 594.12,-15.75"/>
<text text-anchor="start" x="598.12" y="-22.5" font-family="Helvetica,sans-Serif" font-weight="bold" font-size="10.00">&lt;sense&gt;</text>
<text text-anchor="start" x="637.12" y="-22.5" font-family="Helvetica,sans-Serif" font-size="10.00"> ana: #WLSPH.1.5620</text>
</g>
<!-- e3&#45;&gt;wlsph -->
<g id="edge8" class="edge">
<title>e3&#45;&gt;wlsph</title>
<path fill="none" stroke="#cc6600" stroke-width="1.5" d="M732.45,-74.15C758.51,-85.89 788.5,-99.4 814.5,-111.11"/>
<polygon fill="#cc6600" stroke="#cc6600" stroke-width="1.5" points="812.75,-114.16 823.31,-115.08 815.63,-107.78 812.75,-114.16"/>
</g>
<!-- l1 -->
<g id="node8" class="node">
<title>l1</title>
<polygon fill="#7aaad0" stroke="none" points="16,-125 16,-144.25 45.75,-144.25 45.75,-125 16,-125"/>
<polygon fill="none" stroke="black" points="16,-125 16,-144.25 45.75,-144.25 45.75,-125 16,-125"/>
<text text-anchor="start" x="23.38" y="-131.75" font-family="Helvetica,sans-Serif" font-weight="bold" font-size="10.00">&lt;l&gt;</text>
<polygon fill="none" stroke="black" points="16,-105.75 16,-125 45.75,-125 45.75,-105.75 16,-105.75"/>
<text text-anchor="start" x="20" y="-111.5" font-family="Helvetica,sans-Serif" font-size="10.00">n: 12</text>
</g>
<!-- w1 -->
<g id="node9" class="node">
<title>w1</title>
<polygon fill="#7aaad0" stroke="none" points="141.38,-134.62 141.38,-153.88 257.38,-153.88 257.38,-134.62 141.38,-134.62"/>
<polygon fill="none" stroke="black" points="141.38,-134.62 141.38,-153.88 257.38,-153.88 257.38,-134.62 141.38,-134.62"/>
<text text-anchor="start" x="189.62" y="-141.38" font-family="Helvetica,sans-Serif" font-weight="bold" font-size="10.00">&lt;w&gt;</text>
<polygon fill="none" stroke="black" points="141.38,-116.12 141.38,-134.62 257.38,-134.62 257.38,-116.12 141.38,-116.12"/>
<text text-anchor="start" x="145.38" y="-121.12" font-family="Helvetica,sans-Serif" font-size="10.00">うぐひす</text>
<polygon fill="none" stroke="black" points="141.38,-96.12 141.38,-116.12 257.38,-116.12 257.38,-96.12 141.38,-96.12"/>
<text text-anchor="start" x="145.38" y="-102.62" font-family="Helvetica,sans-Serif" font-size="10.00">lemmaRef: #うぐひす.鴬</text>
</g>
<!-- l1&#45;&gt;w1 -->
<g id="edge2" class="edge">
<title>l1&#45;&gt;w1</title>
<path fill="none" stroke="#7aaad0" stroke-width="0.8" stroke-dasharray="5,2" d="M45.5,-125C64.12,-125 98.82,-125 130.46,-125"/>
<polygon fill="#7aaad0" stroke="#7aaad0" stroke-width="0.8" points="130.28,-128.5 140.28,-125 130.28,-121.5 130.28,-128.5"/>
</g>
<!-- w1&#45;&gt;hom1 -->
<g id="edge9" class="edge">
<title>w1&#45;&gt;hom1</title>
<path fill="none" stroke="#4477bb" stroke-width="2" d="M269.01,-156.81C306.01,-173.96 350.49,-194.58 382.43,-209.38"/>
<polygon fill="#4477bb" stroke="#4477bb" stroke-width="2" points="270.58,-153.68 260.03,-152.65 267.63,-160.03 270.58,-153.68"/>
<text text-anchor="middle" x="307.34" y="-175.5" font-family="Helvetica,sans-Serif" font-size="8.00">lemmaRef</text>
</g>
<!-- l2 -->
<g id="node10" class="node">
<title>l2</title>
<polygon fill="#7aaad0" stroke="none" points="181.88,-41 181.88,-60.25 216.88,-60.25 216.88,-41 181.88,-41"/>
<polygon fill="none" stroke="black" points="181.88,-41 181.88,-60.25 216.88,-60.25 216.88,-41 181.88,-41"/>
<text text-anchor="start" x="191.88" y="-47.75" font-family="Helvetica,sans-Serif" font-weight="bold" font-size="10.00">&lt;l&gt;</text>
<polygon fill="none" stroke="black" points="181.88,-21.75 181.88,-41 216.88,-41 216.88,-21.75 181.88,-21.75"/>
<text text-anchor="start" x="185.88" y="-27.5" font-family="Helvetica,sans-Serif" font-size="10.00">n: 153</text>
</g>
<!-- w2 -->
<g id="node11" class="node">
<title>w2</title>
<polygon fill="#7aaad0" stroke="none" points="343.38,-60.62 343.38,-79.88 508.12,-79.88 508.12,-60.62 343.38,-60.62"/>
<polygon fill="none" stroke="black" points="343.38,-60.62 343.38,-79.88 508.12,-79.88 508.12,-60.62 343.38,-60.62"/>
<text text-anchor="start" x="416" y="-67.38" font-family="Helvetica,sans-Serif" font-weight="bold" font-size="10.00">&lt;w&gt;</text>
<polygon fill="none" stroke="black" points="343.38,-42.12 343.38,-60.62 508.12,-60.62 508.12,-42.12 343.38,-42.12"/>
<text text-anchor="start" x="347.38" y="-47.12" font-family="Helvetica,sans-Serif" font-size="10.00">ほととぎす</text>
<polygon fill="none" stroke="black" points="343.38,-22.12 343.38,-42.12 508.12,-42.12 508.12,-22.12 343.38,-22.12"/>
<text text-anchor="start" x="347.38" y="-28.62" font-family="Helvetica,sans-Serif" font-size="10.00">lemmaRef: #ほととぎす.ほととぎす</text>
</g>
<!-- l2&#45;&gt;w2 -->
<g id="edge3" class="edge">
<title>l2&#45;&gt;w2</title>
<path fill="none" stroke="#7aaad0" stroke-width="0.8" stroke-dasharray="5,2" d="M216.87,-41.74C241.32,-42.82 288.96,-44.95 332.47,-46.89"/>
<polygon fill="#7aaad0" stroke="#7aaad0" stroke-width="0.8" points="332.08,-50.37 342.22,-47.32 332.39,-43.38 332.08,-50.37"/>
</g>
<!-- w2&#45;&gt;e3 -->
<g id="edge10" class="edge">
<title>w2&#45;&gt;e3</title>
<path fill="none" stroke="#4477bb" stroke-width="1.5" d="M519.98,-48.66C544.69,-48.04 570.98,-47.38 594.33,-46.79"/>
<polygon fill="#4477bb" stroke="#4477bb" stroke-width="1.5" points="520.18,-45.15 510.27,-48.9 520.35,-52.15 520.18,-45.15"/>
<text text-anchor="middle" x="538.78" y="-40.13" font-family="Helvetica,sans-Serif" font-size="8.00">lemmaRef</text>
</g>
</g>
</svg>
