<?xml version="1.0" encoding="UTF-8" standalone="no"?>
<!DOCTYPE svg PUBLIC "-//W3C//DTD SVG 1.1//EN"
 "http://www.w3.org/Graphics/SVG/1.1/DTD/svg11.dtd">
<!-- Generated by graphviz version 12.2.1 (0)
 -->
<!-- Title: search_kanazukai Pages: 1 -->
<svg width="730pt" height="304pt"
 viewBox="0.00 0.00 729.75 304.46" xmlns="http://www.w3.org/2000/svg" xmlns:xlink="http://www.w3.org/1999/xlink">
<g id="graph0" class="graph" transform="scale(1 1) rotate(0) translate(4 300.46)">
<title>search_kanazukai</title>
<polygon fill="#faf9f7" stroke="none" points="-4,4 -4,-300.46 725.75,-300.46 725.75,4 -4,4"/>
<g id="clust1" class="cluster">
<title>cluster_dict</title>
<path fill="#fef9ec" stroke="#ccaa44" d="M659.75,-76.73C659.75,-76.73 701.75,-76.73 701.75,-76.73 707.75,-76.73 713.75,-82.73 713.75,-88.73 713.75,-88.73 713.75,-158.73 713.75,-158.73 713.75,-164.73 707.75,-170.73 701.75,-170.73 701.75,-170.73 659.75,-170.73 659.75,-170.73 653.75,-170.73 647.75,-164.73 647.75,-158.73 647.75,-158.73 647.75,-88.73 647.75,-88.73 647.75,-82.73 653.75,-76.73 659.75,-76.73"/>
<text text-anchor="middle" x="680.75" y="-157.23" font-family="Helvetica,sans-Serif" font-size="10.00">dictionary</text>
</g>
<g id="clust2" class="cluster">
<title>cluster_body</title>
<path fill="#eef4fb" stroke="#7aaad0" d="M54.88,-59.73C54.88,-59.73 405.25,-59.73 405.25,-59.73 411.25,-59.73 417.25,-65.73 417.25,-71.73 417.25,-71.73 417.25,-234.73 417.25,-234.73 417.25,-240.73 411.25,-246.73 405.25,-246.73 405.25,-246.73 54.88,-246.73 54.88,-246.73 48.88,-246.73 42.88,-240.73 42.88,-234.73 42.88,-234.73 42.88,-71.73 42.88,-71.73 42.88,-65.73 48.88,-59.73 54.88,-59.73"/>
<text text-anchor="middle" x="230.06" y="-233.23" font-family="Helvetica,sans-Serif" font-size="10.00">&lt;body&gt;</text>
</g>
<g id="clust3" class="cluster">
<title>cluster_ri</title>
<path fill="#f0f7ee" stroke="#88bb77" d="M500.25,-75.73C500.25,-75.73 564.75,-75.73 564.75,-75.73 570.75,-75.73 576.75,-81.73 576.75,-87.73 576.75,-87.73 576.75,-158.73 576.75,-158.73 576.75,-164.73 570.75,-170.73 564.75,-170.73 564.75,-170.73 500.25,-170.73 500.25,-170.73 494.25,-170.73 488.25,-164.73 488.25,-158.73 488.25,-158.73 488.25,-87.73 488.25,-87.73 488.25,-81.73 494.25,-75.73 500.25,-75.73"/>
<text text-anchor="middle" x="532.5" y="-157.23" font-family="Helvetica,sans-Serif" font-size="10.00">reading&#45;index</text>
</g>
<!-- query_str -->
<g id="node1" class="node">
<title>query_str</title>
<polygon fill="#fdecea" stroke="none" points="16.5,0 16.5,-41.46 115,-41.46 115,0 16.5,0"/>
<text text-anchor="start" x="21.5" y="-27.96" font-family="Helvetica,sans-Serif" font-weight="bold" font-size="10.00">クエリ A（文字列）</text>
<text text-anchor="start" x="36.5" y="-7.5" font-family="Helvetica,sans-Serif" font-size="10.00">text() = &#39;こえ&#39;</text>
<polygon fill="none" stroke="#cc3333" points="16.5,0 16.5,-41.46 115,-41.46 115,0 16.5,0"/>
</g>
<!-- no_result -->
<g id="node2" class="node">
<title>no_result</title>
<polygon fill="#fdecea" stroke="none" points="348.5,-10.04 348.5,-31.42 373.5,-31.42 373.5,-10.04 348.5,-10.04"/>
<text text-anchor="start" x="353.5" y="-16.92" font-family="Helvetica,sans-Serif" font-size="10.00">0件</text>
<polygon fill="none" stroke="#cc3333" points="348.5,-10.04 348.5,-31.42 373.5,-31.42 373.5,-10.04 348.5,-10.04"/>
</g>
<!-- query_str&#45;&gt;no_result -->
<g id="edge3" class="edge">
<title>query_str&#45;&gt;no_result</title>
<path fill="none" stroke="#cc3333" stroke-width="2" d="M114.85,-20.73C178.17,-20.73 287.11,-20.73 335.55,-20.73"/>
<polygon fill="#cc3333" stroke="#cc3333" stroke-width="2" points="335.5,-24.23 345.5,-20.73 335.5,-17.23 335.5,-24.23"/>
<text text-anchor="middle" x="222.12" y="-22.38" font-family="Helvetica,sans-Serif" font-size="8.00">ミスマッチ（こゑ≠こえ）</text>
</g>
<!-- query_lemma -->
<g id="node3" class="node">
<title>query_lemma</title>
<polygon fill="#fff8e8" stroke="none" points="0,-255 0,-296.46 131.5,-296.46 131.5,-255 0,-255"/>
<text text-anchor="start" x="12.5" y="-282.96" font-family="Helvetica,sans-Serif" font-weight="bold" font-size="10.00">クエリ B（lemmaRef）</text>
<text text-anchor="start" x="5" y="-262.5" font-family="Helvetica,sans-Serif" font-size="10.00">contains(@lemmaRef, &#39;.声&#39;)</text>
<polygon fill="none" stroke="#cc8800" points="0,-255 0,-296.46 131.5,-296.46 131.5,-255 0,-255"/>
</g>
<!-- w1 -->
<g id="node6" class="node">
<title>w1</title>
<polygon fill="#7aaad0" stroke="none" points="312.75,-200.36 312.75,-219.61 409.25,-219.61 409.25,-200.36 312.75,-200.36"/>
<polygon fill="none" stroke="black" points="312.75,-200.36 312.75,-219.61 409.25,-219.61 409.25,-200.36 312.75,-200.36"/>
<text text-anchor="start" x="351.25" y="-207.11" font-family="Helvetica,sans-Serif" font-weight="bold" font-size="10.00">&lt;w&gt;</text>
<polygon fill="none" stroke="black" points="312.75,-181.86 312.75,-200.36 409.25,-200.36 409.25,-181.86 312.75,-181.86"/>
<text text-anchor="start" x="316.75" y="-186.86" font-family="Helvetica,sans-Serif" font-size="10.00">こゑ</text>
<polygon fill="none" stroke="black" points="312.75,-161.86 312.75,-181.86 409.25,-181.86 409.25,-161.86 312.75,-161.86"/>
<text text-anchor="start" x="316.75" y="-168.36" font-family="Helvetica,sans-Serif" font-size="10.00">lemmaRef: #こゑ.声</text>
</g>
<!-- query_lemma&#45;&gt;w1 -->
<g id="edge4" class="edge">
<title>query_lemma&#45;&gt;w1</title>
<path fill="none" stroke="#cc6600" stroke-width="2" d="M131.26,-266.83C190.7,-258.63 269.75,-247.73 269.75,-247.73 269.75,-247.73 285.27,-237.93 303.44,-226.45"/>
<polygon fill="#cc6600" stroke="#cc6600" stroke-width="2" points="305.2,-229.48 311.79,-221.18 301.46,-223.56 305.2,-229.48"/>
</g>
<!-- w2 -->
<g id="node8" class="node">
<title>w2</title>
<polygon fill="#7aaad0" stroke="none" points="312.75,-106.36 312.75,-125.61 409.25,-125.61 409.25,-106.36 312.75,-106.36"/>
<polygon fill="none" stroke="black" points="312.75,-106.36 312.75,-125.61 409.25,-125.61 409.25,-106.36 312.75,-106.36"/>
<text text-anchor="start" x="351.25" y="-113.11" font-family="Helvetica,sans-Serif" font-weight="bold" font-size="10.00">&lt;w&gt;</text>
<polygon fill="none" stroke="black" points="312.75,-87.86 312.75,-106.36 409.25,-106.36 409.25,-87.86 312.75,-87.86"/>
<text text-anchor="start" x="316.75" y="-92.86" font-family="Helvetica,sans-Serif" font-size="10.00">こゑ</text>
<polygon fill="none" stroke="black" points="312.75,-67.86 312.75,-87.86 409.25,-87.86 409.25,-67.86 312.75,-67.86"/>
<text text-anchor="start" x="316.75" y="-74.36" font-family="Helvetica,sans-Serif" font-size="10.00">lemmaRef: #こゑ.声</text>
</g>
<!-- query_lemma&#45;&gt;w2 -->
<g id="edge5" class="edge">
<title>query_lemma&#45;&gt;w2</title>
<path fill="none" stroke="#cc6600" stroke-width="1.5" d="M120.22,-255.08C126.93,-252.49 131.5,-250.73 131.5,-250.73 131.5,-250.73 239.75,-177.77 307.24,-132.29"/>
<polygon fill="#cc6600" stroke="#cc6600" stroke-width="1.5" points="309.07,-135.28 315.41,-126.78 305.16,-129.47 309.07,-135.28"/>
</g>
<!-- e_koe -->
<g id="node4" class="node">
<title>e_koe</title>
<polygon fill="#ccaa44" stroke="none" points="655.75,-123.73 655.75,-142.98 705.75,-142.98 705.75,-123.73 655.75,-123.73"/>
<polygon fill="none" stroke="black" points="655.75,-123.73 655.75,-142.98 705.75,-142.98 705.75,-123.73 655.75,-123.73"/>
<text text-anchor="start" x="663.12" y="-130.48" font-family="Helvetica,sans-Serif" font-weight="bold" font-size="10.00">&lt;entry&gt;</text>
<polygon fill="none" stroke="black" points="655.75,-103.73 655.75,-123.73 705.75,-123.73 705.75,-103.73 655.75,-103.73"/>
<text text-anchor="start" x="659.75" y="-110.23" font-family="Helvetica,sans-Serif" font-size="10.00">xml:id: 声</text>
<polygon fill="none" stroke="black" points="655.75,-84.48 655.75,-103.73 705.75,-103.73 705.75,-84.48 655.75,-84.48"/>
<text text-anchor="start" x="659.75" y="-90.23" font-family="Helvetica,sans-Serif" font-size="10.00">pos: N.g</text>
</g>
<!-- l1 -->
<g id="node5" class="node">
<title>l1</title>
<polygon fill="#7aaad0" stroke="none" points="50.88,-190.73 50.88,-209.98 80.62,-209.98 80.62,-190.73 50.88,-190.73"/>
<polygon fill="none" stroke="black" points="50.88,-190.73 50.88,-209.98 80.62,-209.98 80.62,-190.73 50.88,-190.73"/>
<text text-anchor="start" x="58.25" y="-197.48" font-family="Helvetica,sans-Serif" font-weight="bold" font-size="10.00">&lt;l&gt;</text>
<polygon fill="none" stroke="black" points="50.88,-171.48 50.88,-190.73 80.62,-190.73 80.62,-171.48 50.88,-171.48"/>
<text text-anchor="start" x="54.88" y="-177.23" font-family="Helvetica,sans-Serif" font-size="10.00">n: 14</text>
</g>
<!-- l1&#45;&gt;w1 -->
<g id="edge1" class="edge">
<title>l1&#45;&gt;w1</title>
<path fill="none" stroke="#7aaad0" stroke-width="0.8" stroke-dasharray="5,2" d="M80.5,-190.73C119.46,-190.73 232.29,-190.73 302.11,-190.73"/>
<polygon fill="#7aaad0" stroke="#7aaad0" stroke-width="0.8" points="301.71,-194.23 311.71,-190.73 301.71,-187.23 301.71,-194.23"/>
</g>
<!-- hom_koe -->
<g id="node9" class="node">
<title>hom_koe</title>
<polygon fill="#88bb77" stroke="none" points="496.25,-124.11 496.25,-143.36 568.75,-143.36 568.75,-124.11 496.25,-124.11"/>
<polygon fill="none" stroke="black" points="496.25,-124.11 496.25,-143.36 568.75,-143.36 568.75,-124.11 496.25,-124.11"/>
<text text-anchor="start" x="516" y="-130.86" font-family="Helvetica,sans-Serif" font-weight="bold" font-size="10.00">&lt;hom&gt;</text>
<polygon fill="none" stroke="black" points="496.25,-104.11 496.25,-124.11 568.75,-124.11 568.75,-104.11 496.25,-104.11"/>
<text text-anchor="start" x="500.25" y="-110.61" font-family="Helvetica,sans-Serif" font-size="10.00">xml:id: こゑ.声</text>
<polygon fill="none" stroke="black" points="496.25,-84.11 496.25,-104.11 568.75,-104.11 568.75,-84.11 496.25,-84.11"/>
<text text-anchor="start" x="500.25" y="-90.61" font-family="Helvetica,sans-Serif" font-size="10.00">ref: #声</text>
</g>
<!-- w1&#45;&gt;hom_koe -->
<g id="edge6" class="edge">
<title>w1&#45;&gt;hom_koe</title>
<path fill="none" stroke="#4477bb" stroke-width="2" d="M420.88,-163.98C446.05,-152.55 474.58,-139.59 496.36,-129.69"/>
<polygon fill="#4477bb" stroke="#4477bb" stroke-width="2" points="419.63,-160.71 411.97,-168.03 422.52,-167.08 419.63,-160.71"/>
<text text-anchor="middle" x="440.25" y="-139.24" font-family="Helvetica,sans-Serif" font-size="8.00">lemmaRef</text>
</g>
<!-- l2 -->
<g id="node7" class="node">
<title>l2</title>
<polygon fill="#7aaad0" stroke="none" points="50.88,-96.73 50.88,-115.98 80.62,-115.98 80.62,-96.73 50.88,-96.73"/>
<polygon fill="none" stroke="black" points="50.88,-96.73 50.88,-115.98 80.62,-115.98 80.62,-96.73 50.88,-96.73"/>
<text text-anchor="start" x="58.25" y="-103.48" font-family="Helvetica,sans-Serif" font-weight="bold" font-size="10.00">&lt;l&gt;</text>
<polygon fill="none" stroke="black" points="50.88,-77.48 50.88,-96.73 80.62,-96.73 80.62,-77.48 50.88,-77.48"/>
<text text-anchor="start" x="54.88" y="-83.23" font-family="Helvetica,sans-Serif" font-size="10.00">n: 38</text>
</g>
<!-- l2&#45;&gt;w2 -->
<g id="edge2" class="edge">
<title>l2&#45;&gt;w2</title>
<path fill="none" stroke="#7aaad0" stroke-width="0.8" stroke-dasharray="5,2" d="M80.5,-96.73C119.46,-96.73 232.29,-96.73 302.11,-96.73"/>
<polygon fill="#7aaad0" stroke="#7aaad0" stroke-width="0.8" points="301.71,-100.23 311.71,-96.73 301.71,-93.23 301.71,-100.23"/>
</g>
<!-- w2&#45;&gt;hom_koe -->
<g id="edge7" class="edge">
<title>w2&#45;&gt;hom_koe</title>
<path fill="none" stroke="#4477bb" stroke-width="1.5" d="M421.22,-102.67C446.3,-105.19 474.68,-108.03 496.36,-110.21"/>
<polygon fill="#4477bb" stroke="#4477bb" stroke-width="1.5" points="421.77,-99.21 411.47,-101.69 421.07,-106.17 421.77,-99.21"/>
</g>
<!-- hom_koe&#45;&gt;e_koe -->
<g id="edge8" class="edge">
<title>hom_koe&#45;&gt;e_koe</title>
<path fill="none" stroke="#88bb77" d="M568.53,-113.73C591.56,-113.73 621.58,-113.73 644.63,-113.73"/>
<polygon fill="#88bb77" stroke="#88bb77" points="644.45,-117.23 654.45,-113.73 644.45,-110.23 644.45,-117.23"/>
<text text-anchor="middle" x="601.7" y="-106.13" font-family="Helvetica,sans-Serif" font-size="8.00">ref</text>
</g>
</g>
</svg>
