<?xml version="1.0" encoding="UTF-8" standalone="no"?>
<!DOCTYPE svg PUBLIC "-//W3C//DTD SVG 1.1//EN"
 "http://www.w3.org/Graphics/SVG/1.1/DTD/svg11.dtd">
<!-- Generated by graphviz version 12.2.1 (0)
 -->
<!-- Title: search_kanazukai Pages: 1 -->
<svg width="603pt" height="275pt"
 viewBox="0.00 0.00 602.88 275.00" xmlns="http://www.w3.org/2000/svg" xmlns:xlink="http://www.w3.org/1999/xlink">
<g id="graph0" class="graph" transform="scale(1 1) rotate(0) translate(4 271)">
<title>search_kanazukai</title>
<polygon fill="#faf9f7" stroke="none" points="-4,4 -4,-271 598.88,-271 598.88,4 -4,4"/>
<g id="clust1" class="cluster">
<title>cluster_ri</title>
<path fill="#f0f7ee" stroke="#88bb77" d="M166.38,-109C166.38,-109 429.12,-109 429.12,-109 435.12,-109 441.12,-115 441.12,-121 441.12,-121 441.12,-247 441.12,-247 441.12,-253 435.12,-259 429.12,-259 429.12,-259 166.38,-259 166.38,-259 160.38,-259 154.38,-253 154.38,-247 154.38,-247 154.38,-121 154.38,-121 154.38,-115 160.38,-109 166.38,-109"/>
<text text-anchor="middle" x="297.75" y="-245.5" font-family="Helvetica,sans-Serif" font-size="10.00">reading&#45;index</text>
</g>
<g id="clust2" class="cluster">
<title>cluster_dict</title>
<path fill="#fef9ec" stroke="#ccaa44" d="M523.12,-132C523.12,-132 574.88,-132 574.88,-132 580.88,-132 586.88,-138 586.88,-144 586.88,-144 586.88,-214 586.88,-214 586.88,-220 580.88,-226 574.88,-226 574.88,-226 523.12,-226 523.12,-226 517.12,-226 511.12,-220 511.12,-214 511.12,-214 511.12,-144 511.12,-144 511.12,-138 517.12,-132 523.12,-132"/>
<text text-anchor="middle" x="549" y="-212.5" font-family="Helvetica,sans-Serif" font-size="10.00">dictionary</text>
</g>
<g id="clust3" class="cluster">
<title>cluster_body</title>
<path fill="#eef4fb" stroke="#7aaad0" d="M20,-8C20,-8 251.12,-8 251.12,-8 257.12,-8 263.12,-14 263.12,-20 263.12,-20 263.12,-89 263.12,-89 263.12,-95 257.12,-101 251.12,-101 251.12,-101 20,-101 20,-101 14,-101 8,-95 8,-89 8,-89 8,-20 8,-20 8,-14 14,-8 20,-8"/>
<text text-anchor="middle" x="135.56" y="-87.5" font-family="Helvetica,sans-Serif" font-size="10.00">&lt;body&gt;</text>
</g>
<!-- query -->
<g id="node1" class="node">
<title>query</title>
<polygon fill="#fff8e8" stroke="none" points="13.88,-192.5 13.88,-231.5 53.12,-231.5 53.12,-192.5 13.88,-192.5"/>
<text text-anchor="start" x="18.88" y="-218" font-family="Helvetica,sans-Serif" font-weight="bold" font-size="10.00">クエリ</text>
<text text-anchor="start" x="18.88" y="-198.5" font-family="Helvetica,sans-Serif" font-size="10.00">おぐら</text>
<polygon fill="none" stroke="#cc8800" points="13.88,-192.5 13.88,-231.5 53.12,-231.5 53.12,-192.5 13.88,-192.5"/>
</g>
<!-- ri_o -->
<g id="node2" class="node">
<title>ri_o</title>
<polygon fill="#88bb77" stroke="none" points="162.38,-212.38 162.38,-231.62 231.88,-231.62 231.88,-212.38 162.38,-212.38"/>
<polygon fill="none" stroke="black" points="162.38,-212.38 162.38,-231.62 231.88,-231.62 231.88,-212.38 162.38,-212.38"/>
<text text-anchor="start" x="179.5" y="-219.12" font-family="Helvetica,sans-Serif" font-weight="bold" font-size="10.00">&lt;entry&gt;</text>
<polygon fill="none" stroke="black" points="162.38,-192.38 162.38,-212.38 231.88,-212.38 231.88,-192.38 162.38,-192.38"/>
<text text-anchor="start" x="166.38" y="-198.88" font-family="Helvetica,sans-Serif" font-size="10.00">xml:id: おぐら</text>
</g>
<!-- query&#45;&gt;ri_o -->
<g id="edge4" class="edge">
<title>query&#45;&gt;ri_o</title>
<path fill="none" stroke="#cc6600" stroke-width="2" d="M53.04,-212C76.51,-212 117.75,-212 149.94,-212"/>
<polygon fill="#cc6600" stroke="#cc6600" stroke-width="2" points="149.64,-215.5 159.64,-212 149.64,-208.5 149.64,-215.5"/>
</g>
<!-- hom_o -->
<g id="node3" class="node">
<title>hom_o</title>
<polygon fill="#88bb77" stroke="none" points="341.12,-212.38 341.12,-231.62 433.12,-231.62 433.12,-212.38 341.12,-212.38"/>
<polygon fill="none" stroke="black" points="341.12,-212.38 341.12,-231.62 433.12,-231.62 433.12,-212.38 341.12,-212.38"/>
<text text-anchor="start" x="370.62" y="-219.12" font-family="Helvetica,sans-Serif" font-weight="bold" font-size="10.00">&lt;hom&gt;</text>
<polygon fill="none" stroke="black" points="341.12,-192.38 341.12,-212.38 433.12,-212.38 433.12,-192.38 341.12,-192.38"/>
<text text-anchor="start" x="345.12" y="-198.88" font-family="Helvetica,sans-Serif" font-size="10.00">xml:id: おぐら.小倉</text>
</g>
<!-- ri_o&#45;&gt;hom_o -->
<g id="edge1" class="edge">
<title>ri_o&#45;&gt;hom_o</title>
<path fill="none" stroke="#88bb77" stroke-width="0.8" stroke-dasharray="5,2" d="M231.74,-212C259.04,-212 298.13,-212 330.15,-212"/>
<polygon fill="#88bb77" stroke="#88bb77" stroke-width="0.8" points="329.93,-215.5 339.93,-212 329.93,-208.5 329.93,-215.5"/>
</g>
<!-- e_ogura -->
<g id="node6" class="node">
<title>e_ogura</title>
<polygon fill="#ccaa44" stroke="none" points="519.12,-179 519.12,-198.25 578.88,-198.25 578.88,-179 519.12,-179"/>
<polygon fill="none" stroke="black" points="519.12,-179 519.12,-198.25 578.88,-198.25 578.88,-179 519.12,-179"/>
<text text-anchor="start" x="531.38" y="-185.75" font-family="Helvetica,sans-Serif" font-weight="bold" font-size="10.00">&lt;entry&gt;</text>
<polygon fill="none" stroke="black" points="519.12,-159 519.12,-179 578.88,-179 578.88,-159 519.12,-159"/>
<text text-anchor="start" x="523.12" y="-165.5" font-family="Helvetica,sans-Serif" font-size="10.00">xml:id: 小倉</text>
<polygon fill="none" stroke="black" points="519.12,-139.75 519.12,-159 578.88,-159 578.88,-139.75 519.12,-139.75"/>
<text text-anchor="start" x="523.12" y="-145.5" font-family="Helvetica,sans-Serif" font-size="10.00">pos: N.p</text>
</g>
<!-- hom_o&#45;&gt;e_ogura -->
<g id="edge5" class="edge">
<title>hom_o&#45;&gt;e_ogura</title>
<path fill="none" stroke="#cc6600" stroke-width="2" d="M433.08,-199.91C456.35,-193.65 484.55,-186.07 507.19,-179.98"/>
<polygon fill="#cc6600" stroke="#cc6600" stroke-width="2" points="507.79,-183.44 516.54,-177.46 505.97,-176.68 507.79,-183.44"/>
<text text-anchor="middle" x="465.26" y="-182.34" font-family="Helvetica,sans-Serif" font-size="8.00">ref</text>
</g>
<!-- ri_wo -->
<g id="node4" class="node">
<title>ri_wo</title>
<polygon fill="#88bb77" stroke="none" points="162.38,-137.38 162.38,-156.62 231.88,-156.62 231.88,-137.38 162.38,-137.38"/>
<polygon fill="none" stroke="black" points="162.38,-137.38 162.38,-156.62 231.88,-156.62 231.88,-137.38 162.38,-137.38"/>
<text text-anchor="start" x="179.5" y="-144.12" font-family="Helvetica,sans-Serif" font-weight="bold" font-size="10.00">&lt;entry&gt;</text>
<polygon fill="none" stroke="black" points="162.38,-117.38 162.38,-137.38 231.88,-137.38 231.88,-117.38 162.38,-117.38"/>
<text text-anchor="start" x="166.38" y="-123.88" font-family="Helvetica,sans-Serif" font-size="10.00">xml:id: をぐら</text>
</g>
<!-- hom_wo -->
<g id="node5" class="node">
<title>hom_wo</title>
<polygon fill="#88bb77" stroke="none" points="341.12,-137.38 341.12,-156.62 433.12,-156.62 433.12,-137.38 341.12,-137.38"/>
<polygon fill="none" stroke="black" points="341.12,-137.38 341.12,-156.62 433.12,-156.62 433.12,-137.38 341.12,-137.38"/>
<text text-anchor="start" x="370.62" y="-144.12" font-family="Helvetica,sans-Serif" font-weight="bold" font-size="10.00">&lt;hom&gt;</text>
<polygon fill="none" stroke="black" points="341.12,-117.38 341.12,-137.38 433.12,-137.38 433.12,-117.38 341.12,-117.38"/>
<text text-anchor="start" x="345.12" y="-123.88" font-family="Helvetica,sans-Serif" font-size="10.00">xml:id: をぐら.小倉</text>
</g>
<!-- ri_wo&#45;&gt;hom_wo -->
<g id="edge2" class="edge">
<title>ri_wo&#45;&gt;hom_wo</title>
<path fill="none" stroke="#88bb77" stroke-width="0.8" stroke-dasharray="5,2" d="M231.74,-137C259.04,-137 298.13,-137 330.15,-137"/>
<polygon fill="#88bb77" stroke="#88bb77" stroke-width="0.8" points="329.93,-140.5 339.93,-137 329.93,-133.5 329.93,-140.5"/>
</g>
<!-- hom_wo&#45;&gt;e_ogura -->
<g id="edge6" class="edge">
<title>hom_wo&#45;&gt;e_ogura</title>
<path fill="none" stroke="#cc6600" stroke-width="1.5" d="M433.08,-146C456.46,-150.68 484.81,-156.35 507.5,-160.89"/>
<polygon fill="#cc6600" stroke="#cc6600" stroke-width="1.5" points="506.74,-164.31 517.23,-162.84 508.12,-157.45 506.74,-164.31"/>
<text text-anchor="middle" x="465.42" y="-145.85" font-family="Helvetica,sans-Serif" font-size="8.00">ref</text>
</g>
<!-- l1 -->
<g id="node7" class="node">
<title>l1</title>
<polygon fill="#7aaad0" stroke="none" points="16,-45 16,-64.25 51,-64.25 51,-45 16,-45"/>
<polygon fill="none" stroke="black" points="16,-45 16,-64.25 51,-64.25 51,-45 16,-45"/>
<text text-anchor="start" x="26" y="-51.75" font-family="Helvetica,sans-Serif" font-weight="bold" font-size="10.00">&lt;l&gt;</text>
<polygon fill="none" stroke="black" points="16,-25.75 16,-45 51,-45 51,-25.75 16,-25.75"/>
<text text-anchor="start" x="20" y="-31.5" font-family="Helvetica,sans-Serif" font-size="10.00">n: 312</text>
</g>
<!-- w1 -->
<g id="node8" class="node">
<title>w1</title>
<polygon fill="#7aaad0" stroke="none" points="139.12,-54.62 139.12,-73.88 255.12,-73.88 255.12,-54.62 139.12,-54.62"/>
<polygon fill="none" stroke="black" points="139.12,-54.62 139.12,-73.88 255.12,-73.88 255.12,-54.62 139.12,-54.62"/>
<text text-anchor="start" x="187.38" y="-61.38" font-family="Helvetica,sans-Serif" font-weight="bold" font-size="10.00">&lt;w&gt;</text>
<polygon fill="none" stroke="black" points="139.12,-36.12 139.12,-54.62 255.12,-54.62 255.12,-36.12 139.12,-36.12"/>
<text text-anchor="start" x="143.12" y="-41.12" font-family="Helvetica,sans-Serif" font-size="10.00">をくら</text>
<polygon fill="none" stroke="black" points="139.12,-16.12 139.12,-36.12 255.12,-36.12 255.12,-16.12 139.12,-16.12"/>
<text text-anchor="start" x="143.12" y="-22.62" font-family="Helvetica,sans-Serif" font-size="10.00">lemmaRef: #をぐら.小倉</text>
</g>
<!-- l1&#45;&gt;w1 -->
<g id="edge3" class="edge">
<title>l1&#45;&gt;w1</title>
<path fill="none" stroke="#7aaad0" stroke-width="0.8" stroke-dasharray="5,2" d="M50.89,-45C69.1,-45 99.69,-45 128.11,-45"/>
<polygon fill="#7aaad0" stroke="#7aaad0" stroke-width="0.8" points="128.07,-48.5 138.07,-45 128.07,-41.5 128.07,-48.5"/>
</g>
<!-- w1&#45;&gt;hom_wo -->
<g id="edge7" class="edge">
<title>w1&#45;&gt;hom_wo</title>
<path fill="none" stroke="#4477bb" stroke-width="2" d="M266.67,-78.54C293.36,-91.6 323.01,-106.11 346.1,-117.41"/>
<polygon fill="#4477bb" stroke="#4477bb" stroke-width="2" points="268.28,-75.44 257.76,-74.18 265.2,-81.72 268.28,-75.44"/>
<text text-anchor="middle" x="288.01" y="-90.38" font-family="Helvetica,sans-Serif" font-size="8.00">lemmaRef</text>
</g>
</g>
</svg>
