<?xml version="1.0" encoding="UTF-8" standalone="no"?>
<!DOCTYPE svg PUBLIC "-//W3C//DTD SVG 1.1//EN"
 "http://www.w3.org/Graphics/SVG/1.1/DTD/svg11.dtd">
<!-- Generated by graphviz version 12.2.1 (0)
 -->
<!-- Title: search_monona Pages: 1 -->
<svg width="503pt" height="420pt"
 viewBox="0.00 0.00 502.50 419.50" xmlns="http://www.w3.org/2000/svg" xmlns:xlink="http://www.w3.org/1999/xlink">
<g id="graph0" class="graph" transform="scale(1 1) rotate(0) translate(4 415.5)">
<title>search_monona</title>
<polygon fill="#faf9f7" stroke="none" points="-4,4 -4,-415.5 498.5,-415.5 498.5,4 -4,4"/>
<g id="clust1" class="cluster">
<title>cluster_body</title>
<path fill="#eef4fb" stroke="#7aaad0" d="M30.5,-8C30.5,-8 474.5,-8 474.5,-8 480.5,-8 486.5,-14 486.5,-20 486.5,-20 486.5,-352 486.5,-352 486.5,-358 480.5,-364 474.5,-364 474.5,-364 30.5,-364 30.5,-364 24.5,-364 18.5,-358 18.5,-352 18.5,-352 18.5,-20 18.5,-20 18.5,-14 24.5,-8 30.5,-8"/>
<text text-anchor="middle" x="252.5" y="-350.5" font-family="Helvetica,sans-Serif" font-size="10.00">&lt;body&gt;</text>
</g>
<!-- query -->
<g id="node1" class="node">
<title>query</title>
<polygon fill="#fff8e8" stroke="none" points="0,-372.5 0,-411.5 88,-411.5 88,-372.5 0,-372.5"/>
<text text-anchor="start" x="5" y="-398" font-family="Helvetica,sans-Serif" font-weight="bold" font-size="10.00">クエリ（文字列）</text>
<text text-anchor="start" x="24.5" y="-378.5" font-family="Helvetica,sans-Serif" font-size="10.00">うくひす</text>
<polygon fill="none" stroke="#cc8800" points="0,-372.5 0,-411.5 88,-411.5 88,-372.5 0,-372.5"/>
</g>
<!-- b_seg -->
<g id="node3" class="node">
<title>b_seg</title>
<polygon fill="#7aaad0" stroke="none" points="174,-233.38 174,-252.62 286.25,-252.62 286.25,-233.38 174,-233.38"/>
<polygon fill="none" stroke="black" points="174,-233.38 174,-252.62 286.25,-252.62 286.25,-233.38 174,-233.38"/>
<text text-anchor="start" x="215.88" y="-240.12" font-family="Helvetica,sans-Serif" font-weight="bold" font-size="10.00">&lt;seg&gt;</text>
<polygon fill="none" stroke="black" points="174,-213.38 174,-233.38 286.25,-233.38 286.25,-213.38 174,-213.38"/>
<text text-anchor="start" x="178" y="-219.88" font-family="Helvetica,sans-Serif" font-size="10.00">string(): うくひすとのみ</text>
</g>
<!-- query&#45;&gt;b_seg -->
<g id="edge6" class="edge">
<title>query&#45;&gt;b_seg</title>
<path fill="none" stroke="#cc6600" stroke-width="2" d="M81.28,-372.59C85.31,-370.44 88,-369 88,-369 88,-369 158.18,-301.37 199.56,-261.49"/>
<polygon fill="#cc6600" stroke="#cc6600" stroke-width="2" points="201.95,-264.05 206.73,-254.59 197.1,-259 201.95,-264.05"/>
<text text-anchor="middle" x="103.16" y="-310.29" font-family="Helvetica,sans-Serif" font-size="8.00">contains(string(.), …)</text>
</g>
<!-- b_l -->
<g id="node2" class="node">
<title>b_l</title>
<polygon fill="#7aaad0" stroke="none" points="26.5,-233 26.5,-252.25 61.5,-252.25 61.5,-233 26.5,-233"/>
<polygon fill="none" stroke="black" points="26.5,-233 26.5,-252.25 61.5,-252.25 61.5,-233 26.5,-233"/>
<text text-anchor="start" x="36.5" y="-239.75" font-family="Helvetica,sans-Serif" font-weight="bold" font-size="10.00">&lt;l&gt;</text>
<polygon fill="none" stroke="black" points="26.5,-213.75 26.5,-233 61.5,-233 61.5,-213.75 26.5,-213.75"/>
<text text-anchor="start" x="30.5" y="-219.5" font-family="Helvetica,sans-Serif" font-size="10.00">n: 422</text>
</g>
<!-- b_l&#45;&gt;b_seg -->
<g id="edge1" class="edge">
<title>b_l&#45;&gt;b_seg</title>
<path fill="none" stroke="#7aaad0" stroke-width="0.8" stroke-dasharray="5,2" d="M61.34,-233C84.07,-233 126.57,-233 163.1,-233"/>
<polygon fill="#7aaad0" stroke="#7aaad0" stroke-width="0.8" points="163.01,-236.5 173.01,-233 163.01,-229.5 163.01,-236.5"/>
</g>
<!-- w_uku -->
<g id="node4" class="node">
<title>w_uku</title>
<polygon fill="#7aaad0" stroke="none" points="372.25,-54.62 372.25,-73.88 478.5,-73.88 478.5,-54.62 372.25,-54.62"/>
<polygon fill="none" stroke="black" points="372.25,-54.62 372.25,-73.88 478.5,-73.88 478.5,-54.62 372.25,-54.62"/>
<text text-anchor="start" x="415.62" y="-61.38" font-family="Helvetica,sans-Serif" font-weight="bold" font-size="10.00">&lt;w&gt;</text>
<polygon fill="none" stroke="black" points="372.25,-36.12 372.25,-54.62 478.5,-54.62 478.5,-36.12 372.25,-36.12"/>
<text text-anchor="start" x="376.25" y="-41.12" font-family="Helvetica,sans-Serif" font-size="10.00">うく</text>
<polygon fill="none" stroke="black" points="372.25,-16.12 372.25,-36.12 478.5,-36.12 478.5,-16.12 372.25,-16.12"/>
<text text-anchor="start" x="376.25" y="-22.62" font-family="Helvetica,sans-Serif" font-size="10.00">lemmaRef: #うく.憂し</text>
</g>
<!-- b_seg&#45;&gt;w_uku -->
<g id="edge2" class="edge">
<title>b_seg&#45;&gt;w_uku</title>
<path fill="none" stroke="#7aaad0" stroke-width="0.8" stroke-dasharray="5,2" d="M250.75,-213.39C289.53,-174.65 372.25,-92 372.25,-92 372.25,-92 377.35,-87.4 384.35,-81.09"/>
<polygon fill="#7aaad0" stroke="#7aaad0" stroke-width="0.8" points="386.57,-83.8 391.65,-74.5 381.88,-78.6 386.57,-83.8"/>
</g>
<!-- w_hi -->
<g id="node5" class="node">
<title>w_hi</title>
<polygon fill="#7aaad0" stroke="none" points="377.12,-148.62 377.12,-167.88 473.62,-167.88 473.62,-148.62 377.12,-148.62"/>
<polygon fill="none" stroke="black" points="377.12,-148.62 377.12,-167.88 473.62,-167.88 473.62,-148.62 377.12,-148.62"/>
<text text-anchor="start" x="415.62" y="-155.38" font-family="Helvetica,sans-Serif" font-weight="bold" font-size="10.00">&lt;w&gt;</text>
<polygon fill="none" stroke="black" points="377.12,-130.12 377.12,-148.62 473.62,-148.62 473.62,-130.12 377.12,-130.12"/>
<text text-anchor="start" x="381.12" y="-135.12" font-family="Helvetica,sans-Serif" font-size="10.00">ひ</text>
<polygon fill="none" stroke="black" points="377.12,-110.12 377.12,-130.12 473.62,-130.12 473.62,-110.12 377.12,-110.12"/>
<text text-anchor="start" x="381.12" y="-116.62" font-family="Helvetica,sans-Serif" font-size="10.00">lemmaRef: #ひ.干る</text>
</g>
<!-- b_seg&#45;&gt;w_hi -->
<g id="edge3" class="edge">
<title>b_seg&#45;&gt;w_hi</title>
<path fill="none" stroke="#7aaad0" stroke-width="0.8" stroke-dasharray="5,2" d="M271.17,-213.52C299,-199.98 336.5,-181.74 367.44,-166.7"/>
<polygon fill="#7aaad0" stroke="#7aaad0" stroke-width="0.8" points="368.68,-169.98 376.14,-162.46 365.62,-163.69 368.68,-169.98"/>
</g>
<!-- w_su -->
<g id="node6" class="node">
<title>w_su</title>
<polygon fill="#7aaad0" stroke="none" points="382,-242.62 382,-261.88 468.75,-261.88 468.75,-242.62 382,-242.62"/>
<polygon fill="none" stroke="black" points="382,-242.62 382,-261.88 468.75,-261.88 468.75,-242.62 382,-242.62"/>
<text text-anchor="start" x="415.62" y="-249.38" font-family="Helvetica,sans-Serif" font-weight="bold" font-size="10.00">&lt;w&gt;</text>
<polygon fill="none" stroke="black" points="382,-224.12 382,-242.62 468.75,-242.62 468.75,-224.12 382,-224.12"/>
<text text-anchor="start" x="386" y="-229.12" font-family="Helvetica,sans-Serif" font-size="10.00">す</text>
<polygon fill="none" stroke="black" points="382,-204.12 382,-224.12 468.75,-224.12 468.75,-204.12 382,-204.12"/>
<text text-anchor="start" x="386" y="-210.62" font-family="Helvetica,sans-Serif" font-size="10.00">lemmaRef: #ず.ず</text>
</g>
<!-- b_seg&#45;&gt;w_su -->
<g id="edge4" class="edge">
<title>b_seg&#45;&gt;w_su</title>
<path fill="none" stroke="#7aaad0" stroke-width="0.8" stroke-dasharray="5,2" d="M286.24,-233C312.89,-233 344.74,-233 371.14,-233"/>
<polygon fill="#7aaad0" stroke="#7aaad0" stroke-width="0.8" points="370.88,-236.5 380.88,-233 370.88,-229.5 370.88,-236.5"/>
</g>
<!-- w_to -->
<g id="node7" class="node">
<title>w_to</title>
<polygon fill="#7aaad0" stroke="none" points="401.88,-317.06 401.88,-336.31 448.88,-336.31 448.88,-317.06 401.88,-317.06"/>
<polygon fill="none" stroke="black" points="401.88,-317.06 401.88,-336.31 448.88,-336.31 448.88,-317.06 401.88,-317.06"/>
<text text-anchor="start" x="415.62" y="-323.81" font-family="Helvetica,sans-Serif" font-weight="bold" font-size="10.00">&lt;w&gt;</text>
<polygon fill="none" stroke="black" points="401.88,-297.69 401.88,-317.06 448.88,-317.06 448.88,-297.69 401.88,-297.69"/>
<text text-anchor="start" x="405.88" y="-303.56" font-family="Helvetica,sans-Serif" font-size="10.00">とのみ…</text>
</g>
<!-- b_seg&#45;&gt;w_to -->
<g id="edge5" class="edge">
<title>b_seg&#45;&gt;w_to</title>
<path fill="none" stroke="#7aaad0" stroke-width="0.8" stroke-dasharray="5,2" d="M275.95,-252.48C311.41,-267.9 360.09,-289.06 391.88,-302.88"/>
<polygon fill="#7aaad0" stroke="#7aaad0" stroke-width="0.8" points="390.29,-306 400.86,-306.78 393.08,-299.58 390.29,-306"/>
</g>
</g>
</svg>
