<?xml version="1.0" encoding="UTF-8" standalone="no"?>
<!DOCTYPE svg PUBLIC "-//W3C//DTD SVG 1.1//EN"
 "http://www.w3.org/Graphics/SVG/1.1/DTD/svg11.dtd">
<!-- Generated by graphviz version 12.2.1 (0)
 -->
<!-- Title: search_uguisu Pages: 1 -->
<svg width="952pt" height="483pt"
 viewBox="0.00 0.00 951.50 483.00" xmlns="http://www.w3.org/2000/svg" xmlns:xlink="http://www.w3.org/1999/xlink">
<g id="graph0" class="graph" transform="scale(1 1) rotate(0) translate(4 479)">
<title>search_uguisu</title>
<polygon fill="#faf9f7" stroke="none" points="-4,4 -4,-479 947.5,-479 947.5,4 -4,4"/>
<g id="clust1" class="cluster">
<title>cluster_ri</title>
<path fill="#f0f7ee" stroke="#88bb77" d="M157.38,-282C157.38,-282 461.38,-282 461.38,-282 467.38,-282 473.38,-288 473.38,-294 473.38,-294 473.38,-345 473.38,-345 473.38,-351 467.38,-357 461.38,-357 461.38,-357 157.38,-357 157.38,-357 151.38,-357 145.38,-351 145.38,-345 145.38,-345 145.38,-294 145.38,-294 145.38,-288 151.38,-282 157.38,-282"/>
<text text-anchor="middle" x="309.38" y="-343.5" font-family="Helvetica,sans-Serif" font-size="10.00">reading&#45;index</text>
</g>
<g id="clust2" class="cluster">
<title>cluster_dict</title>
<path fill="#fef9ec" stroke="#ccaa44" d="M591.75,-183C591.75,-183 729,-183 729,-183 735,-183 741,-189 741,-195 741,-195 741,-455 741,-455 741,-461 735,-467 729,-467 729,-467 591.75,-467 591.75,-467 585.75,-467 579.75,-461 579.75,-455 579.75,-455 579.75,-195 579.75,-195 579.75,-189 585.75,-183 591.75,-183"/>
<text text-anchor="middle" x="660.38" y="-453.5" font-family="Helvetica,sans-Serif" font-size="10.00">dictionary</text>
</g>
<g id="clust3" class="cluster">
<title>cluster_cls</title>
<path fill="#fdf0f0" stroke="#cc8888" d="M823,-278C823,-278 923.5,-278 923.5,-278 929.5,-278 935.5,-284 935.5,-290 935.5,-290 935.5,-360 935.5,-360 935.5,-366 929.5,-372 923.5,-372 923.5,-372 823,-372 823,-372 817,-372 811,-366 811,-360 811,-360 811,-290 811,-290 811,-284 817,-278 823,-278"/>
<text text-anchor="middle" x="873.25" y="-358.5" font-family="Helvetica,sans-Serif" font-size="10.00">classification</text>
</g>
<g id="clust4" class="cluster">
<title>cluster_body</title>
<path fill="#eef4fb" stroke="#7aaad0" d="M139,-8C139,-8 673.88,-8 673.88,-8 679.88,-8 685.88,-14 685.88,-20 685.88,-20 685.88,-163 685.88,-163 685.88,-169 679.88,-175 673.88,-175 673.88,-175 139,-175 139,-175 133,-175 127,-169 127,-163 127,-163 127,-20 127,-20 127,-14 133,-8 139,-8"/>
<text text-anchor="middle" x="406.44" y="-161.5" font-family="Helvetica,sans-Serif" font-size="10.00">&lt;body&gt;</text>
</g>
<!-- query -->
<g id="node1" class="node">
<title>query</title>
<polygon fill="#fff8e8" stroke="none" points="0,-290.5 0,-329.5 49,-329.5 49,-290.5 0,-290.5"/>
<text text-anchor="start" x="9.88" y="-316" font-family="Helvetica,sans-Serif" font-weight="bold" font-size="10.00">クエリ</text>
<text text-anchor="start" x="5" y="-296.5" font-family="Helvetica,sans-Serif" font-size="10.00">うぐひす</text>
<polygon fill="none" stroke="#cc8800" points="0,-290.5 0,-329.5 49,-329.5 49,-290.5 0,-290.5"/>
</g>
<!-- ri_e -->
<g id="node2" class="node">
<title>ri_e</title>
<polygon fill="#88bb77" stroke="none" points="153.38,-310.38 153.38,-329.62 232.62,-329.62 232.62,-310.38 153.38,-310.38"/>
<polygon fill="none" stroke="black" points="153.38,-310.38 153.38,-329.62 232.62,-329.62 232.62,-310.38 153.38,-310.38"/>
<text text-anchor="start" x="175.38" y="-317.12" font-family="Helvetica,sans-Serif" font-weight="bold" font-size="10.00">&lt;entry&gt;</text>
<polygon fill="none" stroke="black" points="153.38,-290.38 153.38,-310.38 232.62,-310.38 232.62,-290.38 153.38,-290.38"/>
<text text-anchor="start" x="157.38" y="-296.88" font-family="Helvetica,sans-Serif" font-size="10.00">xml:id: うぐひす</text>
</g>
<!-- query&#45;&gt;ri_e -->
<g id="edge4" class="edge">
<title>query&#45;&gt;ri_e</title>
<path fill="none" stroke="#cc6600" stroke-width="2" d="M48.65,-310C72.34,-310 109.93,-310 140.68,-310"/>
<polygon fill="#cc6600" stroke="#cc6600" stroke-width="2" points="140.35,-313.5 150.35,-310 140.35,-306.5 140.35,-313.5"/>
</g>
<!-- hom1 -->
<g id="node3" class="node">
<title>hom1</title>
<polygon fill="#88bb77" stroke="none" points="373.38,-310.38 373.38,-329.62 465.38,-329.62 465.38,-310.38 373.38,-310.38"/>
<polygon fill="none" stroke="black" points="373.38,-310.38 373.38,-329.62 465.38,-329.62 465.38,-310.38 373.38,-310.38"/>
<text text-anchor="start" x="402.88" y="-317.12" font-family="Helvetica,sans-Serif" font-weight="bold" font-size="10.00">&lt;hom&gt;</text>
<polygon fill="none" stroke="black" points="373.38,-290.38 373.38,-310.38 465.38,-310.38 465.38,-290.38 373.38,-290.38"/>
<text text-anchor="start" x="377.38" y="-296.88" font-family="Helvetica,sans-Serif" font-size="10.00">xml:id: うぐひす.鴬</text>
</g>
<!-- ri_e&#45;&gt;hom1 -->
<g id="edge1" class="edge">
<title>ri_e&#45;&gt;hom1</title>
<path fill="none" stroke="#88bb77" stroke-width="0.8" stroke-dasharray="5,2" d="M232.57,-310C268.42,-310 322.22,-310 362.72,-310"/>
<polygon fill="#88bb77" stroke="#88bb77" stroke-width="0.8" points="362.55,-313.5 372.55,-310 362.55,-306.5 362.55,-313.5"/>
</g>
<!-- e1 -->
<g id="node4" class="node">
<title>e1</title>
<polygon fill="#ccaa44" stroke="none" points="587.75,-420 587.75,-439.25 733,-439.25 733,-420 587.75,-420"/>
<polygon fill="none" stroke="black" points="587.75,-420 587.75,-439.25 733,-439.25 733,-420 587.75,-420"/>
<text text-anchor="start" x="642.75" y="-426.75" font-family="Helvetica,sans-Serif" font-weight="bold" font-size="10.00">&lt;entry&gt;</text>
<polygon fill="none" stroke="black" points="587.75,-400 587.75,-420 733,-420 733,-400 587.75,-400"/>
<text text-anchor="start" x="591.75" y="-406.5" font-family="Helvetica,sans-Serif" font-size="10.00">xml:id: 鴬</text>
<polygon fill="#e8cc88" stroke="none" points="587.75,-380.75 587.75,-400 733,-400 733,-380.75 587.75,-380.75"/>
<polygon fill="none" stroke="black" points="587.75,-380.75 587.75,-400 733,-400 733,-380.75 587.75,-380.75"/>
<text text-anchor="start" x="591.75" y="-387.5" font-family="Helvetica,sans-Serif" font-weight="bold" font-size="10.00">&lt;sense&gt;</text>
<text text-anchor="start" x="630.75" y="-387.5" font-family="Helvetica,sans-Serif" font-size="10.00"> ana: #WLSPH.1.5620</text>
</g>
<!-- hom1&#45;&gt;e1 -->
<g id="edge5" class="edge">
<title>hom1&#45;&gt;e1</title>
<path fill="none" stroke="#cc6600" stroke-width="2" d="M465.33,-328.81C496.93,-342.03 540.11,-360.1 577.72,-375.83"/>
<polygon fill="#cc6600" stroke="#cc6600" stroke-width="2" points="576.34,-379.05 586.92,-379.68 579.05,-372.6 576.34,-379.05"/>
<text text-anchor="middle" x="516.65" y="-344.72" font-family="Helvetica,sans-Serif" font-size="8.00">ref</text>
</g>
<!-- wlsph -->
<g id="node7" class="node">
<title>wlsph</title>
<polygon fill="#cc8888" stroke="none" points="819,-325 819,-344.25 927.5,-344.25 927.5,-325 819,-325"/>
<polygon fill="none" stroke="black" points="819,-325 819,-344.25 927.5,-344.25 927.5,-325 819,-325"/>
<text text-anchor="start" x="857.12" y="-331.75" font-family="Helvetica,sans-Serif" font-weight="bold" font-size="10.00">&lt;item&gt;</text>
<polygon fill="none" stroke="black" points="819,-305.75 819,-325 927.5,-325 927.5,-305.75 819,-305.75"/>
<text text-anchor="start" x="823" y="-311.5" font-family="Helvetica,sans-Serif" font-size="10.00">xml:id: WLSPH.1.5620</text>
<polygon fill="none" stroke="black" points="819,-285.75 819,-305.75 927.5,-305.75 927.5,-285.75 819,-285.75"/>
<text text-anchor="start" x="823" y="-292.25" font-family="Helvetica,sans-Serif" font-size="10.00">desc: 体&#45;…&#45;動物&#45;鳥</text>
</g>
<!-- e1&#45;&gt;wlsph -->
<g id="edge6" class="edge">
<title>e1&#45;&gt;wlsph</title>
<path fill="none" stroke="#cc6600" stroke-width="2" d="M726.08,-380.85C751.91,-369.22 781.59,-355.84 807.43,-344.2"/>
<polygon fill="#cc6600" stroke="#cc6600" stroke-width="2" points="808.56,-347.53 816.24,-340.23 805.69,-341.15 808.56,-347.53"/>
<text text-anchor="middle" x="748.38" y="-354.93" font-family="Helvetica,sans-Serif" font-size="8.00">sense/ana</text>
</g>
<!-- e2 -->
<g id="node5" class="node">
<title>e2</title>
<polygon fill="#ccaa44" stroke="none" points="587.75,-325 587.75,-344.25 733,-344.25 733,-325 587.75,-325"/>
<polygon fill="none" stroke="black" points="587.75,-325 587.75,-344.25 733,-344.25 733,-325 587.75,-325"/>
<text text-anchor="start" x="642.75" y="-331.75" font-family="Helvetica,sans-Serif" font-weight="bold" font-size="10.00">&lt;entry&gt;</text>
<polygon fill="none" stroke="black" points="587.75,-305 587.75,-325 733,-325 733,-305 587.75,-305"/>
<text text-anchor="start" x="591.75" y="-311.5" font-family="Helvetica,sans-Serif" font-size="10.00">xml:id: 鶯</text>
<polygon fill="#e8cc88" stroke="none" points="587.75,-285.75 587.75,-305 733,-305 733,-285.75 587.75,-285.75"/>
<polygon fill="none" stroke="black" points="587.75,-285.75 587.75,-305 733,-305 733,-285.75 587.75,-285.75"/>
<text text-anchor="start" x="591.75" y="-292.5" font-family="Helvetica,sans-Serif" font-weight="bold" font-size="10.00">&lt;sense&gt;</text>
<text text-anchor="start" x="630.75" y="-292.5" font-family="Helvetica,sans-Serif" font-size="10.00"> ana: #WLSPH.1.5620</text>
</g>
<!-- e2&#45;&gt;wlsph -->
<g id="edge7" class="edge">
<title>e2&#45;&gt;wlsph</title>
<path fill="none" stroke="#cc6600" stroke-width="1.5" d="M732.77,-315C756.88,-315 783.66,-315 807.25,-315"/>
<polygon fill="#cc6600" stroke="#cc6600" stroke-width="1.5" points="807,-318.5 817,-315 807,-311.5 807,-318.5"/>
</g>
<!-- e3 -->
<g id="node6" class="node">
<title>e3</title>
<polygon fill="#ccaa44" stroke="none" points="587.75,-230 587.75,-249.25 733,-249.25 733,-230 587.75,-230"/>
<polygon fill="none" stroke="black" points="587.75,-230 587.75,-249.25 733,-249.25 733,-230 587.75,-230"/>
<text text-anchor="start" x="642.75" y="-236.75" font-family="Helvetica,sans-Serif" font-weight="bold" font-size="10.00">&lt;entry&gt;</text>
<polygon fill="none" stroke="black" points="587.75,-210 587.75,-230 733,-230 733,-210 587.75,-210"/>
<text text-anchor="start" x="591.75" y="-216.5" font-family="Helvetica,sans-Serif" font-size="10.00">xml:id: ほととぎす</text>
<polygon fill="#e8cc88" stroke="none" points="587.75,-190.75 587.75,-210 733,-210 733,-190.75 587.75,-190.75"/>
<polygon fill="none" stroke="black" points="587.75,-190.75 587.75,-210 733,-210 733,-190.75 587.75,-190.75"/>
<text text-anchor="start" x="591.75" y="-197.5" font-family="Helvetica,sans-Serif" font-weight="bold" font-size="10.00">&lt;sense&gt;</text>
<text text-anchor="start" x="630.75" y="-197.5" font-family="Helvetica,sans-Serif" font-size="10.00"> ana: #WLSPH.1.5620</text>
</g>
<!-- e3&#45;&gt;wlsph -->
<g id="edge8" class="edge">
<title>e3&#45;&gt;wlsph</title>
<path fill="none" stroke="#cc6600" stroke-width="1.5" d="M726.08,-249.15C752.14,-260.89 782.12,-274.4 808.12,-286.11"/>
<polygon fill="#cc6600" stroke="#cc6600" stroke-width="1.5" points="806.37,-289.16 816.93,-290.08 809.25,-282.78 806.37,-289.16"/>
</g>
<!-- l1 -->
<g id="node8" class="node">
<title>l1</title>
<polygon fill="#7aaad0" stroke="none" points="404.5,-35 404.5,-54.25 434.25,-54.25 434.25,-35 404.5,-35"/>
<polygon fill="none" stroke="black" points="404.5,-35 404.5,-54.25 434.25,-54.25 434.25,-35 404.5,-35"/>
<text text-anchor="start" x="411.88" y="-41.75" font-family="Helvetica,sans-Serif" font-weight="bold" font-size="10.00">&lt;l&gt;</text>
<polygon fill="none" stroke="black" points="404.5,-15.75 404.5,-35 434.25,-35 434.25,-15.75 404.5,-15.75"/>
<text text-anchor="start" x="408.5" y="-21.5" font-family="Helvetica,sans-Serif" font-size="10.00">n: 12</text>
</g>
<!-- w1 -->
<g id="node9" class="node">
<title>w1</title>
<polygon fill="#7aaad0" stroke="none" points="135,-54.62 135,-73.88 251,-73.88 251,-54.62 135,-54.62"/>
<polygon fill="none" stroke="black" points="135,-54.62 135,-73.88 251,-73.88 251,-54.62 135,-54.62"/>
<text text-anchor="start" x="183.25" y="-61.38" font-family="Helvetica,sans-Serif" font-weight="bold" font-size="10.00">&lt;w&gt;</text>
<polygon fill="none" stroke="black" points="135,-36.12 135,-54.62 251,-54.62 251,-36.12 135,-36.12"/>
<text text-anchor="start" x="139" y="-41.12" font-family="Helvetica,sans-Serif" font-size="10.00">うぐひす</text>
<polygon fill="none" stroke="black" points="135,-16.12 135,-36.12 251,-36.12 251,-16.12 135,-16.12"/>
<text text-anchor="start" x="139" y="-22.62" font-family="Helvetica,sans-Serif" font-size="10.00">lemmaRef: #うぐひす.鴬</text>
</g>
<!-- w1&#45;&gt;hom1 -->
<g id="edge9" class="edge">
<title>w1&#45;&gt;hom1</title>
<path fill="none" stroke="#4477bb" stroke-width="2" d="M226.74,-83.67C275.39,-141.12 364.98,-246.94 401.86,-290.49"/>
<polygon fill="#4477bb" stroke="#4477bb" stroke-width="2" points="229.53,-81.54 220.4,-76.17 224.19,-86.07 229.53,-81.54"/>
<text text-anchor="middle" x="295.92" y="-179.48" font-family="Helvetica,sans-Serif" font-size="8.00">lemmaRef</text>
</g>
<!-- w1&#45;&gt;l1 -->
<g id="edge2" class="edge">
<title>w1&#45;&gt;l1</title>
<path fill="none" stroke="#7aaad0" stroke-width="0.8" stroke-dasharray="5,2" d="M250.91,-30.54C297.13,-25.61 360.05,-23.85 394.09,-27.3"/>
<polygon fill="#7aaad0" stroke="#7aaad0" stroke-width="0.8" points="393.27,-30.72 403.65,-28.58 394.2,-23.79 393.27,-30.72"/>
</g>
<!-- w1&#45;&gt;l1 -->
<g id="edge11" class="edge">
<title>w1&#45;&gt;l1</title>
<path fill="none" stroke="#228833" stroke-width="2" d="M250.91,-54.39C296.32,-55.18 357.85,-51.48 392.28,-45.2"/>
<polygon fill="#228833" stroke="#228833" stroke-width="2" points="392.87,-48.65 401.89,-43.11 391.38,-41.81 392.87,-48.65"/>
</g>
<!-- l2 -->
<g id="node10" class="node">
<title>l2</title>
<polygon fill="#7aaad0" stroke="none" points="642.88,-119 642.88,-138.25 677.88,-138.25 677.88,-119 642.88,-119"/>
<polygon fill="none" stroke="black" points="642.88,-119 642.88,-138.25 677.88,-138.25 677.88,-119 642.88,-119"/>
<text text-anchor="start" x="652.88" y="-125.75" font-family="Helvetica,sans-Serif" font-weight="bold" font-size="10.00">&lt;l&gt;</text>
<polygon fill="none" stroke="black" points="642.88,-99.75 642.88,-119 677.88,-119 677.88,-99.75 642.88,-99.75"/>
<text text-anchor="start" x="646.88" y="-105.5" font-family="Helvetica,sans-Serif" font-size="10.00">n: 153</text>
</g>
<!-- w2 -->
<g id="node11" class="node">
<title>w2</title>
<polygon fill="#7aaad0" stroke="none" points="337,-128.62 337,-147.88 501.75,-147.88 501.75,-128.62 337,-128.62"/>
<polygon fill="none" stroke="black" points="337,-128.62 337,-147.88 501.75,-147.88 501.75,-128.62 337,-128.62"/>
<text text-anchor="start" x="409.62" y="-135.38" font-family="Helvetica,sans-Serif" font-weight="bold" font-size="10.00">&lt;w&gt;</text>
<polygon fill="none" stroke="black" points="337,-110.12 337,-128.62 501.75,-128.62 501.75,-110.12 337,-110.12"/>
<text text-anchor="start" x="341" y="-115.12" font-family="Helvetica,sans-Serif" font-size="10.00">ほととぎす</text>
<polygon fill="none" stroke="black" points="337,-90.12 337,-110.12 501.75,-110.12 501.75,-90.12 337,-90.12"/>
<text text-anchor="start" x="341" y="-96.62" font-family="Helvetica,sans-Serif" font-size="10.00">lemmaRef: #ほととぎす.ほととぎす</text>
</g>
<!-- w2&#45;&gt;e3 -->
<g id="edge10" class="edge">
<title>w2&#45;&gt;e3</title>
<path fill="none" stroke="#4477bb" stroke-width="1.5" d="M499.59,-152.48C528.92,-164.87 561.92,-178.82 590.29,-190.8"/>
<polygon fill="#4477bb" stroke="#4477bb" stroke-width="1.5" points="501.21,-149.36 490.63,-148.69 498.48,-155.81 501.21,-149.36"/>
<text text-anchor="middle" x="526.56" y="-164.04" font-family="Helvetica,sans-Serif" font-size="8.00">lemmaRef</text>
</g>
<!-- w2&#45;&gt;l2 -->
<g id="edge3" class="edge">
<title>w2&#45;&gt;l2</title>
<path fill="none" stroke="#7aaad0" stroke-width="0.8" stroke-dasharray="5,2" d="M501.62,-106.13C546.98,-104.58 600.56,-105.88 632.16,-110.04"/>
<polygon fill="#7aaad0" stroke="#7aaad0" stroke-width="0.8" points="631.51,-113.48 641.93,-111.58 632.6,-106.56 631.51,-113.48"/>
</g>
<!-- w2&#45;&gt;l2 -->
<g id="edge12" class="edge">
<title>w2&#45;&gt;l2</title>
<path fill="none" stroke="#228833" stroke-width="1.5" d="M501.62,-131.87C546.58,-133.41 599.62,-132.14 631.32,-128.07"/>
<polygon fill="#228833" stroke="#228833" stroke-width="1.5" points="631.54,-131.58 640.88,-126.58 630.46,-124.66 631.54,-131.58"/>
</g>
</g>
</svg>
