<?xml version="1.0" encoding="UTF-8" standalone="no"?>
<!DOCTYPE svg PUBLIC "-//W3C//DTD SVG 1.1//EN"
 "http://www.w3.org/Graphics/SVG/1.1/DTD/svg11.dtd">
<!-- Generated by graphviz version 12.2.1 (0)
 -->
<!-- Title: search_aki Pages: 1 -->
<svg width="583pt" height="538pt"
 viewBox="0.00 0.00 583.38 538.00" xmlns="http://www.w3.org/2000/svg" xmlns:xlink="http://www.w3.org/1999/xlink">
<g id="graph0" class="graph" transform="scale(1 1) rotate(0) translate(4 534)">
<title>search_aki</title>
<polygon fill="#faf9f7" stroke="none" points="-4,4 -4,-534 579.38,-534 579.38,4 -4,4"/>
<g id="clust1" class="cluster">
<title>cluster_ri</title>
<path fill="#f0f7ee" stroke="#88bb77" d="M166.38,-297C166.38,-297 409.62,-297 409.62,-297 415.62,-297 421.62,-303 421.62,-309 421.62,-309 421.62,-510 421.62,-510 421.62,-516 415.62,-522 409.62,-522 409.62,-522 166.38,-522 166.38,-522 160.38,-522 154.38,-516 154.38,-510 154.38,-510 154.38,-309 154.38,-309 154.38,-303 160.38,-297 166.38,-297"/>
<text text-anchor="middle" x="288" y="-508.5" font-family="Helvetica,sans-Serif" font-size="10.00">reading&#45;index</text>
</g>
<g id="clust2" class="cluster">
<title>cluster_dict</title>
<path fill="#fef9ec" stroke="#ccaa44" d="M503.62,-288C503.62,-288 555.38,-288 555.38,-288 561.38,-288 567.38,-294 567.38,-300 567.38,-300 567.38,-465 567.38,-465 567.38,-471 561.38,-477 555.38,-477 555.38,-477 503.62,-477 503.62,-477 497.62,-477 491.62,-471 491.62,-465 491.62,-465 491.62,-300 491.62,-300 491.62,-294 497.62,-288 503.62,-288"/>
<text text-anchor="middle" x="529.5" y="-463.5" font-family="Helvetica,sans-Serif" font-size="10.00">dictionary</text>
</g>
<g id="clust3" class="cluster">
<title>cluster_body</title>
<path fill="#eef4fb" stroke="#7aaad0" d="M20,-8C20,-8 241.38,-8 241.38,-8 247.38,-8 253.38,-14 253.38,-20 253.38,-20 253.38,-277 253.38,-277 253.38,-283 247.38,-289 241.38,-289 241.38,-289 20,-289 20,-289 14,-289 8,-283 8,-277 8,-277 8,-20 8,-20 8,-14 14,-8 20,-8"/>
<text text-anchor="middle" x="130.69" y="-275.5" font-family="Helvetica,sans-Serif" font-size="10.00">&lt;body&gt;</text>
</g>
<!-- query -->
<g id="node1" class="node">
<title>query</title>
<polygon fill="#fff8e8" stroke="none" points="13.88,-342.5 13.88,-381.5 53.12,-381.5 53.12,-342.5 13.88,-342.5"/>
<text text-anchor="start" x="18.88" y="-368" font-family="Helvetica,sans-Serif" font-weight="bold" font-size="10.00">クエリ</text>
<text text-anchor="start" x="23.75" y="-348.5" font-family="Helvetica,sans-Serif" font-size="10.00">あき</text>
<polygon fill="none" stroke="#cc8800" points="13.88,-342.5 13.88,-381.5 53.12,-381.5 53.12,-342.5 13.88,-342.5"/>
</g>
<!-- ri_aki -->
<g id="node2" class="node">
<title>ri_aki</title>
<polygon fill="#88bb77" stroke="none" points="162.38,-362.38 162.38,-381.62 222.12,-381.62 222.12,-362.38 162.38,-362.38"/>
<polygon fill="none" stroke="black" points="162.38,-362.38 162.38,-381.62 222.12,-381.62 222.12,-362.38 162.38,-362.38"/>
<text text-anchor="start" x="174.62" y="-369.12" font-family="Helvetica,sans-Serif" font-weight="bold" font-size="10.00">&lt;entry&gt;</text>
<polygon fill="none" stroke="black" points="162.38,-342.38 162.38,-362.38 222.12,-362.38 222.12,-342.38 162.38,-342.38"/>
<text text-anchor="start" x="166.38" y="-348.88" font-family="Helvetica,sans-Serif" font-size="10.00">xml:id: あき</text>
</g>
<!-- query&#45;&gt;ri_aki -->
<g id="edge7" class="edge">
<title>query&#45;&gt;ri_aki</title>
<path fill="none" stroke="#cc6600" stroke-width="2" d="M53.1,-362C76.8,-362 118.45,-362 149.85,-362"/>
<polygon fill="#cc6600" stroke="#cc6600" stroke-width="2" points="149.56,-365.5 159.56,-362 149.56,-358.5 149.56,-365.5"/>
</g>
<!-- hom_aki_aki -->
<g id="node3" class="node">
<title>hom_aki_aki</title>
<polygon fill="#88bb77" stroke="none" points="336.25,-325.38 336.25,-344.62 408.75,-344.62 408.75,-325.38 336.25,-325.38"/>
<polygon fill="none" stroke="black" points="336.25,-325.38 336.25,-344.62 408.75,-344.62 408.75,-325.38 336.25,-325.38"/>
<text text-anchor="start" x="356" y="-332.12" font-family="Helvetica,sans-Serif" font-weight="bold" font-size="10.00">&lt;hom&gt;</text>
<polygon fill="none" stroke="black" points="336.25,-305.38 336.25,-325.38 408.75,-325.38 408.75,-305.38 336.25,-305.38"/>
<text text-anchor="start" x="340.25" y="-311.88" font-family="Helvetica,sans-Serif" font-size="10.00">xml:id: あき.秋</text>
</g>
<!-- ri_aki&#45;&gt;hom_aki_aki -->
<g id="edge1" class="edge">
<title>ri_aki&#45;&gt;hom_aki_aki</title>
<path fill="none" stroke="#88bb77" stroke-width="0.8" stroke-dasharray="5,2" d="M221.89,-356.06C249.92,-350.24 293.06,-341.28 325.82,-334.48"/>
<polygon fill="#88bb77" stroke="#88bb77" stroke-width="0.8" points="326.24,-337.97 335.32,-332.51 324.81,-331.12 326.24,-337.97"/>
</g>
<!-- hom_aki_aku -->
<g id="node4" class="node">
<title>hom_aki_aku</title>
<polygon fill="#88bb77" stroke="none" points="331.38,-400.38 331.38,-419.62 413.62,-419.62 413.62,-400.38 331.38,-400.38"/>
<polygon fill="none" stroke="black" points="331.38,-400.38 331.38,-419.62 413.62,-419.62 413.62,-400.38 331.38,-400.38"/>
<text text-anchor="start" x="356" y="-407.12" font-family="Helvetica,sans-Serif" font-weight="bold" font-size="10.00">&lt;hom&gt;</text>
<polygon fill="none" stroke="black" points="331.38,-380.38 331.38,-400.38 413.62,-400.38 413.62,-380.38 331.38,-380.38"/>
<text text-anchor="start" x="335.38" y="-386.88" font-family="Helvetica,sans-Serif" font-size="10.00">xml:id: あき.飽く</text>
</g>
<!-- ri_aki&#45;&gt;hom_aki_aku -->
<g id="edge2" class="edge">
<title>ri_aki&#45;&gt;hom_aki_aku</title>
<path fill="none" stroke="#88bb77" stroke-width="0.8" stroke-dasharray="5,2" d="M221.89,-368.11C248.47,-373.77 288.66,-382.34 320.69,-389.17"/>
<polygon fill="#88bb77" stroke="#88bb77" stroke-width="0.8" points="319.95,-392.59 330.46,-391.25 321.4,-385.74 319.95,-392.59"/>
</g>
<!-- e_aki -->
<g id="node7" class="node">
<title>e_aki</title>
<polygon fill="#ccaa44" stroke="none" points="504.5,-335 504.5,-354.25 554.5,-354.25 554.5,-335 504.5,-335"/>
<polygon fill="none" stroke="black" points="504.5,-335 504.5,-354.25 554.5,-354.25 554.5,-335 504.5,-335"/>
<text text-anchor="start" x="511.88" y="-341.75" font-family="Helvetica,sans-Serif" font-weight="bold" font-size="10.00">&lt;entry&gt;</text>
<polygon fill="none" stroke="black" points="504.5,-315 504.5,-335 554.5,-335 554.5,-315 504.5,-315"/>
<text text-anchor="start" x="508.5" y="-321.5" font-family="Helvetica,sans-Serif" font-size="10.00">xml:id: 秋</text>
<polygon fill="none" stroke="black" points="504.5,-295.75 504.5,-315 554.5,-315 554.5,-295.75 504.5,-295.75"/>
<text text-anchor="start" x="508.5" y="-301.5" font-family="Helvetica,sans-Serif" font-size="10.00">pos: N.g</text>
</g>
<!-- hom_aki_aki&#45;&gt;e_aki -->
<g id="edge8" class="edge">
<title>hom_aki_aki&#45;&gt;e_aki</title>
<path fill="none" stroke="#cc6600" stroke-width="2" d="M408.67,-325C433.51,-325 466.7,-325 491.86,-325"/>
<polygon fill="#cc6600" stroke="#cc6600" stroke-width="2" points="491.52,-328.5 501.52,-325 491.52,-321.5 491.52,-328.5"/>
<text text-anchor="middle" x="445.39" y="-317.4" font-family="Helvetica,sans-Serif" font-size="8.00">ref</text>
</g>
<!-- e_aku -->
<g id="node8" class="node">
<title>e_aku</title>
<polygon fill="#ccaa44" stroke="none" points="499.62,-430 499.62,-449.25 559.38,-449.25 559.38,-430 499.62,-430"/>
<polygon fill="none" stroke="black" points="499.62,-430 499.62,-449.25 559.38,-449.25 559.38,-430 499.62,-430"/>
<text text-anchor="start" x="511.88" y="-436.75" font-family="Helvetica,sans-Serif" font-weight="bold" font-size="10.00">&lt;entry&gt;</text>
<polygon fill="none" stroke="black" points="499.62,-410 499.62,-430 559.38,-430 559.38,-410 499.62,-410"/>
<text text-anchor="start" x="503.62" y="-416.5" font-family="Helvetica,sans-Serif" font-size="10.00">xml:id: 飽く</text>
<polygon fill="none" stroke="black" points="499.62,-390.75 499.62,-410 559.38,-410 559.38,-390.75 499.62,-390.75"/>
<text text-anchor="start" x="503.62" y="-396.5" font-family="Helvetica,sans-Serif" font-size="10.00">pos: V.k</text>
</g>
<!-- hom_aki_aku&#45;&gt;e_aku -->
<g id="edge9" class="edge">
<title>hom_aki_aku&#45;&gt;e_aku</title>
<path fill="none" stroke="#cc6600" stroke-width="2" d="M413.42,-405.15C436.06,-408.07 464.35,-411.72 487.22,-414.67"/>
<polygon fill="#cc6600" stroke="#cc6600" stroke-width="2" points="486.6,-418.12 496.97,-415.93 487.5,-411.18 486.6,-418.12"/>
<text text-anchor="middle" x="445.44" y="-402.31" font-family="Helvetica,sans-Serif" font-size="8.00">ref</text>
</g>
<!-- ri_aka -->
<g id="node5" class="node">
<title>ri_aka</title>
<polygon fill="#88bb77" stroke="none" points="162.38,-475.38 162.38,-494.62 222.12,-494.62 222.12,-475.38 162.38,-475.38"/>
<polygon fill="none" stroke="black" points="162.38,-475.38 162.38,-494.62 222.12,-494.62 222.12,-475.38 162.38,-475.38"/>
<text text-anchor="start" x="174.62" y="-482.12" font-family="Helvetica,sans-Serif" font-weight="bold" font-size="10.00">&lt;entry&gt;</text>
<polygon fill="none" stroke="black" points="162.38,-455.38 162.38,-475.38 222.12,-475.38 222.12,-455.38 162.38,-455.38"/>
<text text-anchor="start" x="166.38" y="-461.88" font-family="Helvetica,sans-Serif" font-size="10.00">xml:id: あか</text>
</g>
<!-- hom_aka_aku -->
<g id="node6" class="node">
<title>hom_aka_aku</title>
<polygon fill="#88bb77" stroke="none" points="331.38,-475.38 331.38,-494.62 413.62,-494.62 413.62,-475.38 331.38,-475.38"/>
<polygon fill="none" stroke="black" points="331.38,-475.38 331.38,-494.62 413.62,-494.62 413.62,-475.38 331.38,-475.38"/>
<text text-anchor="start" x="356" y="-482.12" font-family="Helvetica,sans-Serif" font-weight="bold" font-size="10.00">&lt;hom&gt;</text>
<polygon fill="none" stroke="black" points="331.38,-455.38 331.38,-475.38 413.62,-475.38 413.62,-455.38 331.38,-455.38"/>
<text text-anchor="start" x="335.38" y="-461.88" font-family="Helvetica,sans-Serif" font-size="10.00">xml:id: あか.飽く</text>
</g>
<!-- ri_aka&#45;&gt;hom_aka_aku -->
<g id="edge3" class="edge">
<title>ri_aka&#45;&gt;hom_aka_aku</title>
<path fill="none" stroke="#88bb77" stroke-width="0.8" stroke-dasharray="5,2" d="M221.89,-475C248.47,-475 288.66,-475 320.69,-475"/>
<polygon fill="#88bb77" stroke="#88bb77" stroke-width="0.8" points="320.43,-478.5 330.43,-475 320.43,-471.5 320.43,-478.5"/>
</g>
<!-- hom_aka_aku&#45;&gt;e_aku -->
<g id="edge10" class="edge">
<title>hom_aka_aku&#45;&gt;e_aku</title>
<path fill="none" stroke="#999999" stroke-width="1.2" d="M413.42,-460.84C436.7,-452.58 465.94,-442.2 489.13,-433.97"/>
<polygon fill="#999999" stroke="#999999" stroke-width="1.2" points="490.01,-437.37 498.26,-430.73 487.67,-430.78 490.01,-437.37"/>
<text text-anchor="middle" x="446.4" y="-439.8" font-family="Helvetica,sans-Serif" font-size="8.00">ref</text>
</g>
<!-- l1 -->
<g id="node9" class="node">
<title>l1</title>
<polygon fill="#7aaad0" stroke="none" points="16,-45 16,-64.25 51,-64.25 51,-45 16,-45"/>
<polygon fill="none" stroke="black" points="16,-45 16,-64.25 51,-64.25 51,-45 16,-45"/>
<text text-anchor="start" x="26" y="-51.75" font-family="Helvetica,sans-Serif" font-weight="bold" font-size="10.00">&lt;l&gt;</text>
<polygon fill="none" stroke="black" points="16,-25.75 16,-45 51,-45 51,-25.75 16,-25.75"/>
<text text-anchor="start" x="20" y="-31.5" font-family="Helvetica,sans-Serif" font-size="10.00">n: 169</text>
</g>
<!-- w1 -->
<g id="node10" class="node">
<title>w1</title>
<polygon fill="#7aaad0" stroke="none" points="144,-54.62 144,-73.88 240.5,-73.88 240.5,-54.62 144,-54.62"/>
<polygon fill="none" stroke="black" points="144,-54.62 144,-73.88 240.5,-73.88 240.5,-54.62 144,-54.62"/>
<text text-anchor="start" x="182.5" y="-61.38" font-family="Helvetica,sans-Serif" font-weight="bold" font-size="10.00">&lt;w&gt;</text>
<polygon fill="none" stroke="black" points="144,-36.12 144,-54.62 240.5,-54.62 240.5,-36.12 144,-36.12"/>
<text text-anchor="start" x="148" y="-41.12" font-family="Helvetica,sans-Serif" font-size="10.00">秋</text>
<polygon fill="none" stroke="black" points="144,-16.12 144,-36.12 240.5,-36.12 240.5,-16.12 144,-16.12"/>
<text text-anchor="start" x="148" y="-22.62" font-family="Helvetica,sans-Serif" font-size="10.00">lemmaRef: #あき.秋</text>
</g>
<!-- l1&#45;&gt;w1 -->
<g id="edge4" class="edge">
<title>l1&#45;&gt;w1</title>
<path fill="none" stroke="#7aaad0" stroke-width="0.8" stroke-dasharray="5,2" d="M50.98,-45C70.42,-45 103.83,-45 133.16,-45"/>
<polygon fill="#7aaad0" stroke="#7aaad0" stroke-width="0.8" points="132.96,-48.5 142.96,-45 132.96,-41.5 132.96,-48.5"/>
</g>
<!-- w1&#45;&gt;hom_aki_aki -->
<g id="edge11" class="edge">
<title>w1&#45;&gt;hom_aki_aki</title>
<path fill="none" stroke="#4477bb" stroke-width="2" d="M240.18,-81.69C247.87,-87.69 253.38,-92 253.38,-92 253.38,-92 333.24,-249.54 361.63,-305.54"/>
<polygon fill="#4477bb" stroke="#4477bb" stroke-width="2" points="242.38,-78.96 232.34,-75.56 238.06,-84.47 242.38,-78.96"/>
<text text-anchor="middle" x="285.34" y="-183.7" font-family="Helvetica,sans-Serif" font-size="8.00">lemmaRef</text>
</g>
<!-- l2 -->
<g id="node11" class="node">
<title>l2</title>
<polygon fill="#7aaad0" stroke="none" points="16,-233 16,-252.25 51,-252.25 51,-233 16,-233"/>
<polygon fill="none" stroke="black" points="16,-233 16,-252.25 51,-252.25 51,-233 16,-233"/>
<text text-anchor="start" x="26" y="-239.75" font-family="Helvetica,sans-Serif" font-weight="bold" font-size="10.00">&lt;l&gt;</text>
<polygon fill="none" stroke="black" points="16,-213.75 16,-233 51,-233 51,-213.75 16,-213.75"/>
<text text-anchor="start" x="20" y="-219.5" font-family="Helvetica,sans-Serif" font-size="10.00">n: 742</text>
</g>
<!-- w2 -->
<g id="node12" class="node">
<title>w2</title>
<polygon fill="#7aaad0" stroke="none" points="139.12,-242.62 139.12,-261.88 245.38,-261.88 245.38,-242.62 139.12,-242.62"/>
<polygon fill="none" stroke="black" points="139.12,-242.62 139.12,-261.88 245.38,-261.88 245.38,-242.62 139.12,-242.62"/>
<text text-anchor="start" x="182.5" y="-249.38" font-family="Helvetica,sans-Serif" font-weight="bold" font-size="10.00">&lt;w&gt;</text>
<polygon fill="none" stroke="black" points="139.12,-224.12 139.12,-242.62 245.38,-242.62 245.38,-224.12 139.12,-224.12"/>
<text text-anchor="start" x="143.12" y="-229.12" font-family="Helvetica,sans-Serif" font-size="10.00">あか</text>
<polygon fill="none" stroke="black" points="139.12,-204.12 139.12,-224.12 245.38,-224.12 245.38,-204.12 139.12,-204.12"/>
<text text-anchor="start" x="143.12" y="-210.62" font-family="Helvetica,sans-Serif" font-size="10.00">lemmaRef: #あか.飽く</text>
</g>
<!-- l2&#45;&gt;w2 -->
<g id="edge5" class="edge">
<title>l2&#45;&gt;w2</title>
<path fill="none" stroke="#7aaad0" stroke-width="0.8" stroke-dasharray="5,2" d="M50.98,-233C69.37,-233 100.24,-233 128.34,-233"/>
<polygon fill="#7aaad0" stroke="#7aaad0" stroke-width="0.8" points="128.14,-236.5 138.14,-233 128.14,-229.5 128.14,-236.5"/>
</g>
<!-- w2&#45;&gt;hom_aka_aku -->
<g id="edge12" class="edge">
<title>w2&#45;&gt;hom_aka_aku</title>
<path fill="none" stroke="#4477bb" stroke-width="2" d="M234.06,-270.33C244.77,-280.12 253.38,-288 253.38,-288 253.38,-288 331.38,-438 331.38,-438 331.38,-438 340.79,-446.68 350.5,-455.63"/>
<polygon fill="#4477bb" stroke="#4477bb" stroke-width="2" points="236.7,-268 226.95,-263.83 231.97,-273.16 236.7,-268"/>
<text text-anchor="middle" x="273.96" y="-355.33" font-family="Helvetica,sans-Serif" font-size="8.00">lemmaRef</text>
</g>
<!-- l3 -->
<g id="node13" class="node">
<title>l3</title>
<polygon fill="#7aaad0" stroke="none" points="16,-139 16,-158.25 51,-158.25 51,-139 16,-139"/>
<polygon fill="none" stroke="black" points="16,-139 16,-158.25 51,-158.25 51,-139 16,-139"/>
<text text-anchor="start" x="26" y="-145.75" font-family="Helvetica,sans-Serif" font-weight="bold" font-size="10.00">&lt;l&gt;</text>
<polygon fill="none" stroke="black" points="16,-119.75 16,-139 51,-139 51,-119.75 16,-119.75"/>
<text text-anchor="start" x="20" y="-125.5" font-family="Helvetica,sans-Serif" font-size="10.00">n: 581</text>
</g>
<!-- w3 -->
<g id="node14" class="node">
<title>w3</title>
<polygon fill="#7aaad0" stroke="none" points="139.12,-148.62 139.12,-167.88 245.38,-167.88 245.38,-148.62 139.12,-148.62"/>
<polygon fill="none" stroke="black" points="139.12,-148.62 139.12,-167.88 245.38,-167.88 245.38,-148.62 139.12,-148.62"/>
<text text-anchor="start" x="182.5" y="-155.38" font-family="Helvetica,sans-Serif" font-weight="bold" font-size="10.00">&lt;w&gt;</text>
<polygon fill="none" stroke="black" points="139.12,-130.12 139.12,-148.62 245.38,-148.62 245.38,-130.12 139.12,-130.12"/>
<text text-anchor="start" x="143.12" y="-135.12" font-family="Helvetica,sans-Serif" font-size="10.00">秋</text>
<polygon fill="none" stroke="black" points="139.12,-110.12 139.12,-130.12 245.38,-130.12 245.38,-110.12 139.12,-110.12"/>
<text text-anchor="start" x="143.12" y="-116.62" font-family="Helvetica,sans-Serif" font-size="10.00">lemmaRef: #あき.飽く</text>
</g>
<!-- l3&#45;&gt;w3 -->
<g id="edge6" class="edge">
<title>l3&#45;&gt;w3</title>
<path fill="none" stroke="#7aaad0" stroke-width="0.8" stroke-dasharray="5,2" d="M50.98,-139C69.37,-139 100.24,-139 128.34,-139"/>
<polygon fill="#7aaad0" stroke="#7aaad0" stroke-width="0.8" points="128.14,-142.5 138.14,-139 128.14,-135.5 128.14,-142.5"/>
</g>
<!-- w3&#45;&gt;hom_aki_aku -->
<g id="edge13" class="edge">
<title>w3&#45;&gt;hom_aki_aku</title>
<path fill="none" stroke="#4477bb" stroke-width="2" d="M240.18,-175.69C247.87,-181.69 253.38,-186 253.38,-186 253.38,-186 331.38,-363 331.38,-363 331.38,-363 340.79,-371.68 350.5,-380.63"/>
<polygon fill="#4477bb" stroke="#4477bb" stroke-width="2" points="242.38,-172.96 232.34,-169.56 238.06,-178.47 242.38,-172.96"/>
<text text-anchor="middle" x="275.87" y="-271.14" font-family="Helvetica,sans-Serif" font-size="8.00">lemmaRef</text>
</g>
</g>
</svg>
