<?xml version="1.0" encoding="UTF-8" standalone="no"?>
<!DOCTYPE svg PUBLIC "-//W3C//DTD SVG 1.1//EN"
 "http://www.w3.org/Graphics/SVG/1.1/DTD/svg11.dtd">
<!-- Generated by graphviz version 12.2.1 (0)
 -->
<!-- Title: search_uguisu Pages: 1 -->
<svg width="952pt" height="308pt"
 viewBox="0.00 0.00 951.50 308.00" xmlns="http://www.w3.org/2000/svg" xmlns:xlink="http://www.w3.org/1999/xlink">
<g id="graph0" class="graph" transform="scale(1 1) rotate(0) translate(4 304)">
<title>search_uguisu</title>
<polygon fill="#faf9f7" stroke="none" points="-4,4 -4,-304 947.5,-304 947.5,4 -4,4"/>
<g id="clust1" class="cluster">
<title>cluster_ri</title>
<path fill="#f0f7ee" stroke="#88bb77" d="M157.38,-182C157.38,-182 461.38,-182 461.38,-182 467.38,-182 473.38,-188 473.38,-194 473.38,-194 473.38,-245 473.38,-245 473.38,-251 467.38,-257 461.38,-257 461.38,-257 157.38,-257 157.38,-257 151.38,-257 145.38,-251 145.38,-245 145.38,-245 145.38,-194 145.38,-194 145.38,-188 151.38,-182 157.38,-182"/>
<text text-anchor="middle" x="309.38" y="-243.5" font-family="Helvetica,sans-Serif" font-size="10.00">reading&#45;index</text>
</g>
<g id="clust2" class="cluster">
<title>cluster_dict</title>
<path fill="#fef9ec" stroke="#ccaa44" d="M591.75,-8C591.75,-8 729,-8 729,-8 735,-8 741,-14 741,-20 741,-20 741,-280 741,-280 741,-286 735,-292 729,-292 729,-292 591.75,-292 591.75,-292 585.75,-292 579.75,-286 579.75,-280 579.75,-280 579.75,-20 579.75,-20 579.75,-14 585.75,-8 591.75,-8"/>
<text text-anchor="middle" x="660.38" y="-278.5" font-family="Helvetica,sans-Serif" font-size="10.00">dictionary</text>
</g>
<g id="clust3" class="cluster">
<title>cluster_cls</title>
<path fill="#fdf0f0" stroke="#cc8888" d="M823,-103C823,-103 923.5,-103 923.5,-103 929.5,-103 935.5,-109 935.5,-115 935.5,-115 935.5,-185 935.5,-185 935.5,-191 929.5,-197 923.5,-197 923.5,-197 823,-197 823,-197 817,-197 811,-191 811,-185 811,-185 811,-115 811,-115 811,-109 817,-103 823,-103"/>
<text text-anchor="middle" x="873.25" y="-183.5" font-family="Helvetica,sans-Serif" font-size="10.00">classification</text>
</g>
<g id="clust4" class="cluster">
<title>cluster_body</title>
<path fill="#eef4fb" stroke="#7aaad0" d="M139,-32C139,-32 497.75,-32 497.75,-32 503.75,-32 509.75,-38 509.75,-44 509.75,-44 509.75,-113 509.75,-113 509.75,-119 503.75,-125 497.75,-125 497.75,-125 139,-125 139,-125 133,-125 127,-119 127,-113 127,-113 127,-44 127,-44 127,-38 133,-32 139,-32"/>
<text text-anchor="middle" x="318.38" y="-111.5" font-family="Helvetica,sans-Serif" font-size="10.00">&lt;body&gt;</text>
</g>
<!-- query -->
<g id="node1" class="node">
<title>query</title>
<polygon fill="#fff8e8" stroke="none" points="0,-190.5 0,-229.5 49,-229.5 49,-190.5 0,-190.5"/>
<text text-anchor="start" x="9.88" y="-216" font-family="Helvetica,sans-Serif" font-weight="bold" font-size="10.00">クエリ</text>
<text text-anchor="start" x="5" y="-196.5" font-family="Helvetica,sans-Serif" font-size="10.00">うぐひす</text>
<polygon fill="none" stroke="#cc8800" points="0,-190.5 0,-229.5 49,-229.5 49,-190.5 0,-190.5"/>
</g>
<!-- ri_e -->
<g id="node2" class="node">
<title>ri_e</title>
<polygon fill="#88bb77" stroke="none" points="153.38,-210.38 153.38,-229.62 232.62,-229.62 232.62,-210.38 153.38,-210.38"/>
<polygon fill="none" stroke="black" points="153.38,-210.38 153.38,-229.62 232.62,-229.62 232.62,-210.38 153.38,-210.38"/>
<text text-anchor="start" x="175.38" y="-217.12" font-family="Helvetica,sans-Serif" font-weight="bold" font-size="10.00">&lt;entry&gt;</text>
<polygon fill="none" stroke="black" points="153.38,-190.38 153.38,-210.38 232.62,-210.38 232.62,-190.38 153.38,-190.38"/>
<text text-anchor="start" x="157.38" y="-196.88" font-family="Helvetica,sans-Serif" font-size="10.00">xml:id: うぐひす</text>
</g>
<!-- query&#45;&gt;ri_e -->
<g id="edge2" class="edge">
<title>query&#45;&gt;ri_e</title>
<path fill="none" stroke="#cc6600" stroke-width="2" d="M48.65,-210C72.34,-210 109.93,-210 140.68,-210"/>
<polygon fill="#cc6600" stroke="#cc6600" stroke-width="2" points="140.35,-213.5 150.35,-210 140.35,-206.5 140.35,-213.5"/>
</g>
<!-- hom1 -->
<g id="node3" class="node">
<title>hom1</title>
<polygon fill="#88bb77" stroke="none" points="373.38,-210.38 373.38,-229.62 465.38,-229.62 465.38,-210.38 373.38,-210.38"/>
<polygon fill="none" stroke="black" points="373.38,-210.38 373.38,-229.62 465.38,-229.62 465.38,-210.38 373.38,-210.38"/>
<text text-anchor="start" x="402.88" y="-217.12" font-family="Helvetica,sans-Serif" font-weight="bold" font-size="10.00">&lt;hom&gt;</text>
<polygon fill="none" stroke="black" points="373.38,-190.38 373.38,-210.38 465.38,-210.38 465.38,-190.38 373.38,-190.38"/>
<text text-anchor="start" x="377.38" y="-196.88" font-family="Helvetica,sans-Serif" font-size="10.00">xml:id: うぐひす.鴬</text>
</g>
<!-- ri_e&#45;&gt;hom1 -->
<g id="edge1" class="edge">
<title>ri_e&#45;&gt;hom1</title>
<path fill="none" stroke="#88bb77" stroke-width="0.8" stroke-dasharray="5,2" d="M232.57,-210C268.42,-210 322.22,-210 362.72,-210"/>
<polygon fill="#88bb77" stroke="#88bb77" stroke-width="0.8" points="362.55,-213.5 372.55,-210 362.55,-206.5 362.55,-213.5"/>
</g>
<!-- e1 -->
<g id="node4" class="node">
<title>e1</title>
<polygon fill="#ccaa44" stroke="none" points="587.75,-245 587.75,-264.25 733,-264.25 733,-245 587.75,-245"/>
<polygon fill="none" stroke="black" points="587.75,-245 587.75,-264.25 733,-264.25 733,-245 587.75,-245"/>
<text text-anchor="start" x="642.75" y="-251.75" font-family="Helvetica,sans-Serif" font-weight="bold" font-size="10.00">&lt;entry&gt;</text>
<polygon fill="none" stroke="black" points="587.75,-225 587.75,-245 733,-245 733,-225 587.75,-225"/>
<text text-anchor="start" x="591.75" y="-231.5" font-family="Helvetica,sans-Serif" font-size="10.00">xml:id: 鴬</text>
<polygon fill="#e8cc88" stroke="none" points="587.75,-205.75 587.75,-225 733,-225 733,-205.75 587.75,-205.75"/>
<polygon fill="none" stroke="black" points="587.75,-205.75 587.75,-225 733,-225 733,-205.75 587.75,-205.75"/>
<text text-anchor="start" x="591.75" y="-212.5" font-family="Helvetica,sans-Serif" font-weight="bold" font-size="10.00">&lt;sense&gt;</text>
<text text-anchor="start" x="630.75" y="-212.5" font-family="Helvetica,sans-Serif" font-size="10.00"> ana: #WLSPH.1.5620</text>
</g>
<!-- hom1&#45;&gt;e1 -->
<g id="edge3" class="edge">
<title>hom1&#45;&gt;e1</title>
<path fill="none" stroke="#cc6600" stroke-width="2" d="M465.33,-214.7C496.17,-217.93 538.05,-222.31 575.01,-226.17"/>
<polygon fill="#cc6600" stroke="#cc6600" stroke-width="2" points="574.53,-229.64 584.84,-227.2 575.25,-222.68 574.53,-229.64"/>
<text text-anchor="middle" x="515.29" y="-212.84" font-family="Helvetica,sans-Serif" font-size="8.00">ref</text>
</g>
<!-- wlsph -->
<g id="node7" class="node">
<title>wlsph</title>
<polygon fill="#cc8888" stroke="none" points="819,-150 819,-169.25 927.5,-169.25 927.5,-150 819,-150"/>
<polygon fill="none" stroke="black" points="819,-150 819,-169.25 927.5,-169.25 927.5,-150 819,-150"/>
<text text-anchor="start" x="857.12" y="-156.75" font-family="Helvetica,sans-Serif" font-weight="bold" font-size="10.00">&lt;item&gt;</text>
<polygon fill="none" stroke="black" points="819,-130.75 819,-150 927.5,-150 927.5,-130.75 819,-130.75"/>
<text text-anchor="start" x="823" y="-136.5" font-family="Helvetica,sans-Serif" font-size="10.00">xml:id: WLSPH.1.5620</text>
<polygon fill="none" stroke="black" points="819,-110.75 819,-130.75 927.5,-130.75 927.5,-110.75 819,-110.75"/>
<text text-anchor="start" x="823" y="-117.25" font-family="Helvetica,sans-Serif" font-size="10.00">desc: 体&#45;…&#45;動物&#45;鳥</text>
</g>
<!-- e1&#45;&gt;wlsph -->
<g id="edge4" class="edge">
<title>e1&#45;&gt;wlsph</title>
<path fill="none" stroke="#cc6600" stroke-width="2" d="M726.08,-205.85C751.91,-194.22 781.59,-180.84 807.43,-169.2"/>
<polygon fill="#cc6600" stroke="#cc6600" stroke-width="2" points="808.56,-172.53 816.24,-165.23 805.69,-166.15 808.56,-172.53"/>
<text text-anchor="middle" x="748.38" y="-179.93" font-family="Helvetica,sans-Serif" font-size="8.00">sense/ana</text>
</g>
<!-- e2 -->
<g id="node5" class="node">
<title>e2</title>
<polygon fill="#ccaa44" stroke="none" points="587.75,-150 587.75,-169.25 733,-169.25 733,-150 587.75,-150"/>
<polygon fill="none" stroke="black" points="587.75,-150 587.75,-169.25 733,-169.25 733,-150 587.75,-150"/>
<text text-anchor="start" x="642.75" y="-156.75" font-family="Helvetica,sans-Serif" font-weight="bold" font-size="10.00">&lt;entry&gt;</text>
<polygon fill="none" stroke="black" points="587.75,-130 587.75,-150 733,-150 733,-130 587.75,-130"/>
<text text-anchor="start" x="591.75" y="-136.5" font-family="Helvetica,sans-Serif" font-size="10.00">xml:id: 鶯</text>
<polygon fill="#e8cc88" stroke="none" points="587.75,-110.75 587.75,-130 733,-130 733,-110.75 587.75,-110.75"/>
<polygon fill="none" stroke="black" points="587.75,-110.75 587.75,-130 733,-130 733,-110.75 587.75,-110.75"/>
<text text-anchor="start" x="591.75" y="-117.5" font-family="Helvetica,sans-Serif" font-weight="bold" font-size="10.00">&lt;sense&gt;</text>
<text text-anchor="start" x="630.75" y="-117.5" font-family="Helvetica,sans-Serif" font-size="10.00"> ana: #WLSPH.1.5620</text>
</g>
<!-- e2&#45;&gt;wlsph -->
<g id="edge5" class="edge">
<title>e2&#45;&gt;wlsph</title>
<path fill="none" stroke="#cc6600" stroke-width="1.5" d="M732.77,-140C756.88,-140 783.66,-140 807.25,-140"/>
<polygon fill="#cc6600" stroke="#cc6600" stroke-width="1.5" points="807,-143.5 817,-140 807,-136.5 807,-143.5"/>
</g>
<!-- e3 -->
<g id="node6" class="node">
<title>e3</title>
<polygon fill="#ccaa44" stroke="none" points="587.75,-55 587.75,-74.25 733,-74.25 733,-55 587.75,-55"/>
<polygon fill="none" stroke="black" points="587.75,-55 587.75,-74.25 733,-74.25 733,-55 587.75,-55"/>
<text text-anchor="start" x="642.75" y="-61.75" font-family="Helvetica,sans-Serif" font-weight="bold" font-size="10.00">&lt;entry&gt;</text>
<polygon fill="none" stroke="black" points="587.75,-35 587.75,-55 733,-55 733,-35 587.75,-35"/>
<text text-anchor="start" x="591.75" y="-41.5" font-family="Helvetica,sans-Serif" font-size="10.00">xml:id: ほととぎす</text>
<polygon fill="#e8cc88" stroke="none" points="587.75,-15.75 587.75,-35 733,-35 733,-15.75 587.75,-15.75"/>
<polygon fill="none" stroke="black" points="587.75,-15.75 587.75,-35 733,-35 733,-15.75 587.75,-15.75"/>
<text text-anchor="start" x="591.75" y="-22.5" font-family="Helvetica,sans-Serif" font-weight="bold" font-size="10.00">&lt;sense&gt;</text>
<text text-anchor="start" x="630.75" y="-22.5" font-family="Helvetica,sans-Serif" font-size="10.00"> ana: #WLSPH.1.5620</text>
</g>
<!-- e3&#45;&gt;wlsph -->
<g id="edge6" class="edge">
<title>e3&#45;&gt;wlsph</title>
<path fill="none" stroke="#cc6600" stroke-width="1.5" d="M726.08,-74.15C752.14,-85.89 782.12,-99.4 808.12,-111.11"/>
<polygon fill="#cc6600" stroke="#cc6600" stroke-width="1.5" points="806.37,-114.16 816.93,-115.08 809.25,-107.78 806.37,-114.16"/>
</g>
<!-- w1 -->
<g id="node8" class="node">
<title>w1</title>
<polygon fill="#7aaad0" stroke="none" points="135,-78.62 135,-97.88 251,-97.88 251,-78.62 135,-78.62"/>
<polygon fill="none" stroke="black" points="135,-78.62 135,-97.88 251,-97.88 251,-78.62 135,-78.62"/>
<text text-anchor="start" x="183.25" y="-85.38" font-family="Helvetica,sans-Serif" font-weight="bold" font-size="10.00">&lt;w&gt;</text>
<polygon fill="none" stroke="black" points="135,-60.12 135,-78.62 251,-78.62 251,-60.12 135,-60.12"/>
<text text-anchor="start" x="139" y="-65.12" font-family="Helvetica,sans-Serif" font-size="10.00">うぐひす</text>
<polygon fill="none" stroke="black" points="135,-40.12 135,-60.12 251,-60.12 251,-40.12 135,-40.12"/>
<text text-anchor="start" x="139" y="-46.62" font-family="Helvetica,sans-Serif" font-size="10.00">lemmaRef: #うぐひす.鴬</text>
</g>
<!-- w1&#45;&gt;hom1 -->
<g id="edge7" class="edge">
<title>w1&#45;&gt;hom1</title>
<path fill="none" stroke="#4477bb" stroke-width="2" d="M250.89,-104.75C294.18,-131.96 352.12,-168.36 387.26,-190.45"/>
<polygon fill="#4477bb" stroke="#4477bb" stroke-width="2" points="252.84,-101.84 242.51,-99.48 249.11,-107.77 252.84,-101.84"/>
<text text-anchor="middle" x="300.7" y="-140" font-family="Helvetica,sans-Serif" font-size="8.00">lemmaRef</text>
</g>
<!-- w2 -->
<g id="node9" class="node">
<title>w2</title>
<polygon fill="#7aaad0" stroke="none" points="337,-78.62 337,-97.88 501.75,-97.88 501.75,-78.62 337,-78.62"/>
<polygon fill="none" stroke="black" points="337,-78.62 337,-97.88 501.75,-97.88 501.75,-78.62 337,-78.62"/>
<text text-anchor="start" x="409.62" y="-85.38" font-family="Helvetica,sans-Serif" font-weight="bold" font-size="10.00">&lt;w&gt;</text>
<polygon fill="none" stroke="black" points="337,-60.12 337,-78.62 501.75,-78.62 501.75,-60.12 337,-60.12"/>
<text text-anchor="start" x="341" y="-65.12" font-family="Helvetica,sans-Serif" font-size="10.00">ほととぎす</text>
<polygon fill="none" stroke="black" points="337,-40.12 337,-60.12 501.75,-60.12 501.75,-40.12 337,-40.12"/>
<text text-anchor="start" x="341" y="-46.62" font-family="Helvetica,sans-Serif" font-size="10.00">lemmaRef: #ほととぎす.ほととぎす</text>
</g>
<!-- w2&#45;&gt;e3 -->
<g id="edge8" class="edge">
<title>w2&#45;&gt;e3</title>
<path fill="none" stroke="#4477bb" stroke-width="1.5" d="M513.61,-59.64C538.32,-57.16 564.6,-54.52 587.95,-52.17"/>
<polygon fill="#4477bb" stroke="#4477bb" stroke-width="1.5" points="513.48,-56.13 503.88,-60.61 514.18,-63.1 513.48,-56.13"/>
<text text-anchor="middle" x="532.4" y="-48.31" font-family="Helvetica,sans-Serif" font-size="8.00">lemmaRef</text>
</g>
</g>
</svg>
