<?xml version="1.0" encoding="UTF-8" standalone="no"?>
<!DOCTYPE svg PUBLIC "-//W3C//DTD SVG 1.1//EN"
 "http://www.w3.org/Graphics/SVG/1.1/DTD/svg11.dtd">
<!-- Generated by graphviz version 12.2.1 (0)
 -->
<!-- Title: search_aki Pages: 1 -->
<svg width="583pt" height="389pt"
 viewBox="0.00 0.00 583.38 389.00" xmlns="http://www.w3.org/2000/svg" xmlns:xlink="http://www.w3.org/1999/xlink">
<g id="graph0" class="graph" transform="scale(1 1) rotate(0) translate(4 385)">
<title>search_aki</title>
<polygon fill="#faf9f7" stroke="none" points="-4,4 -4,-385 579.38,-385 579.38,4 -4,4"/>
<g id="clust1" class="cluster">
<title>cluster_ri</title>
<path fill="#f0f7ee" stroke="#88bb77" d="M166.38,-203C166.38,-203 409.62,-203 409.62,-203 415.62,-203 421.62,-209 421.62,-215 421.62,-215 421.62,-341 421.62,-341 421.62,-347 415.62,-353 409.62,-353 409.62,-353 166.38,-353 166.38,-353 160.38,-353 154.38,-347 154.38,-341 154.38,-341 154.38,-215 154.38,-215 154.38,-209 160.38,-203 166.38,-203"/>
<text text-anchor="middle" x="288" y="-339.5" font-family="Helvetica,sans-Serif" font-size="10.00">reading&#45;index</text>
</g>
<g id="clust2" class="cluster">
<title>cluster_dict</title>
<path fill="#fef9ec" stroke="#ccaa44" d="M503.62,-184C503.62,-184 555.38,-184 555.38,-184 561.38,-184 567.38,-190 567.38,-196 567.38,-196 567.38,-361 567.38,-361 567.38,-367 561.38,-373 555.38,-373 555.38,-373 503.62,-373 503.62,-373 497.62,-373 491.62,-367 491.62,-361 491.62,-361 491.62,-196 491.62,-196 491.62,-190 497.62,-184 503.62,-184"/>
<text text-anchor="middle" x="529.5" y="-359.5" font-family="Helvetica,sans-Serif" font-size="10.00">dictionary</text>
</g>
<g id="clust3" class="cluster">
<title>cluster_body</title>
<path fill="#eef4fb" stroke="#7aaad0" d="M20,-8C20,-8 241.38,-8 241.38,-8 247.38,-8 253.38,-14 253.38,-20 253.38,-20 253.38,-183 253.38,-183 253.38,-189 247.38,-195 241.38,-195 241.38,-195 20,-195 20,-195 14,-195 8,-189 8,-183 8,-183 8,-20 8,-20 8,-14 14,-8 20,-8"/>
<text text-anchor="middle" x="130.69" y="-181.5" font-family="Helvetica,sans-Serif" font-size="10.00">&lt;body&gt;</text>
</g>
<!-- query -->
<g id="node1" class="node">
<title>query</title>
<polygon fill="#fff8e8" stroke="none" points="13.88,-248.5 13.88,-287.5 53.12,-287.5 53.12,-248.5 13.88,-248.5"/>
<text text-anchor="start" x="18.88" y="-274" font-family="Helvetica,sans-Serif" font-weight="bold" font-size="10.00">クエリ</text>
<text text-anchor="start" x="23.75" y="-254.5" font-family="Helvetica,sans-Serif" font-size="10.00">あき</text>
<polygon fill="none" stroke="#cc8800" points="13.88,-248.5 13.88,-287.5 53.12,-287.5 53.12,-248.5 13.88,-248.5"/>
</g>
<!-- ri_e -->
<g id="node2" class="node">
<title>ri_e</title>
<polygon fill="#88bb77" stroke="none" points="162.38,-268.38 162.38,-287.62 222.12,-287.62 222.12,-268.38 162.38,-268.38"/>
<polygon fill="none" stroke="black" points="162.38,-268.38 162.38,-287.62 222.12,-287.62 222.12,-268.38 162.38,-268.38"/>
<text text-anchor="start" x="174.62" y="-275.12" font-family="Helvetica,sans-Serif" font-weight="bold" font-size="10.00">&lt;entry&gt;</text>
<polygon fill="none" stroke="black" points="162.38,-248.38 162.38,-268.38 222.12,-268.38 222.12,-248.38 162.38,-248.38"/>
<text text-anchor="start" x="166.38" y="-254.88" font-family="Helvetica,sans-Serif" font-size="10.00">xml:id: あき</text>
</g>
<!-- query&#45;&gt;ri_e -->
<g id="edge5" class="edge">
<title>query&#45;&gt;ri_e</title>
<path fill="none" stroke="#cc6600" stroke-width="2" d="M53.1,-268C76.8,-268 118.45,-268 149.85,-268"/>
<polygon fill="#cc6600" stroke="#cc6600" stroke-width="2" points="149.56,-271.5 159.56,-268 149.56,-264.5 149.56,-271.5"/>
</g>
<!-- hom1 -->
<g id="node3" class="node">
<title>hom1</title>
<polygon fill="#88bb77" stroke="none" points="336.25,-231.38 336.25,-250.62 408.75,-250.62 408.75,-231.38 336.25,-231.38"/>
<polygon fill="none" stroke="black" points="336.25,-231.38 336.25,-250.62 408.75,-250.62 408.75,-231.38 336.25,-231.38"/>
<text text-anchor="start" x="356" y="-238.12" font-family="Helvetica,sans-Serif" font-weight="bold" font-size="10.00">&lt;hom&gt;</text>
<polygon fill="none" stroke="black" points="336.25,-211.38 336.25,-231.38 408.75,-231.38 408.75,-211.38 336.25,-211.38"/>
<text text-anchor="start" x="340.25" y="-217.88" font-family="Helvetica,sans-Serif" font-size="10.00">xml:id: あき.秋</text>
</g>
<!-- ri_e&#45;&gt;hom1 -->
<g id="edge1" class="edge">
<title>ri_e&#45;&gt;hom1</title>
<path fill="none" stroke="#88bb77" stroke-width="0.8" stroke-dasharray="5,2" d="M221.89,-262.06C249.92,-256.24 293.06,-247.28 325.82,-240.48"/>
<polygon fill="#88bb77" stroke="#88bb77" stroke-width="0.8" points="326.24,-243.97 335.32,-238.51 324.81,-237.12 326.24,-243.97"/>
</g>
<!-- hom2 -->
<g id="node4" class="node">
<title>hom2</title>
<polygon fill="#88bb77" stroke="none" points="331.38,-306.38 331.38,-325.62 413.62,-325.62 413.62,-306.38 331.38,-306.38"/>
<polygon fill="none" stroke="black" points="331.38,-306.38 331.38,-325.62 413.62,-325.62 413.62,-306.38 331.38,-306.38"/>
<text text-anchor="start" x="356" y="-313.12" font-family="Helvetica,sans-Serif" font-weight="bold" font-size="10.00">&lt;hom&gt;</text>
<polygon fill="none" stroke="black" points="331.38,-286.38 331.38,-306.38 413.62,-306.38 413.62,-286.38 331.38,-286.38"/>
<text text-anchor="start" x="335.38" y="-292.88" font-family="Helvetica,sans-Serif" font-size="10.00">xml:id: あき.飽く</text>
</g>
<!-- ri_e&#45;&gt;hom2 -->
<g id="edge2" class="edge">
<title>ri_e&#45;&gt;hom2</title>
<path fill="none" stroke="#88bb77" stroke-width="0.8" stroke-dasharray="5,2" d="M221.89,-274.11C248.47,-279.77 288.66,-288.34 320.69,-295.17"/>
<polygon fill="#88bb77" stroke="#88bb77" stroke-width="0.8" points="319.95,-298.59 330.46,-297.25 321.4,-291.74 319.95,-298.59"/>
</g>
<!-- e_aki -->
<g id="node5" class="node">
<title>e_aki</title>
<polygon fill="#ccaa44" stroke="none" points="504.5,-231 504.5,-250.25 554.5,-250.25 554.5,-231 504.5,-231"/>
<polygon fill="none" stroke="black" points="504.5,-231 504.5,-250.25 554.5,-250.25 554.5,-231 504.5,-231"/>
<text text-anchor="start" x="511.88" y="-237.75" font-family="Helvetica,sans-Serif" font-weight="bold" font-size="10.00">&lt;entry&gt;</text>
<polygon fill="none" stroke="black" points="504.5,-211 504.5,-231 554.5,-231 554.5,-211 504.5,-211"/>
<text text-anchor="start" x="508.5" y="-217.5" font-family="Helvetica,sans-Serif" font-size="10.00">xml:id: 秋</text>
<polygon fill="none" stroke="black" points="504.5,-191.75 504.5,-211 554.5,-211 554.5,-191.75 504.5,-191.75"/>
<text text-anchor="start" x="508.5" y="-197.5" font-family="Helvetica,sans-Serif" font-size="10.00">pos: N.g</text>
</g>
<!-- hom1&#45;&gt;e_aki -->
<g id="edge6" class="edge">
<title>hom1&#45;&gt;e_aki</title>
<path fill="none" stroke="#cc6600" stroke-width="2" d="M408.67,-228.73C433.51,-227.13 466.7,-224.99 491.86,-223.36"/>
<polygon fill="#cc6600" stroke="#cc6600" stroke-width="2" points="491.77,-226.88 501.53,-222.74 491.32,-219.89 491.77,-226.88"/>
<text text-anchor="middle" x="445.39" y="-218.45" font-family="Helvetica,sans-Serif" font-size="8.00">ref</text>
</g>
<!-- e_aku -->
<g id="node6" class="node">
<title>e_aku</title>
<polygon fill="#ccaa44" stroke="none" points="499.62,-326 499.62,-345.25 559.38,-345.25 559.38,-326 499.62,-326"/>
<polygon fill="none" stroke="black" points="499.62,-326 499.62,-345.25 559.38,-345.25 559.38,-326 499.62,-326"/>
<text text-anchor="start" x="511.88" y="-332.75" font-family="Helvetica,sans-Serif" font-weight="bold" font-size="10.00">&lt;entry&gt;</text>
<polygon fill="none" stroke="black" points="499.62,-306 499.62,-326 559.38,-326 559.38,-306 499.62,-306"/>
<text text-anchor="start" x="503.62" y="-312.5" font-family="Helvetica,sans-Serif" font-size="10.00">xml:id: 飽く</text>
<polygon fill="none" stroke="black" points="499.62,-286.75 499.62,-306 559.38,-306 559.38,-286.75 499.62,-286.75"/>
<text text-anchor="start" x="503.62" y="-292.5" font-family="Helvetica,sans-Serif" font-size="10.00">pos: V.k</text>
</g>
<!-- hom2&#45;&gt;e_aku -->
<g id="edge7" class="edge">
<title>hom2&#45;&gt;e_aku</title>
<path fill="none" stroke="#cc6600" stroke-width="2" d="M413.42,-308.58C436.06,-310.04 464.35,-311.86 487.22,-313.34"/>
<polygon fill="#cc6600" stroke="#cc6600" stroke-width="2" points="486.75,-316.81 496.95,-313.96 487.2,-309.83 486.75,-316.81"/>
<text text-anchor="middle" x="445.44" y="-303.36" font-family="Helvetica,sans-Serif" font-size="8.00">ref</text>
</g>
<!-- l1 -->
<g id="node7" class="node">
<title>l1</title>
<polygon fill="#7aaad0" stroke="none" points="16,-45 16,-64.25 51,-64.25 51,-45 16,-45"/>
<polygon fill="none" stroke="black" points="16,-45 16,-64.25 51,-64.25 51,-45 16,-45"/>
<text text-anchor="start" x="26" y="-51.75" font-family="Helvetica,sans-Serif" font-weight="bold" font-size="10.00">&lt;l&gt;</text>
<polygon fill="none" stroke="black" points="16,-25.75 16,-45 51,-45 51,-25.75 16,-25.75"/>
<text text-anchor="start" x="20" y="-31.5" font-family="Helvetica,sans-Serif" font-size="10.00">n: 169</text>
</g>
<!-- w1 -->
<g id="node8" class="node">
<title>w1</title>
<polygon fill="#7aaad0" stroke="none" points="144,-54.62 144,-73.88 240.5,-73.88 240.5,-54.62 144,-54.62"/>
<polygon fill="none" stroke="black" points="144,-54.62 144,-73.88 240.5,-73.88 240.5,-54.62 144,-54.62"/>
<text text-anchor="start" x="182.5" y="-61.38" font-family="Helvetica,sans-Serif" font-weight="bold" font-size="10.00">&lt;w&gt;</text>
<polygon fill="none" stroke="black" points="144,-36.12 144,-54.62 240.5,-54.62 240.5,-36.12 144,-36.12"/>
<text text-anchor="start" x="148" y="-41.12" font-family="Helvetica,sans-Serif" font-size="10.00">秋</text>
<polygon fill="none" stroke="black" points="144,-16.12 144,-36.12 240.5,-36.12 240.5,-16.12 144,-16.12"/>
<text text-anchor="start" x="148" y="-22.62" font-family="Helvetica,sans-Serif" font-size="10.00">lemmaRef: #あき.秋</text>
</g>
<!-- l1&#45;&gt;w1 -->
<g id="edge3" class="edge">
<title>l1&#45;&gt;w1</title>
<path fill="none" stroke="#7aaad0" stroke-width="0.8" stroke-dasharray="5,2" d="M50.98,-45C70.42,-45 103.83,-45 133.16,-45"/>
<polygon fill="#7aaad0" stroke="#7aaad0" stroke-width="0.8" points="132.96,-48.5 142.96,-45 132.96,-41.5 132.96,-48.5"/>
</g>
<!-- w1&#45;&gt;hom1 -->
<g id="edge8" class="edge">
<title>w1&#45;&gt;hom1</title>
<path fill="none" stroke="#4477bb" stroke-width="2" d="M240.18,-81.69C247.87,-87.69 253.38,-92 253.38,-92 253.38,-92 322.26,-173.06 354.83,-211.38"/>
<polygon fill="#4477bb" stroke="#4477bb" stroke-width="2" points="242.38,-78.96 232.34,-75.56 238.06,-84.47 242.38,-78.96"/>
<text text-anchor="middle" x="280.3" y="-137.71" font-family="Helvetica,sans-Serif" font-size="8.00">lemmaRef</text>
</g>
<!-- l2 -->
<g id="node9" class="node">
<title>l2</title>
<polygon fill="#7aaad0" stroke="none" points="16,-139 16,-158.25 51,-158.25 51,-139 16,-139"/>
<polygon fill="none" stroke="black" points="16,-139 16,-158.25 51,-158.25 51,-139 16,-139"/>
<text text-anchor="start" x="26" y="-145.75" font-family="Helvetica,sans-Serif" font-weight="bold" font-size="10.00">&lt;l&gt;</text>
<polygon fill="none" stroke="black" points="16,-119.75 16,-139 51,-139 51,-119.75 16,-119.75"/>
<text text-anchor="start" x="20" y="-125.5" font-family="Helvetica,sans-Serif" font-size="10.00">n: 742</text>
</g>
<!-- w2 -->
<g id="node10" class="node">
<title>w2</title>
<polygon fill="#7aaad0" stroke="none" points="139.12,-148.62 139.12,-167.88 245.38,-167.88 245.38,-148.62 139.12,-148.62"/>
<polygon fill="none" stroke="black" points="139.12,-148.62 139.12,-167.88 245.38,-167.88 245.38,-148.62 139.12,-148.62"/>
<text text-anchor="start" x="182.5" y="-155.38" font-family="Helvetica,sans-Serif" font-weight="bold" font-size="10.00">&lt;w&gt;</text>
<polygon fill="none" stroke="black" points="139.12,-130.12 139.12,-148.62 245.38,-148.62 245.38,-130.12 139.12,-130.12"/>
<text text-anchor="start" x="143.12" y="-135.12" font-family="Helvetica,sans-Serif" font-size="10.00">あき</text>
<polygon fill="none" stroke="black" points="139.12,-110.12 139.12,-130.12 245.38,-130.12 245.38,-110.12 139.12,-110.12"/>
<text text-anchor="start" x="143.12" y="-116.62" font-family="Helvetica,sans-Serif" font-size="10.00">lemmaRef: #あき.飽く</text>
</g>
<!-- l2&#45;&gt;w2 -->
<g id="edge4" class="edge">
<title>l2&#45;&gt;w2</title>
<path fill="none" stroke="#7aaad0" stroke-width="0.8" stroke-dasharray="5,2" d="M50.98,-139C69.37,-139 100.24,-139 128.34,-139"/>
<polygon fill="#7aaad0" stroke="#7aaad0" stroke-width="0.8" points="128.14,-142.5 138.14,-139 128.14,-135.5 128.14,-142.5"/>
</g>
<!-- w2&#45;&gt;hom2 -->
<g id="edge9" class="edge">
<title>w2&#45;&gt;hom2</title>
<path fill="none" stroke="#4477bb" stroke-width="2" d="M234.06,-176.33C244.77,-186.12 253.38,-194 253.38,-194 253.38,-194 331.38,-269 331.38,-269 331.38,-269 340.79,-277.68 350.5,-286.63"/>
<polygon fill="#4477bb" stroke="#4477bb" stroke-width="2" points="236.7,-174 226.95,-169.83 231.97,-179.16 236.7,-174"/>
<text text-anchor="middle" x="273.94" y="-223.84" font-family="Helvetica,sans-Serif" font-size="8.00">lemmaRef</text>
</g>
</g>
</svg>
