<?xml version="1.0" encoding="UTF-8" standalone="no"?>
<!DOCTYPE svg PUBLIC "-//W3C//DTD SVG 1.1//EN"
 "http://www.w3.org/Graphics/SVG/1.1/DTD/svg11.dtd">
<!-- Generated by graphviz version 12.2.1 (0)
 -->
<!-- Title: search_kanazukai Pages: 1 -->
<svg width="748pt" height="555pt"
 viewBox="0.00 0.00 747.75 555.46" xmlns="http://www.w3.org/2000/svg" xmlns:xlink="http://www.w3.org/1999/xlink">
<g id="graph0" class="graph" transform="scale(1 1) rotate(0) translate(4 551.46)">
<title>search_kanazukai</title>
<polygon fill="#faf9f7" stroke="none" points="-4,4 -4,-551.46 743.75,-551.46 743.75,4 -4,4"/>
<g id="clust1" class="cluster">
<title>cluster_dict</title>
<path fill="#fef9ec" stroke="#ccaa44" d="M677.75,-91.73C677.75,-91.73 719.75,-91.73 719.75,-91.73 725.75,-91.73 731.75,-97.73 731.75,-103.73 731.75,-103.73 731.75,-173.73 731.75,-173.73 731.75,-179.73 725.75,-185.73 719.75,-185.73 719.75,-185.73 677.75,-185.73 677.75,-185.73 671.75,-185.73 665.75,-179.73 665.75,-173.73 665.75,-173.73 665.75,-103.73 665.75,-103.73 665.75,-97.73 671.75,-91.73 677.75,-91.73"/>
<text text-anchor="middle" x="698.75" y="-172.23" font-family="Helvetica,sans-Serif" font-size="10.00">dictionary</text>
</g>
<g id="clust2" class="cluster">
<title>cluster_body</title>
<path fill="#eef4fb" stroke="#7aaad0" d="M54.88,-216.73C54.88,-216.73 423.25,-216.73 423.25,-216.73 429.25,-216.73 435.25,-222.73 435.25,-228.73 435.25,-228.73 435.25,-485.73 435.25,-485.73 435.25,-491.73 429.25,-497.73 423.25,-497.73 423.25,-497.73 54.87,-497.73 54.87,-497.73 48.87,-497.73 42.88,-491.73 42.88,-485.73 42.88,-485.73 42.88,-228.73 42.88,-228.73 42.88,-222.73 48.88,-216.73 54.88,-216.73"/>
<text text-anchor="middle" x="239.06" y="-484.23" font-family="Helvetica,sans-Serif" font-size="10.00">&lt;body&gt;</text>
</g>
<g id="clust3" class="cluster">
<title>cluster_ri</title>
<path fill="#f0f7ee" stroke="#88bb77" d="M353.12,-58.73C353.12,-58.73 582.75,-58.73 582.75,-58.73 588.75,-58.73 594.75,-64.73 594.75,-70.73 594.75,-70.73 594.75,-196.73 594.75,-196.73 594.75,-202.73 588.75,-208.73 582.75,-208.73 582.75,-208.73 353.12,-208.73 353.12,-208.73 347.12,-208.73 341.12,-202.73 341.12,-196.73 341.12,-196.73 341.12,-70.73 341.12,-70.73 341.12,-64.73 347.12,-58.73 353.12,-58.73"/>
<text text-anchor="middle" x="467.94" y="-195.23" font-family="Helvetica,sans-Serif" font-size="10.00">reading&#45;index</text>
</g>
<!-- query_str -->
<g id="node1" class="node">
<title>query_str</title>
<polygon fill="#fdecea" stroke="none" points="16.5,0 16.5,-41.46 115,-41.46 115,0 16.5,0"/>
<text text-anchor="start" x="21.5" y="-27.96" font-family="Helvetica,sans-Serif" font-weight="bold" font-size="10.00">クエリ A（文字列）</text>
<text text-anchor="start" x="36.5" y="-7.5" font-family="Helvetica,sans-Serif" font-size="10.00">text() = &#39;こえ&#39;</text>
<polygon fill="none" stroke="#cc3333" points="16.5,0 16.5,-41.46 115,-41.46 115,0 16.5,0"/>
</g>
<!-- no_result -->
<g id="node2" class="node">
<title>no_result</title>
<polygon fill="#fdecea" stroke="none" points="366.5,-10.04 366.5,-31.42 391.5,-31.42 391.5,-10.04 366.5,-10.04"/>
<text text-anchor="start" x="371.5" y="-16.92" font-family="Helvetica,sans-Serif" font-size="10.00">0件</text>
<polygon fill="none" stroke="#cc3333" points="366.5,-10.04 366.5,-31.42 391.5,-31.42 391.5,-10.04 366.5,-10.04"/>
</g>
<!-- query_str&#45;&gt;no_result -->
<g id="edge6" class="edge">
<title>query_str&#45;&gt;no_result</title>
<path fill="none" stroke="#cc3333" stroke-width="2" d="M114.7,-20.73C182.2,-20.73 302.72,-20.73 353.92,-20.73"/>
<polygon fill="#cc3333" stroke="#cc3333" stroke-width="2" points="353.66,-24.23 363.66,-20.73 353.66,-17.23 353.66,-24.23"/>
<text text-anchor="middle" x="231.12" y="-22.38" font-family="Helvetica,sans-Serif" font-size="8.00">ミスマッチ（こゑ/こへ≠こえ）</text>
</g>
<!-- query_lemma -->
<g id="node3" class="node">
<title>query_lemma</title>
<polygon fill="#fff8e8" stroke="none" points="0,-506 0,-547.46 131.5,-547.46 131.5,-506 0,-506"/>
<text text-anchor="start" x="12.5" y="-533.96" font-family="Helvetica,sans-Serif" font-weight="bold" font-size="10.00">クエリ B（lemmaRef）</text>
<text text-anchor="start" x="5" y="-513.5" font-family="Helvetica,sans-Serif" font-size="10.00">contains(@lemmaRef, &#39;.声&#39;)</text>
<polygon fill="none" stroke="#cc8800" points="0,-506 0,-547.46 131.5,-547.46 131.5,-506 0,-506"/>
</g>
<!-- w1 -->
<g id="node6" class="node">
<title>w1</title>
<polygon fill="#7aaad0" stroke="none" points="330.75,-451.36 330.75,-470.61 427.25,-470.61 427.25,-451.36 330.75,-451.36"/>
<polygon fill="none" stroke="black" points="330.75,-451.36 330.75,-470.61 427.25,-470.61 427.25,-451.36 330.75,-451.36"/>
<text text-anchor="start" x="369.25" y="-458.11" font-family="Helvetica,sans-Serif" font-weight="bold" font-size="10.00">&lt;w&gt;</text>
<polygon fill="none" stroke="black" points="330.75,-432.86 330.75,-451.36 427.25,-451.36 427.25,-432.86 330.75,-432.86"/>
<text text-anchor="start" x="334.75" y="-437.86" font-family="Helvetica,sans-Serif" font-size="10.00">こゑ</text>
<polygon fill="none" stroke="black" points="330.75,-412.86 330.75,-432.86 427.25,-432.86 427.25,-412.86 330.75,-412.86"/>
<text text-anchor="start" x="334.75" y="-419.36" font-family="Helvetica,sans-Serif" font-size="10.00">lemmaRef: #こゑ.声</text>
</g>
<!-- query_lemma&#45;&gt;w1 -->
<g id="edge7" class="edge">
<title>query_lemma&#45;&gt;w1</title>
<path fill="none" stroke="#cc6600" stroke-width="2" d="M131.27,-520.31C196.5,-513.81 287.75,-504.73 287.75,-504.73 287.75,-504.73 306.08,-491.93 326.23,-477.87"/>
<polygon fill="#cc6600" stroke="#cc6600" stroke-width="2" points="328.16,-480.79 334.35,-472.2 324.15,-475.05 328.16,-480.79"/>
</g>
<!-- w2 -->
<g id="node8" class="node">
<title>w2</title>
<polygon fill="#7aaad0" stroke="none" points="330.75,-357.36 330.75,-376.61 427.25,-376.61 427.25,-357.36 330.75,-357.36"/>
<polygon fill="none" stroke="black" points="330.75,-357.36 330.75,-376.61 427.25,-376.61 427.25,-357.36 330.75,-357.36"/>
<text text-anchor="start" x="369.25" y="-364.11" font-family="Helvetica,sans-Serif" font-weight="bold" font-size="10.00">&lt;w&gt;</text>
<polygon fill="none" stroke="black" points="330.75,-338.86 330.75,-357.36 427.25,-357.36 427.25,-338.86 330.75,-338.86"/>
<text text-anchor="start" x="334.75" y="-343.86" font-family="Helvetica,sans-Serif" font-size="10.00">こゑ</text>
<polygon fill="none" stroke="black" points="330.75,-318.86 330.75,-338.86 427.25,-338.86 427.25,-318.86 330.75,-318.86"/>
<text text-anchor="start" x="334.75" y="-325.36" font-family="Helvetica,sans-Serif" font-size="10.00">lemmaRef: #こゑ.声</text>
</g>
<!-- query_lemma&#45;&gt;w2 -->
<g id="edge8" class="edge">
<title>query_lemma&#45;&gt;w2</title>
<path fill="none" stroke="#cc6600" stroke-width="1.5" d="M131.27,-507.75C196.5,-488.57 287.75,-461.73 287.75,-461.73 287.75,-461.73 330.75,-394.73 330.75,-394.73 330.75,-394.73 334.8,-390.7 340.53,-385.01"/>
<polygon fill="#cc6600" stroke="#cc6600" stroke-width="1.5" points="342.92,-387.56 347.54,-378.03 337.99,-382.6 342.92,-387.56"/>
</g>
<!-- w3 -->
<g id="node10" class="node">
<title>w3</title>
<polygon fill="#7aaad0" stroke="none" points="330.75,-263.36 330.75,-282.61 427.25,-282.61 427.25,-263.36 330.75,-263.36"/>
<polygon fill="none" stroke="black" points="330.75,-263.36 330.75,-282.61 427.25,-282.61 427.25,-263.36 330.75,-263.36"/>
<text text-anchor="start" x="369.25" y="-270.11" font-family="Helvetica,sans-Serif" font-weight="bold" font-size="10.00">&lt;w&gt;</text>
<polygon fill="none" stroke="black" points="330.75,-244.86 330.75,-263.36 427.25,-263.36 427.25,-244.86 330.75,-244.86"/>
<text text-anchor="start" x="334.75" y="-249.86" font-family="Helvetica,sans-Serif" font-size="10.00">こへ</text>
<polygon fill="none" stroke="black" points="330.75,-224.86 330.75,-244.86 427.25,-244.86 427.25,-224.86 330.75,-224.86"/>
<text text-anchor="start" x="334.75" y="-231.36" font-family="Helvetica,sans-Serif" font-size="10.00">lemmaRef: #こへ.声</text>
</g>
<!-- query_lemma&#45;&gt;w3 -->
<g id="edge9" class="edge">
<title>query_lemma&#45;&gt;w3</title>
<path fill="none" stroke="#cc6600" stroke-width="1.5" d="M120.22,-506.08C126.93,-503.49 131.5,-501.73 131.5,-501.73 131.5,-501.73 330.75,-300.73 330.75,-300.73 330.75,-300.73 334.8,-296.7 340.53,-291.01"/>
<polygon fill="#cc6600" stroke="#cc6600" stroke-width="1.5" points="342.92,-293.56 347.54,-284.03 337.99,-288.6 342.92,-293.56"/>
</g>
<!-- e_koe -->
<g id="node4" class="node">
<title>e_koe</title>
<polygon fill="#ccaa44" stroke="none" points="673.75,-138.73 673.75,-157.98 723.75,-157.98 723.75,-138.73 673.75,-138.73"/>
<polygon fill="none" stroke="black" points="673.75,-138.73 673.75,-157.98 723.75,-157.98 723.75,-138.73 673.75,-138.73"/>
<text text-anchor="start" x="681.12" y="-145.48" font-family="Helvetica,sans-Serif" font-weight="bold" font-size="10.00">&lt;entry&gt;</text>
<polygon fill="none" stroke="black" points="673.75,-118.73 673.75,-138.73 723.75,-138.73 723.75,-118.73 673.75,-118.73"/>
<text text-anchor="start" x="677.75" y="-125.23" font-family="Helvetica,sans-Serif" font-size="10.00">xml:id: 声</text>
<polygon fill="none" stroke="black" points="673.75,-99.48 673.75,-118.73 723.75,-118.73 723.75,-99.48 673.75,-99.48"/>
<text text-anchor="start" x="677.75" y="-105.23" font-family="Helvetica,sans-Serif" font-size="10.00">pos: N.g</text>
</g>
<!-- l1 -->
<g id="node5" class="node">
<title>l1</title>
<polygon fill="#7aaad0" stroke="none" points="50.88,-417.73 50.88,-436.98 80.62,-436.98 80.62,-417.73 50.88,-417.73"/>
<polygon fill="none" stroke="black" points="50.88,-417.73 50.88,-436.98 80.62,-436.98 80.62,-417.73 50.88,-417.73"/>
<text text-anchor="start" x="58.25" y="-424.48" font-family="Helvetica,sans-Serif" font-weight="bold" font-size="10.00">&lt;l&gt;</text>
<polygon fill="none" stroke="black" points="50.88,-398.48 50.88,-417.73 80.62,-417.73 80.62,-398.48 50.88,-398.48"/>
<text text-anchor="start" x="54.88" y="-404.23" font-family="Helvetica,sans-Serif" font-size="10.00">n: 14</text>
</g>
<!-- l1&#45;&gt;w1 -->
<g id="edge1" class="edge">
<title>l1&#45;&gt;w1</title>
<path fill="none" stroke="#7aaad0" stroke-width="0.8" stroke-dasharray="5,2" d="M80.53,-418.79C121.71,-421.97 245.62,-431.52 319.89,-437.25"/>
<polygon fill="#7aaad0" stroke="#7aaad0" stroke-width="0.8" points="319.47,-440.73 329.71,-438.01 320.01,-433.75 319.47,-440.73"/>
</g>
<!-- hom_kowe -->
<g id="node12" class="node">
<title>hom_kowe</title>
<polygon fill="#88bb77" stroke="none" points="514.25,-162.11 514.25,-181.36 586.75,-181.36 586.75,-162.11 514.25,-162.11"/>
<polygon fill="none" stroke="black" points="514.25,-162.11 514.25,-181.36 586.75,-181.36 586.75,-162.11 514.25,-162.11"/>
<text text-anchor="start" x="534" y="-168.86" font-family="Helvetica,sans-Serif" font-weight="bold" font-size="10.00">&lt;hom&gt;</text>
<polygon fill="none" stroke="black" points="514.25,-142.11 514.25,-162.11 586.75,-162.11 586.75,-142.11 514.25,-142.11"/>
<text text-anchor="start" x="518.25" y="-148.61" font-family="Helvetica,sans-Serif" font-size="10.00">xml:id: こゑ.声</text>
</g>
<!-- w1&#45;&gt;hom_kowe -->
<g id="edge10" class="edge">
<title>w1&#45;&gt;hom_kowe</title>
<path fill="none" stroke="#4477bb" stroke-width="2" d="M423.36,-404.85C430.3,-398.94 435.25,-394.73 435.25,-394.73 435.25,-394.73 512.5,-237.19 539.96,-181.19"/>
<polygon fill="#4477bb" stroke="#4477bb" stroke-width="2" points="421.39,-401.93 416.04,-411.07 425.92,-407.26 421.39,-401.93"/>
<text text-anchor="middle" x="465.79" y="-287.37" font-family="Helvetica,sans-Serif" font-size="8.00">lemmaRef</text>
</g>
<!-- l2 -->
<g id="node7" class="node">
<title>l2</title>
<polygon fill="#7aaad0" stroke="none" points="50.88,-342.73 50.88,-361.98 80.62,-361.98 80.62,-342.73 50.88,-342.73"/>
<polygon fill="none" stroke="black" points="50.88,-342.73 50.88,-361.98 80.62,-361.98 80.62,-342.73 50.88,-342.73"/>
<text text-anchor="start" x="58.25" y="-349.48" font-family="Helvetica,sans-Serif" font-weight="bold" font-size="10.00">&lt;l&gt;</text>
<polygon fill="none" stroke="black" points="50.88,-323.48 50.88,-342.73 80.62,-342.73 80.62,-323.48 50.88,-323.48"/>
<text text-anchor="start" x="54.88" y="-329.23" font-family="Helvetica,sans-Serif" font-size="10.00">n: 38</text>
</g>
<!-- l2&#45;&gt;w2 -->
<g id="edge2" class="edge">
<title>l2&#45;&gt;w2</title>
<path fill="none" stroke="#7aaad0" stroke-width="0.8" stroke-dasharray="5,2" d="M80.53,-342.95C121.71,-343.61 245.62,-345.6 319.89,-346.8"/>
<polygon fill="#7aaad0" stroke="#7aaad0" stroke-width="0.8" points="319.65,-350.29 329.71,-346.95 319.76,-343.29 319.65,-350.29"/>
</g>
<!-- w2&#45;&gt;hom_kowe -->
<g id="edge11" class="edge">
<title>w2&#45;&gt;hom_kowe</title>
<path fill="none" stroke="#4477bb" stroke-width="1.5" d="M422.89,-311.24C430.08,-305.13 435.25,-300.73 435.25,-300.73 435.25,-300.73 501.88,-219.67 533.37,-181.35"/>
<polygon fill="#4477bb" stroke="#4477bb" stroke-width="1.5" points="420.81,-308.42 415.46,-317.57 425.34,-313.75 420.81,-308.42"/>
</g>
<!-- l3 -->
<g id="node9" class="node">
<title>l3</title>
<polygon fill="#7aaad0" stroke="none" points="50.88,-253.73 50.88,-272.98 80.62,-272.98 80.62,-253.73 50.88,-253.73"/>
<polygon fill="none" stroke="black" points="50.88,-253.73 50.88,-272.98 80.62,-272.98 80.62,-253.73 50.88,-253.73"/>
<text text-anchor="start" x="58.25" y="-260.48" font-family="Helvetica,sans-Serif" font-weight="bold" font-size="10.00">&lt;l&gt;</text>
<polygon fill="none" stroke="black" points="50.88,-234.48 50.88,-253.73 80.62,-253.73 80.62,-234.48 50.88,-234.48"/>
<text text-anchor="start" x="54.88" y="-240.23" font-family="Helvetica,sans-Serif" font-size="10.00">n: 55</text>
</g>
<!-- l3&#45;&gt;w3 -->
<g id="edge3" class="edge">
<title>l3&#45;&gt;w3</title>
<path fill="none" stroke="#7aaad0" stroke-width="0.8" stroke-dasharray="5,2" d="M80.53,-253.73C121.71,-253.73 245.62,-253.73 319.89,-253.73"/>
<polygon fill="#7aaad0" stroke="#7aaad0" stroke-width="0.8" points="319.71,-257.23 329.71,-253.73 319.71,-250.23 319.71,-257.23"/>
</g>
<!-- hom_kohe -->
<g id="node14" class="node">
<title>hom_kohe</title>
<polygon fill="#88bb77" stroke="none" points="514.25,-87.11 514.25,-106.36 586.75,-106.36 586.75,-87.11 514.25,-87.11"/>
<polygon fill="none" stroke="black" points="514.25,-87.11 514.25,-106.36 586.75,-106.36 586.75,-87.11 514.25,-87.11"/>
<text text-anchor="start" x="534" y="-93.86" font-family="Helvetica,sans-Serif" font-weight="bold" font-size="10.00">&lt;hom&gt;</text>
<polygon fill="none" stroke="black" points="514.25,-67.11 514.25,-87.11 586.75,-87.11 586.75,-67.11 514.25,-67.11"/>
<text text-anchor="start" x="518.25" y="-73.61" font-family="Helvetica,sans-Serif" font-size="10.00">xml:id: こへ.声</text>
</g>
<!-- w3&#45;&gt;hom_kohe -->
<g id="edge12" class="edge">
<title>w3&#45;&gt;hom_kohe</title>
<path fill="none" stroke="#4477bb" stroke-width="1.5" d="M434.21,-218.41C434.88,-217.97 435.25,-217.73 435.25,-217.73 435.25,-217.73 514.25,-123.73 514.25,-123.73 514.25,-123.73 522.52,-115.05 531.05,-106.1"/>
<polygon fill="#4477bb" stroke="#4477bb" stroke-width="1.5" points="432.44,-215.38 425.97,-223.78 436.26,-221.25 432.44,-215.38"/>
<text text-anchor="middle" x="463.81" y="-154.28" font-family="Helvetica,sans-Serif" font-size="8.00">lemmaRef</text>
</g>
<!-- ri_kowe -->
<g id="node11" class="node">
<title>ri_kowe</title>
<polygon fill="#88bb77" stroke="none" points="349.12,-162.11 349.12,-181.36 408.88,-181.36 408.88,-162.11 349.12,-162.11"/>
<polygon fill="none" stroke="black" points="349.12,-162.11 349.12,-181.36 408.88,-181.36 408.88,-162.11 349.12,-162.11"/>
<text text-anchor="start" x="361.38" y="-168.86" font-family="Helvetica,sans-Serif" font-weight="bold" font-size="10.00">&lt;entry&gt;</text>
<polygon fill="none" stroke="black" points="349.12,-142.11 349.12,-162.11 408.88,-162.11 408.88,-142.11 349.12,-142.11"/>
<text text-anchor="start" x="353.12" y="-148.61" font-family="Helvetica,sans-Serif" font-size="10.00">xml:id: こゑ</text>
</g>
<!-- ri_kowe&#45;&gt;hom_kowe -->
<g id="edge4" class="edge">
<title>ri_kowe&#45;&gt;hom_kowe</title>
<path fill="none" stroke="#88bb77" stroke-width="0.8" stroke-dasharray="5,2" d="M408.75,-161.73C434.63,-161.73 473.12,-161.73 503.31,-161.73"/>
<polygon fill="#88bb77" stroke="#88bb77" stroke-width="0.8" points="503.22,-165.23 513.22,-161.73 503.22,-158.23 503.22,-165.23"/>
</g>
<!-- hom_kowe&#45;&gt;e_koe -->
<g id="edge13" class="edge">
<title>hom_kowe&#45;&gt;e_koe</title>
<path fill="none" stroke="#cc6600" stroke-width="1.5" d="M586.53,-153.83C609.45,-148.65 639.3,-141.92 662.31,-136.73"/>
<polygon fill="#cc6600" stroke="#cc6600" stroke-width="1.5" points="662.77,-140.21 671.75,-134.6 661.23,-133.38 662.77,-140.21"/>
<text text-anchor="middle" x="619.54" y="-137.68" font-family="Helvetica,sans-Serif" font-size="8.00">ref</text>
</g>
<!-- ri_kohe -->
<g id="node13" class="node">
<title>ri_kohe</title>
<polygon fill="#88bb77" stroke="none" points="349.12,-87.11 349.12,-106.36 408.88,-106.36 408.88,-87.11 349.12,-87.11"/>
<polygon fill="none" stroke="black" points="349.12,-87.11 349.12,-106.36 408.88,-106.36 408.88,-87.11 349.12,-87.11"/>
<text text-anchor="start" x="361.38" y="-93.86" font-family="Helvetica,sans-Serif" font-weight="bold" font-size="10.00">&lt;entry&gt;</text>
<polygon fill="none" stroke="black" points="349.12,-67.11 349.12,-87.11 408.88,-87.11 408.88,-67.11 349.12,-67.11"/>
<text text-anchor="start" x="353.12" y="-73.61" font-family="Helvetica,sans-Serif" font-size="10.00">xml:id: こへ</text>
</g>
<!-- ri_kohe&#45;&gt;hom_kohe -->
<g id="edge5" class="edge">
<title>ri_kohe&#45;&gt;hom_kohe</title>
<path fill="none" stroke="#88bb77" stroke-width="0.8" stroke-dasharray="5,2" d="M408.75,-86.73C434.63,-86.73 473.12,-86.73 503.31,-86.73"/>
<polygon fill="#88bb77" stroke="#88bb77" stroke-width="0.8" points="503.22,-90.23 513.22,-86.73 503.22,-83.23 503.22,-90.23"/>
</g>
<!-- hom_kohe&#45;&gt;e_koe -->
<g id="edge14" class="edge">
<title>hom_kohe&#45;&gt;e_koe</title>
<path fill="none" stroke="#cc6600" stroke-width="1.5" d="M586.53,-96.79C609.45,-103.37 639.3,-111.95 662.31,-118.55"/>
<polygon fill="#cc6600" stroke="#cc6600" stroke-width="1.5" points="661.21,-121.88 671.79,-121.27 663.14,-115.15 661.21,-121.88"/>
<text text-anchor="middle" x="619.54" y="-100.07" font-family="Helvetica,sans-Serif" font-size="8.00">ref</text>
</g>
</g>
</svg>
