<?xml version="1.0" encoding="UTF-8" standalone="no"?>
<!DOCTYPE svg PUBLIC "-//W3C//DTD SVG 1.1//EN"
 "http://www.w3.org/Graphics/SVG/1.1/DTD/svg11.dtd">
<!-- Generated by graphviz version 12.2.1 (0)
 -->
<!-- Title: search_aki Pages: 1 -->
<svg width="583pt" height="444pt"
 viewBox="0.00 0.00 583.38 444.00" xmlns="http://www.w3.org/2000/svg" xmlns:xlink="http://www.w3.org/1999/xlink">
<g id="graph0" class="graph" transform="scale(1 1) rotate(0) translate(4 440)">
<title>search_aki</title>
<polygon fill="#faf9f7" stroke="none" points="-4,4 -4,-440 579.38,-440 579.38,4 -4,4"/>
<g id="clust1" class="cluster">
<title>cluster_ri</title>
<path fill="#f0f7ee" stroke="#88bb77" d="M166.38,-203C166.38,-203 409.62,-203 409.62,-203 415.62,-203 421.62,-209 421.62,-215 421.62,-215 421.62,-416 421.62,-416 421.62,-422 415.62,-428 409.62,-428 409.62,-428 166.38,-428 166.38,-428 160.38,-428 154.38,-422 154.38,-416 154.38,-416 154.38,-215 154.38,-215 154.38,-209 160.38,-203 166.38,-203"/>
<text text-anchor="middle" x="288" y="-414.5" font-family="Helvetica,sans-Serif" font-size="10.00">reading&#45;index</text>
</g>
<g id="clust2" class="cluster">
<title>cluster_dict</title>
<path fill="#fef9ec" stroke="#ccaa44" d="M503.62,-194C503.62,-194 555.38,-194 555.38,-194 561.38,-194 567.38,-200 567.38,-206 567.38,-206 567.38,-371 567.38,-371 567.38,-377 561.38,-383 555.38,-383 555.38,-383 503.62,-383 503.62,-383 497.62,-383 491.62,-377 491.62,-371 491.62,-371 491.62,-206 491.62,-206 491.62,-200 497.62,-194 503.62,-194"/>
<text text-anchor="middle" x="529.5" y="-369.5" font-family="Helvetica,sans-Serif" font-size="10.00">dictionary</text>
</g>
<g id="clust3" class="cluster">
<title>cluster_body</title>
<path fill="#eef4fb" stroke="#7aaad0" d="M20,-8C20,-8 241.38,-8 241.38,-8 247.38,-8 253.38,-14 253.38,-20 253.38,-20 253.38,-183 253.38,-183 253.38,-189 247.38,-195 241.38,-195 241.38,-195 20,-195 20,-195 14,-195 8,-189 8,-183 8,-183 8,-20 8,-20 8,-14 14,-8 20,-8"/>
<text text-anchor="middle" x="130.69" y="-181.5" font-family="Helvetica,sans-Serif" font-size="10.00">&lt;body&gt;</text>
</g>
<!-- query -->
<g id="node1" class="node">
<title>query</title>
<polygon fill="#fff8e8" stroke="none" points="13.88,-361.5 13.88,-400.5 53.12,-400.5 53.12,-361.5 13.88,-361.5"/>
<text text-anchor="start" x="18.88" y="-387" font-family="Helvetica,sans-Serif" font-weight="bold" font-size="10.00">クエリ</text>
<text text-anchor="start" x="23.75" y="-367.5" font-family="Helvetica,sans-Serif" font-size="10.00">あき</text>
<polygon fill="none" stroke="#cc8800" points="13.88,-361.5 13.88,-400.5 53.12,-400.5 53.12,-361.5 13.88,-361.5"/>
</g>
<!-- ri_aki -->
<g id="node2" class="node">
<title>ri_aki</title>
<polygon fill="#88bb77" stroke="none" points="162.38,-381.38 162.38,-400.62 222.12,-400.62 222.12,-381.38 162.38,-381.38"/>
<polygon fill="none" stroke="black" points="162.38,-381.38 162.38,-400.62 222.12,-400.62 222.12,-381.38 162.38,-381.38"/>
<text text-anchor="start" x="174.62" y="-388.12" font-family="Helvetica,sans-Serif" font-weight="bold" font-size="10.00">&lt;entry&gt;</text>
<polygon fill="none" stroke="black" points="162.38,-361.38 162.38,-381.38 222.12,-381.38 222.12,-361.38 162.38,-361.38"/>
<text text-anchor="start" x="166.38" y="-367.88" font-family="Helvetica,sans-Serif" font-size="10.00">xml:id: あき</text>
</g>
<!-- query&#45;&gt;ri_aki -->
<g id="edge6" class="edge">
<title>query&#45;&gt;ri_aki</title>
<path fill="none" stroke="#cc6600" stroke-width="2" d="M53.1,-381C76.8,-381 118.45,-381 149.85,-381"/>
<polygon fill="#cc6600" stroke="#cc6600" stroke-width="2" points="149.56,-384.5 159.56,-381 149.56,-377.5 149.56,-384.5"/>
</g>
<!-- hom_aki_aki -->
<g id="node3" class="node">
<title>hom_aki_aki</title>
<polygon fill="#88bb77" stroke="none" points="336.25,-231.38 336.25,-250.62 408.75,-250.62 408.75,-231.38 336.25,-231.38"/>
<polygon fill="none" stroke="black" points="336.25,-231.38 336.25,-250.62 408.75,-250.62 408.75,-231.38 336.25,-231.38"/>
<text text-anchor="start" x="356" y="-238.12" font-family="Helvetica,sans-Serif" font-weight="bold" font-size="10.00">&lt;hom&gt;</text>
<polygon fill="none" stroke="black" points="336.25,-211.38 336.25,-231.38 408.75,-231.38 408.75,-211.38 336.25,-211.38"/>
<text text-anchor="start" x="340.25" y="-217.88" font-family="Helvetica,sans-Serif" font-size="10.00">xml:id: あき.秋</text>
</g>
<!-- ri_aki&#45;&gt;hom_aki_aki -->
<g id="edge1" class="edge">
<title>ri_aki&#45;&gt;hom_aki_aki</title>
<path fill="none" stroke="#88bb77" stroke-width="0.8" stroke-dasharray="5,2" d="M221.9,-363.37C237.39,-353.84 253.38,-344 253.38,-344 253.38,-344 331.38,-268 331.38,-268 331.38,-268 336.24,-263.52 342.58,-257.67"/>
<polygon fill="#88bb77" stroke="#88bb77" stroke-width="0.8" points="344.63,-260.54 349.61,-251.19 339.88,-255.39 344.63,-260.54"/>
</g>
<!-- hom_aki_aku -->
<g id="node4" class="node">
<title>hom_aki_aku</title>
<polygon fill="#88bb77" stroke="none" points="331.38,-381.38 331.38,-400.62 413.62,-400.62 413.62,-381.38 331.38,-381.38"/>
<polygon fill="none" stroke="black" points="331.38,-381.38 331.38,-400.62 413.62,-400.62 413.62,-381.38 331.38,-381.38"/>
<text text-anchor="start" x="356" y="-388.12" font-family="Helvetica,sans-Serif" font-weight="bold" font-size="10.00">&lt;hom&gt;</text>
<polygon fill="none" stroke="black" points="331.38,-361.38 331.38,-381.38 413.62,-381.38 413.62,-361.38 331.38,-361.38"/>
<text text-anchor="start" x="335.38" y="-367.88" font-family="Helvetica,sans-Serif" font-size="10.00">xml:id: あき.飽く</text>
</g>
<!-- ri_aki&#45;&gt;hom_aki_aku -->
<g id="edge2" class="edge">
<title>ri_aki&#45;&gt;hom_aki_aku</title>
<path fill="none" stroke="#88bb77" stroke-width="0.8" stroke-dasharray="5,2" d="M221.89,-381C248.47,-381 288.66,-381 320.69,-381"/>
<polygon fill="#88bb77" stroke="#88bb77" stroke-width="0.8" points="320.43,-384.5 330.43,-381 320.43,-377.5 320.43,-384.5"/>
</g>
<!-- e_aki -->
<g id="node7" class="node">
<title>e_aki</title>
<polygon fill="#ccaa44" stroke="none" points="504.5,-241 504.5,-260.25 554.5,-260.25 554.5,-241 504.5,-241"/>
<polygon fill="none" stroke="black" points="504.5,-241 504.5,-260.25 554.5,-260.25 554.5,-241 504.5,-241"/>
<text text-anchor="start" x="511.88" y="-247.75" font-family="Helvetica,sans-Serif" font-weight="bold" font-size="10.00">&lt;entry&gt;</text>
<polygon fill="none" stroke="black" points="504.5,-221 504.5,-241 554.5,-241 554.5,-221 504.5,-221"/>
<text text-anchor="start" x="508.5" y="-227.5" font-family="Helvetica,sans-Serif" font-size="10.00">xml:id: 秋</text>
<polygon fill="none" stroke="black" points="504.5,-201.75 504.5,-221 554.5,-221 554.5,-201.75 504.5,-201.75"/>
<text text-anchor="start" x="508.5" y="-207.5" font-family="Helvetica,sans-Serif" font-size="10.00">pos: N.g</text>
</g>
<!-- hom_aki_aki&#45;&gt;e_aki -->
<g id="edge7" class="edge">
<title>hom_aki_aki&#45;&gt;e_aki</title>
<path fill="none" stroke="#cc6600" stroke-width="2" d="M408.67,-231C433.51,-231 466.7,-231 491.86,-231"/>
<polygon fill="#cc6600" stroke="#cc6600" stroke-width="2" points="491.52,-234.5 501.52,-231 491.52,-227.5 491.52,-234.5"/>
<text text-anchor="middle" x="445.39" y="-223.4" font-family="Helvetica,sans-Serif" font-size="8.00">ref</text>
</g>
<!-- e_aku -->
<g id="node8" class="node">
<title>e_aku</title>
<polygon fill="#ccaa44" stroke="none" points="499.62,-336 499.62,-355.25 559.38,-355.25 559.38,-336 499.62,-336"/>
<polygon fill="none" stroke="black" points="499.62,-336 499.62,-355.25 559.38,-355.25 559.38,-336 499.62,-336"/>
<text text-anchor="start" x="511.88" y="-342.75" font-family="Helvetica,sans-Serif" font-weight="bold" font-size="10.00">&lt;entry&gt;</text>
<polygon fill="none" stroke="black" points="499.62,-316 499.62,-336 559.38,-336 559.38,-316 499.62,-316"/>
<text text-anchor="start" x="503.62" y="-322.5" font-family="Helvetica,sans-Serif" font-size="10.00">xml:id: 飽く</text>
<polygon fill="none" stroke="black" points="499.62,-296.75 499.62,-316 559.38,-316 559.38,-296.75 499.62,-296.75"/>
<text text-anchor="start" x="503.62" y="-302.5" font-family="Helvetica,sans-Serif" font-size="10.00">pos: V.k</text>
</g>
<!-- hom_aki_aku&#45;&gt;e_aku -->
<g id="edge8" class="edge">
<title>hom_aki_aku&#45;&gt;e_aku</title>
<path fill="none" stroke="#cc6600" stroke-width="2" d="M413.42,-366.84C436.27,-358.73 464.88,-348.57 487.86,-340.42"/>
<polygon fill="#cc6600" stroke="#cc6600" stroke-width="2" points="488.87,-343.78 497.12,-337.14 486.52,-337.18 488.87,-343.78"/>
<text text-anchor="middle" x="445.76" y="-346.03" font-family="Helvetica,sans-Serif" font-size="8.00">ref</text>
</g>
<!-- ri_aka -->
<g id="node5" class="node">
<title>ri_aka</title>
<polygon fill="#88bb77" stroke="none" points="162.38,-306.38 162.38,-325.62 222.12,-325.62 222.12,-306.38 162.38,-306.38"/>
<polygon fill="none" stroke="black" points="162.38,-306.38 162.38,-325.62 222.12,-325.62 222.12,-306.38 162.38,-306.38"/>
<text text-anchor="start" x="174.62" y="-313.12" font-family="Helvetica,sans-Serif" font-weight="bold" font-size="10.00">&lt;entry&gt;</text>
<polygon fill="none" stroke="black" points="162.38,-286.38 162.38,-306.38 222.12,-306.38 222.12,-286.38 162.38,-286.38"/>
<text text-anchor="start" x="166.38" y="-292.88" font-family="Helvetica,sans-Serif" font-size="10.00">xml:id: あか</text>
</g>
<!-- hom_aka_aku -->
<g id="node6" class="node">
<title>hom_aka_aku</title>
<polygon fill="#88bb77" stroke="none" points="331.38,-306.38 331.38,-325.62 413.62,-325.62 413.62,-306.38 331.38,-306.38"/>
<polygon fill="none" stroke="black" points="331.38,-306.38 331.38,-325.62 413.62,-325.62 413.62,-306.38 331.38,-306.38"/>
<text text-anchor="start" x="356" y="-313.12" font-family="Helvetica,sans-Serif" font-weight="bold" font-size="10.00">&lt;hom&gt;</text>
<polygon fill="none" stroke="black" points="331.38,-286.38 331.38,-306.38 413.62,-306.38 413.62,-286.38 331.38,-286.38"/>
<text text-anchor="start" x="335.38" y="-292.88" font-family="Helvetica,sans-Serif" font-size="10.00">xml:id: あか.飽く</text>
</g>
<!-- ri_aka&#45;&gt;hom_aka_aku -->
<g id="edge3" class="edge">
<title>ri_aka&#45;&gt;hom_aka_aku</title>
<path fill="none" stroke="#88bb77" stroke-width="0.8" stroke-dasharray="5,2" d="M221.89,-306C248.47,-306 288.66,-306 320.69,-306"/>
<polygon fill="#88bb77" stroke="#88bb77" stroke-width="0.8" points="320.43,-309.5 330.43,-306 320.43,-302.5 320.43,-309.5"/>
</g>
<!-- hom_aka_aku&#45;&gt;e_aku -->
<g id="edge9" class="edge">
<title>hom_aka_aku&#45;&gt;e_aku</title>
<path fill="none" stroke="#999999" stroke-width="1.2" d="M413.42,-311.15C436.48,-314.13 465.41,-317.86 488.5,-320.84"/>
<polygon fill="#999999" stroke="#999999" stroke-width="1.2" points="487.8,-324.28 498.17,-322.09 488.7,-317.34 487.8,-324.28"/>
<text text-anchor="middle" x="446.08" y="-308.39" font-family="Helvetica,sans-Serif" font-size="8.00">ref</text>
</g>
<!-- l1 -->
<g id="node9" class="node">
<title>l1</title>
<polygon fill="#7aaad0" stroke="none" points="16,-45 16,-64.25 51,-64.25 51,-45 16,-45"/>
<polygon fill="none" stroke="black" points="16,-45 16,-64.25 51,-64.25 51,-45 16,-45"/>
<text text-anchor="start" x="26" y="-51.75" font-family="Helvetica,sans-Serif" font-weight="bold" font-size="10.00">&lt;l&gt;</text>
<polygon fill="none" stroke="black" points="16,-25.75 16,-45 51,-45 51,-25.75 16,-25.75"/>
<text text-anchor="start" x="20" y="-31.5" font-family="Helvetica,sans-Serif" font-size="10.00">n: 169</text>
</g>
<!-- w1 -->
<g id="node10" class="node">
<title>w1</title>
<polygon fill="#7aaad0" stroke="none" points="144,-54.62 144,-73.88 240.5,-73.88 240.5,-54.62 144,-54.62"/>
<polygon fill="none" stroke="black" points="144,-54.62 144,-73.88 240.5,-73.88 240.5,-54.62 144,-54.62"/>
<text text-anchor="start" x="182.5" y="-61.38" font-family="Helvetica,sans-Serif" font-weight="bold" font-size="10.00">&lt;w&gt;</text>
<polygon fill="none" stroke="black" points="144,-36.12 144,-54.62 240.5,-54.62 240.5,-36.12 144,-36.12"/>
<text text-anchor="start" x="148" y="-41.12" font-family="Helvetica,sans-Serif" font-size="10.00">秋</text>
<polygon fill="none" stroke="black" points="144,-16.12 144,-36.12 240.5,-36.12 240.5,-16.12 144,-16.12"/>
<text text-anchor="start" x="148" y="-22.62" font-family="Helvetica,sans-Serif" font-size="10.00">lemmaRef: #あき.秋</text>
</g>
<!-- l1&#45;&gt;w1 -->
<g id="edge4" class="edge">
<title>l1&#45;&gt;w1</title>
<path fill="none" stroke="#7aaad0" stroke-width="0.8" stroke-dasharray="5,2" d="M50.98,-45C70.42,-45 103.83,-45 133.16,-45"/>
<polygon fill="#7aaad0" stroke="#7aaad0" stroke-width="0.8" points="132.96,-48.5 142.96,-45 132.96,-41.5 132.96,-48.5"/>
</g>
<!-- w1&#45;&gt;hom_aki_aki -->
<g id="edge10" class="edge">
<title>w1&#45;&gt;hom_aki_aki</title>
<path fill="none" stroke="#4477bb" stroke-width="2" d="M240.18,-81.69C247.87,-87.69 253.38,-92 253.38,-92 253.38,-92 322.26,-173.06 354.83,-211.38"/>
<polygon fill="#4477bb" stroke="#4477bb" stroke-width="2" points="242.38,-78.96 232.34,-75.56 238.06,-84.47 242.38,-78.96"/>
<text text-anchor="middle" x="280.3" y="-137.71" font-family="Helvetica,sans-Serif" font-size="8.00">lemmaRef</text>
</g>
<!-- l2 -->
<g id="node11" class="node">
<title>l2</title>
<polygon fill="#7aaad0" stroke="none" points="16,-139 16,-158.25 51,-158.25 51,-139 16,-139"/>
<polygon fill="none" stroke="black" points="16,-139 16,-158.25 51,-158.25 51,-139 16,-139"/>
<text text-anchor="start" x="26" y="-145.75" font-family="Helvetica,sans-Serif" font-weight="bold" font-size="10.00">&lt;l&gt;</text>
<polygon fill="none" stroke="black" points="16,-119.75 16,-139 51,-139 51,-119.75 16,-119.75"/>
<text text-anchor="start" x="20" y="-125.5" font-family="Helvetica,sans-Serif" font-size="10.00">n: 742</text>
</g>
<!-- w2 -->
<g id="node12" class="node">
<title>w2</title>
<polygon fill="#7aaad0" stroke="none" points="139.12,-148.62 139.12,-167.88 245.38,-167.88 245.38,-148.62 139.12,-148.62"/>
<polygon fill="none" stroke="black" points="139.12,-148.62 139.12,-167.88 245.38,-167.88 245.38,-148.62 139.12,-148.62"/>
<text text-anchor="start" x="182.5" y="-155.38" font-family="Helvetica,sans-Serif" font-weight="bold" font-size="10.00">&lt;w&gt;</text>
<polygon fill="none" stroke="black" points="139.12,-130.12 139.12,-148.62 245.38,-148.62 245.38,-130.12 139.12,-130.12"/>
<text text-anchor="start" x="143.12" y="-135.12" font-family="Helvetica,sans-Serif" font-size="10.00">あか</text>
<polygon fill="none" stroke="black" points="139.12,-110.12 139.12,-130.12 245.38,-130.12 245.38,-110.12 139.12,-110.12"/>
<text text-anchor="start" x="143.12" y="-116.62" font-family="Helvetica,sans-Serif" font-size="10.00">lemmaRef: #あか.飽く</text>
</g>
<!-- l2&#45;&gt;w2 -->
<g id="edge5" class="edge">
<title>l2&#45;&gt;w2</title>
<path fill="none" stroke="#7aaad0" stroke-width="0.8" stroke-dasharray="5,2" d="M50.98,-139C69.37,-139 100.24,-139 128.34,-139"/>
<polygon fill="#7aaad0" stroke="#7aaad0" stroke-width="0.8" points="128.14,-142.5 138.14,-139 128.14,-135.5 128.14,-142.5"/>
</g>
<!-- w2&#45;&gt;hom_aka_aku -->
<g id="edge11" class="edge">
<title>w2&#45;&gt;hom_aka_aku</title>
<path fill="none" stroke="#4477bb" stroke-width="2" d="M234.06,-176.33C244.77,-186.12 253.38,-194 253.38,-194 253.38,-194 331.38,-269 331.38,-269 331.38,-269 340.79,-277.68 350.5,-286.63"/>
<polygon fill="#4477bb" stroke="#4477bb" stroke-width="2" points="236.7,-174 226.95,-169.83 231.97,-179.16 236.7,-174"/>
<text text-anchor="middle" x="273.94" y="-223.84" font-family="Helvetica,sans-Serif" font-size="8.00">lemmaRef</text>
</g>
</g>
</svg>
